<svg width="22" height="22" viewBox="0 0 22 22" fill="none" xmlns="http://www.w3.org/2000/svg">
<path fill-rule="evenodd" clip-rule="evenodd" d="M17.6412 10.1484L13.2228 5.5788C13.2816 5.3856 13.3236 5.184 13.3236 4.9656C13.3236 3.882 12.4584 3 11.4 3C10.3416 3 9.47641 3.882 9.47641 4.9656C9.47641 5.1588 9.51 5.3436 9.5604 5.52L5.0916 10.1484H3.63C3.2856 10.1484 3 10.434 3 10.7784C3 11.1312 3.2856 11.4084 3.63 11.4084H3.8316L4.3272 17.2548C4.47 18.6996 5.5032 19.8 6.7296 19.8H16.0704C17.2968 19.8 18.33 18.6996 18.4728 17.238L18.8928 11.4084H19.17C19.5144 11.4084 19.8 11.1312 19.8 10.7784C19.8 10.434 19.5144 10.1484 19.17 10.1484H17.6412ZM12.0636 4.9656C12.0636 5.3604 11.7696 5.6796 11.4 5.6796C11.0304 5.6796 10.7364 5.3604 10.7364 4.9656C10.7364 4.5792 11.0304 4.26 11.4 4.26C11.7696 4.26 12.0636 4.5792 12.0636 4.9656ZM11.4 6.9396C11.7948 6.9396 12.1644 6.8136 12.4668 6.6036L15.8856 10.1484H6.83881L10.2912 6.5784C10.602 6.8052 10.9884 6.9396 11.4 6.9396ZM7.2672 14.0796C7.2672 13.7268 7.5528 13.4496 7.8972 13.4496C8.25 13.4496 8.5272 13.7268 8.5272 14.0796V15.8688C8.5272 16.2132 8.25 16.4988 7.8972 16.4988C7.5528 16.4988 7.2672 16.2132 7.2672 15.8688V14.0796ZM10.7196 14.0796C10.7196 13.7268 11.0052 13.4496 11.3496 13.4496C11.7024 13.4496 11.9796 13.7268 11.9796 14.0796V15.8688C11.9796 16.2132 11.7024 16.4988 11.3496 16.4988C11.0052 16.4988 10.7196 16.2132 10.7196 15.8688V14.0796ZM14.802 16.4988C14.4576 16.4988 14.172 16.2132 14.172 15.8688V14.0796C14.172 13.7268 14.4576 13.4496 14.802 13.4496C15.1548 13.4496 15.432 13.7268 15.432 14.0796V15.8688C15.432 16.2132 15.1548 16.4988 14.802 16.4988Z" fill="#47131A"/>
</svg>
