<svg width="22" height="22" viewBox="0 0 22 22" fill="none" xmlns="http://www.w3.org/2000/svg">
<path fill-rule="evenodd" clip-rule="evenodd" d="M4.86998 2.75C3.60088 2.75 2.73999 3.65944 2.73999 4.6V17.4C2.73999 18.3327 3.60326 19.25 4.86998 19.25H11.12C12.3891 19.25 13.25 18.3406 13.25 17.4V16.14C13.25 15.5877 13.6977 15.14 14.25 15.14C14.8023 15.14 15.25 15.5877 15.25 16.14V17.4C15.25 19.6194 13.3109 21.25 11.12 21.25H4.86998C2.6767 21.25 0.73999 19.6073 0.73999 17.4V4.6C0.73999 2.38056 2.67908 0.75 4.86998 0.75H11.12C13.3133 0.75 15.25 2.39272 15.25 4.6V5.86C15.25 6.41228 14.8023 6.86 14.25 6.86C13.6977 6.86 13.25 6.41228 13.25 5.86V4.6C13.25 3.66728 12.3867 2.75 11.12 2.75H4.86998Z" fill="#47131A"/>
<path fill-rule="evenodd" clip-rule="evenodd" d="M9.28003 11C9.28003 10.4477 9.72774 10 10.28 10H20.23C20.7823 10 21.23 10.4477 21.23 11C21.23 11.5523 20.7823 12 20.23 12H10.28C9.72774 12 9.28003 11.5523 9.28003 11Z" fill="#47131A"/>
<path fill-rule="evenodd" clip-rule="evenodd" d="M16.2607 7.03505C16.65 6.64333 17.2832 6.6414 17.6749 7.03072L20.9549 10.2907C21.3466 10.6801 21.3486 11.3132 20.9592 11.7049C20.5699 12.0966 19.9367 12.0986 19.545 11.7093L16.265 8.44926C15.8733 8.05993 15.8714 7.42677 16.2607 7.03505Z" fill="#47131A"/>
<path fill-rule="evenodd" clip-rule="evenodd" d="M20.9592 10.2951C21.3486 10.6868 21.3466 11.3199 20.9549 11.7093L17.6749 14.9693C17.2832 15.3586 16.65 15.3567 16.2607 14.9649C15.8714 14.5732 15.8733 13.9401 16.265 13.5507L19.545 10.2907C19.9367 9.90141 20.5699 9.90334 20.9592 10.2951Z" fill="#47131A"/>
</svg>
