<svg width="115" height="32" viewBox="0 0 115 32" fill="none" xmlns="http://www.w3.org/2000/svg">
<path fill-rule="evenodd" clip-rule="evenodd" d="M30.6001 29.7729V10.0999H38.2001C39.2365 10.0999 40.1868 10.3509 41.0162 10.8812C41.836 11.3947 42.4733 12.0951 42.9205 12.9643C43.3882 13.8232 43.6144 14.7733 43.6144 15.7938C43.6144 16.5967 43.4769 17.3512 43.1838 18.0421C43.011 18.4494 42.7831 18.8591 42.506 19.2712C43.0515 19.7528 43.4916 20.3007 43.8099 20.9191C44.2731 21.7694 44.5039 22.6924 44.5039 23.6724C44.5039 24.4208 44.3618 25.1603 44.0871 25.8862L44.0856 25.8902L44.0841 25.8942C43.8084 26.6031 43.4227 27.2464 42.9285 27.8196C42.4324 28.3952 41.8527 28.8657 41.1923 29.2259L41.1877 29.2284L41.1831 29.2308C40.5059 29.5906 39.7783 29.7729 39.0133 29.7729H30.6001ZM39.4079 16.9159L39.411 16.9095C39.589 16.5406 39.6732 16.1718 39.6732 15.7938C39.6732 15.2487 39.518 14.833 39.2325 14.4926L39.222 14.4801L39.2119 14.4672C38.9832 14.1744 38.6836 14.0157 38.2001 14.0157H34.5159V18.0294H38.1238C38.3486 18.0294 38.5529 17.9619 38.7637 17.7922C39.0248 17.5643 39.2394 17.2788 39.4049 16.9223L39.4079 16.9159ZM40.1082 22.3289L40.1038 22.3234C39.8466 21.997 39.5376 21.8435 39.0896 21.8435H34.5159V25.8571H39.0133C39.2526 25.8571 39.4599 25.7836 39.6688 25.6031C39.9344 25.3738 40.1522 25.0856 40.3198 24.7246C40.4862 24.3663 40.5627 24.0181 40.5627 23.6724C40.5627 23.1275 40.4073 22.6971 40.1127 22.3344L40.1082 22.3289ZM46.1224 29.7729L52.6988 10.0999H56.6205L63.2249 29.7729H59.0761L57.5767 25.249H51.7436L50.2441 29.7729H46.1224ZM54.6691 16.4614L52.9302 21.6637H56.3935L54.6691 16.4614ZM65.8135 29.7729V10.0999H73.4134C74.4499 10.0999 75.4002 10.3509 76.2295 10.8812C77.0494 11.3947 77.6866 12.095 78.1338 12.9643C78.6016 13.8232 78.8277 14.7732 78.8277 15.7938C78.8277 16.5967 78.6903 17.3512 78.3972 18.0421C78.2244 18.4494 77.9965 18.8591 77.7194 19.2712C78.2649 19.7528 78.7049 20.3007 79.0233 20.919C79.4865 21.7693 79.7172 22.6924 79.7172 23.6724C79.7172 24.4208 79.5752 25.1603 79.3005 25.8862L79.299 25.8902L79.2974 25.8942C79.0218 26.6031 78.6361 27.2464 78.1419 27.8196C77.6458 28.3952 77.0661 28.8657 76.4057 29.2259L76.4011 29.2284L76.3965 29.2308C75.7193 29.5906 74.9917 29.7729 74.2267 29.7729H65.8135ZM74.6213 16.9159L74.6244 16.9095C74.8024 16.5406 74.8866 16.1718 74.8866 15.7938C74.8866 15.2487 74.7314 14.833 74.4459 14.4926L74.4354 14.4801L74.4253 14.4672C74.1966 14.1744 73.897 14.0157 73.4134 14.0157H69.7292V18.0294H73.3372C73.562 18.0294 73.7663 17.9619 73.9772 17.7922C74.2382 17.5643 74.4528 17.2788 74.6183 16.9223L74.6213 16.9159ZM75.3216 22.3289L75.3172 22.3234C75.06 21.997 74.751 21.8435 74.303 21.8435H69.7292V25.8571H74.2267C74.466 25.8571 74.6733 25.7836 74.8822 25.6031C75.1478 25.3738 75.3656 25.0856 75.5332 24.7246C75.6996 24.3663 75.7761 24.0181 75.7761 23.6724C75.7761 23.1275 75.6207 22.6971 75.326 22.3344L75.3216 22.3289ZM82.6756 29.7729V10.0999H90.2756C91.312 10.0999 92.2623 10.3509 93.0917 10.8812C93.9115 11.3947 94.5488 12.0951 94.996 12.9644C95.4637 13.8233 95.6898 14.7733 95.6898 15.7938C95.6898 16.5967 95.5524 17.3512 95.2593 18.0421C95.0865 18.4494 94.8586 18.8591 94.5815 19.2712C95.127 19.7528 95.5671 20.3008 95.8855 20.9191C96.3487 21.7695 96.5794 22.6924 96.5794 23.6724C96.5794 24.4208 96.4373 25.1603 96.1626 25.8862L96.1611 25.8902L96.1595 25.8942C95.8839 26.6031 95.4982 27.2464 95.004 27.8196C94.5079 28.3952 93.9282 28.8657 93.2678 29.2259L93.2632 29.2284L93.2586 29.2308C92.5814 29.5906 91.8538 29.7729 91.0888 29.7729H82.6756ZM91.4834 16.9159L91.4865 16.9095C91.6645 16.5406 91.7487 16.1718 91.7487 15.7938C91.7487 15.2487 91.5935 14.833 91.308 14.4926L91.2975 14.4801L91.2874 14.4672C91.0587 14.1744 90.7591 14.0157 90.2756 14.0157H86.5914V18.0294H90.1993C90.4241 18.0294 90.6284 17.9619 90.8393 17.7922C91.1003 17.5643 91.3149 17.2788 91.4804 16.9223L91.4834 16.9159ZM92.1837 22.3289L92.1793 22.3234C91.9221 21.997 91.6131 21.8435 91.1651 21.8435H86.5914V25.8571H91.0888C91.3281 25.8571 91.5354 25.7836 91.7443 25.6031C92.0099 25.3738 92.2277 25.0856 92.3953 24.7246C92.5617 24.3663 92.6382 24.0181 92.6382 23.6724C92.6382 23.1275 92.4828 22.6971 92.1881 22.3344L92.1837 22.3289ZM110.466 10.0999H114.356V29.7729H110.466V28.8305C110.241 28.9702 110.008 29.0994 109.766 29.2179C108.85 29.675 107.859 29.8999 106.807 29.8999C105.437 29.8999 104.168 29.5843 103.018 28.9415L103.01 28.9368L103.002 28.932C101.891 28.2805 100.991 27.4116 100.316 26.3315L100.314 26.3284L100.312 26.3252C99.6239 25.2042 99.2836 23.9564 99.2836 22.605V10.0999H103.172L103.199 22.6029L103.199 22.605C103.199 23.2301 103.356 23.7856 103.667 24.2928C103.986 24.7959 104.418 25.2042 104.98 25.52C105.528 25.8274 106.131 25.9842 106.807 25.9842C107.548 25.9842 108.177 25.8294 108.718 25.5411C109.27 25.23 109.686 24.8221 109.987 24.3125L109.991 24.3048L109.996 24.2973C110.309 23.7889 110.466 23.2319 110.466 22.605V10.0999Z" fill="#47131A"/>
<path d="M24.2012 16.1691C22.7645 10.7352 17.6167 10.3082 17.6167 10.3082C17.6167 10.3082 17.486 9.30806 16.9018 8.28382C15.9984 8.2796 14.9115 9.97582 14.9115 9.97582H10.4443C10.4443 9.97582 9.35721 8.2796 8.45402 8.28382C7.86975 9.30797 7.73907 10.3082 7.73907 10.3082C7.73907 10.3082 2.77968 10.7357 1.15465 16.1691C0.697719 17.697 0.283203 22.6301 0.283203 24.9992C0.283203 29.0375 2.58154 31.5183 6.68273 31.6833L8.79437 31.7163C9.44041 31.7163 15.8729 31.7163 16.536 31.7163L18.6318 31.6819L18.6731 31.683C22.7743 31.518 25.0726 29.0373 25.0726 24.9989C25.0726 22.63 24.6089 17.7107 24.2012 16.1691Z" fill="url(#paint0_radial_1044_16763)"/>
<path d="M16.5358 32C15.8072 32 9.40473 32 8.7944 32H8.79027L6.6782 31.9665H6.67131C5.62625 31.9245 4.67599 31.7342 3.84679 31.4002C3.02215 31.0683 2.31322 30.5935 1.73945 29.9888C1.16861 29.3873 0.730952 28.6567 0.438778 27.8172C0.147464 26.9805 0 26.0323 0 24.9991C0 22.7008 0.404363 17.6896 0.883319 16.0876C1.26549 14.8097 1.86145 13.6951 2.6546 12.7756C3.29049 12.0381 4.05302 11.4244 4.92085 10.9517C6.05651 10.3329 7.06553 10.1208 7.49579 10.0536C7.56823 9.6908 7.76086 8.92613 8.20807 8.14295C8.23272 8.09972 8.26832 8.06374 8.31129 8.03864C8.35426 8.01355 8.40308 8.00022 8.45284 8H8.45748C8.91459 8 9.43277 8.31525 9.99751 8.93723C10.2125 9.17589 10.412 9.42799 10.5949 9.692H14.7611C14.9441 9.42799 15.1436 9.17589 15.3586 8.93723C15.9234 8.31534 16.4416 8 16.8986 8H16.9033C16.953 8.00022 17.0018 8.01355 17.0448 8.03864C17.0878 8.06374 17.1234 8.09972 17.148 8.14295C17.5947 8.92613 17.7875 9.68942 17.8601 10.0526C18.3006 10.1185 19.3447 10.3295 20.5041 10.9509C21.3868 11.4243 22.1532 12.0386 22.7819 12.7771C23.5668 13.699 24.1366 14.8159 24.4753 16.0967C24.6699 16.8322 24.8874 18.3448 25.072 20.2464C25.2499 22.0787 25.3559 23.8555 25.3559 24.9993C25.3559 26.0325 25.2083 26.9806 24.9172 27.8173C24.6246 28.6569 24.1873 29.3875 23.6165 29.989C23.0427 30.5935 22.3338 31.0683 21.5091 31.4004C20.6799 31.7342 19.7296 31.9247 18.6846 31.9667C18.6713 31.9672 18.658 31.9669 18.6448 31.9656H18.6362L16.5404 32H16.5358ZM11.9235 31.4329H16.5334L18.6268 31.3985C18.6378 31.3983 18.6489 31.3988 18.6598 31.3999H18.6614C19.6414 31.3605 20.5283 31.1836 21.2971 30.874C22.0456 30.5728 22.6876 30.1435 23.205 29.5984C23.7201 29.0557 24.1159 28.3935 24.3815 27.6307C24.6519 26.854 24.789 25.9686 24.789 24.999C24.789 23.8724 24.6837 22.1159 24.5075 20.301C24.3283 18.456 24.1117 16.9383 23.927 16.2414C23.6115 15.0484 23.0838 14.0101 22.3594 13.1554C21.7797 12.4718 21.0721 11.9017 20.256 11.4611C19.6679 11.1452 19.0432 10.9029 18.396 10.7396C17.9111 10.6181 17.5958 10.5902 17.5927 10.59C17.5282 10.5845 17.4676 10.5571 17.4208 10.5124C17.374 10.4677 17.3439 10.4084 17.3354 10.3443C17.3343 10.3357 17.2175 9.48958 16.7458 8.58859C16.4815 8.66191 16.1465 8.91236 15.7822 9.31229C15.5515 9.56815 15.3401 9.84074 15.1496 10.1278C15.1239 10.1678 15.0887 10.2006 15.047 10.2234C15.0054 10.2462 14.9587 10.2581 14.9112 10.2582H10.4442C10.3967 10.2582 10.35 10.2462 10.3083 10.2234C10.2666 10.2006 10.2313 10.1677 10.2056 10.1277C10.0152 9.84094 9.80381 9.56864 9.57318 9.31307C9.20908 8.91322 8.87398 8.66269 8.60959 8.58936C8.13795 9.48993 8.02111 10.3364 8.01991 10.345C8.01136 10.409 7.9813 10.4681 7.93466 10.5127C7.88803 10.5573 7.82761 10.5847 7.76335 10.5903C7.76069 10.5903 7.45724 10.6185 6.98697 10.7399C6.35418 10.905 5.74409 11.1474 5.17044 11.4615C4.36687 11.9024 3.6613 12.4732 3.07334 13.1579C2.33765 14.0145 1.7835 15.0551 1.42568 16.2504C1.22376 16.9256 1.00635 18.3999 0.82929 20.2953C0.666942 22.0326 0.566109 23.8351 0.566109 24.9996C0.566109 25.9692 0.703162 26.8546 0.97357 27.6313C1.23916 28.3942 1.63501 29.0563 2.1501 29.599C2.66742 30.1441 3.30933 30.5733 4.058 30.8746C4.82595 31.1838 5.71151 31.3606 6.69024 31.4004L8.79612 31.4334L11.9235 31.4329Z" fill="#47131A"/>
<path d="M18.2061 29.613C18.2915 30.6426 18.2767 31.4686 18.2767 31.4686H7.05426C6.48221 30.5588 6.98008 30.4258 7.05426 29.613C7.05461 23.8394 17.9791 23.6725 18.2061 29.613Z" fill="#FE7825"/>
<path d="M18.2061 29.613C18.2915 30.6426 18.2767 31.4686 18.2767 31.4686H7.05426C6.48221 30.5588 6.98008 30.4258 7.05426 29.613C7.05461 23.8394 17.9791 23.6725 18.2061 29.613Z" fill="url(#paint1_linear_1044_16763)"/>
<path d="M23.9517 16.1998C23.9517 16.1998 23.1946 16.359 21.9355 17.8757C20.7772 19.271 21.0781 21.7556 24.5547 21.5005C24.5547 19.2301 23.9517 16.1998 23.9517 16.1998Z" fill="#FE7825"/>
<path d="M23.9517 16.1998C23.9517 16.1998 23.1946 16.359 21.9355 17.8757C20.7772 19.271 21.0781 21.7556 24.5547 21.5005C24.5547 19.2301 23.9517 16.1998 23.9517 16.1998Z" fill="url(#paint2_linear_1044_16763)"/>
<path d="M0.568359 23.6756C0.568359 23.6756 2.38369 23.8547 2.4015 22.0505C2.41389 20.7887 0.792653 20.6784 0.792653 20.6784L0.568359 23.6756Z" fill="#FE7825"/>
<path d="M0.568359 23.6756C0.568359 23.6756 2.38369 23.8547 2.4015 22.0505C2.41389 20.7887 0.792653 20.6784 0.792653 20.6784L0.568359 23.6756Z" fill="url(#paint3_linear_1044_16763)"/>
<path d="M20.2181 31.2645C23.9203 30.3952 25.0171 27.4297 24.7579 23.8576C24.6822 26.843 21.4857 29.3829 20.069 29.5559C17.5199 25.2378 13.4558 25.2378 13.4558 25.2378C16.7046 25.6733 18.0348 27.7121 18.1649 29.4612C18.1649 29.4612 18.2843 30.6927 18.2677 31.4295C19.3339 31.4295 20.2181 31.2645 20.2181 31.2645Z" fill="#F6A505"/>
<path d="M5.12764 31.268C1.42538 30.3987 0.328612 27.4332 0.587921 23.861C0.66346 26.8464 3.86 29.3863 5.27682 29.5594C7.82586 25.2412 11.89 25.2412 11.89 25.2412C8.6413 25.6767 7.31103 27.7156 7.18086 29.4647C7.18086 29.4647 7.06144 30.6962 7.07822 31.433C6.01182 31.4329 5.12764 31.268 5.12764 31.268Z" fill="#F6A505"/>
<path d="M10.2281 10.1623C10.2281 10.1623 11.6893 14.0088 8.54412 14.4734C5.09051 14.9836 4.15869 12.1271 4.15869 12.1271C4.54508 11.7889 6.04231 10.7743 7.94203 10.5166C8.26402 9.08332 8.60211 8.58408 8.60211 8.58408C8.60211 8.58408 9.18168 8.63239 10.2281 10.1623Z" fill="#FE7825"/>
<path d="M10.2281 10.1623C10.2281 10.1623 11.6893 14.0088 8.54412 14.4734C5.09051 14.9836 4.15869 12.1271 4.15869 12.1271C4.54508 11.7889 6.04231 10.7743 7.94203 10.5166C8.26402 9.08332 8.60211 8.58408 8.60211 8.58408C8.60211 8.58408 9.18168 8.63239 10.2281 10.1623Z" fill="url(#paint4_linear_1044_16763)"/>
<g opacity="0.8" filter="url(#filter0_f_1044_16763)">
<path fill-rule="evenodd" clip-rule="evenodd" d="M13.0683 11.7207C13.1357 11.666 13.1853 11.5925 13.211 11.5096C13.2453 11.3983 13.2339 11.2779 13.1795 11.1749C13.1251 11.0719 13.032 10.9947 12.9207 10.9603C12.8378 10.9348 12.7492 10.9345 12.6661 10.9594C12.5829 10.9842 12.5091 11.0332 12.4538 11.1C12.3985 11.1669 12.3642 11.2486 12.3553 11.3349C12.3465 11.4213 12.3634 11.5083 12.4039 11.585C12.4444 11.6617 12.5068 11.7247 12.5831 11.766C12.6594 11.8072 12.7462 11.825 12.8326 11.8169C12.9189 11.8088 13.001 11.7753 13.0683 11.7207ZM14.7849 11.9446C17.7567 12.4169 20.251 13.8818 21.2359 14.6305C22.2207 15.3789 23.0062 14.2251 20.4025 12.6676C18.6511 11.6973 16.6517 11.1559 14.9497 11.0926C14.1272 11.0623 13.426 11.7287 14.7849 11.9446Z" fill="white"/>
</g>
<path d="M23.5908 20.8774C23.5711 20.8774 23.5515 20.8742 23.5328 20.8679L22.1652 20.4085C22.1202 20.3924 22.0834 20.3594 22.0625 20.3164C22.0416 20.2734 22.0385 20.224 22.0537 20.1787C22.0689 20.1335 22.1012 20.096 22.1437 20.0743C22.1863 20.0526 22.2356 20.0485 22.2812 20.0629L23.6488 20.5223C23.6898 20.5361 23.7245 20.564 23.7468 20.601C23.7691 20.638 23.7775 20.6818 23.7706 20.7245C23.7636 20.7671 23.7417 20.806 23.7088 20.834C23.6759 20.862 23.634 20.8774 23.5908 20.8774Z" fill="#47131A"/>
<path d="M23.7148 19.5147H22.2371C22.1896 19.5135 22.1445 19.4937 22.1113 19.4597C22.0781 19.4256 22.0596 19.38 22.0596 19.3325C22.0596 19.2849 22.0781 19.2393 22.1113 19.2052C22.1445 19.1712 22.1896 19.1514 22.2371 19.1502H23.7148C23.7623 19.1514 23.8075 19.1712 23.8406 19.2052C23.8738 19.2393 23.8924 19.2849 23.8924 19.3325C23.8924 19.38 23.8738 19.4256 23.8406 19.4597C23.8075 19.4937 23.7623 19.5135 23.7148 19.5147Z" fill="#47131A"/>
<path d="M2.35547 20.8771C2.31225 20.8771 2.27044 20.8617 2.23752 20.8337C2.20459 20.8057 2.18269 20.7669 2.17572 20.7242C2.16876 20.6815 2.17718 20.6378 2.19948 20.6007C2.22179 20.5637 2.25653 20.5358 2.29749 20.522L3.66513 20.0626C3.68794 20.0545 3.71215 20.0509 3.73633 20.0523C3.76051 20.0536 3.78419 20.0597 3.80597 20.0703C3.82775 20.0809 3.84721 20.0957 3.8632 20.1139C3.87919 20.1321 3.8914 20.1533 3.8991 20.1763C3.90681 20.1993 3.90986 20.2235 3.90808 20.2477C3.9063 20.2719 3.89973 20.2954 3.88874 20.317C3.87775 20.3386 3.86257 20.3578 3.84409 20.3734C3.8256 20.3891 3.80419 20.4009 3.78109 20.4082L2.41345 20.8676C2.39477 20.8739 2.37519 20.8771 2.35547 20.8771Z" fill="#47131A"/>
<path d="M3.70953 19.5149H2.23183C2.20752 19.5155 2.18332 19.5113 2.16067 19.5024C2.13802 19.4935 2.11738 19.4802 2.09996 19.4632C2.08254 19.4462 2.0687 19.4259 2.05924 19.4035C2.04979 19.3811 2.04492 19.357 2.04492 19.3327C2.04492 19.3083 2.04979 19.2842 2.05924 19.2618C2.0687 19.2394 2.08254 19.2191 2.09996 19.2021C2.11738 19.1851 2.13802 19.1718 2.16067 19.1629C2.18332 19.154 2.20752 19.1498 2.23183 19.1504H3.70953C3.75704 19.1516 3.80218 19.1714 3.83535 19.2054C3.86852 19.2395 3.88708 19.2851 3.88708 19.3327C3.88708 19.3802 3.86852 19.4259 3.83535 19.4599C3.80218 19.4939 3.75704 19.5137 3.70953 19.5149Z" fill="#47131A"/>
<path opacity="0.5" fill-rule="evenodd" clip-rule="evenodd" d="M19.0932 14.9979C17.9131 15.0062 17.1167 16.4384 17.1565 18.4668C17.1964 20.4959 18.0187 21.8974 19.1565 21.8896C20.2945 21.8818 21.091 20.4692 21.0936 18.4397C21.0963 16.4115 20.2738 14.99 19.0932 14.9979Z" fill="white"/>
<path fill-rule="evenodd" clip-rule="evenodd" d="M19.0687 14.8656C17.8885 14.8739 17.0894 16.163 17.1255 17.9862C17.1613 19.8104 17.9834 21.0687 19.1254 21.0611C20.2674 21.0534 21.0667 19.7839 21.069 17.9594C21.0715 16.136 20.2489 14.8577 19.0687 14.8656Z" fill="#47131A"/>
<path fill-rule="evenodd" clip-rule="evenodd" d="M19.335 16.6875C19.3374 17.0975 19.0092 17.4307 18.6019 17.433C18.1947 17.4353 17.8599 17.1062 17.8542 16.6964C17.8482 16.2863 18.1766 15.9501 18.5871 15.948C18.9975 15.9451 19.3325 16.2774 19.335 16.6875Z" fill="white"/>
<path fill-rule="evenodd" clip-rule="evenodd" d="M18.1708 23.0447C18.1687 22.5941 18.8 22.4059 19.5798 22.3944C20.3597 22.3832 21.1687 22.5567 21.178 23.007C21.1872 23.4573 20.3813 23.6523 19.5961 23.6635C18.811 23.6753 18.173 23.4954 18.1708 23.0447Z" fill="#FFB43C"/>
<path opacity="0.5" fill-rule="evenodd" clip-rule="evenodd" d="M6.56585 15.3365C5.38562 15.3579 4.59844 16.7993 4.65118 18.8274C4.70428 20.8557 5.53564 22.2483 6.67346 22.2276C7.81093 22.2073 8.59846 20.7851 8.58813 18.756C8.5778 16.7273 7.74608 15.3151 6.56585 15.3365Z" fill="white"/>
<path fill-rule="evenodd" clip-rule="evenodd" d="M6.56589 15.3369C5.38602 15.3583 4.59492 16.6567 4.64267 18.4797C4.69043 20.3031 5.52072 21.5526 6.66247 21.5319C7.80421 21.5113 8.59495 20.2325 8.58569 18.408C8.57642 16.5847 7.74577 15.3155 6.56589 15.3369Z" fill="#47131A"/>
<path fill-rule="evenodd" clip-rule="evenodd" d="M7.52862 16.7981C7.5329 17.2082 7.20648 17.546 6.79918 17.5534C6.39187 17.5613 6.05547 17.2364 6.04799 16.8267C6.04015 16.4166 6.36692 16.0764 6.77744 16.0685C7.18795 16.0607 7.52435 16.388 7.52862 16.7981Z" fill="white"/>
<path fill-rule="evenodd" clip-rule="evenodd" d="M5.17575 23.2694C5.2034 22.7997 6.01938 22.6525 6.79886 22.6961C7.57869 22.7398 8.20255 22.9622 8.18164 23.4323C8.16143 23.9023 7.5163 24.0633 6.73115 24.0193C5.94601 23.975 5.1481 23.7391 5.17575 23.2694Z" fill="#FFB43C"/>
<path opacity="0.5" d="M15.029 18.2265L14.6537 18.3052V18.3038C14.6537 18.3066 14.7052 18.5834 14.5294 18.797C14.3703 18.9902 14.0714 19.0886 13.6413 19.0886C13.5063 19.0886 13.3881 19.0602 13.3081 19.0084C13.2519 18.972 13.179 18.9052 13.167 18.7421C13.1677 18.7264 13.1682 18.7106 13.1682 18.6945V18.3065C13.1682 18.2812 13.1633 18.2563 13.1536 18.233C13.144 18.2097 13.1299 18.1885 13.1121 18.1707C13.0943 18.1529 13.0731 18.1387 13.0498 18.1291C13.0266 18.1195 13.0016 18.1145 12.9765 18.1145H12.9734C12.9483 18.1145 12.9233 18.1195 12.9001 18.1291C12.8768 18.1387 12.8556 18.1529 12.8378 18.1707C12.82 18.1885 12.8059 18.2097 12.7963 18.233C12.7866 18.2563 12.7817 18.2812 12.7817 18.3065V18.6945C12.7817 18.7106 12.7817 18.7264 12.7828 18.7421C12.7708 18.9049 12.6979 18.9717 12.6418 19.0084C12.5619 19.0602 12.4436 19.0886 12.3085 19.0886C11.8781 19.0886 11.5796 18.9907 11.4205 18.797C11.2446 18.5834 11.2957 18.3066 11.2962 18.3038V18.3052L10.921 18.2265C10.9171 18.2447 10.8307 18.6784 11.1207 19.0359C11.3555 19.3254 11.7552 19.4722 12.3089 19.4722C12.5975 19.4722 12.8265 19.3835 12.9753 19.2258C13.1242 19.3837 13.353 19.4722 13.6417 19.4722C14.1954 19.4722 14.5952 19.3254 14.83 19.0359C15.1189 18.6784 15.0328 18.2442 15.029 18.2265Z" fill="#F7F7F7"/>
<path d="M15.029 17.887L14.6537 17.9657V17.9643C14.6537 17.9671 14.7052 18.244 14.5294 18.4576C14.3703 18.6508 14.0714 18.7492 13.6413 18.7492C13.5063 18.7492 13.3881 18.7208 13.3081 18.6689C13.2519 18.6325 13.179 18.5657 13.167 18.4027C13.1677 18.387 13.1682 18.3711 13.1682 18.355V17.967C13.1682 17.9418 13.1633 17.9168 13.1536 17.8935C13.144 17.8702 13.1299 17.8491 13.1121 17.8313C13.0943 17.8134 13.0731 17.7993 13.0498 17.7897C13.0266 17.78 13.0016 17.7751 12.9765 17.7751H12.9734C12.9483 17.7751 12.9233 17.78 12.9001 17.7897C12.8768 17.7993 12.8556 17.8134 12.8378 17.8313C12.82 17.8491 12.8059 17.8702 12.7963 17.8935C12.7866 17.9168 12.7817 17.9418 12.7817 17.967V18.355C12.7817 18.3711 12.7817 18.387 12.7828 18.4027C12.7708 18.5655 12.6979 18.6323 12.6418 18.6689C12.5619 18.7208 12.4436 18.7492 12.3085 18.7492C11.8781 18.7492 11.5796 18.6513 11.4205 18.4576C11.2446 18.244 11.2957 17.9671 11.2962 17.9643V17.9657L10.921 17.887C10.9171 17.9053 10.8307 18.3389 11.1207 18.6964C11.3555 18.9859 11.7552 19.1327 12.3089 19.1327C12.5975 19.1327 12.8265 19.044 12.9753 18.8863C13.1242 19.0443 13.353 19.1327 13.6417 19.1327C14.1954 19.1327 14.5952 18.9859 14.83 18.6964C15.1189 18.3389 15.0328 17.9048 15.029 17.887Z" fill="#47131A"/>
<defs>
<filter id="filter0_f_1044_16763" x="2.35303" y="0.940948" width="29.812" height="23.9234" filterUnits="userSpaceOnUse" color-interpolation-filters="sRGB">
<feFlood flood-opacity="0" result="BackgroundImageFix"/>
<feBlend mode="normal" in="SourceGraphic" in2="BackgroundImageFix" result="shape"/>
<feGaussianBlur stdDeviation="5" result="effect1_foregroundBlur_1044_16763"/>
</filter>
<radialGradient id="paint0_radial_1044_16763" cx="0" cy="0" r="1" gradientUnits="userSpaceOnUse" gradientTransform="translate(12.6651 16.748) rotate(89.9511) scale(14.9684 15.8351)">
<stop stop-color="#FFEF9E"/>
<stop offset="0.452438" stop-color="#FFD921"/>
<stop offset="1" stop-color="#FAD001"/>
</radialGradient>
<linearGradient id="paint1_linear_1044_16763" x1="45.777" y1="29.546" x2="5.20387" y2="15.9479" gradientUnits="userSpaceOnUse">
<stop offset="0.369792" stop-color="#E64500" stop-opacity="0.81"/>
<stop offset="0.572917" stop-color="#FF5C00" stop-opacity="0.79"/>
<stop offset="0.927083" stop-color="#FF9921"/>
</linearGradient>
<linearGradient id="paint2_linear_1044_16763" x1="32.2761" y1="19.8821" x2="19.7572" y2="18.4981" gradientUnits="userSpaceOnUse">
<stop offset="0.369792" stop-color="#E64500" stop-opacity="0.81"/>
<stop offset="0.572917" stop-color="#FF5C00" stop-opacity="0.79"/>
<stop offset="0.927083" stop-color="#FF9921"/>
</linearGradient>
<linearGradient id="paint3_linear_1044_16763" x1="6.78718" y1="22.7568" x2="-0.322255" y2="21.9658" gradientUnits="userSpaceOnUse">
<stop offset="0.369792" stop-color="#E64500" stop-opacity="0.81"/>
<stop offset="0.572917" stop-color="#FF5C00" stop-opacity="0.79"/>
<stop offset="0.927083" stop-color="#FF9921"/>
</linearGradient>
<linearGradient id="paint4_linear_1044_16763" x1="25.8979" y1="12.7036" x2="1.67047" y2="7.9499" gradientUnits="userSpaceOnUse">
<stop offset="0.369792" stop-color="#E64500" stop-opacity="0.81"/>
<stop offset="0.572917" stop-color="#FF5C00" stop-opacity="0.79"/>
<stop offset="0.927083" stop-color="#FF9921"/>
</linearGradient>
</defs>
</svg>
