<svg width="22" height="22" viewBox="0 0 22 22" fill="none" xmlns="http://www.w3.org/2000/svg">
<mask id="mask0_1602_19720" style="mask-type:alpha" maskUnits="userSpaceOnUse" x="0" y="0" width="22" height="22">
<path d="M22 0H0V22H22V0Z" fill="white"/>
</mask>
<g mask="url(#mask0_1602_19720)">
<path d="M14.5742 3.77148C15.1513 3.77148 15.6456 4.1274 15.849 4.63173H16.7257C17.4847 4.63173 18.0999 5.24698 18.0999 6.00592V8.07454C18.0999 9.60929 17.0842 10.9588 15.6094 11.3836C14.957 13.0486 13.4578 14.2326 11.687 14.4815V15.1329H12.9361L13.0397 15.1351C14.2751 15.1874 15.2764 16.1727 15.3419 17.4319L15.363 18.2285H6.65516V17.5414C6.65516 16.2112 7.73348 15.1329 9.06366 15.1329H10.3128V14.4819C8.54181 14.2329 7.04251 13.0487 6.38994 11.3836C4.91534 10.9586 3.8999 9.60917 3.8999 8.07454V6.00638C3.8999 5.24743 4.51515 4.63219 5.2741 4.63219L6.15083 4.63173C6.36061 4.11187 6.86504 3.77148 7.42562 3.77148H14.5742ZM6.05097 6.00592H5.2741V8.07454C5.2741 8.72912 5.57779 9.31223 6.05235 9.69151L6.05143 9.58066L6.05097 6.00592ZM15.9484 9.58066L15.9475 9.69105C16.4398 9.29889 16.7264 8.70353 16.7257 8.07408V6.00684L15.9484 6.00638V9.58112V9.58066Z" fill="#47131A"/>
</g>
</svg>
