<svg width="20" height="20" viewBox="0 0 20 20" fill="none" xmlns="http://www.w3.org/2000/svg">
<path fill-rule="evenodd" clip-rule="evenodd" d="M10.3543 8.73284C11.6702 8.39419 12.6425 7.1997 12.6425 5.77811C12.6425 4.09319 11.2766 2.72729 9.59165 2.72729C7.90673 2.72729 6.54083 4.09319 6.54083 5.77811C6.54083 7.19965 7.51307 8.3941 8.82887 8.7328V10.3776C5.39682 10.5884 2.7274 12.205 2.7274 14.1679L2.72735 14.2539C2.7264 15.3128 2.72496 16.928 3.93873 17.6001C4.72808 18.0371 6.79026 18.0118 8.54989 17.9902C8.91484 17.9857 9.26677 17.9814 9.59164 17.9814C9.88677 17.9814 10.2054 17.9843 10.5364 17.9874C12.3264 18.0039 14.4792 18.0238 15.2445 17.6001C16.4583 16.928 16.4569 15.3128 16.4559 14.2539L16.4559 14.1679C16.4559 12.2049 13.7864 10.5884 10.3543 10.3776V8.73284Z" fill="#F6B200"/>
</svg>
