<svg width="41" height="40" viewBox="0 0 41 40" fill="none" xmlns="http://www.w3.org/2000/svg">
<path d="M20.3096 18.285L35.165 9.71094C35.165 9.71094 35.691 10.1286 36.1048 10.8462C36.5187 11.5638 36.6924 12.2968 36.6924 12.2968L21.8095 20.883V37.918C21.8095 37.918 20.9911 38.1055 20.1626 38.1055C19.3342 38.1055 18.8095 37.9258 18.8095 37.9258V20.883L3.92871 12.3004C3.92871 11.7134 4.95163 10.1542 5.44965 9.71436L20.3096 18.285Z" fill="#FFDC60"/>
<path fill-rule="evenodd" clip-rule="evenodd" d="M17.8961 2.4824C18.63 2.05936 19.4624 1.83667 20.3096 1.83667C21.1567 1.83667 21.989 2.05934 22.723 2.48233C22.7241 2.48296 22.7251 2.48359 22.7262 2.48421L34.3929 9.15087C35.1269 9.57466 35.7366 10.184 36.1608 10.9179C36.585 11.6517 36.8087 12.4841 36.8096 13.3317L36.8096 13.3333V26.6666L36.8096 26.6681C36.8087 27.5157 36.585 28.3482 36.1608 29.082C35.7366 29.8158 35.1269 30.4252 34.3929 30.849L34.3871 30.8523L22.7262 37.5156C22.7252 37.5162 22.7241 37.5169 22.723 37.5175C21.989 37.9405 21.1568 38.1632 20.3096 38.1632C19.4623 38.1632 18.63 37.9405 17.896 37.5174C17.895 37.5168 17.8939 37.5162 17.8929 37.5156L6.23203 30.8523L6.22624 30.849C5.4922 30.4252 4.88252 29.8158 4.45835 29.082C4.03418 28.3482 3.81044 27.5157 3.80957 26.6681V13.3317C3.81044 12.4841 4.03418 11.6517 4.45835 10.9179C4.88252 10.184 5.4922 9.57467 6.22624 9.15088L6.23202 9.14754L17.8961 2.4824ZM20.3096 4.83667C19.9878 4.83667 19.6716 4.92138 19.3929 5.08229L19.3871 5.08563L7.72624 11.749C7.72544 11.7494 7.72465 11.7499 7.72385 11.7503C7.44649 11.911 7.21609 12.1416 7.05566 12.4192C6.89488 12.6973 6.81002 13.0128 6.80957 13.3341V26.6657C6.81002 26.987 6.89488 27.3025 7.05566 27.5806C7.21607 27.8582 7.44643 28.0887 7.72373 28.2494C7.72457 28.2499 7.7254 28.2504 7.72624 28.2509L19.3929 34.9175C19.6716 35.0785 19.9878 35.1632 20.3096 35.1632C20.6314 35.1632 20.9475 35.0785 21.2262 34.9175L21.232 34.9142L32.8929 28.2509C32.8937 28.2504 32.8946 28.2499 32.8954 28.2494C33.1727 28.0887 33.4031 27.8582 33.5635 27.5806C33.7244 27.3023 33.8092 26.9865 33.8096 26.665V13.3348C33.8092 13.0133 33.7244 12.6975 33.5635 12.4192C33.403 12.1416 33.1727 11.911 32.8953 11.7503C32.8945 11.7499 32.8937 11.7494 32.8929 11.749L21.2262 5.0823C20.9475 4.92139 20.6314 4.83667 20.3096 4.83667Z" fill="#47131A"/>
<path d="M19.3929 5.08229C19.6716 4.92138 19.9878 4.83667 20.3096 4.83667C20.6314 4.83667 20.9475 4.92139 21.2262 5.0823L32.8929 11.749C32.8937 11.7494 32.8945 11.7499 32.8953 11.7503C33.1727 11.911 33.403 12.1416 33.5635 12.4192C33.7244 12.6975 33.8092 13.0133 33.8096 13.3348V26.665C33.8092 26.9865 33.7244 27.3023 33.5635 27.5806C33.4031 27.8582 33.1727 28.0887 32.8954 28.2494C32.8946 28.2499 32.8937 28.2504 32.8929 28.2509L21.232 34.9142L21.2262 34.9175C20.9475 35.0785 20.6314 35.1632 20.3096 35.1632C19.9878 35.1632 19.6716 35.0785 19.3929 34.9175L7.72624 28.2509C7.7254 28.2504 7.72457 28.2499 7.72373 28.2494C7.44643 28.0887 7.21607 27.8582 7.05566 27.5806C6.89488 27.3025 6.81002 26.987 6.80957 26.6657V13.3341C6.81002 13.0128 6.89488 12.6973 7.05566 12.4192C7.21609 12.1416 7.44649 11.911 7.72385 11.7503C7.72465 11.7499 7.72544 11.7494 7.72624 11.749L19.3871 5.08563L19.3929 5.08229Z" fill="#47131A"/>
<path d="M27.1089 26.6367V30H15.8159V26.6367H19.562V17.0664C19.0151 17.5221 18.4227 17.8685 17.7847 18.1055C17.1466 18.3424 16.5451 18.5247 15.98 18.6523V14.9609C16.8914 14.6875 17.7756 14.2591 18.6323 13.6758C19.5073 13.0924 20.2365 12.4271 20.8198 11.6797H23.3354V26.6367H27.1089Z" fill="white"/>
</svg>
