<svg width="41" height="40" viewBox="0 0 41 40" fill="none" xmlns="http://www.w3.org/2000/svg">
<path d="M20.3091 18.285L35.1646 9.71094C35.1646 9.71094 35.6905 10.1286 36.1044 10.8462C36.5182 11.5638 36.6919 12.2968 36.6919 12.2968L21.8091 20.883V37.918C21.8091 37.918 20.9906 38.1055 20.1622 38.1055C19.3337 38.1055 18.8091 37.9258 18.8091 37.9258V20.883L3.92822 12.3004C3.92822 11.7134 4.95114 10.1542 5.44916 9.71436L20.3091 18.285Z" fill="#FFDC60"/>
<path fill-rule="evenodd" clip-rule="evenodd" d="M17.8956 2.4824C18.6296 2.05936 19.4619 1.83667 20.3091 1.83667C21.1563 1.83667 21.9885 2.05934 22.7225 2.48233C22.7236 2.48296 22.7247 2.48359 22.7257 2.48421L34.3924 9.15087C35.1265 9.57466 35.7361 10.184 36.1603 10.9179C36.5845 11.6517 36.8082 12.4841 36.8091 13.3317L36.8091 13.3333V26.6666L36.8091 26.6681C36.8082 27.5157 36.5845 28.3482 36.1603 29.082C35.7361 29.8158 35.1264 30.4252 34.3924 30.849L34.3866 30.8523L22.7257 37.5156C22.7247 37.5162 22.7236 37.5169 22.7225 37.5175C21.9886 37.9405 21.1563 38.1632 20.3091 38.1632C19.4619 38.1632 18.6295 37.9405 17.8955 37.5174C17.8945 37.5168 17.8935 37.5162 17.8924 37.5156L6.23154 30.8523L6.22575 30.849C5.49172 30.4252 4.88203 29.8158 4.45786 29.082C4.03369 28.3482 3.80995 27.5157 3.80908 26.6681V13.3317C3.80995 12.4841 4.03369 11.6517 4.45786 10.9179C4.88203 10.184 5.49172 9.57467 6.22575 9.15088L6.23153 9.14754L17.8956 2.4824ZM20.3091 4.83667C19.9873 4.83667 19.6711 4.92138 19.3924 5.08229L19.3866 5.08563L7.72575 11.749C7.72495 11.7494 7.72416 11.7499 7.72337 11.7503C7.446 11.911 7.2156 12.1416 7.05517 12.4192C6.89439 12.6973 6.80953 13.0128 6.80908 13.3341V26.6657C6.80953 26.987 6.89439 27.3025 7.05517 27.5806C7.21558 27.8582 7.44594 28.0887 7.72325 28.2494C7.72408 28.2499 7.72491 28.2504 7.72575 28.2509L19.3924 34.9175C19.6711 35.0785 19.9873 35.1632 20.3091 35.1632C20.6309 35.1632 20.947 35.0785 21.2257 34.9175L21.2315 34.9142L32.8924 28.2509C32.8932 28.2504 32.8941 28.2499 32.8949 28.2494C33.1722 28.0887 33.4026 27.8582 33.563 27.5806C33.7239 27.3023 33.8088 26.9865 33.8091 26.665V13.3348C33.8088 13.0133 33.7239 12.6975 33.563 12.4192C33.4026 12.1416 33.1722 11.911 32.8948 11.7503C32.894 11.7499 32.8932 11.7494 32.8924 11.749L21.2257 5.0823C20.947 4.92139 20.6309 4.83667 20.3091 4.83667Z" fill="#47131A"/>
<path d="M19.3924 5.08229C19.6711 4.92138 19.9873 4.83667 20.3091 4.83667C20.6309 4.83667 20.947 4.92139 21.2257 5.0823L32.8924 11.749C32.8932 11.7494 32.894 11.7499 32.8948 11.7503C33.1722 11.911 33.4026 12.1416 33.563 12.4192C33.7239 12.6975 33.8088 13.0133 33.8091 13.3348V26.665C33.8088 26.9865 33.7239 27.3023 33.563 27.5806C33.4026 27.8582 33.1722 28.0887 32.8949 28.2494C32.8941 28.2499 32.8932 28.2504 32.8924 28.2509L21.2315 34.9142L21.2257 34.9175C20.947 35.0785 20.6309 35.1632 20.3091 35.1632C19.9873 35.1632 19.6711 35.0785 19.3924 34.9175L7.72575 28.2509C7.72491 28.2504 7.72408 28.2499 7.72325 28.2494C7.44594 28.0887 7.21558 27.8582 7.05517 27.5806C6.89439 27.3025 6.80953 26.987 6.80908 26.6657V13.3341C6.80953 13.0128 6.89439 12.6973 7.05517 12.4192C7.2156 12.1416 7.446 11.911 7.72337 11.7503C7.72416 11.7499 7.72495 11.7494 7.72575 11.749L19.3866 5.08563L19.3924 5.08229Z" fill="#47131A"/>
<path d="M19.258 11.2695C20.5158 11.2695 21.6095 11.5065 22.5392 11.9805C23.4871 12.4362 24.2254 13.0833 24.7541 13.9219C25.2827 14.7422 25.547 15.7083 25.547 16.8203C25.547 17.7318 25.4012 18.5703 25.1095 19.3359C24.8361 20.0833 24.435 20.8307 23.9064 21.5781C23.3778 22.3073 22.7306 23.0911 21.965 23.9297C21.2176 24.7682 20.3608 25.7253 19.3947 26.8008H25.6837V30H13.7345V28.4688C15.4845 26.5729 16.952 24.9779 18.1369 23.6836C19.34 22.3711 20.2423 21.25 20.8439 20.3203C21.4637 19.3724 21.7736 18.5339 21.7736 17.8047C21.7736 16.875 21.4637 16.1549 20.8439 15.6445C20.2423 15.1159 19.4858 14.8516 18.5744 14.8516C17.7358 14.8516 16.9155 15.0703 16.1134 15.5078C15.3113 15.9453 14.6551 16.4375 14.1447 16.9844V13.1016C14.6916 12.6276 15.4207 12.2083 16.3322 11.8438C17.2436 11.4609 18.2189 11.2695 19.258 11.2695Z" fill="white"/>
</svg>
