<svg width="22" height="22" viewBox="0 0 22 22" fill="none" xmlns="http://www.w3.org/2000/svg">
<path d="M18.9999 10.0255C18.9999 8.88953 18.0719 7.96952 16.928 7.96952H14.8719C15.4479 5.69753 15.072 4.16952 13.752 3.40952C13.44 3.23352 12.384 2.79352 11.616 3.11352C11.28 3.25752 11.048 3.52953 10.952 3.92153C10.712 4.88953 10.48 5.8015 9.94396 6.5935C9.67196 6.9855 9.29596 7.44152 8.85596 7.71352V9.0415V9.15351V16.0175V16.5455V17.2735L9.94396 17.6335C10.552 17.8415 11.192 17.9455 11.84 17.9455H15.9439C17.0879 17.9455 18.0239 17.0175 18.0239 15.8815C18.0239 15.8175 18.0239 15.7535 18.0159 15.6895C18.6159 15.3135 18.9999 14.6575 18.9999 13.9295C18.9999 13.5855 18.9119 13.2495 18.7599 12.9535C18.9119 12.6575 18.9999 12.3215 18.9999 11.9775C18.9999 11.6335 18.9119 11.2975 18.7599 11.0015C18.9119 10.7055 18.9999 10.3695 18.9999 10.0255Z" fill="#47131A"/>
<path fill-rule="evenodd" clip-rule="evenodd" d="M3 7.30552V18.4015C3 18.7295 3.272 19.0015 3.6 19.0015H6.4C6.864 19.0015 7.28799 18.8735 7.65599 18.6495V16.5455V9.15351V7.04951C7.28799 6.82551 6.864 6.69751 6.4 6.69751H3.6C3.272 6.69751 3 6.96952 3 7.30552ZM5.30399 15.7695C5.30399 15.4255 5.584 15.1455 5.928 15.1455C6.272 15.1455 6.544 15.4255 6.544 15.7695C6.544 16.1135 6.272 16.3855 5.928 16.3855C5.584 16.3855 5.30399 16.1135 5.30399 15.7695Z" fill="#47131A"/>
</svg>
