<svg width="22" height="22" viewBox="0 0 22 22" fill="none" xmlns="http://www.w3.org/2000/svg">
<mask id="mask0_1602_19705" style="mask-type:alpha" maskUnits="userSpaceOnUse" x="0" y="0" width="22" height="22">
<path d="M22 0H0V22H22V0Z" fill="white"/>
</mask>
<g mask="url(#mask0_1602_19705)">
<path d="M7.584 17.7367C8.27674 17.7367 8.83832 18.2983 8.83832 18.991C8.83832 19.6838 8.27674 20.2454 7.584 20.2454C6.89126 20.2454 6.32968 19.6838 6.32968 18.991C6.32968 18.2983 6.89126 17.7367 7.584 17.7367ZM16.6151 17.7367C17.3078 17.7367 17.8694 18.2983 17.8694 18.991C17.8694 19.6838 17.3078 20.2454 16.6151 20.2454C15.9223 20.2454 15.3608 19.6838 15.3608 18.991C15.3608 18.2983 15.9223 17.7367 16.6151 17.7367ZM3.32333 3.4375C4.35104 3.4375 5.24915 4.13134 5.50836 5.12581L5.53244 5.22917L5.84301 6.69873H18.5302C18.9828 6.69872 19.4114 6.90239 19.6972 7.25333C19.9831 7.60426 20.0958 8.0652 20.0043 8.50846L18.5543 15.5326C18.4098 16.2318 17.7941 16.7333 17.0802 16.7333H7.62063C6.90671 16.7333 6.291 16.2318 6.14655 15.5326L4.72165 8.63188L4.71211 8.63389L4.05987 5.53974C3.99172 5.21752 3.72197 4.97705 3.39408 4.94619L3.32384 4.94268H2.0354V3.4375H3.32283H3.32333ZM15.8625 10.7125H8.83832V12.2177H15.8625V10.7125Z" fill="#47131A"/>
</g>
</svg>
