<svg width="16" height="16" viewBox="0 0 16 16" fill="none" xmlns="http://www.w3.org/2000/svg">
<path d="M12.0403 10.2267C12.0403 10.6267 11.8403 10.9933 11.5137 11.2133C10.707 11.7467 9.38702 12.38 7.65369 12.38C6.86702 12.38 5.32035 12.2267 3.79368 11.2067C3.46701 10.9933 3.27368 10.6267 3.27368 10.2267V8.00667L4.27368 8.44666L6.97367 9.65332C7.12701 9.72665 7.27368 9.75334 7.35368 9.76001C7.55368 9.80001 7.75368 9.80002 7.94035 9.76668C8.03368 9.75335 8.18035 9.72665 8.33368 9.65332L11.0403 8.44666L12.0403 8V10.2267Z" fill="#2D1B0E"/>
<path d="M12.0403 10.2267C12.0403 10.6267 11.8403 10.9933 11.5137 11.2133C10.707 11.7467 9.38702 12.38 7.65369 12.38C6.86702 12.38 5.32035 12.2267 3.79368 11.2067C3.46701 10.9933 3.27368 10.6267 3.27368 10.2267V8.00667L4.27368 8.44666L6.97367 9.65332C7.12701 9.72665 7.27368 9.75334 7.35368 9.76001C7.55368 9.80001 7.75368 9.80002 7.94035 9.76668C8.03368 9.75335 8.18035 9.72665 8.33368 9.65332L11.0403 8.44666L12.0403 8V10.2267Z" fill="black" fill-opacity="0.5"/>
<path d="M12.0403 10.2267C12.0403 10.6267 11.8403 10.9933 11.5137 11.2133C10.707 11.7467 9.38702 12.38 7.65369 12.38C6.86702 12.38 5.32035 12.2267 3.79368 11.2067C3.46701 10.9933 3.27368 10.6267 3.27368 10.2267V8.00667L4.27368 8.44666L6.97367 9.65332C7.12701 9.72665 7.27368 9.75334 7.35368 9.76001C7.55368 9.80001 7.75368 9.80002 7.94035 9.76668C8.03368 9.75335 8.18035 9.72665 8.33368 9.65332L11.0403 8.44666L12.0403 8V10.2267Z" fill="black" fill-opacity="0.2"/>
<path d="M13.9804 12.4999V13.4798C13.9804 13.7598 13.7537 13.9798 13.4804 13.9798C13.2004 13.9798 12.9804 13.7598 12.9804 13.4798V12.4999C12.5737 12.3132 12.2937 11.8999 12.2937 11.4265C12.2937 10.9532 12.5737 10.5399 12.9804 10.3532V6.6332L12.0404 7.05321L11.0404 7.49986L8.33374 8.70653C8.18041 8.77986 8.03374 8.80652 7.94041 8.81985C7.75374 8.85318 7.55374 8.85318 7.35374 8.81318C7.27374 8.80651 7.12707 8.77986 6.97373 8.70653L4.27374 7.49986L3.27374 7.05988L2.11375 6.53986C1.63375 6.32653 1.33374 5.90655 1.33374 5.43321C1.33374 4.95988 1.63375 4.53318 2.11375 4.31985L6.98041 2.15318C7.40707 1.97318 7.90041 1.97318 8.32041 2.14651L13.2004 4.31985C13.6804 4.53318 13.9804 4.95988 13.9804 5.43321V10.3532C14.3871 10.5399 14.6671 10.9532 14.6671 11.4265C14.6671 11.8999 14.3871 12.3132 13.9804 12.4999Z" fill="#2D1B0E"/>
<path d="M13.9804 12.4999V13.4798C13.9804 13.7598 13.7537 13.9798 13.4804 13.9798C13.2004 13.9798 12.9804 13.7598 12.9804 13.4798V12.4999C12.5737 12.3132 12.2937 11.8999 12.2937 11.4265C12.2937 10.9532 12.5737 10.5399 12.9804 10.3532V6.6332L12.0404 7.05321L11.0404 7.49986L8.33374 8.70653C8.18041 8.77986 8.03374 8.80652 7.94041 8.81985C7.75374 8.85318 7.55374 8.85318 7.35374 8.81318C7.27374 8.80651 7.12707 8.77986 6.97373 8.70653L4.27374 7.49986L3.27374 7.05988L2.11375 6.53986C1.63375 6.32653 1.33374 5.90655 1.33374 5.43321C1.33374 4.95988 1.63375 4.53318 2.11375 4.31985L6.98041 2.15318C7.40707 1.97318 7.90041 1.97318 8.32041 2.14651L13.2004 4.31985C13.6804 4.53318 13.9804 4.95988 13.9804 5.43321V10.3532C14.3871 10.5399 14.6671 10.9532 14.6671 11.4265C14.6671 11.8999 14.3871 12.3132 13.9804 12.4999Z" fill="black" fill-opacity="0.5"/>
<path d="M13.9804 12.4999V13.4798C13.9804 13.7598 13.7537 13.9798 13.4804 13.9798C13.2004 13.9798 12.9804 13.7598 12.9804 13.4798V12.4999C12.5737 12.3132 12.2937 11.8999 12.2937 11.4265C12.2937 10.9532 12.5737 10.5399 12.9804 10.3532V6.6332L12.0404 7.05321L11.0404 7.49986L8.33374 8.70653C8.18041 8.77986 8.03374 8.80652 7.94041 8.81985C7.75374 8.85318 7.55374 8.85318 7.35374 8.81318C7.27374 8.80651 7.12707 8.77986 6.97373 8.70653L4.27374 7.49986L3.27374 7.05988L2.11375 6.53986C1.63375 6.32653 1.33374 5.90655 1.33374 5.43321C1.33374 4.95988 1.63375 4.53318 2.11375 4.31985L6.98041 2.15318C7.40707 1.97318 7.90041 1.97318 8.32041 2.14651L13.2004 4.31985C13.6804 4.53318 13.9804 4.95988 13.9804 5.43321V10.3532C14.3871 10.5399 14.6671 10.9532 14.6671 11.4265C14.6671 11.8999 14.3871 12.3132 13.9804 12.4999Z" fill="black" fill-opacity="0.2"/>
</svg>
