<svg width="61" height="91" viewBox="0 0 61 91" fill="none" xmlns="http://www.w3.org/2000/svg">
<path d="M3.00374 3.94911C2.9397 1.12139 3.67619 -0.0313733 6.87089 0.000647872H56.5825C60.0353 0.000647872 60.4497 1.76181 60.4497 3.94911V75.9129C60.4497 78.0936 59.6812 79.9895 56.5431 79.9895H7.77489C2.84364 80.1496 3.06779 78.4845 3.00374 74.9301V3.94911Z" fill="#CD3F30"/>
<path d="M3.00374 3.94911C2.9397 1.12139 3.67619 -0.0313733 6.87089 0.000647872H56.5825C60.0353 0.000647872 60.4497 1.76181 60.4497 3.94911L60.1295 74.8981C60.1295 77.2677 59.2329 79.7333 56.0948 79.7333L7.26256 79.7653C4.1565 79.7653 3.06779 78.0362 3.00374 74.9301V3.94911Z" fill="#FEBF6B"/>
<path d="M3.5439 3.87443C3.47986 1.04671 5.209 0.512207 6.8741 0.512207H57.5636C60.1253 0.512207 60.4775 2.26351 60.4775 4.45081L60.1573 74.8973C60.1573 77.2669 59.2607 79.7325 56.1226 79.7325L7.29038 79.7645C2.96752 79.7645 3.5439 77.2669 3.47986 74.4811L3.5439 3.87443Z" fill="url(#paint0_linear_1794_71935)"/>
<path fill-rule="evenodd" clip-rule="evenodd" d="M4.71286 6.75716L4.71286 63.2745C4.71286 69.0063 11.3944 78.1003 16.5498 78.1003H48.0586C54.655 78.1003 59.298 74.0976 59.298 69.5186V19.4055C59.298 11.6884 53.0859 3.52302 47.9946 2.05005H8.54612C6.56545 2.05005 4.65146 3.91909 4.71286 6.75716Z" fill="url(#paint1_linear_1794_71935)"/>
<g opacity="0.9">
<path style="mix-blend-mode:screen" opacity="0.2" d="M50.5998 11.3095C51.3746 11.6513 52.1107 12.1656 52.0533 12.8632C51.9371 14.2957 48.5264 14.636 43.9271 11.7042C39.3278 8.77234 36.3014 15.3398 32.0957 14.9529C27.89 14.566 27.4639 10.5435 22.705 11.0687C17.9461 11.5938 16.7157 11.2396 16.7157 10.7735C16.7157 10.3074 17.9786 9.46063 18.0592 9.40625C17.8671 9.44354 10.5048 10.9599 9.69125 14.1901C8.87305 17.4528 19.1285 13.9989 23.596 14.1901C28.0636 14.3812 28.6075 19.3732 36.2348 20.3613C43.862 21.3495 39.5882 16.5082 40.4668 15.4905C41.3454 14.4728 48.1312 16.7832 52.8111 14.9498C56.1258 13.6571 52.8173 12.1066 50.5998 11.3095ZM18.0918 14.0362C17.8639 14.1116 17.6322 14.1743 17.3975 14.2242C17.1272 14.303 16.851 14.3602 16.5716 14.3951C16.0896 14.4386 15.6124 14.4868 15.1273 14.4837C14.6423 14.4806 14.1263 14.5536 13.6257 14.5987C13.2135 14.6344 12.7688 14.7991 12.3566 14.6593C12.2532 14.617 12.1682 14.5394 12.1164 14.4402C12.0219 14.2848 12.0823 14.1403 12.1459 13.9741C12.3179 13.5788 12.6061 13.2455 12.9718 13.0186C13.4109 12.7163 13.8817 12.4631 14.3758 12.2635C14.4842 12.3955 14.5834 12.3225 14.7012 12.2852C14.9011 12.2231 15.1211 12.2759 15.321 12.2604C15.6963 12.2084 16.0753 12.1896 16.4538 12.2044C16.6181 12.22 16.7823 12.2309 16.9466 12.2588C17.1889 12.3082 17.4252 12.3832 17.6517 12.4826C18.0302 12.6162 18.4007 12.7718 18.7612 12.9487C18.8573 12.9984 19.2261 13.1506 19.2059 13.3915C18.8914 13.7597 18.4652 13.8902 18.0918 14.0362ZM20.8516 13.9228C20.6826 14.0677 20.4802 14.1681 20.2628 14.2149C20.0763 14.2594 19.8867 14.2896 19.6956 14.305C19.615 14.305 19.5097 14.333 19.457 14.2149C19.4352 14.1631 19.4271 14.1066 19.4336 14.0507C19.4401 13.9949 19.461 13.9417 19.4942 13.8964C19.5198 13.7912 19.5792 13.6974 19.6631 13.6292C19.7957 13.5039 19.9545 13.41 20.128 13.3542C20.3573 13.2687 20.6146 13.1444 20.8532 13.2252C20.918 13.2495 20.9739 13.293 21.0135 13.3498C21.0531 13.4067 21.0744 13.4744 21.0748 13.5437C21.047 13.6907 20.9679 13.8228 20.8516 13.9166V13.9228ZM42.3914 14.6857C42.2636 14.7792 42.1204 14.8497 41.9684 14.8939C41.9152 14.9154 41.8573 14.9225 41.8005 14.9146C41.7436 14.9067 41.6899 14.884 41.6445 14.8488C41.5941 14.7859 41.5672 14.7073 41.5686 14.6266C41.5614 14.5886 41.5614 14.5497 41.5686 14.5117C41.5779 14.4806 41.6042 14.4511 41.6771 14.4619C41.7259 14.3588 41.8084 14.2754 41.911 14.2258C41.9779 14.1879 42.0531 14.1672 42.1299 14.1656C42.2067 14.164 42.2827 14.1814 42.3511 14.2165C42.4162 14.2569 42.5169 14.3035 42.5371 14.4231C42.5352 14.4752 42.5204 14.5259 42.4938 14.5707C42.4673 14.6155 42.4299 14.6529 42.3852 14.6795L42.3914 14.6857ZM41.7406 13.7721C41.6054 13.8414 41.4643 13.8986 41.3191 13.943C41.1847 13.9763 41.0486 14.0027 40.9115 14.0223C40.7566 14.0471 40.6016 14.0782 40.4466 14.0953C40.2917 14.1124 40.1569 14.1372 40.0112 14.1434C39.7862 14.1604 39.5629 14.1952 39.3433 14.2475C39.1884 14.2771 39.0535 14.3221 38.9063 14.3563C38.8056 14.3796 38.7033 14.3827 38.5964 14.4045C38.5086 14.4252 38.4172 14.425 38.3295 14.404C38.2417 14.3829 38.1602 14.3416 38.0912 14.2833C37.9701 14.1621 37.8615 14.0288 37.7673 13.8855C37.7188 13.8158 37.6831 13.7379 37.662 13.6556C37.6489 13.6088 37.6489 13.5594 37.662 13.5126C37.617 13.5251 37.6155 13.4722 37.6434 13.4039C37.6683 13.3483 37.7 13.2961 37.7379 13.2485C37.7571 13.2269 37.7796 13.2086 37.8045 13.1941C37.8247 13.1755 37.8402 13.1491 37.8588 13.1304C37.9239 13.0761 37.975 12.9953 38.0432 12.944C38.1114 12.8927 38.1842 12.8244 38.2555 12.77C38.3516 12.6939 38.4507 12.6348 38.5484 12.5649C38.7684 12.4095 38.9885 12.2542 39.21 12.1112C39.3743 12.0025 39.5448 11.9186 39.7121 11.8207C40.0193 11.6367 40.3558 11.5073 40.707 11.4385C40.8657 11.3953 41.0291 11.3719 41.1936 11.3686C41.4 11.3691 41.6054 11.3979 41.8041 11.454C41.9514 11.4979 42.0963 11.5498 42.238 11.6094C42.5096 11.7081 42.7517 11.8743 42.9415 12.0926C43.0278 12.1907 43.0885 12.3086 43.1182 12.4359C43.1356 12.5289 43.1259 12.6249 43.0903 12.7125C42.992 12.9506 42.8169 13.1486 42.5929 13.2749C42.3154 13.4534 42.0289 13.6173 41.7344 13.7659L41.7406 13.7721ZM47.9577 14.7991C47.8787 15.085 47.5858 15.1844 47.4215 15.2574C47.1023 15.3988 46.7676 15.3724 46.439 15.4004C46.0749 15.433 45.7123 15.4346 45.3543 15.4346C44.9963 15.4346 44.6492 15.4548 44.299 15.3009C44.0604 15.1922 43.8124 15.1456 43.5722 15.0461C43.4669 15.0026 43.3661 14.942 43.2623 14.8908C43.1848 14.8618 43.1149 14.8156 43.0578 14.7556C42.9105 14.5598 43.1151 14.4449 43.2251 14.3718C43.4028 14.2295 43.6184 14.143 43.845 14.1232C43.9225 14.1232 43.9922 14.0782 44.0697 14.0766C44.1472 14.0751 44.2107 14.0766 44.0774 14.0316C44.3873 14.0316 44.6864 13.9694 44.9948 13.9912C45.4705 14.0284 45.9435 14.0948 46.4112 14.1901C46.6343 14.2336 46.8559 14.2879 47.0806 14.3283C47.2661 14.3491 47.4489 14.3892 47.6261 14.448C47.7237 14.4821 48.0212 14.5365 47.9515 14.7929L47.9577 14.7991ZM53.6278 13.8063C53.62 13.953 53.5806 14.0963 53.5124 14.2264C53.4442 14.3565 53.3488 14.4702 53.2326 14.5598C53.109 14.6545 52.9634 14.716 52.8096 14.7385C52.6422 14.7727 52.4795 14.8379 52.3121 14.8783C52.1441 14.9071 51.9728 14.9102 51.8038 14.8877C51.6895 14.8896 51.5788 14.848 51.4939 14.7711C51.2677 14.5288 51.4939 14.1605 51.6489 13.9943C51.8542 13.7847 52.0777 13.5939 52.3168 13.4241C52.466 13.2902 52.6035 13.1436 52.7274 12.9859C52.698 13.059 52.7786 12.9968 52.8622 12.9859C52.9152 12.9818 52.9674 12.9703 53.0172 12.9518C53.0966 12.925 53.1822 12.9233 53.2626 12.947C53.343 12.9706 53.4142 13.0183 53.4666 13.0838C53.6029 13.2983 53.66 13.554 53.6278 13.8063Z" fill="url(#paint2_linear_1794_71935)"/>
<path style="mix-blend-mode:screen" opacity="0.2" d="M50.6167 13.915C50.4664 11.9449 48.049 11.8766 48.049 11.8766C48.049 11.8766 49.7845 12.0584 49.0547 14.1962C48.3248 16.3341 41.4367 18.371 39.151 15.4345C36.8653 12.498 35.4319 9.09702 31.3409 10.0479C27.2499 10.9987 23.6517 15.1129 21.1521 15.4345C18.6526 15.7561 21.8045 11.7057 21.8045 11.7057C21.8045 11.7057 19.5917 11.8704 16.3003 8.77696C13.0088 5.68357 2.97348 14.6266 7.41315 16.8328C13.2057 19.7149 19.9341 16.7738 26.7416 15.809C33.5491 14.8441 38.0275 17.7806 42.492 17.5087C46.9565 17.2368 50.7686 15.8835 50.6167 13.915ZM7.67349 14.5769C7.58051 14.6359 7.45964 14.594 7.4178 14.4215C7.34962 14.145 7.49219 13.7876 7.57277 13.5561C7.63496 13.3935 7.71281 13.2374 7.80521 13.09C7.89509 12.9238 8.00976 12.9175 8.15233 12.8492C7.89974 12.8756 8.16472 12.7171 8.27475 12.7109C8.34445 12.6964 8.417 12.7064 8.48022 12.7392C8.54343 12.772 8.59345 12.8257 8.62186 12.8911C8.66561 13.0547 8.66827 13.2266 8.62961 13.3914C8.57178 13.6627 8.44041 13.9127 8.24995 14.1139C8.08706 14.3016 7.89179 14.4585 7.67349 14.5769ZM14.8761 16.6138C14.6553 17.0228 14.2983 17.3412 13.8673 17.5134C13.4041 17.7283 12.8931 17.8193 12.3844 17.7775C11.9075 17.7332 11.4386 17.6261 10.9897 17.459C10.5654 17.3122 10.173 17.0854 9.83367 16.7909C9.52374 16.5159 9.19367 16.3061 8.90389 15.9845C8.70399 15.767 8.51494 15.5386 8.32743 15.2978C8.50409 15.4532 8.50099 15.2791 8.50409 15.1129C8.51393 14.9771 8.5357 14.8425 8.56918 14.7105C8.60373 14.5411 8.65034 14.3745 8.70864 14.2118C8.76021 14.0552 8.85803 13.9182 8.98912 13.8187C9.30835 13.5313 9.66631 13.407 10.0196 13.2594C10.4843 13.0762 10.9759 12.9712 11.4747 12.9486C11.9819 12.9438 12.4876 13.0044 12.9794 13.1288C13.459 13.2266 13.8989 13.4645 14.2439 13.8125C14.6487 14.1687 14.9276 14.6467 15.0389 15.1751C15.148 15.6593 15.0906 16.1663 14.8761 16.6138ZM17.7693 12.0164C17.6529 12.3305 17.4437 12.6015 17.1696 12.7932C16.8776 13.0234 16.5247 13.1628 16.1546 13.1941C15.7266 13.245 15.2934 13.1614 14.9149 12.9548C14.722 12.8622 14.5374 12.753 14.3632 12.6286C14.2136 12.5055 14.0812 12.3629 13.9696 12.2044C13.7841 11.9562 13.6373 11.6812 13.5342 11.3887C13.4574 11.1953 13.4241 10.9874 13.4365 10.7797C13.4477 10.6381 13.4856 10.5 13.5481 10.3726C13.6039 10.2794 13.6659 10.1924 13.7821 9.96709C13.907 9.7818 14.0555 9.61362 14.2238 9.4668C14.4336 9.28045 14.6988 9.16853 14.9784 9.1483C15.4681 9.1483 15.9082 9.47768 16.3514 9.76977C16.7807 10.0707 17.1488 10.4509 17.4361 10.89C17.5503 11.0743 17.6483 11.2682 17.729 11.4695C17.8058 11.6415 17.82 11.835 17.7693 12.0164Z" fill="url(#paint3_linear_1794_71935)"/>
</g>
<path d="M59.2542 63.6676C59.2542 63.3148 59.5742 61.8013 55.7673 60.6208C53.903 60.0427 45.0823 57.6382 30.0147 57.6382C19.3489 57.6382 11.8311 58.921 6.52067 61.2622C5.27303 61.7433 5.18141 62.6335 4.92093 63.1778C3.88331 65.3463 7.96704 73.58 12.2217 76.3706C13.2262 77.0792 14.111 77.7795 16.2906 78.1317H47.5456C49.9769 78.1317 53.08 77.7148 56.1192 75.566C59.1583 73.4172 59.2542 69.8253 59.2542 69.8253V63.6676Z" fill="url(#paint4_radial_1794_71935)"/>
<path opacity="0.2" d="M53.1722 69.2412C53.0221 67.9713 50.6008 67.9271 50.6008 67.9271C50.6008 67.9271 52.3347 68.0438 51.6055 69.423C50.8762 70.8022 44.0043 72.1139 41.7231 70.2176C39.4419 68.3214 38.0031 66.1316 33.924 66.7444C29.8449 67.3573 26.2466 70.0138 23.7514 70.2176C21.2563 70.4215 24.4032 67.8178 24.4032 67.8178C24.4032 67.8178 22.1896 67.9234 18.9074 65.9301C15.6252 63.9368 5.60021 69.6993 10.0384 71.124C15.8183 72.9822 22.5401 71.0859 29.3382 70.4645C36.1363 69.843 40.6065 71.7356 45.0644 71.56C49.5223 71.3844 53.3259 70.5099 53.1722 69.2412ZM10.293 69.6686C10.27 69.6793 10.2451 69.6852 10.2198 69.6862C10.1945 69.6871 10.1693 69.683 10.1456 69.6741C10.1219 69.6652 10.1002 69.6516 10.0818 69.6342C10.0634 69.6169 10.0486 69.596 10.0384 69.5728C9.96831 69.3948 10.1122 69.1639 10.1847 69.0153C10.2499 68.9057 10.3279 68.8042 10.4172 68.7131C10.5069 68.6063 10.6213 68.6026 10.7627 68.5572C10.5168 68.5756 10.7763 68.4736 10.8857 68.4687C10.9487 68.4573 11.0135 68.4621 11.0741 68.4825C11.1348 68.5029 11.1893 68.5383 11.2325 68.5854C11.2756 68.6879 11.2782 68.8029 11.2399 68.9072C11.1919 69.1061 11.0148 69.2511 10.8599 69.3739C10.6864 69.4994 10.4954 69.5987 10.293 69.6686ZM17.4858 70.9865C17.2399 71.3009 16.8513 71.4532 16.4774 71.5661C15.9988 71.7063 15.4998 71.764 15.0017 71.7369C14.5297 71.7092 14.0611 71.6406 13.601 71.5318C13.1978 71.4441 12.8093 71.299 12.4475 71.1007C12.1388 70.9226 11.8093 70.7875 11.519 70.5812C11.3198 70.4399 11.1304 70.2938 10.9435 70.1378C11.1194 70.2348 11.1157 70.1255 11.1194 70.015C11.129 69.9256 11.1509 69.838 11.1845 69.7546C11.2204 69.6435 11.2669 69.5362 11.3235 69.4341C11.3879 69.322 11.486 69.233 11.6039 69.1798C11.9296 69.0151 12.2757 68.8941 12.6332 68.82C13.1086 68.6985 13.5962 68.6306 14.0868 68.6173C14.5896 68.6141 15.0919 68.6527 15.5883 68.7328C16.0368 68.7854 16.468 68.9364 16.8513 69.1749C17.2017 69.3972 17.5178 69.6453 17.6457 70.0531C17.6999 70.2095 17.7137 70.3771 17.6858 70.5403C17.6578 70.7034 17.5891 70.8569 17.4858 70.9865ZM20.3684 68.0155C20.2577 68.2514 19.9872 68.3975 19.7695 68.5129C19.4532 68.6679 19.1081 68.7557 18.7562 68.7709C18.34 68.8044 17.9215 68.7521 17.5264 68.6173C17.3385 68.5586 17.1545 68.488 16.9755 68.4061C16.8334 68.3327 16.7015 68.241 16.5832 68.1334C16.4076 67.9858 16.2602 67.8077 16.1478 67.6078C16.0731 67.491 16.0389 67.3529 16.0507 67.2148C16.0632 67.1192 16.1014 67.0288 16.1614 66.9532C16.2444 66.87 16.3229 66.7822 16.3963 66.6904C16.529 66.5652 16.6769 66.4571 16.8365 66.3686C17.0683 66.2422 17.3264 66.1715 17.5904 66.1623C18.0823 66.1623 18.5237 66.3747 18.9603 66.5676C19.3628 66.7418 19.7313 66.9859 20.0486 67.2885C20.1584 67.4034 20.2564 67.5288 20.3413 67.6631C20.3766 67.7142 20.3977 67.7737 20.4025 67.8357C20.4072 67.8976 20.3955 67.9596 20.3684 68.0155Z" fill="url(#paint5_radial_1794_71935)"/>
<path opacity="0.2" d="M53.867 70.8992C53.8113 70.1787 52.9224 70.1538 52.9224 70.1538C52.9224 70.1538 53.5628 70.2178 53.2912 71.0017C53.0197 71.7856 50.4996 72.5291 49.6613 71.45C48.823 70.3709 48.2953 69.1316 46.7974 69.4794C45.2994 69.8271 43.9795 71.3366 43.0611 71.45C42.1428 71.5633 43.3007 70.0884 43.3007 70.0884C43.3007 70.0884 42.4886 70.1486 41.282 69.017C40.0755 67.8854 36.3943 71.156 38.0229 71.963C40.1472 73.0171 42.6148 71.9412 45.1111 71.5883C47.6075 71.2354 49.2495 72.3094 50.8871 72.2102C52.5247 72.1109 53.9221 71.619 53.867 70.8992ZM38.1183 71.1445C38.0838 71.1663 38.0402 71.1509 38.0248 71.0901C37.9992 70.9895 38.0517 70.8582 38.0786 70.7737C38.1012 70.714 38.1297 70.6567 38.1638 70.6027C38.1965 70.5387 38.2387 70.5387 38.2919 70.5143C38.1997 70.5246 38.297 70.4669 38.3374 70.4644C38.3628 70.4589 38.3894 70.4623 38.4126 70.4739C38.4359 70.4856 38.4545 70.5048 38.4655 70.5284C38.4801 70.5884 38.4801 70.651 38.4655 70.7109C38.4441 70.8103 38.3958 70.9018 38.3258 70.9754C38.2673 71.0437 38.1971 71.101 38.1183 71.1445ZM40.7595 71.8893C40.6787 72.0392 40.5476 72.1558 40.3893 72.2185C40.2197 72.2973 40.0326 72.3307 39.8462 72.3152C39.671 72.2991 39.4988 72.2599 39.3339 72.1986C39.1783 72.145 39.0345 72.0621 38.9099 71.9546C38.7911 71.8624 38.6774 71.7639 38.5692 71.6594C38.4962 71.5793 38.4264 71.4967 38.3579 71.4084C38.4219 71.4628 38.4219 71.4013 38.4219 71.3405C38.4252 71.2907 38.4332 71.2414 38.4456 71.1932C38.4584 71.1314 38.4756 71.0706 38.4968 71.0113C38.5158 70.9539 38.5517 70.9036 38.5999 70.8672C38.7127 70.7769 38.8406 70.7075 38.9778 70.6623C39.1481 70.595 39.3284 70.5562 39.5113 70.5476C39.6973 70.5451 39.8828 70.5667 40.0633 70.6117C40.2449 70.6558 40.4109 70.7488 40.5434 70.8806C40.6759 71.0123 40.7699 71.1778 40.8152 71.359C40.8568 71.536 40.8371 71.7218 40.7595 71.8861V71.8893ZM41.8206 70.2076C41.7776 70.3216 41.7007 70.4197 41.6003 70.4887C41.4935 70.5733 41.364 70.6245 41.2282 70.636C41.0724 70.6537 40.9148 70.6233 40.7767 70.5489C40.7061 70.5144 40.6384 70.4741 40.5744 70.4285C40.5194 70.384 40.4709 70.3321 40.4303 70.2742C40.3621 70.1834 40.3081 70.0827 40.2702 69.9757C40.2423 69.9049 40.23 69.8289 40.2343 69.7529C40.2383 69.7012 40.2522 69.6507 40.2753 69.6043C40.2958 69.5697 40.3188 69.5402 40.3611 69.4551C40.4073 69.3877 40.4617 69.3264 40.5231 69.2725C40.6 69.2043 40.6973 69.1633 40.7998 69.156C40.9798 69.156 41.1431 69.2764 41.3032 69.3853C41.4615 69.4947 41.5971 69.6336 41.7028 69.7945C41.7445 69.8623 41.7805 69.9334 41.8104 70.0071C41.8365 70.0697 41.8401 70.1394 41.8206 70.2044V70.2076Z" fill="url(#paint6_radial_1794_71935)"/>
<path fill-rule="evenodd" clip-rule="evenodd" d="M6.38107 63.2407V63.2418C6.38107 65.6115 7.80667 68.9867 9.99594 71.8474C11.0689 73.2495 12.264 74.4445 13.4449 75.2751C14.6451 76.1193 15.7028 76.4992 16.5355 76.4992H48.0443C54.124 76.4992 57.6827 72.886 57.6827 69.5186V19.4055C57.6827 15.9518 56.2798 12.2917 54.2212 9.29222C52.2048 6.35418 49.7474 4.31689 47.7384 3.65111H8.53184C7.61611 3.65111 6.25346 4.60546 6.29926 6.72253L6.29961 6.73869L6.38107 63.2407ZM47.9803 2.05005C53.0716 3.52302 59.2837 11.6884 59.2837 19.4055V69.5186C59.2837 74.0976 54.6407 78.1003 48.0443 78.1003H16.5355C11.3801 78.1003 4.78001 68.9736 4.78001 63.2418L4.69858 6.75716C4.63718 3.91909 6.55117 2.05005 8.53184 2.05005H47.9803Z" fill="url(#paint7_linear_1794_71935)"/>
<path d="M56.1314 2.17749H50.3997C50.3997 2.17749 53.2408 3.26621 55.523 6.40428C57.8053 9.54235 58.5651 11.8799 58.9493 13.8332C58.96 11.0794 58.9493 4.96333 58.9493 4.96333C58.9493 3.58642 57.4443 2.17749 56.1314 2.17749Z" fill="url(#paint8_radial_1794_71935)"/>
<path fill-rule="evenodd" clip-rule="evenodd" d="M59.1749 4.99531C59.1749 3.6184 58.4384 2.20947 56.357 2.20947H50.6252C50.6252 2.20947 50.8571 2.30915 51.2424 2.52968C52.1675 3.05911 53.9774 4.28501 55.5885 6.50031C57.3781 8.96091 58.1921 10.8703 58.6455 12.5217C58.7703 12.9763 58.8678 13.4115 58.9507 13.8331C58.9523 13.4411 58.9579 12.9815 58.9664 12.4815C59.0179 9.47017 59.1749 4.99531 59.1749 4.99531ZM58.6653 11.5005C58.6875 10.4794 58.7173 9.37534 58.7467 8.37216C58.7741 7.43907 58.8011 6.59211 58.8213 5.97844C58.8314 5.67159 58.8398 5.42305 58.8457 5.2512C58.8486 5.16527 58.8509 5.09852 58.8525 5.05323L58.8547 4.98984C58.8537 4.35528 58.6829 3.74235 58.3022 3.29306C57.9282 2.85173 57.3194 2.52968 56.357 2.52968H51.8614C52.0381 2.64193 52.2311 2.7708 52.4368 2.91728C53.4148 3.61372 54.6823 4.70983 55.8475 6.31197C57.3356 8.35811 58.1612 10.0341 58.6653 11.5005Z" fill="white" style="mix-blend-mode:overlay"/>
<path fill-rule="evenodd" clip-rule="evenodd" d="M51.6091 2.8499C52.6458 3.47722 54.1637 4.60951 55.4923 6.43626C56.9327 8.41683 57.7667 10.0785 58.2825 11.526C58.584 12.3719 58.7768 13.1447 58.9185 13.8652C58.9211 13.2005 58.9225 12.3399 58.923 11.4167C58.9247 8.51515 58.9185 4.99531 58.9185 4.99531C58.9185 3.6184 57.4135 2.20947 56.1007 2.20947H50.3689C50.3689 2.20947 50.865 2.39958 51.6091 2.8499ZM52.7731 2.8499C53.7582 3.55187 54.9426 4.59168 56.0102 6.05959C57.0288 7.46013 57.7547 8.71047 58.2828 9.84416C58.2827 9.35304 58.2825 8.86488 58.2821 8.39802C58.2815 7.46157 58.2805 6.61115 58.2796 5.99484C58.2792 5.68669 58.2788 5.43707 58.2786 5.2645L58.2781 4.9965C58.2781 4.99645 58.2781 4.99643 58.9185 4.99531L58.2781 4.99643L58.2781 4.99587V4.99531C58.2781 4.53198 58.015 3.99112 57.556 3.54566C57.0959 3.09926 56.543 2.8499 56.1007 2.8499H52.7731Z" fill="url(#paint9_radial_1794_71935)"/>
<path opacity="0.5" d="M58.9832 2.04933C58.9832 2.04933 48.1921 0.480292 48.9926 2.36956L50.4336 13.8972L58.9832 13.8972C59.8063 9.79846 59.8063 5.28348 59.8063 5.28348C59.8063 3.90657 58.9832 2.04933 58.9832 2.04933Z" fill="url(#paint10_radial_1794_71935)"/>
<g style="mix-blend-mode:overlay" opacity="0.6">
<path d="M56.015 78.3884C55.8107 78.0997 55.9586 77.6362 56.559 77.0514C57.1593 76.4667 57.8854 76.2931 58.0896 76.5819C58.2939 76.8706 58.0901 77.7697 57.4837 78.1986C56.8773 78.6276 56.2192 78.6772 56.015 78.3884Z" fill="black" style="mix-blend-mode:soft-light"/>
</g>
<path opacity="0.5" d="M33.0358 60.6481C12.5103 60.6481 5.7218 64.7788 5.7218 64.7788V60.6481C9.37221 58.3746 16.5449 56.6454 30.7944 56.3572C40.2963 56.1651 52.7929 57.0938 57.9483 60.3599V64.5547C57.9483 64.5547 49.0472 60.6481 33.0358 60.6481Z" fill="#3E152B"/>
<path opacity="0.5" d="M8.63006 61.0964L6.10596 62.1852C6.25539 64.1598 6.55077 67.1164 9.40414 71.1191C11.2531 73.7128 14.0152 76.5306 16.8651 76.4986H21.6362C16.705 75.6661 12.7928 73.3285 10.1671 69.1017C8.52342 66.4558 8.64074 62.5374 8.63006 61.0964Z" fill="#3E152B"/>
<path opacity="0.2" d="M57.3142 60.0398L56.1295 59.6235L55.6171 69.5181C55.6171 70.959 54.7626 73.5238 53.2476 74.6415C51.2943 76.0824 48.5404 76.4026 46.5872 76.6268C47.868 76.6268 54.7205 76.3386 56.4177 71.3433C57.103 69.3259 57.0581 67.3406 57.2182 64.5228L57.3142 60.0398Z" fill="#3E152B"/>
<path fill-rule="evenodd" clip-rule="evenodd" d="M6.98701 62.299L6.95303 62.3121C6.66601 62.4224 6.57919 62.5471 6.53591 62.6245C6.47083 62.7408 6.42926 62.9029 6.4048 63.1473L6.39951 63.2L6.39059 63.2523C6.32819 63.618 6.37878 64.3226 6.67737 65.3481C6.96424 66.3332 7.24834 67.4489 7.8776 68.6214C9.14989 70.9922 10.61 72.6881 13.6306 74.6094C15.0403 75.506 16.6406 76.4986 18.9462 76.4986L47.5681 76.4666C49.8247 76.4666 52.2641 76.3394 54.9613 74.4391C56.149 73.6023 57.0332 72.3481 57.3672 71.387C57.5335 70.9082 57.6212 70.4852 57.6666 70.1883C57.6892 70.0407 57.701 69.5425 57.771 69.4715C57.771 69.4715 57.7731 69.4458 57.7738 69.4354C57.7738 69.4354 57.7753 69.4137 57.7757 69.4064V63.2833C57.7757 63.0739 57.7831 63.0706 57.7844 63.0657C57.785 63.0635 57.7844 63.0609 57.7812 63.0383C57.7809 63.0359 57.7802 63.0313 57.7766 63.022C57.7731 63.0127 57.7624 62.9875 57.7343 62.9471C57.6181 62.7805 57.1215 62.2483 55.362 61.7046C53.6306 61.1696 44.9326 58.791 29.9752 58.7909C19.3667 58.7909 12.0678 60.067 7.02034 62.2844L6.98701 62.299ZM59.3182 69.441V63.2833C59.3182 63.2619 59.3194 63.2361 59.3207 63.2063C59.3419 62.7475 59.4066 61.3452 55.8188 60.2366C53.948 59.6585 45.0961 57.6382 29.9752 57.6382C19.2718 57.6382 11.7274 58.5368 6.39811 60.878C5.14606 61.3591 4.93417 62.3533 4.86996 62.9947C4.38841 65.817 7.82353 73.2569 12.1575 76.3037C13.1656 77.0123 14.5593 77.9076 16.2026 78.1317H47.5681C50.008 78.1317 53.1221 77.7148 56.172 75.566C59.2219 73.4172 59.3182 69.441 59.3182 69.441Z" fill="url(#paint11_linear_1794_71935)" style="mix-blend-mode:overlay"/>
<path opacity="0.5" d="M57.5074 61.9609H57.1551L56.899 68.141C56.7068 70.7988 56.1976 73.1294 53.2486 74.9295C50.7829 76.4345 48.9257 76.3705 46.9724 76.5946C49.9111 76.7867 55.835 75.7 57.3152 71.3431C58.0006 69.3258 57.7563 63.4659 57.7563 63.4659L57.5074 61.9609Z" fill="#3E152B"/>
<path d="M57.8188 69.4858V65.2269V63.6259C57.8188 61.0642 42.0644 58.8868 30.0317 58.8868C17.999 58.8868 6.617 61.6086 6.42488 62.8894C6.27215 64.5714 6.20073 66.4117 6.55296 68.7813C6.55296 68.7813 5.9108 67.3764 5.59233 66.5078C5.24009 65.5472 4.9519 64.1382 4.9519 64.1382L5.17605 64.3304C5.17605 64.3304 4.88786 63.9461 4.99118 63.1136C5.06611 62.5098 5.34341 61.6086 6.59224 61.1282C11.9077 58.7907 19.3194 58.0659 30.0317 57.4458C45.1137 57.4458 53.9427 59.8466 55.8087 60.4238C59.6193 61.6025 59.171 63.0175 59.171 63.3697C59.171 63.722 58.6266 64.9708 58.6266 64.9708L57.8188 69.4858Z" fill="#49050B"/>
<path d="M4.17929 61.8649C4.17929 63.1777 4.88376 64.4586 5.39609 65.003C5.39609 65.003 4.78769 64.0306 5.07588 62.7935C5.81284 59.6299 23.456 57.7662 30.4366 57.7021C37.4172 57.6381 59.1596 59.079 59.1596 63.3058C59.1596 64.0743 58.5832 65.1951 58.5832 65.1951C59.1916 64.2344 59.8641 63.3699 59.8641 61.993C59.8641 60.6797 59.1786 59.4626 59.2236 58.0223C59.2877 55.973 59.8961 55.0124 59.8961 53.5714C59.8961 50.3373 42.7007 48.0317 34.4393 48.0317C24.8009 48.0317 5.23599 49.5367 4.17929 53.5074C4.00034 54.1798 4.78769 55.941 4.78769 58.0864C4.78769 59.9756 4.17929 60.552 4.17929 61.8649Z" fill="url(#paint12_linear_1794_71935)"/>
<path d="M12.9904 58.791C11.0691 59.2073 7.67484 60.2319 6.10577 60.9684C7.64279 57.8624 6.39403 53.9238 5.62549 52.3547C5.62549 52.3547 10.6848 49.1206 32.5232 49.1206C43.854 49.1206 51.3297 50.3356 55.2583 51.3386C57.2436 51.6183 58.1269 52.2184 58.4603 52.4508C57.7239 53.3794 57.1923 56.0628 57.1154 57.1899C57.0386 58.3171 57.5744 60.264 57.8519 61.0965C56.8273 60.4881 55.6746 60.0102 53.1769 59.3033C51.8192 58.9191 48.886 58.5241 47.7333 58.3747L46.3563 57.8624C43.8587 57.6276 37.8836 57.1259 33.9642 56.9978C30.0448 56.8697 22.2338 57.5208 18.8182 57.8624L17.8255 58.1826C16.6834 58.3 14.007 58.5707 12.9904 58.791Z" fill="url(#paint13_radial_1794_71935)"/>
<path d="M50.8671 58.791C52.7855 59.2073 56.1745 60.2319 57.7412 60.9684C57.7412 60.9684 57.0515 56.6706 55.1623 55.2366C53.273 53.8026 51.2557 53.3794 51.2557 53.3794L51.736 52.9631C48.726 53.2513 48.0856 53.1872 43.3465 52.0986C38.7026 51.0317 35.5785 51.138 31.0824 51.1379C26.6063 51.1379 23.1809 51.2595 20.7715 51.5221C10.5888 52.6323 7.67493 55.5889 6.266 60.7443C7.28907 60.1359 8.2479 60.0102 10.7418 59.3033C12.0974 58.9191 15.0261 58.5241 16.1771 58.3747L17.9217 57.8624C20.4155 57.6275 26.0118 57.1259 29.9253 56.9978C33.8387 56.8697 41.6012 57.2006 45.0116 57.5421L48.0536 58.0224C49.1939 58.1398 49.852 58.5707 50.8671 58.791Z" fill="url(#paint14_radial_1794_71935)"/>
<path d="M12.991 58.7907C11.0698 59.207 7.67551 60.2317 6.10645 60.9682C6.10645 60.9682 7.29129 59.1749 10.3333 56.8694C13.3753 54.5639 18.4667 55.0122 19.6194 54.2117L17.0898 53.4111C18.8189 53.4111 19.5992 54.1565 22.3412 54.2117C27.1124 54.3077 28.0851 53.5713 32.588 53.5712C37.071 53.5712 43.4688 54.2902 45.8768 54.596C51.9288 55.3645 55.2269 57.638 57.8526 61.0962C56.828 60.4878 55.6753 60.0099 53.1776 59.3031C51.8199 58.9188 48.8867 58.5239 47.7339 58.3744L46.357 57.8621C43.8594 57.6273 37.8842 57.1256 33.9648 56.9975C30.0454 56.8695 22.2344 57.5205 18.8189 57.8621L17.8262 58.1823C16.6841 58.2997 14.0077 58.5704 12.991 58.7907Z" fill="url(#paint15_radial_1794_71935)"/>
<path d="M4.12029 53.6993C4.14591 53.2638 5.0916 52.664 5.56124 52.4185C5.7427 53.0055 6.14405 54.5319 6.29775 55.9408C6.45145 57.3497 6.04158 59.3244 5.81743 60.1356L4.50457 60.3917C4.69669 59.6232 4.876 58.1502 4.82476 57.2537C4.73326 55.6526 4.08827 54.2437 4.12029 53.6993Z" fill="#7C1214"/>
<path fill-rule="evenodd" clip-rule="evenodd" d="M5.58125 52.3723L5.5926 52.409C5.77443 52.9973 6.17635 54.5257 6.33035 55.9374C6.48474 57.3526 6.07344 59.3321 5.84906 60.1441L5.84379 60.1632L4.46206 60.4328L4.47427 60.384C4.66576 59.618 4.84458 58.1483 4.79356 57.2555C4.74801 56.4585 4.56464 55.7086 4.39607 55.0887C4.36878 54.9883 4.34184 54.8912 4.31593 54.7978C4.26199 54.6033 4.21251 54.425 4.17366 54.2669C4.11631 54.0334 4.08077 53.839 4.08909 53.6975C4.0961 53.5784 4.16524 53.4527 4.26622 53.3297C4.36785 53.2059 4.5051 53.0808 4.65521 52.9625C4.9555 52.7259 5.31113 52.5135 5.54718 52.3901L5.58125 52.3723ZM4.31572 53.3703C4.21751 53.49 4.15883 53.6026 4.15303 53.7012C4.14534 53.8319 4.17841 54.0177 4.23585 54.2516C4.27448 54.4088 4.32352 54.5856 4.3773 54.7794C4.40327 54.873 4.43034 54.9706 4.45787 55.0719C4.62667 55.6927 4.81155 56.4479 4.85749 57.2519C4.90789 58.1336 4.7365 59.5676 4.54835 60.3507L5.79259 60.108C6.01756 59.2861 6.41851 57.336 6.26668 55.9443C6.1164 54.5667 5.72873 53.0758 5.54274 52.4649C5.3099 52.589 4.97712 52.7904 4.69485 53.0128C4.54662 53.1296 4.41329 53.2515 4.31572 53.3703Z" fill="#C97327"/>
<path d="M4.1218 53.6995C4.14742 53.2641 5.09311 52.6642 5.56275 52.4187C5.74421 53.0058 6.14556 54.5321 6.29926 55.941C6.45296 57.35 6.04309 59.3246 5.81894 60.1358L4.50607 60.392C5.21056 59.1752 5.90131 57.1578 5.81896 55.7169C5.72746 54.1158 4.08978 54.2439 4.1218 53.6995Z" fill="#690E13"/>
<path d="M4.72859 62.8254C4.60051 63.2353 4.67522 63.7647 4.72859 63.9782C4.53647 63.5939 4.15222 62.6461 4.15222 61.9288C4.15222 61.0322 4.28031 60.1036 5.14488 59.5592C5.88241 59.0949 6.04147 57.8621 6.04147 56.2931C6.04147 53.7314 5.62519 53.2831 4.72859 53.123L5.62519 52.7708C6.20158 54.1797 6.42572 55.8445 6.42572 56.9975C6.42572 59.6873 4.8887 62.3131 4.72859 62.8254Z" fill="#52060B"/>
<path d="M59.8697 53.7313C59.8441 53.2958 58.9944 52.6959 58.5247 52.4504C58.3432 53.0375 57.8459 54.5639 57.6922 55.9728C57.5385 57.3818 57.9484 59.3564 58.1725 60.1676L59.4854 60.4238C59.2933 59.6553 59.114 58.1823 59.1652 57.2857C59.2567 55.6846 59.9017 54.2757 59.8697 53.7313Z" fill="#7C1214"/>
<path fill-rule="evenodd" clip-rule="evenodd" d="M58.5065 52.4043L58.4952 52.441C58.4826 52.4819 58.4684 52.5273 58.4529 52.577C58.2462 53.2399 57.8048 54.6552 57.6614 55.9694C57.5071 57.3846 57.9184 59.3642 58.1427 60.1762L58.148 60.1953L59.5298 60.4649L59.5175 60.4161C59.3261 59.6501 59.1472 58.1804 59.1983 57.2876C59.2438 56.4905 59.4272 55.7407 59.5957 55.1207C59.623 55.0203 59.65 54.9232 59.6759 54.8298C59.7298 54.6354 59.7793 54.457 59.8182 54.2989C59.8755 54.0654 59.911 53.871 59.9027 53.7295C59.8958 53.6114 59.8336 53.4861 59.7415 53.3629C59.649 53.239 59.5238 53.1138 59.3856 52.9954C59.1092 52.7585 58.7773 52.5459 58.5406 52.4221L58.5065 52.4043ZM59.6902 53.4012C59.7793 53.5205 59.8329 53.6336 59.8388 53.7332C59.8465 53.8639 59.8134 54.0497 59.756 54.2836C59.7173 54.4408 59.6683 54.6176 59.6145 54.8115C59.5885 54.905 59.5615 55.0026 59.5339 55.1039C59.3651 55.7247 59.1803 56.4799 59.1343 57.2839C59.0839 58.1657 59.2553 59.5997 59.4435 60.3828L58.1992 60.1401C57.9742 59.3182 57.5733 57.3681 57.7251 55.9763C57.8678 54.6688 58.3073 53.2591 58.5141 52.5958C58.5251 52.5607 58.5354 52.5277 58.5449 52.4969C58.775 52.6207 59.0846 52.8218 59.3439 53.044C59.4801 53.1607 59.6015 53.2824 59.6902 53.4012Z" fill="#C97327"/>
<path d="M59.8704 53.7315C59.8448 53.2961 58.995 52.6962 58.5253 52.4507C58.3439 53.0377 57.8466 54.5641 57.6929 55.9731C57.5392 57.382 57.9491 59.3567 58.1732 60.1679L59.4861 60.424C58.7816 59.2072 58.0909 57.1899 58.1732 55.7489C58.2647 54.1478 59.9024 54.2759 59.8704 53.7315Z" fill="#690E13"/>
<path d="M59.2615 62.8575C59.3896 63.2674 59.3149 63.7968 59.2615 64.0103C59.4536 63.626 59.8379 62.6782 59.8379 61.9609C59.8379 61.0643 59.7098 60.1357 58.8452 59.5913C58.1077 59.1269 57.9486 57.8942 57.9486 56.3251C57.9486 53.7634 58.3649 53.3151 59.2615 53.155L58.3649 52.8027C57.7885 54.2117 57.5644 55.8765 57.5644 57.0296C57.5644 59.7194 59.1014 62.3452 59.2615 62.8575Z" fill="#52060B"/>
<path d="M17.3127 58.8228V59.6874L18.8498 59.4952L18.9138 58.5666L19.7784 55.9729L17.3127 58.8228Z" fill="#49050B"/>
<path d="M19.7788 55.9729L18.8822 58.6307L19.9709 58.4705L19.7788 55.9729Z" fill="#F18F51"/>
<path d="M45.7479 58.6626L45.9401 59.9435L47.349 60.1356L47.2209 58.9508L47.317 56.4211L45.7479 58.6626Z" fill="#49050B"/>
<path d="M47.2209 58.8868L47.317 56.4211L48.3097 59.0149L47.2209 58.8868Z" fill="#EA7946"/>
<g style="mix-blend-mode:soft-light" opacity="0.5">
<path d="M9.62747 52.4517C9.62747 52.6816 9.4411 52.868 9.2112 52.868C8.98129 52.868 8.79492 52.6816 8.79492 52.4517C8.79492 52.2218 8.98129 52.0354 9.2112 52.0354C9.4411 52.0354 9.62747 52.2218 9.62747 52.4517Z" fill="white" style="mix-blend-mode:overlay"/>
<path d="M12.5085 57.1908C12.5085 57.4915 12.2648 57.7352 11.9642 57.7352C11.6635 57.7352 11.4198 57.4915 11.4198 57.1908C11.4198 56.8902 11.6635 56.6465 11.9642 56.6465C12.2648 56.6465 12.5085 56.8902 12.5085 57.1908Z" fill="white" style="mix-blend-mode:overlay"/>
<path d="M14.7503 52.2277C14.7503 52.5106 14.5209 52.74 14.2379 52.74C13.955 52.74 13.7256 52.5106 13.7256 52.2277C13.7256 51.9447 13.955 51.7153 14.2379 51.7153C14.5209 51.7153 14.7503 51.9447 14.7503 52.2277Z" fill="white" style="mix-blend-mode:overlay"/>
<path d="M22.3714 51.8753C22.3714 52.1052 22.185 52.2915 21.9551 52.2915C21.7252 52.2915 21.5388 52.1052 21.5388 51.8753C21.5388 51.6454 21.7252 51.459 21.9551 51.459C22.185 51.459 22.3714 51.6454 22.3714 51.8753Z" fill="white" style="mix-blend-mode:overlay"/>
</g>
<g style="mix-blend-mode:overlay" opacity="0.5">
<path d="M54.3254 53.0685C54.302 53.2972 54.4685 53.5016 54.6972 53.5249C54.9259 53.5483 55.1302 53.3818 55.1536 53.1531C55.177 52.9244 55.0105 52.7201 54.7818 52.6967C54.5531 52.6733 54.3487 52.8398 54.3254 53.0685Z" fill="white" style="mix-blend-mode:overlay"/>
<path d="M50.9758 57.4905C50.9453 57.7895 51.163 58.0568 51.4621 58.0873C51.7611 58.1179 52.0284 57.9002 52.0589 57.6011C52.0895 57.302 51.8718 57.0348 51.5727 57.0042C51.2736 56.9737 51.0064 57.1914 50.9758 57.4905Z" fill="white" style="mix-blend-mode:overlay"/>
<path d="M49.2511 52.3247C49.2223 52.6062 49.4272 52.8577 49.7087 52.8865C49.9902 52.9152 50.2417 52.7104 50.2704 52.4289C50.2992 52.1474 50.0943 51.8959 49.8128 51.8671C49.5313 51.8384 49.2798 52.0432 49.2511 52.3247Z" fill="white" style="mix-blend-mode:overlay"/>
<path d="M41.7048 51.1999C41.6814 51.4286 41.8479 51.6329 42.0766 51.6563C42.3053 51.6797 42.5096 51.5132 42.533 51.2845C42.5564 51.0558 42.3899 50.8514 42.1612 50.8281C41.9325 50.8047 41.7281 50.9711 41.7048 51.1999Z" fill="white" style="mix-blend-mode:overlay"/>
</g>
<g filter="url(#filter0_d_1794_71935)">
<path d="M22.3701 51.0711L22.2024 51.1168C21.8569 51.4674 21.5978 51.8459 21.4251 52.2524C21.2523 52.6588 21.1634 53.0526 21.1583 53.4336C21.1533 53.8096 21.2218 54.1195 21.3641 54.3634C21.5064 54.6022 21.7274 54.8029 22.0271 54.9655C22.6521 54.747 23.1728 54.4904 23.5894 54.1957C23.8028 54.1805 23.9527 54.2288 24.0391 54.3405C24.1305 54.4523 24.1712 54.6149 24.161 54.8283C23.6225 55.3821 22.8502 55.8063 21.8442 56.101C21.0466 55.9943 20.4293 55.7149 19.9923 55.2627C19.5554 54.8105 19.342 54.2516 19.3522 53.5861C19.3572 53.2355 19.4207 52.8976 19.5427 52.5725C19.6646 52.2422 19.8501 51.8815 20.099 51.4903C20.5309 51.1092 20.9653 50.8272 21.4022 50.6443C21.8442 50.4614 22.3523 50.3344 22.9264 50.2633C23.3989 50.436 23.7495 50.6672 23.9781 50.9568C24.2118 51.2413 24.3592 51.5919 24.4201 52.0085C24.3388 52.2321 24.1204 52.3946 23.7647 52.4963C23.4142 52.5979 23.0534 52.5699 22.6825 52.4124C22.6571 51.7214 22.553 51.2743 22.3701 51.0711Z" fill="#FDD689"/>
<path d="M28.5478 53.0526C28.6291 53.0932 28.657 53.1948 28.6316 53.3574C28.6062 53.52 28.5351 53.6775 28.4182 53.8299L25.0421 53.9138C24.9811 53.8426 24.9608 53.7334 24.9811 53.5861C25.0014 53.4387 25.0573 53.299 25.1488 53.1669L26.6501 53.205L28.5478 53.0526Z" fill="#FDD689"/>
<path d="M31.3511 50.2709C31.6356 50.2709 31.8719 50.3166 32.0599 50.4081L31.313 52.5953L31.2901 52.824L32.2504 52.2143L33.3326 50.2709C33.8102 50.3268 34.1633 50.464 34.3919 50.6824C34.6256 50.9009 34.7221 51.1829 34.6815 51.5284C34.2395 51.8535 33.3529 52.3997 32.0218 53.1669C32.2148 53.6242 32.479 53.9646 32.8144 54.1881C33.1497 54.4117 33.5993 54.5489 34.1633 54.5997C34.3208 54.8435 34.3081 55.1306 34.1252 55.4608C33.9473 55.786 33.6273 55.9994 33.1649 56.101C32.601 55.8165 32.1793 55.4481 31.8998 54.9959C31.6255 54.5387 31.4934 54.023 31.5035 53.4489L31.2444 53.5784C31.2343 53.7512 31.2139 54.0992 31.1834 54.6225C31.153 55.1407 31.1276 55.5548 31.1072 55.8647C30.9599 55.9918 30.7363 56.0654 30.4366 56.0858C30.1368 56.1061 29.8574 56.0756 29.5983 55.9943C29.3392 55.913 29.1791 55.8063 29.1181 55.6742C29.4484 54.8003 29.7583 53.5581 30.0479 51.9475V50.591C30.4899 50.3776 30.9243 50.2709 31.3511 50.2709Z" fill="#FDD689"/>
<path d="M36.716 53.5175C36.716 54.1017 36.9116 54.686 37.3028 55.2703C37.6432 55.0214 37.9455 54.7114 38.2097 54.3405C38.4739 53.9697 38.6517 53.5988 38.7432 53.2279C38.7025 52.7859 38.6314 52.4023 38.5298 52.0771C38.4282 51.7468 38.2579 51.4115 38.0192 51.0711C37.6584 51.3607 37.351 51.7468 37.097 52.2295C36.843 52.7071 36.716 53.1364 36.716 53.5175ZM34.986 53.6165C34.986 53.0678 35.1257 52.5344 35.4051 52.0161C35.6846 51.4979 36.0682 51.0737 36.5559 50.7434C37.0437 50.4132 37.5594 50.248 38.103 50.248C38.3215 50.248 38.5628 50.3217 38.827 50.4691C39.0912 50.6164 39.3351 50.8069 39.5586 51.0406C39.7872 51.2743 39.9778 51.5538 40.1302 51.8789C40.5163 52.6919 40.4477 53.5302 39.9244 54.3939C39.6196 54.902 39.2233 55.3135 38.7355 55.6285C38.2529 55.9435 37.7677 56.101 37.2799 56.101C36.9497 56.101 36.6042 55.9791 36.2435 55.7352C35.8878 55.4913 35.588 55.1738 35.3442 54.7826C35.1054 54.3913 34.986 54.0027 34.986 53.6165Z" fill="#FDD689"/>
<path d="M44.4529 54.6073C44.6917 54.7089 44.8111 54.8867 44.8111 55.1407C44.8111 55.3948 44.74 55.6031 44.5977 55.7657L41.8237 56.101C41.1428 55.8724 40.7364 55.537 40.6043 55.095C41.0057 54.0128 41.3156 52.9738 41.5341 51.978L41.5188 50.6824C41.8694 50.5097 42.2276 50.4081 42.5934 50.3776C42.9592 50.342 43.2717 50.3827 43.5308 50.4995L42.7306 52.7935L42.441 55.1331C42.9897 55.0264 43.6603 54.8512 44.4529 54.6073Z" fill="#FDD689"/>
<path fill-rule="evenodd" clip-rule="evenodd" d="M21.4783 53.4381C21.4738 53.7739 21.5354 54.0215 21.6397 54.201C21.7292 54.3506 21.8651 54.4896 22.0597 54.6137C22.6014 54.414 23.048 54.1865 23.4043 53.9345L23.4773 53.8829L23.5664 53.8765C23.8273 53.8578 24.1084 53.9102 24.2895 54.1413C24.4482 54.3375 24.4927 54.5897 24.4807 54.8437L24.4749 54.9648L24.3904 55.0517C23.802 55.6567 22.9748 56.1036 21.934 56.4084L21.8689 56.4275L21.8016 56.4185C20.9527 56.305 20.2615 56.0024 19.7618 55.4853C19.2623 54.9684 19.0204 54.3262 19.0318 53.5814C19.0374 53.1947 19.1076 52.8206 19.2424 52.4609C19.3742 52.1041 19.5713 51.723 19.8286 51.3185L19.853 51.2803L19.8869 51.2503C20.3395 50.851 20.8031 50.5481 21.2783 50.3491L21.2789 50.3489L21.2796 50.3486C21.753 50.1527 22.2899 50.0196 22.8868 49.9457L22.9635 49.9361L23.0361 49.9627C23.5436 50.1482 23.9509 50.4072 24.2273 50.7561C24.5019 51.0913 24.6687 51.4976 24.7368 51.9623L24.7484 52.0422L24.7208 52.1181C24.5885 52.4822 24.2509 52.6903 23.8531 52.8041C23.4245 52.9282 22.9882 52.8903 22.5572 52.7073L22.3698 52.6277L22.3623 52.4243C22.35 52.0902 22.319 51.8279 22.2733 51.6317C22.2654 51.5978 22.2573 51.5667 22.249 51.5383C22.0194 51.8052 21.8439 52.0851 21.7196 52.3778C21.5605 52.7519 21.4827 53.1047 21.4783 53.4381ZM22.3699 51.0713C22.5528 51.2745 22.6569 51.7216 22.6823 52.4126C23.0532 52.5701 23.4139 52.598 23.7645 52.4964C24.1202 52.3948 24.3386 52.2322 24.4199 52.0086C24.3589 51.592 24.2116 51.2415 23.9779 50.9569C23.7493 50.6673 23.3987 50.4362 22.9262 50.2634C22.3521 50.3346 21.844 50.4616 21.402 50.6445C20.965 50.8274 20.5306 51.1094 20.0988 51.4904C19.8498 51.8816 19.6644 52.2424 19.5425 52.5726C19.4205 52.8978 19.357 53.2356 19.3519 53.5862C19.3418 54.2518 19.5552 54.8106 19.9921 55.2628C20.429 55.715 21.0463 55.9944 21.844 56.1011C22.85 55.8065 23.6222 55.3822 24.1608 54.8284C24.171 54.615 24.1303 54.4525 24.0389 54.3407C23.9525 54.2289 23.8026 54.1806 23.5892 54.1959C23.1726 54.4906 22.6518 54.7471 22.0269 54.9656C21.7272 54.803 21.5061 54.6023 21.3639 54.3635C21.2216 54.1197 21.153 53.8098 21.1581 53.4338C21.1632 53.0527 21.2521 52.659 21.4249 52.2525C21.5976 51.8461 21.8567 51.4676 22.2022 51.117L22.3699 51.0713ZM28.6109 52.7264L28.6907 52.7663C28.8259 52.8339 28.9044 52.9515 28.9382 53.0745C28.9691 53.1867 28.9639 53.3034 28.9477 53.407C28.9128 53.6307 28.8161 53.8371 28.6721 54.0249L28.579 54.1464L24.8977 54.2378L24.7987 54.1223C24.6507 53.9495 24.6381 53.7281 24.6637 53.5424C24.6914 53.3414 24.7676 53.1548 24.8853 52.9848L24.9837 52.8425L26.6411 52.8846L28.6109 52.7264ZM26.6499 53.2052L25.1486 53.167C25.0571 53.2991 25.0012 53.4389 24.9809 53.5862C24.9606 53.7335 24.9809 53.8428 25.0419 53.9139L28.418 53.8301C28.5348 53.6777 28.606 53.5202 28.6314 53.3576C28.6568 53.195 28.6288 53.0934 28.5475 53.0527L26.6499 53.2052ZM32.4541 50.244L31.8168 52.1102L32.0099 51.9876L33.1568 49.9281L33.3696 49.953C33.8815 50.0129 34.3126 50.1649 34.6116 50.4499C34.926 50.7445 35.0506 51.1302 34.9993 51.5659L34.9831 51.7041L34.871 51.7865C34.4427 52.1015 33.6278 52.6061 32.4388 53.2957C32.5932 53.5753 32.7792 53.7801 32.9917 53.9218C33.2682 54.1062 33.6607 54.233 34.1918 54.2809L34.3473 54.2949L34.432 54.4261C34.6731 54.7993 34.6252 55.2181 34.4055 55.6153C34.1715 56.0426 33.759 56.2984 33.2334 56.4139L33.1222 56.4383L33.0205 56.387C32.4138 56.081 31.9431 55.6756 31.6272 55.1644L31.6261 55.1626L31.625 55.1608C31.5748 55.0771 31.5289 54.9918 31.4873 54.9047C31.4636 55.3023 31.4434 55.6294 31.4265 55.8858L31.4178 56.0198L31.3161 56.1074C31.0946 56.2984 30.7916 56.3828 30.458 56.4054C30.1228 56.4281 29.8031 56.3944 29.5022 56.3C29.2249 56.213 28.9481 56.0705 28.8272 55.8086L28.7709 55.6867L28.8184 55.5612C29.1366 54.7193 29.4407 53.5086 29.7275 51.9191V50.3901L29.9085 50.3028C30.3874 50.0716 30.8692 49.9508 31.3509 49.9508C31.6673 49.9508 31.9553 50.0014 32.1997 50.1203L32.4541 50.244ZM30.0477 51.9477C29.7581 53.5583 29.4482 54.8005 29.1179 55.6744C29.1789 55.8065 29.3389 55.9132 29.5981 55.9944C29.8572 56.0757 30.1366 56.1062 30.4364 56.0859C30.7361 56.0656 30.9597 55.9919 31.107 55.8649C31.1273 55.555 31.1527 55.1409 31.1832 54.6227C31.1971 54.3841 31.2089 54.1819 31.2186 54.0162C31.2301 53.8184 31.2387 53.6726 31.2442 53.5786L31.5033 53.449C31.5024 53.4977 31.5026 53.546 31.5038 53.5939C31.5055 53.6638 31.5094 53.7328 31.5155 53.8009C31.5216 53.8686 31.5298 53.9354 31.5402 54.0014C31.5965 54.359 31.7163 54.6906 31.8996 54.9961C32.179 55.4483 32.6007 55.8166 33.1647 56.1011C33.627 55.9995 33.9471 55.7861 34.1249 55.461C34.3079 55.1307 34.3206 54.8437 34.1631 54.5998C33.5991 54.549 33.1495 54.4118 32.8141 54.1883C32.4788 53.9647 32.2146 53.6243 32.0215 53.167C33.3527 52.3999 34.2393 51.8537 34.6813 51.5285C34.7219 51.183 34.6254 50.9011 34.3917 50.6826C34.1631 50.4641 33.8099 50.3269 33.3324 50.2711L32.2502 52.2144L31.2899 52.8241L31.3128 52.5955L32.0596 50.4082C31.9773 50.3682 31.8856 50.3369 31.7847 50.3143C31.775 50.3122 31.7653 50.3101 31.7555 50.3081C31.6336 50.2834 31.4988 50.2711 31.3509 50.2711C30.9241 50.2711 30.4897 50.3777 30.0477 50.5911V51.9477ZM38.2237 52.1721L38.2235 52.1714C38.163 51.9749 38.074 51.7726 37.9543 51.5644C37.7415 51.7865 37.5496 52.0568 37.3802 52.3788L37.3798 52.3794L37.3795 52.38C37.1404 52.8296 37.036 53.2064 37.036 53.5176C37.036 53.9317 37.1481 54.3552 37.3856 54.7909C37.5891 54.6078 37.7768 54.3961 37.9487 54.1549C38.181 53.8287 38.3351 53.5113 38.4188 53.2024C38.379 52.8004 38.3131 52.4581 38.2239 52.1727L38.2237 52.1721ZM38.7429 53.228C38.6515 53.5989 38.4737 53.9698 38.2095 54.3407C38.0121 54.6177 37.7935 54.8607 37.5536 55.0698C37.4724 55.1406 37.3887 55.2075 37.3026 55.2705C37.2415 55.1793 37.1853 55.0882 37.1338 54.9971C36.8551 54.5039 36.7157 54.0108 36.7157 53.5176C36.7157 53.1366 36.8428 52.7072 37.0968 52.2297C37.2924 51.858 37.5196 51.5436 37.7785 51.2864C37.8558 51.2096 37.936 51.1379 38.0189 51.0713C38.0823 51.1616 38.1408 51.2516 38.1945 51.3412C38.3432 51.5893 38.4549 51.8346 38.5295 52.0772C38.6312 52.4024 38.7023 52.786 38.7429 53.228ZM36.063 56L36.0621 55.9994C35.6676 55.7289 35.3378 55.3782 35.0722 54.9521L35.0714 54.9508L35.0706 54.9495C34.807 54.5176 34.6656 54.0719 34.6656 53.6167C34.6656 53.0111 34.8203 52.4257 35.1231 51.8643C35.427 51.3006 35.8457 50.8376 36.3762 50.4784C36.9123 50.1154 37.4898 49.928 38.1028 49.928C38.3928 49.928 38.6883 50.0253 38.9827 50.1895C39.2762 50.3532 39.5448 50.5635 39.7885 50.8181C40.0439 51.0795 40.2536 51.3887 40.4195 51.7423C40.8577 52.6653 40.7691 53.6172 40.1984 54.5593C39.8691 55.108 39.439 55.5552 38.9097 55.8972C38.3848 56.2396 37.8399 56.4214 37.2797 56.4214C36.868 56.4214 36.461 56.269 36.0639 56.0006L36.063 56ZM38.7353 55.6286C39.2231 55.3136 39.6194 54.9021 39.9242 54.394C40.4475 53.5303 40.5161 52.692 40.13 51.8791C39.9775 51.5539 39.787 51.2745 39.5584 51.0408C39.3348 50.8071 39.091 50.6165 38.8268 50.4692C38.5626 50.3219 38.3212 50.2482 38.1028 50.2482C37.5591 50.2482 37.0434 50.4133 36.5557 50.7436C36.068 51.0738 35.6844 51.498 35.4049 52.0163C35.1255 52.5345 34.9858 53.068 34.9858 53.6167C34.9858 54.0028 35.1052 54.3915 35.344 54.7827C35.5878 55.1739 35.8876 55.4915 36.2432 55.7353C36.604 55.9792 36.9495 56.1011 37.2797 56.1011C37.7674 56.1011 38.2526 55.9436 38.7353 55.6286ZM44.4704 54.267L44.5781 54.3128C44.7424 54.3827 44.8862 54.4881 44.9872 54.6385C45.0885 54.7894 45.1311 54.9624 45.1311 55.1409C45.1311 55.4581 45.0406 55.7457 44.8385 55.9767L44.7577 56.069L41.7901 56.4277L41.7215 56.4047C40.9987 56.162 40.4729 55.7747 40.2973 55.1869L40.2666 55.0842L40.3038 54.9838C40.6959 53.9267 40.9988 52.9139 41.2132 51.9452L41.196 50.4846L41.3771 50.3954C41.7606 50.2064 42.1568 50.0931 42.5644 50.0588C42.969 50.0198 43.3399 50.0624 43.6622 50.2078L43.9295 50.3283L43.0439 52.8668L42.8138 54.7259C43.2587 54.6227 43.7733 54.4814 44.3585 54.3014L44.4704 54.267ZM42.772 55.0638C42.657 55.0895 42.5466 55.1127 42.4407 55.1333L42.7303 52.7936L43.5306 50.4997C43.4582 50.4671 43.3817 50.4404 43.3011 50.4196C43.2763 50.4133 43.2511 50.4074 43.2254 50.4022C43.0362 50.3633 42.8254 50.3552 42.5932 50.3777C42.2274 50.4082 41.8692 50.5098 41.5186 50.6826L41.5338 51.9782C41.3154 52.974 41.0055 54.013 40.6041 55.0952C40.7362 55.5372 41.1426 55.8725 41.8234 56.1011L44.5975 55.7658C44.7398 55.6032 44.8109 55.3949 44.8109 55.1409C44.8109 54.8869 44.6915 54.709 44.4527 54.6074C43.813 54.8042 43.2528 54.9564 42.772 55.0638Z" fill="#802621"/>
<g opacity="0.6">
<g style="mix-blend-mode:overlay">
<path d="M21.0275 51.766C20.9448 52.0181 20.7825 52.1911 20.6648 52.1526C20.5472 52.114 20.5188 51.8784 20.6015 51.6263C20.6841 51.3743 20.8465 51.2012 20.9641 51.2398C21.0817 51.2783 21.1101 51.5139 21.0275 51.766Z" fill="white"/>
</g>
<g style="mix-blend-mode:overlay" opacity="0.5">
<path d="M20.6215 52.6295C20.5789 52.7593 20.4954 52.8483 20.4348 52.8285C20.3743 52.8086 20.3597 52.6874 20.4022 52.5577C20.4448 52.4279 20.5283 52.3388 20.5889 52.3587C20.6494 52.3785 20.664 52.4998 20.6215 52.6295Z" fill="white"/>
</g>
</g>
<g opacity="0.6">
<g style="mix-blend-mode:overlay">
<path d="M30.9943 51.1799C30.955 51.4422 30.8239 51.64 30.7014 51.6217C30.579 51.6033 30.5116 51.3758 30.5509 51.1134C30.5902 50.8511 30.7213 50.6533 30.8437 50.6716C30.9662 50.69 31.0336 50.9175 30.9943 51.1799Z" fill="white"/>
</g>
<g style="mix-blend-mode:overlay" opacity="0.5">
<path d="M30.7366 52.0995C30.7164 52.2345 30.6489 52.3363 30.5859 52.3268C30.5229 52.3174 30.4882 52.2003 30.5084 52.0653C30.5286 51.9303 30.5961 51.8285 30.6591 51.8379C30.7221 51.8473 30.7568 51.9644 30.7366 52.0995Z" fill="white"/>
</g>
</g>
<g opacity="0.6">
<g style="mix-blend-mode:overlay">
<path d="M42.443 51.3342C42.4037 51.5965 42.2726 51.7943 42.1502 51.776C42.0277 51.7576 41.9603 51.5301 41.9996 51.2677C42.0389 51.0054 42.17 50.8076 42.2925 50.8259C42.4149 50.8443 42.4823 51.0718 42.443 51.3342Z" fill="white"/>
</g>
<g style="mix-blend-mode:overlay" opacity="0.5">
<path d="M42.1853 52.2537C42.1651 52.3888 42.0976 52.4906 42.0346 52.4811C41.9716 52.4717 41.9369 52.3546 41.9572 52.2196C41.9774 52.0846 42.0449 51.9827 42.1079 51.9922C42.1709 52.0016 42.2056 52.1187 42.1853 52.2537Z" fill="white"/>
</g>
</g>
<g opacity="0.6">
<g style="mix-blend-mode:overlay">
<path d="M39.1539 51.0626C39.3112 51.2762 39.3579 51.5088 39.2582 51.5822C39.1585 51.6557 38.9502 51.542 38.7929 51.3284C38.6356 51.1148 38.5889 50.8821 38.6885 50.8087C38.7882 50.7353 38.9965 50.849 39.1539 51.0626Z" fill="white"/>
</g>
<g style="mix-blend-mode:overlay" opacity="0.5">
<path d="M39.4908 52.0521C39.5403 52.1793 39.5324 52.3011 39.473 52.3243C39.4137 52.3474 39.3254 52.2631 39.2758 52.1358C39.2262 52.0086 39.2342 51.8868 39.2935 51.8636C39.3529 51.8405 39.4412 51.9249 39.4908 52.0521Z" fill="white"/>
</g>
</g>
</g>
<g filter="url(#filter1_d_1794_71935)">
<path d="M20.246 67.1164V62.3965H23.3968L24.1077 63.1074V64.2409L23.7875 64.5675L24.2934 65.0414V66.4055L23.5826 67.1164H20.246ZM21.4436 64.2281H22.7372L22.9614 64.0039V63.53L22.7372 63.3059H21.4436V64.2281ZM21.4436 66.207H22.8717L23.0958 65.9829V65.2848L22.8717 65.0606H21.4436V66.207Z" fill="url(#paint16_linear_1794_71935)"/>
<path d="M25.1537 67.1164L26.537 62.3965H28.4839L29.8672 67.1164H28.5992L28.3622 66.175H26.6587L26.4217 67.1164H25.1537ZM26.8957 65.2528H28.1253L27.6257 63.2995H27.3952L26.8957 65.2528Z" fill="url(#paint17_linear_1794_71935)"/>
<path d="M30.958 67.1164V62.3965H34.1089L34.8198 63.1074V64.2409L34.4996 64.5675L35.0055 65.0414V66.4055L34.2946 67.1164H30.958ZM32.1556 64.2281H33.4493L33.6734 64.0039V63.53L33.4493 63.3059H32.1556V64.2281ZM32.1556 66.207H33.5838L33.8079 65.9829V65.2848L33.5838 65.0606H32.1556V66.207Z" fill="url(#paint18_linear_1794_71935)"/>
<path d="M36.3829 67.1164V62.3965H39.5338L40.2446 63.1074V64.2409L39.9244 64.5675L40.4303 65.0414V66.4055L39.7195 67.1164H36.3829ZM37.5805 64.2281H38.8741L39.0983 64.0039V63.53L38.8741 63.3059H37.5805V64.2281ZM37.5805 66.207H39.0086L39.2327 65.9829V65.2848L39.0086 65.0606H37.5805V66.207Z" fill="url(#paint19_linear_1794_71935)"/>
<path d="M42.4737 67.1164L41.7757 66.4055V62.3965H42.9733V65.9829L43.1974 66.207H44.4975L44.7216 65.9829V62.3965H45.9192V66.4055L45.2083 67.1164H42.4737Z" fill="url(#paint20_linear_1794_71935)"/>
<path d="M18.0464 73.5206V68.8007H21.1973L21.9081 69.5116V70.6451L21.5879 70.9717L22.0939 71.4457V72.8098L21.383 73.5206H18.0464ZM19.244 70.6323H20.5376L20.7618 70.4082V69.9343L20.5376 69.7101H19.244V70.6323ZM19.244 72.6112H20.6721L20.8963 72.3871V71.689L20.6721 71.4649H19.244V72.6112Z" fill="url(#paint21_linear_1794_71935)"/>
<path d="M23.9852 73.5206L23.2743 72.8098V69.5116L23.9852 68.8007H26.7518L27.4627 69.5116V72.8098L26.7518 73.5206H23.9852ZM24.7025 72.6112H26.0474L26.2715 72.3871V69.9343L26.0346 69.7101H24.7025L24.4719 69.9343V72.3871L24.7025 72.6112Z" fill="url(#paint22_linear_1794_71935)"/>
<path d="M29.5371 73.5206L28.839 72.8098V68.8007H30.0366V72.3871L30.2608 72.6112H31.5608L31.785 72.3871V68.8007H32.9825V72.8098L32.2717 73.5206H29.5371Z" fill="url(#paint23_linear_1794_71935)"/>
<path d="M34.4897 73.5206V68.8007H35.7962L37.3845 71.6314V68.8007H38.4988V73.5206H37.3845L35.8346 70.754H35.6041V73.5206H34.4897Z" fill="url(#paint24_linear_1794_71935)"/>
<path d="M40.9364 73.5206V69.7742H39.6171V68.8007H43.4533V69.7742H42.134V73.5206H40.9364Z" fill="url(#paint25_linear_1794_71935)"/>
<path d="M45.7723 73.5206V71.8683L45.2984 71.4585L44.1969 68.8007H45.5738L46.2527 70.9717H46.4832L47.1621 68.8007H48.539L47.4374 71.4585L46.9635 71.8683V73.5206H45.7723Z" fill="url(#paint26_linear_1794_71935)"/>
</g>
<path fill-rule="evenodd" clip-rule="evenodd" d="M20.1821 62.3325H23.4236L24.172 63.0809V64.2671L23.8793 64.5656L24.3577 65.0137V66.4321L23.6093 67.1805H20.1821V62.3325ZM20.3102 62.4606V67.0524H23.5562L24.2296 66.3791V65.0693L23.6961 64.5695L24.0439 64.2148V63.134L23.3705 62.4606H20.3102ZM26.4893 62.3325H28.5321L29.9529 67.1805H28.5495L28.3125 66.2391H26.7088L26.4719 67.1805H25.0684L26.4893 62.3325ZM26.5852 62.4606L25.2394 67.0524H26.372L26.609 66.111H28.4123L28.6493 67.0524H29.7819L28.4361 62.4606H26.5852ZM30.8942 62.3325H34.1356L34.884 63.0809V64.2671L34.5914 64.5656L35.0698 65.0137V66.4321L34.3214 67.1805H30.8942V62.3325ZM31.0223 62.4606V67.0524H34.2683L34.9417 66.3791V65.0693L34.4082 64.5695L34.7559 64.2148V63.134L34.0826 62.4606H31.0223ZM36.319 62.3325H39.5605L40.3089 63.0809V64.2671L40.0162 64.5656L40.4946 65.0137V66.4321L39.7462 67.1805H36.319V62.3325ZM36.4471 62.4606V67.0524H39.6931L40.3665 66.3791V65.0693L39.833 64.5695L40.1808 64.2148V63.134L39.5074 62.4606H36.4471ZM41.7118 62.3325H43.0375V65.9564L43.2241 66.143H44.4712L44.6578 65.9564V62.3325H45.9835V66.4321L45.2351 67.1805H42.4471L41.7118 66.4318V62.3325ZM41.8399 62.4606V66.3794L42.5008 67.0524H45.182L45.8554 66.3791V62.4606H44.7859V66.0095L44.5242 66.2711H43.1711L42.9094 66.0095V62.4606H41.8399ZM27.3457 63.2355H27.6757L28.208 65.3169H26.8134L27.3457 63.2355ZM27.4451 63.3636L26.9783 65.1888H28.043L27.5762 63.3636H27.4451ZM21.3797 63.2419H22.7639L23.0256 63.5036V64.0306L22.7639 64.2922H21.3797V63.2419ZM21.5078 63.37V64.1641H22.7109L22.8975 63.9775V63.5566L22.7109 63.37H21.5078ZM32.0918 63.2419H33.476L33.7377 63.5036V64.0306L33.476 64.2922H32.0918V63.2419ZM32.2199 63.37V64.1641H33.423L33.6096 63.9775V63.5566L33.423 63.37H32.2199ZM37.5166 63.2419H38.9008L39.1625 63.5036V64.0306L38.9008 64.2922H37.5166V63.2419ZM37.6447 63.37V64.1641H38.8478L39.0344 63.9775V63.5566L38.8478 63.37H37.6447ZM21.3797 64.9967H22.8984L23.1601 65.2583V66.0095L22.8984 66.2711H21.3797V64.9967ZM21.5078 65.1248V66.143H22.8454L23.032 65.9564V65.3114L22.8454 65.1248H21.5078ZM32.0918 64.9967H33.6105L33.8722 65.2583V66.0095L33.6105 66.2711H32.0918V64.9967ZM32.2199 65.1248V66.143H33.5574L33.7441 65.9564V65.3114L33.5574 65.1248H32.2199ZM37.5166 64.9967H39.0353L39.297 65.2583V66.0095L39.0353 66.2711H37.5166V64.9967ZM37.6447 65.1248V66.143H38.9823L39.1689 65.9564V65.3114L38.9823 65.1248H37.6447ZM17.9825 68.7367H21.224L21.9724 69.4851V70.6714L21.6797 70.9699L22.1581 71.418V72.8364L21.4097 73.5848H17.9825V68.7367ZM18.1106 68.8648V73.4567H21.3567L22.03 72.7833V71.4735L21.4965 70.9738L21.8443 70.6191V69.5382L21.1709 68.8648H18.1106ZM23.9589 68.7367H26.7786L27.5269 69.4851V72.8364L26.7786 73.5848H23.9589L23.2105 72.8364V69.4851L23.9589 68.7367ZM24.0119 68.8648L23.3386 69.5382V72.7833L24.0119 73.4567H26.7255L27.3989 72.7833V69.5382L26.7255 68.8648H24.0119ZM28.7752 68.7367H30.1008V72.3606L30.2875 72.5473H31.5345L31.7211 72.3606V68.7367H33.0468V72.8364L32.2984 73.5848H29.5104L28.7752 72.836V68.7367ZM28.9033 68.8648V72.7837L29.5641 73.4567H32.2454L32.9187 72.7833V68.8648H31.8492V72.4137L31.5875 72.6754H30.2344L29.9728 72.4137V68.8648H28.9033ZM34.4259 68.7367H35.8339L37.3206 71.3864V68.7367H38.563V73.5848H37.3471L35.7973 70.8181H35.6683V73.5848H34.4259V68.7367ZM34.554 68.8648V73.4567H35.5402V70.69H35.8724L37.4222 73.4567H38.435V68.8648H37.4487V71.8765L35.7589 68.8648H34.554ZM39.5533 68.7367H43.5175V69.8383H42.1982V73.5848H40.8726V69.8383H39.5533V68.7367ZM39.6814 68.8648V69.7102H41.0006V73.4567H42.0702V69.7102H43.3894V68.8648H39.6814ZM44.1012 68.7367H45.6211L46.2999 70.9078H46.4363L47.1152 68.7367H48.635L47.491 71.4971L47.0278 71.8977V73.5848H45.7085V71.8977L45.2453 71.4971L44.1012 68.7367ZM44.293 68.8648L45.352 71.42L45.8366 71.8391V73.4567H46.8997V71.8391L47.3843 71.42L48.4433 68.8648H47.2093L46.5305 71.0359H46.2058L45.5269 68.8648H44.293ZM19.1801 69.6461H20.5644L20.826 69.9078V70.4348L20.5644 70.6964H19.1801V69.6461ZM19.3082 69.7742V70.5684H20.5113L20.6979 70.3817V69.9609L20.5113 69.7742H19.3082ZM24.6767 69.6461H26.0603L26.3358 69.9068V72.4137L26.0741 72.6754H24.6767L24.4081 72.4142V69.9073L24.6767 69.6461ZM24.7287 69.7742L24.5362 69.9614V72.3601L24.7287 72.5473H26.021L26.2077 72.3606V69.9619L26.0093 69.7742H24.7287ZM19.1801 71.4009H20.6988L20.9605 71.6626V72.4137L20.6988 72.6754H19.1801V71.4009ZM19.3082 71.529V72.5473H20.6458L20.8324 72.3606V71.7156L20.6458 71.529H19.3082Z" fill="url(#paint27_linear_1794_71935)"/>
<path d="M7.79348 78.26H13.5253C13.5253 78.26 10.6841 77.1713 8.40188 74.0332C6.11965 70.8951 5.35988 68.5576 4.97562 66.6043C4.96495 69.3581 4.97562 75.4742 4.97562 75.4742C4.97562 76.8511 6.48062 78.26 7.79348 78.26Z" fill="url(#paint28_radial_1794_71935)"/>
<path fill-rule="evenodd" clip-rule="evenodd" d="M4.75223 75.4419C4.75223 76.8189 5.48872 78.2278 7.57009 78.2278H13.3019C13.3019 78.2278 13.07 78.1281 12.6847 77.9076C11.7596 77.3781 9.94972 76.1522 8.3386 73.937C6.54907 71.4763 5.73498 69.567 5.28163 67.9156C5.15681 67.4609 5.05934 67.0258 4.97638 66.6041C4.97486 66.9962 4.96923 67.4558 4.96069 67.9557C4.90925 70.9671 4.75223 75.4419 4.75223 75.4419ZM5.26178 68.9368C5.23965 69.9579 5.2098 71.0619 5.18038 72.0651C5.15301 72.9982 5.12598 73.8451 5.10579 74.4588C5.0957 74.7657 5.08731 75.0142 5.08145 75.1861C5.07852 75.272 5.07622 75.3387 5.07465 75.384L5.07245 75.4474C5.07343 76.082 5.24425 76.6949 5.62495 77.1442C5.9989 77.5855 6.60776 77.9076 7.57009 77.9076H12.0657C11.889 77.7953 11.696 77.6665 11.4903 77.52C10.5123 76.8235 9.24483 75.7274 8.07964 74.1253C6.59153 72.0791 5.76588 70.4032 5.26178 68.9368Z" fill="white" style="mix-blend-mode:overlay"/>
<path fill-rule="evenodd" clip-rule="evenodd" d="M12.3181 77.5874C11.2815 76.96 9.76352 75.8278 8.43497 74.001C6.99455 72.0204 6.1606 70.3587 5.64474 68.9113C5.34327 68.0653 5.15044 67.2926 5.0087 66.5721C5.00613 67.2368 5.00479 68.0974 5.00425 69.0206C5.00256 71.9221 5.0087 75.4419 5.0087 75.4419C5.0087 76.8189 6.5137 78.2278 7.82656 78.2278H13.5583C13.5583 78.2278 13.0622 78.0377 12.3181 77.5874ZM11.1542 77.5874C10.169 76.8854 8.9846 75.8456 7.91703 74.3777C6.89846 72.9771 6.17255 71.7268 5.64444 70.5931C5.64454 71.0842 5.64479 71.5724 5.64512 72.0392C5.64579 72.9757 5.64679 73.8261 5.64762 74.4424C5.64804 74.7506 5.64842 75.0002 5.64869 75.1728L5.64912 75.4408C5.64912 75.4408 5.64912 75.4408 5.0087 75.4419L5.64912 75.4408L5.64913 75.4414V75.4419C5.64913 75.9053 5.91223 76.4461 6.3713 76.8916C6.83132 77.338 7.38424 77.5874 7.82656 77.5874H11.1542Z" fill="url(#paint29_radial_1794_71935)"/>
<path opacity="0.5" d="M4.94377 78.3879C4.94377 78.3879 15.7349 79.957 14.9344 78.0677L13.4934 66.5401L4.94377 66.5401C4.1207 70.6388 4.1207 75.1538 4.1207 75.1538C4.1207 76.5307 4.94377 78.3879 4.94377 78.3879Z" fill="url(#paint30_radial_1794_71935)"/>
<path d="M31.7893 51.8103C41.8289 51.8103 49.9676 50.5634 49.9676 49.0253C49.9676 47.4871 41.8289 46.2402 31.7893 46.2402C21.7497 46.2402 13.611 47.4871 13.611 49.0253C13.611 50.5634 21.7497 51.8103 31.7893 51.8103Z" fill="url(#paint31_radial_1794_71935)"/>
<path d="M37.0618 45.0821C36.0877 45.0115 26.3858 44.3208 25.3857 44.249L22.1661 43.9693C15.9982 43.2798 12.7985 39.2916 13.2329 33.2029C13.4879 29.6306 14.7158 22.2632 15.4969 19.9832C18.2485 11.9449 26.0578 11.8546 26.0578 11.8546C26.0578 11.8546 26.3623 10.3606 27.3538 8.87891C28.7166 8.96927 30.1735 11.6441 30.1735 11.6441L36.9108 12.1244C36.9108 12.1244 38.7328 9.68348 40.0944 9.78745C40.8656 11.3941 40.9547 12.9166 40.9547 12.9166C40.9547 12.9166 48.3889 14.095 50.2555 22.4625C50.7803 24.8156 50.8757 32.2968 50.6207 35.8691C50.1862 41.9578 46.453 45.4509 40.2504 45.2578L37.0618 45.0821Z" fill="url(#paint32_radial_1794_71935)"/>
<path d="M40.7304 45.6949C40.567 45.6949 40.4024 45.6925 40.2366 45.6875C40.2328 45.6875 40.2291 45.6875 40.2267 45.6875L37.0381 45.5105C37.0356 45.5105 37.0331 45.5105 37.0307 45.5105C36.0813 45.4424 26.5106 44.7604 25.3545 44.6775C25.352 44.6775 25.3495 44.6775 25.3483 44.6775L22.1288 44.3977C22.1251 44.3977 22.1214 44.3965 22.1177 44.3965C20.5456 44.2207 19.1333 43.8308 17.919 43.2391C16.7109 42.65 15.6922 41.8578 14.8926 40.8848C14.0967 39.9169 13.5149 38.7682 13.1647 37.471C12.8156 36.1787 12.6943 34.733 12.8057 33.1746C12.9282 31.4503 13.2798 28.7829 13.7452 26.0387C14.2279 23.1918 14.7193 20.934 15.0919 19.846C15.7405 17.9509 16.7196 16.3294 18.0032 15.0235C19.0306 13.9776 20.2535 13.1334 21.6349 12.5157C23.4508 11.7037 25.0475 11.4983 25.7196 11.4463C25.8682 10.9066 26.2408 9.77649 26.9983 8.6439C27.0837 8.51641 27.2298 8.44462 27.3833 8.45452C28.0752 8.50032 28.824 9.03257 29.6125 10.034C29.9876 10.5105 30.2797 10.9772 30.4319 11.2359L36.715 11.6839C36.9032 11.45 37.2584 11.0291 37.6978 10.6108C38.62 9.73069 39.4369 9.31108 40.1289 9.3643C40.2811 9.37544 40.416 9.46828 40.4829 9.60567C41.0733 10.836 41.2813 12.0082 41.3518 12.5628C41.9942 12.7101 43.492 13.1384 45.1395 14.1942C46.3971 15 47.4814 16.0076 48.3615 17.1884C49.4594 18.6602 50.238 20.4055 50.6762 22.3723C51.227 24.8393 51.2975 32.4381 51.05 35.9027C50.9386 37.4611 50.6143 38.8747 50.0845 40.105C49.5535 41.3391 48.8145 42.3937 47.8886 43.2391C46.9578 44.0883 45.8376 44.7282 44.5589 45.1404C43.4066 45.508 42.1205 45.6949 40.7304 45.6949ZM40.2687 44.831C41.7491 44.8768 43.1033 44.7047 44.2953 44.3222C45.4564 43.9484 46.4713 43.3703 47.3106 42.6042C48.1461 41.8417 48.8145 40.8861 49.2972 39.7634C49.7886 38.6209 50.0907 37.3014 50.1946 35.8396C50.3197 34.0844 50.3618 31.355 50.3036 28.7185C50.2404 25.8419 50.0709 23.5965 49.8394 22.5568C49.4285 20.7162 48.7043 19.0872 47.6881 17.717C46.8749 16.6215 45.8723 15.6845 44.7075 14.9332C43.6665 14.261 42.6849 13.8649 42.045 13.6496C41.3493 13.4156 40.8938 13.3413 40.8901 13.3401C40.6921 13.3079 40.5423 13.1421 40.5299 12.9415C40.5287 12.9279 40.4445 11.6406 39.8293 10.232C39.4233 10.3137 38.8911 10.6553 38.2982 11.2198C37.704 11.7854 37.2609 12.3759 37.2559 12.3808C37.1681 12.4972 37.0282 12.5615 36.8821 12.5516L30.1448 12.0714C29.9987 12.0615 29.8688 11.9773 29.7994 11.8486C29.7957 11.8424 29.4405 11.195 28.933 10.5514C28.4267 9.90893 27.9489 9.49551 27.5578 9.35688C26.7495 10.664 26.4821 11.9265 26.4797 11.9402C26.4388 12.137 26.2668 12.2806 26.065 12.283C26.0613 12.283 25.5823 12.2917 24.8383 12.4217C24.1551 12.5417 23.0992 12.7942 21.9555 13.3092C20.6769 13.886 19.5492 14.6695 18.6011 15.6375C17.4165 16.848 16.5092 18.3569 15.9051 20.122C15.5524 21.1531 15.0622 23.4183 14.5931 26.1798C14.1326 28.898 13.7848 31.5345 13.6635 33.2328C13.5595 34.6946 13.6709 36.0438 13.9952 37.2445C14.3133 38.4229 14.8394 39.4639 15.5586 40.3377C16.2802 41.2153 17.2024 41.9308 18.299 42.4668C19.4242 43.0151 20.7412 43.3778 22.213 43.5424L25.4238 43.8209C26.5935 43.9038 36.1258 44.5834 37.0938 44.6527L40.2687 44.831Z" fill="#000100"/>
<path d="M21.544 26.6355C21.4561 26.6355 21.3769 26.5761 21.3534 26.4882C21.3261 26.383 21.3893 26.2753 21.4945 26.248L23.0046 25.8581C23.1098 25.8309 23.2175 25.894 23.2447 25.9992C23.272 26.1045 23.2088 26.2122 23.1036 26.2394L21.5935 26.6293C21.5774 26.6342 21.5601 26.6355 21.544 26.6355Z" fill="#000100"/>
<path d="M23.109 25.2713C23.104 25.2713 23.0991 25.2713 23.0953 25.2713L21.5011 25.1574C21.3921 25.15 21.3104 25.0559 21.3191 24.947C21.3265 24.8381 21.4206 24.7564 21.5295 24.765L23.1238 24.8789C23.2327 24.8863 23.3144 24.9804 23.3058 25.0893C23.2971 25.1921 23.2117 25.2713 23.109 25.2713Z" fill="#000100"/>
<path d="M34.6937 23.3069C34.586 23.3218 34.5105 23.4208 34.5254 23.5285C34.5254 23.531 34.5576 23.8132 34.3645 24.0199C34.1875 24.208 33.8731 24.2873 33.4299 24.2563C33.2913 24.2464 33.1725 24.2093 33.0945 24.1499C33.04 24.109 32.9695 24.0347 32.9695 23.8676C32.9719 23.8516 32.9732 23.8355 32.9744 23.8194L33.0029 23.422C33.0103 23.3131 32.9286 23.219 32.8209 23.2116C32.8197 23.2116 32.8197 23.2116 32.8185 23.2116H32.8172C32.7083 23.2042 32.6142 23.2859 32.6068 23.3936L32.5783 23.7909C32.5771 23.8082 32.5759 23.8243 32.5759 23.8416C32.5511 24.0063 32.4719 24.0694 32.4112 24.1016C32.3258 24.1486 32.202 24.1697 32.0634 24.1598C31.6227 24.1288 31.3232 24.0063 31.1747 23.7971C31.01 23.5656 31.0818 23.2859 31.0831 23.2834V23.2846C31.0831 23.2846 31.1375 23.1138 30.9519 23.0519C30.7662 22.99 30.7043 23.1757 30.7043 23.1757C30.6993 23.1943 30.5793 23.6312 30.8504 24.0187C31.0695 24.3318 31.4693 24.5113 32.0362 24.5521C32.0696 24.5546 32.1018 24.5559 32.134 24.5559C32.3852 24.5559 32.5907 24.4828 32.7368 24.3491C32.7751 24.3962 32.8172 24.4345 32.8581 24.4643C33.0351 24.5979 33.2517 24.6388 33.4027 24.6487C33.4745 24.6536 33.5426 24.6561 33.6094 24.6561C34.0736 24.6561 34.4239 24.5336 34.6529 24.2885C34.9759 23.9431 34.919 23.4938 34.9165 23.474C34.9004 23.3676 34.8014 23.2921 34.6937 23.3069Z" fill="#000100"/>
<path d="M25.7912 23.0309C24.8393 23.2462 24.5051 23.6535 24.7576 24.1003C25.0101 24.5472 25.7441 24.2179 26.5338 24.057C27.4424 23.8726 27.8199 23.7921 27.7617 23.3279C27.6998 22.8365 27.1985 22.7127 25.7912 23.0309Z" fill="#000100"/>
<path d="M39.801 24.031C38.4531 23.5161 37.9406 23.5668 37.8082 24.0458C37.6844 24.4976 38.0458 24.6301 38.9197 24.942C39.6785 25.2131 40.3592 25.6426 40.6724 25.2366C40.9856 24.8294 40.7132 24.3788 39.801 24.031Z" fill="#000100"/>
<path d="M43.5139 28.2035C43.4892 28.2035 43.4632 28.1986 43.4384 28.1887L41.9988 27.5883C41.8986 27.5463 41.8515 27.4311 41.8924 27.3309C41.9345 27.2306 42.0496 27.1836 42.1499 27.2244L43.5894 27.8248C43.6897 27.8669 43.7367 27.982 43.6959 28.0822C43.6637 28.1577 43.5907 28.2035 43.5139 28.2035Z" fill="#000100"/>
<path d="M43.7542 26.743C43.7492 26.743 43.7443 26.743 43.7393 26.743L42.145 26.6291C42.0361 26.6217 41.9544 26.5276 41.963 26.4187C41.9705 26.3097 42.0645 26.228 42.1735 26.2367L43.7678 26.3506C43.8767 26.358 43.9584 26.4521 43.9497 26.561C43.9423 26.6637 43.8569 26.743 43.7542 26.743Z" fill="#000100"/>
<g style="mix-blend-mode:overlay">
<path d="M30.0716 12.421C30.0716 12.421 31.5099 17.9614 26.7159 18.3241C21.4528 18.7214 20.3004 14.1935 20.3004 14.1935C20.3004 14.1935 23.0807 12.2774 26.1453 12.2774C27.1269 9.80926 27.4413 9.30176 27.4413 9.30176C27.4413 9.30176 28.998 9.59482 30.0716 12.421Z" fill="url(#paint33_linear_1794_71935)"/>
</g>
<g style="mix-blend-mode:overlay">
<path d="M49.8856 22.5706C49.8856 22.5706 48.727 22.729 46.6648 24.8803C44.7672 26.8595 44.9542 30.6385 50.2247 30.6274C50.4686 27.2049 49.8856 22.5706 49.8856 22.5706Z" fill="url(#paint34_linear_1794_71935)"/>
</g>
<g style="mix-blend-mode:overlay">
<path d="M13.8651 30.9537C13.8651 30.9537 16.5846 31.4191 16.8049 28.7009C16.9596 26.7996 14.5261 26.4592 14.5261 26.4592L13.8651 30.9537Z" fill="url(#paint35_linear_1794_71935)"/>
</g>
<g style="mix-blend-mode:soft-light">
<path fill-rule="evenodd" clip-rule="evenodd" d="M33.2446 14.6249C33.5862 14.7573 33.9712 14.5877 34.1036 14.2461C34.2373 13.9045 34.0677 13.5195 33.7249 13.3871C33.3832 13.2546 32.9983 13.4242 32.8658 13.7658C32.7334 14.1075 32.903 14.4924 33.2446 14.6249ZM36.4307 15.0718C40.862 16.1029 44.4664 18.581 45.8713 19.815C47.2762 21.0491 48.5858 19.3942 44.8254 16.7676C42.2879 15.1151 39.3308 14.084 36.7711 13.8055C35.5333 13.6706 34.4044 14.6002 36.4307 15.0718Z" fill="white"/>
</g>
<path d="M23.1445 44.3658C23.1445 44.3658 21.3076 42.9448 20.2406 45.7657C19.8321 46.9491 17.7328 46.3636 17.994 44.8398C18.1673 43.8335 19.7182 41.2849 21.8336 41.473L23.1445 44.3658Z" fill="#921B73"/>
<path d="M19.3132 46.8214C19.1684 46.8214 19.0223 46.8029 18.8763 46.7657C18.469 46.6618 18.1125 46.4241 17.8712 46.0973C17.5927 45.7198 17.4899 45.2593 17.5741 44.7654C17.6273 44.4572 17.7759 44.0636 17.9949 43.6576C18.2326 43.2145 18.5359 42.7862 18.8713 42.4173C19.2761 41.9742 19.713 41.6289 20.1722 41.3937C20.7268 41.1102 21.2986 40.9914 21.873 41.0434C22.1081 41.0644 22.2827 41.2724 22.2616 41.5076C22.2406 41.7427 22.0326 41.9173 21.7975 41.8962C21.2516 41.848 20.4111 41.999 19.5038 42.9942C18.8985 43.6589 18.4925 44.477 18.4183 44.909C18.3737 45.1714 18.4207 45.3992 18.5594 45.5873C18.6819 45.7532 18.875 45.8795 19.0879 45.9339C19.6486 46.0775 19.8108 45.7 19.8368 45.6232C19.838 45.6195 19.8393 45.6158 19.8405 45.6121C20.2539 44.5179 20.8406 43.8569 21.5833 43.6465C22.55 43.3729 23.3732 43.998 23.4078 44.0252L22.8842 44.7036L22.8867 44.7048C22.8818 44.7011 22.3594 44.3149 21.8123 44.4733C21.3556 44.6058 20.952 45.1021 20.6463 45.9104C20.5176 46.2793 20.2514 46.5627 19.8987 46.7088C19.718 46.7843 19.5187 46.8214 19.3132 46.8214Z" fill="#000100"/>
<g style="mix-blend-mode:overlay">
<path d="M20.9298 42.3344C20.3777 42.3777 19.3417 43.0708 18.6782 44.8978C18.6225 45.1083 18.8738 45.3509 19.1226 44.8669C19.4642 44.2022 19.6623 43.8309 20.2292 43.181C20.7491 42.5856 21.3717 42.2997 20.9298 42.3344Z" fill="white"/>
</g>
<path fill-rule="evenodd" clip-rule="evenodd" d="M13.7275 32.8491C13.1024 37.7793 15.2265 42.0286 20.825 43.3419C20.825 43.3419 22.4973 44.0623 23.4616 44.3433C23.5098 43.2157 23.6571 41.3206 23.6571 41.3206C23.8539 38.6767 25.8654 35.5946 30.7782 34.936C30.7782 34.936 24.6338 34.936 20.7792 41.463C18.6366 41.2018 13.8414 37.3621 13.7275 32.8491ZM50.2896 33.3974C50.5483 37.6629 48.8835 44.0475 43.4211 44.0438C43.4211 44.0438 41.4777 44.0623 40.5135 44.3408C40.4652 43.2132 40.3179 41.3181 40.3179 41.3181C40.1211 38.6742 38.1084 35.592 33.1968 34.9335C33.1968 34.9335 39.5604 35.3024 43.4149 41.8293C46.0006 41.8293 50.1757 37.9104 50.2896 33.3974Z" fill="#921B73"/>
<path d="M40.83 44.3655C40.83 44.3655 42.6668 42.9445 43.7338 45.7655C44.1423 46.9488 46.2416 46.3633 45.9804 44.8396C45.8084 43.8333 44.2562 41.2846 42.1408 41.4728L40.83 44.3655Z" fill="#921B73"/>
<path d="M44.6615 46.8213C44.456 46.8213 44.2555 46.7841 44.076 46.7086C43.7233 46.5626 43.4584 46.2791 43.3284 45.9102C43.0227 45.1032 42.6192 44.6056 42.1624 44.4732C41.6153 44.3147 41.093 44.7009 41.088 44.7046L41.0905 44.7034L40.5669 44.0251C40.6016 43.9978 41.4247 43.374 42.3914 43.6463C43.1341 43.8567 43.7208 44.5177 44.1342 45.6119C44.1354 45.6157 44.1367 45.6194 44.1379 45.6231C44.1652 45.6998 44.3261 46.0774 44.8868 45.9338C45.0997 45.8793 45.2928 45.753 45.4153 45.5872C45.554 45.399 45.6022 45.1713 45.5564 44.9089C45.4822 44.4769 45.0762 43.6587 44.4709 42.994C43.5636 41.9988 42.7231 41.8478 42.1773 41.8961C41.9421 41.9171 41.7341 41.7426 41.7131 41.5074C41.692 41.2722 41.8666 41.0643 42.1018 41.0432C42.6761 40.9925 43.2492 41.1101 43.8025 41.3935C44.2617 41.6287 44.6999 41.9728 45.1034 42.4172C45.4388 42.7848 45.7421 43.2143 45.9798 43.6575C46.1976 44.0635 46.3474 44.4571 46.3994 44.7653C46.4835 45.2592 46.3808 45.7196 46.1023 46.0972C45.8609 46.4239 45.5044 46.6604 45.0972 46.7656C44.9524 46.8027 44.8051 46.8213 44.6615 46.8213Z" fill="#000100"/>
<g style="mix-blend-mode:overlay">
<path d="M43.0439 42.3344C43.596 42.3777 44.632 43.0708 45.2954 44.8978C45.3511 45.1083 45.0999 45.3509 44.8511 44.8669C44.5094 44.2022 44.3126 43.8309 43.7445 43.181C43.2246 42.5856 42.602 42.2997 43.0439 42.3344Z" fill="white"/>
</g>
<path d="M42.0289 34.2787C41.4991 34.2181 40.8121 34.4483 40.0149 35.4101C39.245 36.3966 37.449 35.1613 38.1904 33.8046C38.6769 32.9146 40.9483 31.0245 42.8792 31.8501L42.0289 34.2787Z" fill="#921B73"/>
<path d="M39.2945 36.1949C38.99 36.1949 38.6743 36.0971 38.3958 35.9139C38.0443 35.6837 37.7844 35.3433 37.6618 34.9559C37.5207 34.5078 37.5727 34.0399 37.8128 33.5992C37.9614 33.3269 38.2287 33.0051 38.5629 32.6944C38.9281 32.3553 39.3502 32.0495 39.7834 31.8094C40.3045 31.521 40.8256 31.3366 41.3331 31.2586C41.9446 31.1657 42.5202 31.2313 43.045 31.4554C43.2628 31.5482 43.3631 31.7995 43.2703 32.0173C43.1774 32.2352 42.9249 32.3355 42.7083 32.2426C42.2095 32.0297 41.369 31.9109 40.1981 32.5583C39.6138 32.8813 38.8439 33.499 38.5642 34.009C38.4367 34.2417 38.4082 34.4731 38.4775 34.6959C38.5394 34.8927 38.6805 35.0747 38.8649 35.196C39.3489 35.5141 39.6237 35.2096 39.6745 35.1453C39.6769 35.1415 39.6794 35.1391 39.6819 35.1354C40.0891 34.644 40.5075 34.2875 40.9259 34.077C41.3084 33.8839 41.6946 33.8084 42.0746 33.8518C42.3097 33.879 42.4781 34.0907 42.4521 34.3258C42.4249 34.561 42.2132 34.7294 41.978 34.7034C41.7676 34.6798 41.5435 34.7256 41.3133 34.842C41.0026 34.9992 40.6771 35.2802 40.3466 35.6775C40.1052 35.9845 39.7624 36.1664 39.3811 36.19C39.3526 36.1937 39.3242 36.1949 39.2945 36.1949Z" fill="#000100"/>
<g style="mix-blend-mode:overlay">
<path d="M42.1442 32.5137C41.6169 32.3441 40.3952 32.5904 39.0869 34.0288C38.9557 34.202 39.0956 34.5214 39.509 34.1686C40.0784 33.6834 40.4014 33.4148 41.1726 33.0299C41.8818 32.6771 42.5663 32.6499 42.1442 32.5137Z" fill="white"/>
</g>
<path d="M22.0977 32.8564C22.6312 32.8712 23.2773 33.1968 23.9309 34.2625C24.5535 35.348 26.5067 34.3801 25.9646 32.9331C25.6093 31.9837 23.6301 29.7904 21.6013 30.3325L22.0977 32.8564Z" fill="#921B73"/>
<path d="M24.7416 35.1564C24.6413 35.1564 24.5423 35.1465 24.447 35.1267C24.0732 35.0487 23.7588 34.8197 23.5632 34.4818C23.2934 34.0412 23.0111 33.7169 22.7252 33.5163C22.5135 33.3678 22.2982 33.2898 22.0865 33.2836C21.8501 33.2762 21.6644 33.0794 21.6706 32.843C21.678 32.6066 21.8748 32.4209 22.1113 32.4271C22.4925 32.4382 22.8651 32.5682 23.2154 32.8133C23.5991 33.0819 23.963 33.4941 24.296 34.0375C24.2984 34.0412 24.2997 34.0449 24.3022 34.0486C24.343 34.1192 24.572 34.4608 25.0968 34.2145C25.2961 34.1204 25.462 33.9607 25.5511 33.775C25.6526 33.5646 25.6563 33.3319 25.5635 33.0831C25.4112 32.6771 24.8654 31.953 24.1524 31.4146C23.0854 30.6075 22.2363 30.6063 21.7115 30.7462C21.4825 30.8068 21.2485 30.6719 21.1866 30.4429C21.126 30.2139 21.2609 29.98 21.4899 29.9181C22.0407 29.7708 22.6212 29.7869 23.2129 29.9651C23.7043 30.1136 24.1932 30.3711 24.6685 30.7301C25.0634 31.0284 25.4385 31.391 25.7516 31.7797C26.0388 32.135 26.2579 32.4914 26.3668 32.7823C26.5426 33.2515 26.5277 33.7231 26.3247 34.1464C26.149 34.5115 25.8432 34.8123 25.462 34.9906C25.2293 35.1007 24.9817 35.1564 24.7416 35.1564Z" fill="#000100"/>
<g style="mix-blend-mode:overlay">
<path d="M22.2358 31.094C22.7816 31.0012 23.9563 31.4183 25.0481 33.0275C25.1533 33.2181 24.9688 33.5139 24.6099 33.1067C24.116 32.5459 23.8338 32.234 23.1245 31.7438C22.4722 31.2933 21.7988 31.1695 22.2358 31.094Z" fill="white"/>
</g>
<path d="M23.6151 41.7685C23.453 43.8133 23.453 44.6105 23.4604 44.6934C28.3225 44.6934 32.0421 44.6934 32.0421 44.6934C32.0421 44.6934 35.6329 44.6934 40.495 44.6934C40.495 44.6934 40.495 43.9928 40.4702 41.7685C40.4715 32.6682 23.9964 32.3786 23.6151 41.7685Z" fill="#000100"/>
<path d="M25.0368 48.6076C25.0368 48.6076 22.482 48.6076 19.1424 48.6076C12.1167 48.6076 13.5785 40.1052 18.8231 42.8778C17.7672 44.3508 16.9862 45.4648 19.0001 46.413C19.9297 46.8499 20.2515 45.7372 20.629 45.0687C22.9697 45.4846 24.283 47.6681 25.0368 48.6076Z" fill="#7C005C"/>
<path d="M25.0374 49.0357H19.143C17.8396 49.0357 16.7305 48.7597 15.8467 48.2163C15.0632 47.7336 14.4876 47.0515 14.1819 46.2445C13.9368 45.5959 13.8786 44.9052 14.016 44.2467C14.1546 43.5795 14.4789 43.004 14.9543 42.5843C15.4296 42.1647 16.0349 41.9271 16.7045 41.8961C17.4261 41.8627 18.2072 42.0657 19.0254 42.4977C19.1343 42.5559 19.2135 42.6574 19.242 42.7787C19.2705 42.9 19.2457 43.0262 19.1727 43.1265C18.6045 43.9187 18.0686 44.6663 18.1998 45.1689C18.2765 45.4647 18.6082 45.7531 19.1838 46.0242C19.414 46.1331 19.5081 46.07 19.5997 45.9846C19.7681 45.8261 19.9154 45.5291 20.0577 45.2406C20.1221 45.1119 20.1877 44.9795 20.2558 44.8569C20.3449 44.6985 20.5244 44.6143 20.7038 44.6465C21.2225 44.7381 21.7287 44.9176 22.2102 45.1775C22.6199 45.3991 23.0235 45.6875 23.4097 46.0341C24.1065 46.6579 24.645 47.3783 25.0386 47.9031C25.1649 48.0715 25.2725 48.2163 25.3716 48.3388C25.4743 48.4676 25.4954 48.6433 25.4236 48.7919C25.3518 48.9404 25.202 49.0357 25.0374 49.0357ZM16.8555 42.749C16.8171 42.749 16.78 42.7502 16.7416 42.7514C16.2626 42.7737 15.8517 42.9334 15.5199 43.2255C15.1845 43.5213 14.9543 43.9348 14.854 44.4188C14.7513 44.9176 14.7958 45.4436 14.9827 45.9388C15.2204 46.5676 15.6747 47.1023 16.296 47.4848C17.0424 47.944 18.0005 48.1779 19.143 48.1779H24.1734C23.448 47.2186 22.4058 45.9573 20.8573 45.5563C20.8462 45.5773 20.8363 45.5996 20.8251 45.6219C20.6568 45.9598 20.4674 46.3435 20.1864 46.6084C20.0045 46.7805 19.8002 46.8869 19.5799 46.924C19.3373 46.9661 19.0811 46.924 18.8174 46.8003C17.9893 46.4104 17.5153 45.9474 17.3692 45.3855C17.259 44.9621 17.3345 44.5141 17.6044 43.9744C17.7554 43.6724 17.9609 43.358 18.1787 43.046C17.7096 42.848 17.2665 42.749 16.8555 42.749Z" fill="#000100"/>
<path d="M38.9501 48.6076C38.9501 48.6076 41.5049 48.6076 44.8445 48.6076C51.8702 48.6076 50.4084 40.1052 45.1638 42.8778C46.2197 44.3508 47.0007 45.4648 44.9868 46.413C44.0572 46.8499 43.7354 45.7371 43.3579 45.0687C41.0172 45.4846 39.7039 47.6681 38.9501 48.6076Z" fill="#7C005C"/>
<path d="M44.8449 49.0357H38.9505C38.7858 49.0357 38.6361 48.9417 38.5643 48.7931C38.4925 48.6446 38.5135 48.4688 38.6163 48.3401C38.7153 48.2176 38.823 48.0727 38.9492 47.9044C39.3429 47.3796 39.8813 46.6592 40.5782 46.0353C40.9644 45.6887 41.3691 45.4003 41.7776 45.1788C42.2591 44.9188 42.7654 44.7394 43.284 44.6478C43.4635 44.6156 43.643 44.701 43.7321 44.8582C43.8014 44.9795 43.867 45.1132 43.9314 45.2419C44.0737 45.5291 44.221 45.8261 44.3894 45.9846C44.481 46.0712 44.575 46.1331 44.8053 46.0242C45.3808 45.7531 45.7126 45.4647 45.7893 45.1689C45.9205 44.6651 45.3833 43.9175 44.8164 43.1253C44.7446 43.025 44.7186 42.8975 44.7471 42.7775C44.7756 42.6574 44.8548 42.5546 44.9637 42.4965C45.7819 42.0645 46.5617 41.8615 47.2846 41.8949C47.9542 41.9258 48.5595 42.1635 49.0348 42.5831C49.5101 43.0027 49.8344 43.5771 49.9731 44.2455C50.1092 44.904 50.0523 45.5947 49.8072 46.2433C49.5015 47.0503 48.9259 47.7323 48.1424 48.2151C47.2586 48.7597 46.1495 49.0357 44.8449 49.0357ZM39.8145 48.178H44.8449C45.9874 48.178 46.9454 47.9453 47.6918 47.4848C48.3132 47.1023 48.7662 46.5676 49.0051 45.9388C49.1933 45.4424 49.2366 44.9176 49.1338 44.4188C49.0336 43.9336 48.8034 43.5214 48.4679 43.2255C48.1362 42.9322 47.7252 42.7725 47.2462 42.7515C46.8043 42.7317 46.3228 42.8294 45.8104 43.0436C46.0282 43.3567 46.2337 43.6711 46.3847 43.9719C46.6545 44.5116 46.73 44.9609 46.6199 45.383C46.4738 45.945 45.9997 46.4079 45.1717 46.7978C44.908 46.9216 44.6518 46.9637 44.4092 46.9216C44.1888 46.8832 43.9846 46.7768 43.8026 46.606C43.5229 46.3423 43.3323 45.9586 43.1639 45.6207C43.1528 45.5984 43.1417 45.5761 43.1318 45.5551C41.582 45.9586 40.5398 47.2187 39.8145 48.178Z" fill="#000100"/>
<path d="M43.1537 44.1985C43.1537 46.6333 41.1807 48.6063 38.7459 48.6063H25.0373C22.6026 48.6063 20.6295 46.6333 20.6295 44.1985V40.6126C20.6295 38.1779 22.6026 36.2048 25.0373 36.2048H38.7459C41.1807 36.2048 43.1537 38.1791 43.1537 40.6126V44.1985Z" fill="url(#paint36_radial_1794_71935)"/>
<path d="M38.746 49.0357H25.0374C24.3851 49.0357 23.7513 48.9082 23.1547 48.6557C22.5791 48.4118 22.0617 48.064 21.6173 47.6196C21.173 47.1752 20.8251 46.6578 20.5813 46.0823C20.3288 45.4856 20.2013 44.8519 20.2013 44.1996V40.6137C20.2013 39.9613 20.3288 39.3276 20.5813 38.731C20.8251 38.1554 21.173 37.638 21.6173 37.1936C22.0617 36.7493 22.5791 36.4014 23.1547 36.1576C23.7513 35.9051 24.3851 35.7776 25.0374 35.7776H38.746C39.3983 35.7776 40.0321 35.9051 40.6287 36.1576C41.2043 36.4014 41.7217 36.7505 42.166 37.1936C42.6104 37.638 42.9582 38.1554 43.2021 38.731C43.4546 39.3276 43.5821 39.9613 43.5821 40.6137V44.1996C43.5821 44.8519 43.4546 45.4856 43.2021 46.0823C42.9582 46.6578 42.6104 47.1752 42.166 47.6196C41.7217 48.064 41.2043 48.4118 40.6287 48.6557C40.0321 48.9069 39.3983 49.0357 38.746 49.0357ZM25.0374 36.6341C23.9741 36.6341 22.9752 37.0476 22.2239 37.8002C21.4725 38.5515 21.0579 39.5516 21.0579 40.6137V44.1996C21.0579 45.2628 21.4713 46.2617 22.2239 47.0131C22.9752 47.7644 23.9753 48.1791 25.0374 48.1791H38.746C39.8093 48.1791 40.8082 47.7657 41.5607 47.0131C42.3121 46.2617 42.7268 45.2616 42.7268 44.1996V40.6137C42.7268 39.5504 42.3133 38.5515 41.5607 37.8002C40.8094 37.0488 39.8093 36.6341 38.746 36.6341H25.0374Z" fill="#000100"/>
<path d="M39.284 35.2282C39.284 35.7419 38.8668 36.159 38.3531 36.159H25.5852C25.0716 36.159 24.6544 35.7419 24.6544 35.2282V26.9411C24.6544 26.4274 25.0716 26.0103 25.5852 26.0103H38.3531C38.8668 26.0103 39.284 26.4274 39.284 26.9411V35.2282Z" fill="url(#paint37_radial_1794_71935)"/>
<path d="M38.3525 36.352H25.5846C24.9645 36.352 24.4607 35.8483 24.4607 35.2281V26.9411C24.4607 26.3209 24.9645 25.8171 25.5846 25.8171H38.3525C38.9726 25.8171 39.4764 26.3209 39.4764 26.9411V35.2281C39.4764 35.8483 38.9714 36.352 38.3525 36.352ZM25.5846 26.2033C25.1774 26.2033 24.8469 26.5351 24.8469 26.9411V35.2281C24.8469 35.6354 25.1786 35.9658 25.5846 35.9658H38.3525C38.7597 35.9658 39.0902 35.6341 39.0902 35.2281V26.9411C39.0902 26.5338 38.7585 26.2033 38.3525 26.2033H25.5846Z" fill="#000100"/>
<path fill-rule="evenodd" clip-rule="evenodd" d="M33.222 29.9101C33.8707 30.5588 33.8707 31.6106 33.222 32.2593C32.5733 32.908 31.5216 32.908 30.8729 32.2593C30.2242 31.6106 30.2242 30.5588 30.8729 29.9101C31.5216 29.2614 32.5733 29.2614 33.222 29.9101ZM32.4772 31.537C32.2902 31.537 32.142 31.48 32.0456 31.3781C31.9492 31.48 31.8009 31.537 31.6146 31.537C31.2556 31.537 30.9969 31.4417 30.8447 31.2548C30.6565 31.0233 30.7122 30.7436 30.7147 30.7312C30.7283 30.6644 30.7951 30.6211 30.862 30.6347C30.9288 30.6483 30.9721 30.7139 30.9585 30.7807C30.9573 30.7857 30.9263 30.9627 31.039 31.1001C31.1417 31.2251 31.3361 31.2882 31.6146 31.2882C31.8723 31.2882 31.9145 31.154 31.9214 31.0732C31.9206 31.0601 31.9202 31.0468 31.9202 31.0332V30.7819C31.9202 30.7139 31.9759 30.6582 32.044 30.6582C32.0449 30.6582 32.0458 30.6582 32.0467 30.6582C32.1147 30.6583 32.1703 30.714 32.1703 30.782V31.0332C32.1704 31.0471 32.17 31.0607 32.1692 31.0741C32.1764 31.1551 32.2193 31.2882 32.476 31.2882C32.7545 31.2882 32.9488 31.2251 33.0516 31.1001C33.1598 30.9683 33.135 30.8008 33.1323 30.7823C33.1321 30.7814 33.132 30.7808 33.132 30.7807C33.1184 30.7139 33.1605 30.6483 33.2286 30.6346C33.2954 30.621 33.3623 30.6643 33.3759 30.7312C33.3784 30.7436 33.4341 31.0233 33.2472 31.2548C33.0961 31.4417 32.8362 31.537 32.4772 31.537Z" fill="#FFE000"/>
<g style="mix-blend-mode:soft-light">
<path d="M25.555 39.5661C25.555 40.1107 25.1144 40.5513 24.5698 40.5513C24.0251 40.5513 23.5845 40.1094 23.5845 39.5661V37.8195C23.5845 37.2749 24.0251 36.8342 24.5698 36.8342C25.1144 36.8342 25.555 37.2749 25.555 37.8195V39.5661Z" fill="#FFD400"/>
<path d="M32.9488 39.5661C32.9488 40.1107 32.5082 40.5513 31.9636 40.5513C31.4189 40.5513 30.9783 40.1094 30.9783 39.5661V37.8195C30.9783 37.2749 31.4189 36.8342 31.9636 36.8342C32.5082 36.8342 32.9488 37.2749 32.9488 37.8195V39.5661Z" fill="#FFD400"/>
<path d="M40.3417 39.5661C40.3417 40.1107 39.901 40.5513 39.3564 40.5513C38.8117 40.5513 38.3711 40.1094 38.3711 39.5661V37.8195C38.3711 37.2749 38.8117 36.8342 39.3564 36.8342C39.901 36.8342 40.3417 37.2749 40.3417 37.8195V39.5661Z" fill="#FFD400"/>
<path d="M25.555 46.9979C25.555 47.5425 25.1144 47.9832 24.5698 47.9832C24.0251 47.9832 23.5845 47.5413 23.5845 46.9979V45.2514C23.5845 44.7068 24.0251 44.2661 24.5698 44.2661C25.1144 44.2661 25.555 44.7068 25.555 45.2514V46.9979Z" fill="#FFD400"/>
<path d="M40.3417 46.9979C40.3417 47.5425 39.901 47.9832 39.3564 47.9832C38.8117 47.9832 38.3711 47.5413 38.3711 46.9979V45.2514C38.3711 44.7068 38.8117 44.2661 39.3564 44.2661C39.901 44.2661 40.3417 44.7068 40.3417 45.2514V46.9979Z" fill="#FFD400"/>
<path d="M21.074 40.5144C21.6186 40.5144 22.0593 40.9551 22.0593 41.4997V43.2462C22.0593 43.7909 21.6186 44.2315 21.074 44.2315V40.5144Z" fill="#FFD400"/>
<path d="M42.7418 44.2696C42.1971 44.2696 41.7565 43.8289 41.7565 43.2843V41.5378C41.7565 40.9931 42.1971 40.5525 42.7418 40.5525V44.2696Z" fill="#FFD400"/>
<path d="M29.2399 43.2833C29.2399 43.828 28.7992 44.2686 28.2546 44.2686C27.7099 44.2686 27.2693 43.828 27.2693 43.2833V41.5368C27.2693 40.9922 27.7099 40.5515 28.2546 40.5515C28.7992 40.5515 29.2399 40.9922 29.2399 41.5368V43.2833Z" fill="#FFD400"/>
<path d="M32.9488 46.9979C32.9488 47.5425 32.5082 47.9832 31.9636 47.9832C31.4189 47.9832 30.9783 47.5413 30.9783 46.9979V45.2514C30.9783 44.7068 31.4189 44.2661 31.9636 44.2661C32.5082 44.2661 32.9488 44.7068 32.9488 45.2514V46.9979Z" fill="#FFD400"/>
<path d="M36.6337 43.2833C36.6337 43.828 36.193 44.2686 35.6484 44.2686C35.1037 44.2686 34.6631 43.828 34.6631 43.2833V41.5368C34.6631 40.9922 35.1037 40.5515 35.6484 40.5515C36.193 40.5515 36.6337 40.9922 36.6337 41.5368V43.2833Z" fill="#FFD400"/>
</g>
<defs>
<filter id="filter0_d_1794_71935" x="18.0314" y="48.928" width="28.0997" height="8.51025" filterUnits="userSpaceOnUse" color-interpolation-filters="sRGB">
<feFlood flood-opacity="0" result="BackgroundImageFix"/>
<feColorMatrix in="SourceAlpha" type="matrix" values="0 0 0 0 0 0 0 0 0 0 0 0 0 0 0 0 0 0 127 0" result="hardAlpha"/>
<feOffset/>
<feGaussianBlur stdDeviation="0.5"/>
<feComposite in2="hardAlpha" operator="out"/>
<feColorMatrix type="matrix" values="0 0 0 0 1 0 0 0 0 0.827808 0 0 0 0 0.425 0 0 0 1 0"/>
<feBlend mode="normal" in2="BackgroundImageFix" result="effect1_dropShadow_1794_71935"/>
<feBlend mode="normal" in="SourceGraphic" in2="effect1_dropShadow_1794_71935" result="shape"/>
</filter>
<filter id="filter1_d_1794_71935" x="0.0463867" y="62.3965" width="48.4926" height="28.1243" filterUnits="userSpaceOnUse" color-interpolation-filters="sRGB">
<feFlood flood-opacity="0" result="BackgroundImageFix"/>
<feColorMatrix in="SourceAlpha" type="matrix" values="0 0 0 0 0 0 0 0 0 0 0 0 0 0 0 0 0 0 127 0" result="hardAlpha"/>
<feOffset dx="-12" dy="11"/>
<feGaussianBlur stdDeviation="3"/>
<feComposite in2="hardAlpha" operator="out"/>
<feColorMatrix type="matrix" values="0 0 0 0 0.094375 0 0 0 0 0.113844 0 0 0 0 0.15 0 0 0 0.6 0"/>
<feBlend mode="normal" in2="BackgroundImageFix" result="effect1_dropShadow_1794_71935"/>
<feBlend mode="normal" in="SourceGraphic" in2="effect1_dropShadow_1794_71935" result="shape"/>
</filter>
<linearGradient id="paint0_linear_1794_71935" x1="31.9787" y1="0.512207" x2="41.9373" y2="78.8359" gradientUnits="userSpaceOnUse">
<stop stop-color="#EB6B36"/>
<stop offset="1" stop-color="#981E2A"/>
</linearGradient>
<linearGradient id="paint1_linear_1794_71935" x1="59.2969" y1="2.05005" x2="4.71027" y2="2.05005" gradientUnits="userSpaceOnUse">
<stop stop-color="#872A23"/>
<stop offset="0.358213" stop-color="#C43C2E"/>
<stop offset="0.510417" stop-color="#CD3F30"/>
<stop offset="0.663496" stop-color="#C33C2E"/>
<stop offset="1" stop-color="#872A23"/>
</linearGradient>
<linearGradient id="paint2_linear_1794_71935" x1="9.64941" y1="14.956" x2="54.2151" y2="14.956" gradientUnits="userSpaceOnUse">
<stop offset="0.01" stop-color="#070019"/>
<stop offset="1" stop-color="#1D6DAE"/>
</linearGradient>
<linearGradient id="paint3_linear_1794_71935" x1="6.29897" y1="13.1024" x2="50.6214" y2="13.1024" gradientUnits="userSpaceOnUse">
<stop stop-color="#1D6DAE"/>
<stop offset="0.99" stop-color="#070019"/>
</linearGradient>
<radialGradient id="paint4_radial_1794_71935" cx="0" cy="0" r="1" gradientUnits="userSpaceOnUse" gradientTransform="translate(30.0896 63.2419) rotate(82.2843) scale(15.0259 30.4995)">
<stop stop-color="#5F182B"/>
<stop offset="1" stop-color="#3D0B25"/>
</radialGradient>
<radialGradient id="paint5_radial_1794_71935" cx="0" cy="0" r="1" gradientUnits="userSpaceOnUse" gradientTransform="translate(27.1491 67.0296) rotate(156.268) scale(7.74759 9.48338)">
<stop stop-color="#FFD36C"/>
<stop offset="0.468334" stop-color="#D4320D"/>
<stop offset="1" stop-color="#990A02"/>
</radialGradient>
<radialGradient id="paint6_radial_1794_71935" cx="0" cy="0" r="1" gradientUnits="userSpaceOnUse" gradientTransform="translate(44.3084 69.6404) rotate(145.826) scale(3.1488 4.86165)">
<stop stop-color="#FFD36C"/>
<stop offset="0.468334" stop-color="#D4320D"/>
<stop offset="1" stop-color="#990A02"/>
</radialGradient>
<linearGradient id="paint7_linear_1794_71935" x1="59.312" y1="7.6211" x2="8.14223" y2="72.7201" gradientUnits="userSpaceOnUse">
<stop stop-color="#3E152B"/>
<stop offset="0.280707" stop-color="#4D192C"/>
<stop offset="1" stop-color="#CD3F30"/>
</linearGradient>
<radialGradient id="paint8_radial_1794_71935" cx="0" cy="0" r="1" gradientUnits="userSpaceOnUse" gradientTransform="translate(56.6118 5.09141) rotate(-134.791) scale(4.37675 4.02307)">
<stop stop-color="#D97E05"/>
<stop offset="0.447917" stop-color="#814F41"/>
<stop offset="0.967966" stop-color="#41162B"/>
</radialGradient>
<radialGradient id="paint9_radial_1794_71935" cx="0" cy="0" r="1" gradientUnits="userSpaceOnUse" gradientTransform="translate(57.9164 3.74646) rotate(139.05) scale(5.12996 5.77743)">
<stop stop-color="#E96936"/>
<stop offset="1" stop-color="#41162B"/>
</radialGradient>
<radialGradient id="paint10_radial_1794_71935" cx="0" cy="0" r="1" gradientUnits="userSpaceOnUse" gradientTransform="translate(56.6457 5.15545) rotate(-122.482) scale(3.41644 3.14036)">
<stop stop-color="#FEBF6B"/>
<stop offset="0.257896" stop-color="#FEBF6B" stop-opacity="0.5"/>
<stop offset="0.530635" stop-color="#FEBF6B" stop-opacity="0.3"/>
<stop offset="0.744194" stop-color="#FEBF6B" stop-opacity="0.2"/>
<stop offset="0.967966" stop-color="#FEBF6B" stop-opacity="0"/>
</radialGradient>
<linearGradient id="paint11_linear_1794_71935" x1="59.3248" y1="69.0697" x2="7.03429" y2="69.0697" gradientUnits="userSpaceOnUse">
<stop stop-color="#3E152B"/>
<stop offset="1" stop-color="#751B29"/>
</linearGradient>
<linearGradient id="paint12_linear_1794_71935" x1="59.9005" y1="56.6134" x2="4.1837" y2="56.6134" gradientUnits="userSpaceOnUse">
<stop stop-color="#E05533"/>
<stop offset="0.47775" stop-color="#FCB766"/>
<stop offset="1" stop-color="#E05533"/>
</linearGradient>
<radialGradient id="paint13_radial_1794_71935" cx="0" cy="0" r="1" gradientUnits="userSpaceOnUse" gradientTransform="translate(32.8103 53.3794) rotate(-0.846776) scale(21.4336 11.2357)">
<stop stop-color="#FBB666"/>
<stop offset="1" stop-color="#A2222D"/>
</radialGradient>
<radialGradient id="paint14_radial_1794_71935" cx="0" cy="0" r="1" gradientUnits="userSpaceOnUse" gradientTransform="translate(31.256 54.6319) rotate(-179.286) scale(20.8814 7.61054)">
<stop stop-color="#FCC982"/>
<stop offset="1" stop-color="#9D202B"/>
</radialGradient>
<radialGradient id="paint15_radial_1794_71935" cx="0" cy="0" r="1" gradientUnits="userSpaceOnUse" gradientTransform="translate(32.7311 56.1441) rotate(-0.554843) scale(20.9907 5.94805)">
<stop stop-color="#F7A960"/>
<stop offset="0.46086" stop-color="#BC513E"/>
<stop offset="1" stop-color="#981C29"/>
</radialGradient>
<linearGradient id="paint16_linear_1794_71935" x1="33.0677" y1="61.3526" x2="33.0677" y2="74.1611" gradientUnits="userSpaceOnUse">
<stop stop-color="#FF006B"/>
<stop offset="1" stop-color="#990A02"/>
</linearGradient>
<linearGradient id="paint17_linear_1794_71935" x1="33.0677" y1="61.3526" x2="33.0677" y2="74.1611" gradientUnits="userSpaceOnUse">
<stop stop-color="#FF006B"/>
<stop offset="1" stop-color="#990A02"/>
</linearGradient>
<linearGradient id="paint18_linear_1794_71935" x1="33.0677" y1="61.3526" x2="33.0677" y2="74.1611" gradientUnits="userSpaceOnUse">
<stop stop-color="#FF006B"/>
<stop offset="1" stop-color="#990A02"/>
</linearGradient>
<linearGradient id="paint19_linear_1794_71935" x1="33.0677" y1="61.3526" x2="33.0677" y2="74.1611" gradientUnits="userSpaceOnUse">
<stop stop-color="#FF006B"/>
<stop offset="1" stop-color="#990A02"/>
</linearGradient>
<linearGradient id="paint20_linear_1794_71935" x1="33.0677" y1="61.3526" x2="33.0677" y2="74.1611" gradientUnits="userSpaceOnUse">
<stop stop-color="#FF006B"/>
<stop offset="1" stop-color="#990A02"/>
</linearGradient>
<linearGradient id="paint21_linear_1794_71935" x1="33.0677" y1="61.3526" x2="33.0677" y2="74.1611" gradientUnits="userSpaceOnUse">
<stop stop-color="#FF006B"/>
<stop offset="1" stop-color="#990A02"/>
</linearGradient>
<linearGradient id="paint22_linear_1794_71935" x1="33.0677" y1="61.3526" x2="33.0677" y2="74.1611" gradientUnits="userSpaceOnUse">
<stop stop-color="#FF006B"/>
<stop offset="1" stop-color="#990A02"/>
</linearGradient>
<linearGradient id="paint23_linear_1794_71935" x1="33.0677" y1="61.3526" x2="33.0677" y2="74.1611" gradientUnits="userSpaceOnUse">
<stop stop-color="#FF006B"/>
<stop offset="1" stop-color="#990A02"/>
</linearGradient>
<linearGradient id="paint24_linear_1794_71935" x1="33.0677" y1="61.3526" x2="33.0677" y2="74.1611" gradientUnits="userSpaceOnUse">
<stop stop-color="#FF006B"/>
<stop offset="1" stop-color="#990A02"/>
</linearGradient>
<linearGradient id="paint25_linear_1794_71935" x1="33.0677" y1="61.3526" x2="33.0677" y2="74.1611" gradientUnits="userSpaceOnUse">
<stop stop-color="#FF006B"/>
<stop offset="1" stop-color="#990A02"/>
</linearGradient>
<linearGradient id="paint26_linear_1794_71935" x1="33.0677" y1="61.3526" x2="33.0677" y2="74.1611" gradientUnits="userSpaceOnUse">
<stop stop-color="#FF006B"/>
<stop offset="1" stop-color="#990A02"/>
</linearGradient>
<linearGradient id="paint27_linear_1794_71935" x1="30.218" y1="62.5054" x2="30.3355" y2="71.2416" gradientUnits="userSpaceOnUse">
<stop stop-color="#FF5C9C"/>
<stop offset="1" stop-color="#9A0003"/>
</linearGradient>
<radialGradient id="paint28_radial_1794_71935" cx="0" cy="0" r="1" gradientUnits="userSpaceOnUse" gradientTransform="translate(7.31317 75.3461) rotate(45.2093) scale(4.37675 4.02307)">
<stop stop-color="#D97E05"/>
<stop offset="0.447917" stop-color="#814F41"/>
<stop offset="0.967966" stop-color="#41162B"/>
</radialGradient>
<radialGradient id="paint29_radial_1794_71935" cx="0" cy="0" r="1" gradientUnits="userSpaceOnUse" gradientTransform="translate(6.01083 76.6908) rotate(-40.9501) scale(5.12996 5.77743)">
<stop stop-color="#E96936"/>
<stop offset="1" stop-color="#41162B"/>
</radialGradient>
<radialGradient id="paint30_radial_1794_71935" cx="0" cy="0" r="1" gradientUnits="userSpaceOnUse" gradientTransform="translate(7.28129 75.2818) rotate(57.518) scale(3.41644 3.14036)">
<stop stop-color="#FF6DA8"/>
<stop offset="0.257896" stop-color="#FF6DA8" stop-opacity="0.5"/>
<stop offset="0.530635" stop-color="#FF6DA8" stop-opacity="0.3"/>
<stop offset="0.744194" stop-color="#FF6DA8" stop-opacity="0.2"/>
<stop offset="0.967966" stop-color="#FF6DA8" stop-opacity="0"/>
</radialGradient>
<radialGradient id="paint31_radial_1794_71935" cx="0" cy="0" r="1" gradientUnits="userSpaceOnUse" gradientTransform="translate(31.7893 49.0253) rotate(90.0735) scale(2.79417 18.2379)">
<stop stop-color="#F6A500" stop-opacity="0.8"/>
<stop offset="1" stop-color="#F6A500" stop-opacity="0"/>
</radialGradient>
<radialGradient id="paint32_radial_1794_71935" cx="0" cy="0" r="1" gradientUnits="userSpaceOnUse" gradientTransform="translate(31.9751 8.87891) rotate(90) scale(36.3865 49.0294)">
<stop stop-color="#FE786E"/>
<stop offset="0.351416" stop-color="#F87571"/>
<stop offset="1" stop-color="#A1449C"/>
</radialGradient>
<linearGradient id="paint33_linear_1794_71935" x1="25.2871" y1="9.30176" x2="25.2871" y2="18.3488" gradientUnits="userSpaceOnUse">
<stop stop-color="#B56400"/>
<stop offset="1" stop-color="#FCD10A"/>
</linearGradient>
<linearGradient id="paint34_linear_1794_71935" x1="47.9251" y1="22.5706" x2="47.9251" y2="30.6274" gradientUnits="userSpaceOnUse">
<stop stop-color="#B56400"/>
<stop offset="1" stop-color="#FCD10A"/>
</linearGradient>
<linearGradient id="paint35_linear_1794_71935" x1="15.3385" y1="26.4592" x2="15.3385" y2="30.984" gradientUnits="userSpaceOnUse">
<stop stop-color="#B56400"/>
<stop offset="1" stop-color="#FCD10A"/>
</linearGradient>
<radialGradient id="paint36_radial_1794_71935" cx="0" cy="0" r="1" gradientUnits="userSpaceOnUse" gradientTransform="translate(31.8916 36.2048) rotate(90) scale(12.4015 29.4003)">
<stop stop-color="#FE786E"/>
<stop offset="0.351416" stop-color="#F87571"/>
<stop offset="1" stop-color="#A1449C"/>
</radialGradient>
<radialGradient id="paint37_radial_1794_71935" cx="0" cy="0" r="1" gradientUnits="userSpaceOnUse" gradientTransform="translate(31.9692 26.0103) rotate(90) scale(10.1487 19.0956)">
<stop stop-color="#FE786E"/>
<stop offset="0.351416" stop-color="#F87571"/>
<stop offset="1" stop-color="#A1449C"/>
</radialGradient>
</defs>
</svg>
