<svg width="295" height="175" viewBox="0 0 295 175" fill="none" xmlns="http://www.w3.org/2000/svg">
<path fill-rule="evenodd" clip-rule="evenodd" d="M32.2677 141.379C32.2677 141.379 32.2677 152.936 32.2677 157.869C32.2677 162.801 42.8964 161.868 42.8964 157.869C42.8964 153.869 42.8964 145.323 42.8964 145.323L32.2677 141.379Z" fill="#EA9F2E"/>
<path fill-rule="evenodd" clip-rule="evenodd" d="M32.9179 142.329V157.869C32.9179 158.71 33.3172 159.377 34.1048 159.85C34.8681 160.308 35.9562 160.56 37.1689 160.56C39.6205 160.56 42.2454 159.479 42.2454 157.869V145.791L32.9179 142.329ZM37.1689 161.893C35.7284 161.893 34.4066 161.576 33.4468 161C32.2495 160.281 31.6167 159.198 31.6167 157.869V140.428L43.5465 144.856V157.869C43.5465 159.097 42.7763 160.183 41.3776 160.928C40.2249 161.541 38.6909 161.893 37.1689 161.893Z" fill="#0A0B09"/>
<path fill-rule="evenodd" clip-rule="evenodd" d="M39.5242 158.127C39.3958 159.302 35.3936 159.314 35.2742 158.046C35.1547 156.778 39.6734 156.765 39.5242 158.127Z" fill="#FFFFFE"/>
<path fill-rule="evenodd" clip-rule="evenodd" d="M39.5242 153.461C39.3958 154.636 35.3936 154.648 35.2742 153.38C35.1547 152.113 39.6734 152.099 39.5242 153.461Z" fill="#FFFFFE"/>
<path fill-rule="evenodd" clip-rule="evenodd" d="M39.4459 149.062C39.3176 150.237 35.3154 150.249 35.1959 148.982C35.0765 147.713 39.5951 147.7 39.4459 149.062Z" fill="#FFFFFE"/>
<path fill-rule="evenodd" clip-rule="evenodd" d="M39.5242 144.63C39.3958 145.804 35.3936 145.817 35.2742 144.549C35.1547 143.281 39.6734 143.267 39.5242 144.63Z" fill="#FFFFFE"/>
<path fill-rule="evenodd" clip-rule="evenodd" d="M130.259 142.114C130.259 142.114 168.255 142.114 189.15 142.114C210.045 142.114 213.037 121.218 198.139 115.594C181.939 112.904 142.598 126.002 130.259 142.114Z" fill="#FFFFFE"/>
<path fill-rule="evenodd" clip-rule="evenodd" d="M131.927 141.315H189.15C194.081 141.315 198.336 140.097 201.455 137.795C204.167 135.792 205.956 132.993 206.492 129.913C206.958 127.236 206.448 124.465 205.054 122.108C203.546 119.558 201.087 117.575 197.939 116.372C194.112 115.751 188.799 116.011 182.568 117.125C176.413 118.226 169.652 120.103 163.016 122.556C156.106 125.109 149.597 128.196 144.191 131.483C138.917 134.69 134.8 137.991 131.927 141.315ZM189.15 142.914H130.259C129.96 142.914 129.688 142.739 129.557 142.464C129.426 142.189 129.46 141.862 129.645 141.621C132.643 137.705 137.269 133.831 143.394 130.107C148.883 126.769 155.485 123.638 162.486 121.051C169.206 118.568 176.057 116.665 182.299 115.55C188.74 114.398 194.261 114.14 198.264 114.805C198.313 114.813 198.361 114.826 198.409 114.844C201.925 116.172 204.685 118.397 206.39 121.279C207.98 123.968 208.562 127.134 208.029 130.194C207.421 133.685 205.411 136.845 202.368 139.092C198.982 141.593 194.411 142.914 189.15 142.914Z" fill="#0B0C0A"/>
<path fill-rule="evenodd" clip-rule="evenodd" d="M171.984 135.484C171.984 135.484 176.451 136.352 189.319 134.277C195.98 133.202 202.537 127.85 201.513 118.198L200.129 117.287C200.129 117.287 196.421 125.019 186.434 129.551C180.416 131.984 173.455 132.184 173.455 132.184C173.455 132.184 172.303 134.517 171.984 135.484Z" fill="#F9D022"/>
<path fill-rule="evenodd" clip-rule="evenodd" d="M185.447 130.517C185.447 130.517 212.413 132.949 207.917 119.555C205.778 113.183 196.073 119.707 195.118 120.335C195.118 120.335 168.449 128.86 185.447 130.517Z" fill="#E9A02E"/>
<path fill-rule="evenodd" clip-rule="evenodd" d="M185.564 129.189C185.714 129.203 189.88 129.557 194.523 129.189C197.244 128.974 199.588 128.557 201.493 127.95C203.731 127.237 205.322 126.277 206.222 125.096C207.241 123.762 207.392 122.091 206.686 119.989C206.384 119.088 205.909 118.549 205.192 118.295C204.022 117.879 202.199 118.186 199.921 119.184C198.629 119.75 197.268 120.503 195.874 121.421L195.82 121.457C195.722 121.522 195.616 121.572 195.505 121.607C195.47 121.619 191.952 122.747 188.359 124.233C182.974 126.458 181.554 127.765 181.191 128.227C181.562 128.452 182.643 128.904 185.564 129.189ZM190.068 132.024C187.362 132.024 185.451 131.856 185.332 131.845C185.329 131.845 185.326 131.845 185.323 131.844C183.274 131.644 181.759 131.343 180.692 130.922C179.337 130.387 178.596 129.593 178.491 128.56C178.319 126.864 180.048 125.558 181.364 124.723C182.683 123.886 184.524 122.967 186.838 121.989C190.31 120.521 193.758 119.379 194.561 119.117C197.35 117.291 202.459 114.502 206.045 115.776C207.515 116.298 208.588 117.455 209.147 119.122C209.653 120.627 209.827 122.046 209.664 123.34C209.507 124.59 209.039 125.734 208.272 126.739C206.093 129.594 201.522 131.313 194.688 131.85C193.03 131.98 191.446 132.024 190.068 132.024Z" fill="#0B0C0A"/>
<path fill-rule="evenodd" clip-rule="evenodd" d="M198.744 57.9863C191.28 32.43 168.505 30.419 168.505 30.419C168.505 30.419 167.904 25.715 165.221 20.898C161.074 20.878 156.081 28.8558 156.081 28.8558H135.565C135.565 28.8558 130.573 20.878 126.425 20.898C123.741 25.715 123.142 30.419 123.142 30.419C123.142 30.419 99.5029 32.43 92.9026 57.9868C91.0299 65.2376 88.9006 88.374 88.9006 99.5173C88.9006 118.511 99.4556 130.179 118.29 130.954H173.356C192.191 130.179 202.746 118.511 202.746 99.5173C202.746 88.374 200.842 65.1722 198.744 57.9863Z" fill="url(#paint0_radial_1798_30383)"/>
<path fill-rule="evenodd" clip-rule="evenodd" d="M173.355 132.288C172.66 132.288 172.084 131.725 172.055 131.008C172.027 130.273 172.586 129.652 173.303 129.623C177.804 129.437 181.877 128.605 185.408 127.15C188.846 125.732 191.794 123.714 194.17 121.15C196.536 118.597 198.354 115.483 199.574 111.895C200.815 108.242 201.444 104.078 201.444 99.5173C201.444 94.0403 200.981 85.5626 200.236 77.3919C199.423 68.4778 198.425 61.5444 197.497 58.3682C195.855 52.746 193.31 47.8525 189.932 43.8238C187.232 40.6031 183.991 37.9184 180.301 35.8443C173.977 32.2901 168.446 31.7521 168.391 31.7469C167.784 31.6918 167.294 31.2113 167.214 30.5917C167.209 30.5509 166.673 26.572 164.506 22.3367C163.293 22.6812 161.754 23.8593 160.082 25.7403C158.403 27.6271 157.188 29.5565 157.176 29.5755C156.937 29.9574 156.524 30.1889 156.081 30.1889H135.565C135.122 30.1889 134.709 29.9574 134.47 29.575C134.458 29.5565 133.242 27.6271 131.565 25.7403C129.892 23.8594 128.354 22.6813 127.14 22.3367C124.974 26.572 124.437 30.5514 124.431 30.5931C124.351 31.2146 123.859 31.6956 123.249 31.7473C123.194 31.7526 117.449 32.2901 111.019 35.8448C107.271 37.917 104.022 40.5979 101.359 43.8134C98.0316 47.8335 95.6093 52.7166 94.1603 58.3274C93.3138 61.6056 92.3172 68.7435 91.4943 77.4213C90.6849 85.9583 90.2014 94.2187 90.2014 99.5173C90.2014 104.078 90.8312 108.242 92.0727 111.895C93.2925 115.483 95.1105 118.597 97.4759 121.15C99.852 123.714 102.8 125.732 106.238 127.15C109.769 128.605 113.842 129.437 118.342 129.623C119.061 129.652 119.62 130.273 119.59 131.008C119.562 131.744 118.955 132.315 118.238 132.288C113.439 132.089 109.075 131.193 105.266 129.623C101.48 128.062 98.2233 125.828 95.5889 122.985C92.9669 120.156 90.9572 116.72 89.6151 112.772C88.2773 108.837 87.5994 104.377 87.5994 99.5173C87.5994 94.1375 88.087 85.7809 88.9039 77.1633C89.7522 68.2197 90.7511 61.1055 91.6444 57.6457C93.2003 51.6221 95.8167 46.369 99.4213 42.033C102.309 38.5593 105.829 35.6697 109.882 33.4443C115.207 30.521 120.002 29.529 122.025 29.2187C122.358 27.5104 123.244 23.9198 125.295 20.2373C125.526 19.8235 125.954 19.5672 126.419 19.5649C126.426 19.5649 126.433 19.5649 126.44 19.5649C128.54 19.5649 130.92 21.0477 133.513 23.973C134.752 25.3689 135.737 26.7537 136.258 27.5227H155.389C155.909 26.7537 156.895 25.3689 158.132 23.973C160.727 21.0479 163.106 19.5649 165.206 19.5649C165.213 19.5649 165.22 19.5649 165.227 19.5649C165.692 19.5672 166.121 19.8235 166.351 20.2373C168.405 23.9237 169.29 27.518 169.622 29.2244C171.598 29.5399 176.231 30.5381 181.448 33.4481C185.433 35.6721 188.935 38.5584 191.855 42.0268C195.498 46.3529 198.235 51.5937 199.99 57.6044C202.19 65.1385 204.047 88.7075 204.047 99.5173C204.047 104.377 203.368 108.837 202.031 112.772C200.689 116.72 198.679 120.156 196.057 122.985C193.422 125.828 190.167 128.062 186.379 129.623C182.572 131.193 178.207 132.089 173.408 132.288C173.391 132.288 173.372 132.288 173.355 132.288Z" fill="#0B0C0A"/>
<path fill-rule="evenodd" clip-rule="evenodd" d="M120.464 121.931C124.028 123.408 125.369 126.57 127.995 131.031C142.764 131.031 146.062 131.031 146.062 131.031C146.062 131.031 149.36 131.031 164.129 131.031C166.756 126.57 168.096 123.408 171.661 121.931C171.661 93.6163 120.464 93.6163 120.464 121.931Z" fill="#FE7825"/>
<path fill-rule="evenodd" clip-rule="evenodd" d="M120.464 121.931C124.028 123.408 125.369 126.57 127.995 131.031C142.764 131.031 146.062 131.031 146.062 131.031C146.062 131.031 149.36 131.031 164.129 131.031C166.756 126.57 168.096 123.408 171.661 121.931C171.661 93.6163 120.464 93.6163 120.464 121.931Z" fill="url(#paint1_linear_1798_30383)"/>
<path fill-rule="evenodd" clip-rule="evenodd" d="M163.658 132.443C163.658 132.443 163.658 132.443 163.658 132.443C160.828 132.442 131.302 132.442 128.106 132.443C128.106 132.443 128.106 132.443 128.105 132.443C127.387 132.444 126.804 131.847 126.804 131.111C126.804 130.375 127.387 129.777 128.105 129.777C131.301 129.776 160.829 129.776 163.659 129.777C164.378 129.777 164.96 130.375 164.959 131.111C164.959 131.847 164.377 132.443 163.658 132.443Z" fill="#0B0C0A"/>
<path fill-rule="evenodd" clip-rule="evenodd" d="M179.839 130.041C179.839 130.041 174.258 125.618 171.021 134.395C169.781 138.076 163.404 136.254 164.198 131.513C164.722 128.384 169.435 120.45 175.858 121.035L179.839 130.041Z" fill="#F9D022"/>
<path fill-rule="evenodd" clip-rule="evenodd" d="M168.197 137.684C167.759 137.684 167.311 137.626 166.869 137.51C165.633 137.186 164.549 136.448 163.817 135.432C162.97 134.258 162.658 132.825 162.915 131.288C163.076 130.329 163.529 129.106 164.191 127.843C164.914 126.464 165.835 125.129 166.854 123.983C168.082 122.603 169.412 121.531 170.807 120.799C172.49 119.915 174.228 119.548 175.974 119.707C176.689 119.772 177.218 120.42 177.155 121.153C177.091 121.886 176.458 122.427 175.743 122.363C174.086 122.212 171.532 122.682 168.778 125.779C166.938 127.848 165.705 130.394 165.48 131.739C165.144 133.746 166.601 134.688 167.516 134.928C169.22 135.375 169.71 134.2 169.791 133.96C169.795 133.948 169.8 133.936 169.804 133.924C171.06 130.519 172.84 128.462 175.096 127.809C178.031 126.958 180.53 128.903 180.636 128.986L179.044 131.095L179.05 131.1C179.034 131.088 177.449 129.886 175.785 130.379C174.398 130.791 173.174 132.337 172.244 134.85C171.852 135.997 171.047 136.879 169.975 137.335C169.428 137.567 168.822 137.684 168.197 137.684Z" fill="#0B0C0A"/>
<path fill-rule="evenodd" clip-rule="evenodd" d="M127.581 131.513C127.057 128.384 122.343 120.45 115.92 121.035L111.939 130.041C111.939 130.041 117.52 125.618 120.758 134.395C121.997 138.076 128.375 136.254 127.581 131.513Z" fill="#F9D022"/>
<path fill-rule="evenodd" clip-rule="evenodd" d="M123.581 137.684C122.956 137.684 122.35 137.567 121.803 137.335C120.731 136.879 119.926 135.997 119.534 134.85C118.604 132.337 117.38 130.791 115.993 130.379C114.329 129.886 112.744 131.088 112.728 131.1L112.735 131.095L111.143 128.986C111.247 128.903 113.748 126.958 116.683 127.809C118.938 128.462 120.718 130.519 121.974 133.924C121.979 133.936 121.983 133.948 121.987 133.96C122.068 134.2 122.558 135.376 124.262 134.928C125.177 134.688 126.634 133.746 126.298 131.739C126.073 130.394 124.84 127.848 123 125.779C120.246 122.682 117.692 122.212 116.035 122.363C115.319 122.428 114.687 121.887 114.624 121.153C114.56 120.42 115.089 119.772 115.805 119.707C117.55 119.548 119.288 119.915 120.971 120.799C122.366 121.531 123.696 122.603 124.924 123.983C125.943 125.129 126.864 126.464 127.587 127.843C128.249 129.106 128.703 130.329 128.863 131.288C129.121 132.825 128.809 134.258 127.961 135.432C127.229 136.448 126.145 137.186 124.909 137.51C124.467 137.626 124.019 137.684 123.581 137.684Z" fill="#0B0C0A"/>
<path fill-rule="evenodd" clip-rule="evenodd" d="M142.132 100.695C142.132 100.695 123.467 100.695 111.761 121.004C105.254 120.192 90.6909 108.244 90.3436 94.2031C88.9006 109.705 94.0737 124.952 111.076 129.04C115.25 125.74 119.664 128.24 122.006 134.372C122.895 135.805 126.319 135.249 123.177 128.995C121.55 125.758 118.492 122.997 115.478 122.374C114.376 121.862 114.808 120.573 115.983 120.108C117.098 119.669 119.416 120.19 120.504 120.559C121.102 112.332 127.212 102.743 142.132 100.695Z" fill="#EA9F2E"/>
<g style="mix-blend-mode:soft-light">
<path fill-rule="evenodd" clip-rule="evenodd" d="M149.496 100.695C149.496 100.695 168.161 100.695 179.867 121.004C186.373 120.192 200.937 108.244 201.284 94.2031C202.727 109.705 197.554 124.952 180.551 129.04C176.377 125.74 171.964 128.24 169.621 134.372C168.732 135.805 165.308 135.249 168.451 128.995C170.077 125.758 173.162 124.153 176.177 123.531C178.345 122.82 176.82 120.573 175.644 120.108C174.529 119.669 172.212 120.19 171.123 120.559C170.525 112.332 164.416 102.743 149.496 100.695Z" fill="black"/>
</g>
<path fill-rule="evenodd" clip-rule="evenodd" d="M135.784 31.0956C135.784 31.0956 141.338 47.9722 126.893 50.1578C111.033 52.5573 106.563 38.7601 106.563 38.7601C106.563 38.7601 115.833 32.2086 123.857 31.5188C126.299 23.6414 127.14 21.9978 127.14 21.9978C127.14 21.9978 135.133 26.0299 135.784 31.0956Z" fill="#FE7825"/>
<path fill-rule="evenodd" clip-rule="evenodd" d="M135.784 31.0956C135.784 31.0956 141.338 47.9722 126.893 50.1578C111.033 52.5573 106.563 38.7601 106.563 38.7601C106.563 38.7601 115.833 32.2086 123.857 31.5188C126.299 23.6414 127.14 21.9978 127.14 21.9978C127.14 21.9978 135.133 26.0299 135.784 31.0956Z" fill="url(#paint2_linear_1798_30383)"/>
<path fill-rule="evenodd" clip-rule="evenodd" d="M197.784 59.2891C197.784 59.2891 194.307 60.0377 188.525 67.1709C183.205 73.7329 184.586 85.4189 200.553 84.2191C200.553 73.5436 197.784 59.2891 197.784 59.2891Z" fill="#FE7825"/>
<path fill-rule="evenodd" clip-rule="evenodd" d="M197.784 59.2891C197.784 59.2891 194.307 60.0377 188.525 67.1709C183.205 73.7329 184.586 85.4189 200.553 84.2191C200.553 73.5436 197.784 59.2891 197.784 59.2891Z" fill="url(#paint3_linear_1798_30383)"/>
<path fill-rule="evenodd" clip-rule="evenodd" d="M90.5165 91.9593C90.5165 91.9593 98.8542 92.8023 98.9353 84.3162C98.9922 78.3813 91.5459 77.8633 91.5459 77.8633L90.5165 91.9593Z" fill="#FE7825"/>
<path fill-rule="evenodd" clip-rule="evenodd" d="M90.5165 91.9593C90.5165 91.9593 98.8542 92.8023 98.9353 84.3162C98.9922 78.3813 91.5459 77.8633 91.5459 77.8633L90.5165 91.9593Z" fill="url(#paint4_linear_1798_30383)"/>
<g style="mix-blend-mode:soft-light">
<path fill-rule="evenodd" clip-rule="evenodd" d="M145.508 37.4293C146.572 37.7642 147.701 37.1527 148.029 36.0625C148.358 34.9718 147.76 33.8148 146.696 33.4789C145.631 33.1435 144.502 33.7545 144.175 34.8457C143.847 35.9363 144.443 37.092 145.508 37.4293ZM155.256 38.1081C168.904 40.3288 180.359 47.2191 184.882 50.7397C189.406 54.2598 193.013 48.8331 181.055 41.5106C173.012 36.9463 163.829 34.3997 156.013 34.1023C152.236 33.958 149.016 37.092 155.256 38.1081Z" fill="#FFFFFE"/>
</g>
<path fill-rule="evenodd" clip-rule="evenodd" d="M116.917 85.373L112.424 86.9187C112.111 87.0264 111.942 87.3741 112.047 87.6948C112.132 87.951 112.365 88.1127 112.615 88.1127C112.678 88.1127 112.742 88.1028 112.805 88.081L117.298 86.5353C117.611 86.4276 117.78 86.0799 117.675 85.7587C117.57 85.438 117.23 85.2649 116.917 85.373Z" fill="#0B0C0A"/>
<path fill-rule="evenodd" clip-rule="evenodd" d="M117.062 83.5298C117.392 83.5298 117.66 83.2551 117.66 82.9164C117.66 82.5781 117.392 82.3035 117.062 82.3035H112.208C111.877 82.3035 111.61 82.5781 111.61 82.9164C111.61 83.2551 111.877 83.5298 112.208 83.5298H117.062Z" fill="#0B0C0A"/>
<path fill-rule="evenodd" clip-rule="evenodd" d="M179.706 86.9187L175.214 85.373C174.9 85.2649 174.561 85.438 174.456 85.7587C174.351 86.0799 174.519 86.4276 174.833 86.5353L179.325 88.081C179.388 88.1028 179.453 88.1127 179.516 88.1127C179.766 88.1127 179.999 87.951 180.083 87.6948C180.188 87.3741 180.019 87.0264 179.706 86.9187Z" fill="#0B0C0A"/>
<path fill-rule="evenodd" clip-rule="evenodd" d="M179.922 82.3035H175.068C174.738 82.3035 174.47 82.5781 174.47 82.9164C174.47 83.2551 174.738 83.5298 175.068 83.5298H179.922C180.252 83.5298 180.52 83.2551 180.52 82.9164C180.52 82.5781 180.252 82.3035 179.922 82.3035Z" fill="#0B0C0A"/>
<path fill-rule="evenodd" clip-rule="evenodd" d="M152.352 75.7587C151.994 75.8398 151.769 76.2022 151.848 76.5685C151.85 76.578 152.036 77.5382 151.446 78.3015C150.906 78.9989 149.874 79.3613 148.378 79.3788C147.91 79.3836 147.502 79.2882 147.223 79.1089C147.009 78.9709 146.724 78.7061 146.717 78.0054L146.701 76.633C146.696 76.2606 146.4 75.9622 146.038 75.9622C146.035 75.9622 146.033 75.9622 146.03 75.9622C146.028 75.9622 146.026 75.9622 146.023 75.9627C146.021 75.9622 146.019 75.9622 146.017 75.9622C146.014 75.9622 146.011 75.9622 146.009 75.9622C145.646 75.9622 145.351 76.2606 145.346 76.633L145.33 78.0054C145.322 78.7061 145.037 78.9709 144.824 79.1089C144.546 79.2882 144.137 79.3836 143.669 79.3788C142.173 79.3613 141.141 78.9989 140.601 78.3015C140.01 77.5382 140.197 76.578 140.199 76.5685C140.278 76.2022 140.053 75.8398 139.695 75.7587C139.338 75.6775 138.984 75.9086 138.905 76.2743C138.891 76.3389 138.574 77.8693 139.562 79.1454C140.363 80.1787 141.739 80.7143 143.653 80.7366C143.671 80.7371 143.689 80.7371 143.707 80.7371C144.213 80.7371 144.922 80.6507 145.531 80.2579C145.692 80.1536 145.864 80.0155 146.023 79.8352C146.183 80.0155 146.354 80.1536 146.516 80.2579C147.125 80.6507 147.834 80.7371 148.34 80.7371C148.358 80.7371 148.376 80.7371 148.393 80.7366C150.308 80.7143 151.684 80.1787 152.484 79.1454C153.473 77.8693 153.156 76.3389 153.142 76.2743C153.063 75.9086 152.709 75.6775 152.352 75.7587Z" fill="#0B0C0A"/>
<path fill-rule="evenodd" clip-rule="evenodd" d="M124.666 73.4944C122.715 73.4944 121.132 75.1159 121.132 77.1155C121.132 79.1156 122.715 80.7372 124.666 80.7372C126.619 80.7372 128.202 79.1156 128.202 77.1155C128.202 75.1159 126.619 73.4944 124.666 73.4944Z" fill="#0B0C0A"/>
<path fill-rule="evenodd" clip-rule="evenodd" d="M167.537 73.4944C165.585 73.4944 164.003 75.1159 164.003 77.1155C164.003 79.1156 165.585 80.7372 167.537 80.7372C169.49 80.7372 171.072 79.1156 171.072 77.1155C171.072 75.1159 169.49 73.4944 167.537 73.4944Z" fill="#0B0C0A"/>
<path fill-rule="evenodd" clip-rule="evenodd" d="M95.7659 155.015C95.7659 155.015 95.7659 166.015 95.7659 170.947C95.7659 175.879 106.394 174.946 106.394 170.947C106.394 166.948 106.394 153.188 106.394 153.188C106.394 153.188 100.379 155.098 95.7659 155.015Z" fill="#EA9F2E"/>
<path fill-rule="evenodd" clip-rule="evenodd" d="M96.4166 155.68V170.947C96.4166 171.788 96.8158 172.455 97.6035 172.928C98.3666 173.386 99.4549 173.639 100.667 173.639C103.119 173.639 105.744 172.557 105.744 170.947V154.076C104.016 154.569 99.9592 155.614 96.4166 155.68ZM100.667 174.972C99.227 174.972 97.905 174.654 96.9454 174.078C95.7479 173.359 95.1154 172.276 95.1154 170.947V154.336L95.7771 154.348C95.8711 154.35 95.966 154.351 96.061 154.351C100.477 154.351 106.144 152.57 106.202 152.551L107.045 152.284V170.947C107.045 172.175 106.275 173.262 104.876 174.006C103.724 174.62 102.189 174.972 100.667 174.972Z" fill="#0A0B09"/>
<path fill-rule="evenodd" clip-rule="evenodd" d="M154.707 133.275C154.707 133.275 154.707 139.995 154.707 144.928C154.707 149.86 165.336 148.926 165.336 144.928C165.336 140.928 165.336 127.821 165.336 127.821L154.707 133.275Z" fill="#EA9F2E"/>
<path fill-rule="evenodd" clip-rule="evenodd" d="M155.358 133.687V144.928C155.358 145.769 155.758 146.435 156.545 146.908C157.309 147.367 158.396 147.619 159.609 147.619C162.061 147.619 164.685 146.538 164.685 144.928V128.9L155.358 133.687ZM159.609 148.952C158.168 148.952 156.847 148.635 155.887 148.058C154.69 147.34 154.057 146.257 154.057 144.928V132.863L165.987 126.742V144.928C165.987 146.156 165.216 147.242 163.818 147.987C162.665 148.6 161.131 148.952 159.609 148.952Z" fill="#0A0B09"/>
<path fill-rule="evenodd" clip-rule="evenodd" d="M28.0271 126.765C28.0271 126.765 22.0772 134.866 31.0555 140.685C38.4984 145.508 75.9469 155.015 94.2937 155.015C112.641 155.015 150.309 135.397 164.949 127.821C171.662 124.347 172.411 120.238 171.662 113.538C171.662 113.538 83.8411 118.43 83.4938 119.006C83.1469 119.581 37.0999 117.063 28.0271 126.765Z" fill="#FFFFFE"/>
<path fill-rule="evenodd" clip-rule="evenodd" d="M28.5268 127.193C28.2963 127.525 26.2379 130.614 26.8635 134.086C27.2821 136.41 28.8094 138.441 31.403 140.121C34.919 142.4 45.9016 145.972 58.7317 149.009C65.3042 150.565 71.9036 151.874 77.8171 152.795C84.435 153.826 89.9785 154.348 94.2935 154.348C101.972 154.348 114.067 150.822 130.241 143.868C143.599 138.124 156.423 131.487 164.084 127.522L164.655 127.226C170.789 124.052 171.7 120.462 171.081 114.238C147.058 115.578 86.6943 119.034 83.77 119.614C83.5862 119.706 83.3676 119.721 83.1661 119.735C82.9388 119.75 82.6109 119.76 82.1645 119.766C81.3268 119.778 80.1469 119.774 78.6534 119.769C72.7598 119.75 61.7899 119.714 51.5901 120.656C45.9471 121.178 41.1973 121.938 37.4728 122.916C33.1504 124.05 30.141 125.489 28.5268 127.193ZM94.2935 155.681C89.9137 155.681 84.3039 155.154 77.6212 154.113C71.6757 153.187 65.0426 151.872 58.439 150.308C45.2772 147.192 34.3919 143.636 30.7074 141.248C27.7898 139.357 26.0652 137.025 25.5815 134.315C24.8248 130.077 27.3971 126.514 27.507 126.364C27.5226 126.343 27.5392 126.322 27.5571 126.303C29.3342 124.403 32.5617 122.829 37.1498 121.624C40.9418 120.629 45.761 119.857 51.4734 119.329C61.7334 118.381 72.7427 118.417 78.6576 118.436C80.8568 118.443 82.7711 118.45 83.2268 118.393C83.4509 118.29 83.8089 118.254 84.4767 118.186C85.1264 118.12 86.0872 118.037 87.3325 117.941C89.6432 117.762 93.0219 117.527 97.3753 117.243C104.704 116.766 114.897 116.143 127.67 115.391C149.419 114.111 171.407 112.885 171.626 112.872C171.971 112.852 172.269 113.112 172.308 113.462C172.636 116.392 172.789 119.471 171.704 122.145C170.679 124.673 168.625 126.665 165.242 128.416L164.671 128.711C156.994 132.685 144.145 139.335 130.745 145.097C123.311 148.293 116.654 150.799 110.959 152.544C104.167 154.626 98.5599 155.681 94.2935 155.681Z" fill="#0B0C0A"/>
<path fill-rule="evenodd" clip-rule="evenodd" d="M34.1115 123.521C34.1115 123.521 20.9056 126.691 31.055 133.956C38.2744 139.123 75.9464 148.286 94.2932 148.286C112.64 148.286 150.895 129.757 164.949 121.092C179.001 112.427 167.291 111.333 163.059 111.333H90.2848C90.2848 111.333 46.3195 120.173 34.1115 123.521Z" fill="#F9D022"/>
<path fill-rule="evenodd" clip-rule="evenodd" d="M34.2897 124.3C34.2573 124.308 32.7634 124.674 31.23 125.414C29.9133 126.05 28.2903 127.093 28.0355 128.455C27.8577 129.406 28.3149 131.019 31.5022 133.3C34.8387 135.688 45.5045 139.213 58.6746 142.279C72.6805 145.539 85.9959 147.486 94.2933 147.486C98.5129 147.486 104.094 146.477 110.882 144.486C116.807 142.749 123.554 140.297 130.935 137.198C144.741 131.402 157.764 124.588 164.546 120.407C167.065 118.853 168.869 117.47 169.906 116.293C170.431 115.698 171.022 114.856 170.851 114.227C170.522 113.013 167.245 112.133 163.059 112.133H90.3613C88.3085 112.546 46.1221 121.056 34.3135 124.293C34.3056 124.296 34.2977 124.298 34.2897 124.3ZM94.2933 149.085C85.8861 149.085 72.441 147.124 58.3287 143.838C51.9479 142.353 46.0122 140.727 41.1637 139.137C34.704 137.017 31.8579 135.506 30.6079 134.611C29.0228 133.476 27.8779 132.352 27.205 131.268C26.5491 130.212 26.3127 129.163 26.5023 128.153C26.808 126.524 28.1833 125.111 30.5902 123.955C32.2172 123.173 33.7518 122.787 33.9204 122.745C46.0298 119.427 89.6949 110.637 90.1349 110.548C90.1844 110.538 90.2344 110.533 90.2849 110.533H163.059C163.93 110.533 166.178 110.582 168.232 111.038C170.615 111.568 172.003 112.497 172.356 113.799C172.935 115.938 170.71 118.473 165.351 121.777C158.518 125.99 145.41 132.85 131.527 138.678C120.218 143.426 104.578 149.085 94.2933 149.085Z" fill="#0B0C0A"/>
<path fill-rule="evenodd" clip-rule="evenodd" d="M94.1428 121.03C94.1428 121.03 132.419 125.091 130.163 129.179C129.296 131.489 101.19 142.154 96.8522 142.154C92.515 142.154 40.9235 133.201 37.9741 130.89C35.0248 128.58 24.1587 97.0086 23.4646 93.8092C22.7705 90.6098 22.7708 87.5883 26.5875 87.9441C30.4044 88.2995 82.626 95.5864 82.626 95.5864C85.4017 95.9422 85.9041 99.448 88.6983 107.14C89.8662 110.355 92.0107 115.756 94.1428 121.03Z" fill="#FFFFFE"/>
<path fill-rule="evenodd" clip-rule="evenodd" d="M26.0049 88.5824C25.199 88.5824 24.6167 88.7859 24.2698 89.1896C23.657 89.9036 23.6014 91.3671 24.0998 93.6647C24.4203 95.142 27.2415 103.679 30.4822 112.447C36.1474 127.774 37.9514 130.033 38.3694 130.361C38.6446 130.576 40.1284 131.262 47.9441 132.973C52.8787 134.053 59.4707 135.353 67.0073 136.732C81.0914 139.31 94.7588 141.487 96.8524 141.487C98.6977 141.487 106.045 139.183 114.322 136.008C118.265 134.496 121.931 132.969 124.645 131.709C128.926 129.721 129.5 129.019 129.563 128.921C129.573 128.897 129.584 128.873 129.597 128.851C129.603 128.839 129.607 128.832 129.608 128.827C129.597 128.79 129.461 128.438 128.273 127.882C127.336 127.444 125.972 126.985 124.217 126.518C121.22 125.722 117.075 124.897 111.896 124.068C103.056 122.651 94.1646 121.703 94.0757 121.693C93.8382 121.668 93.633 121.511 93.5418 121.285C90.931 114.827 89.0962 110.146 88.0886 107.372C87.5102 105.78 87.0309 104.37 86.6081 103.126C84.929 98.1872 84.2607 96.4675 82.545 96.2478C82.5427 96.2474 82.5404 96.2474 82.5381 96.2469C82.0162 96.1738 30.2877 88.9576 26.5287 88.608C26.3448 88.5909 26.1701 88.5824 26.0049 88.5824ZM96.8524 142.82C95.4066 142.82 89.5186 141.916 86.1376 141.377C80.4862 140.477 73.4302 139.262 66.7785 138.045C59.2276 136.663 52.6208 135.36 47.6723 134.277C38.7266 132.319 37.8928 131.666 37.579 131.42C37.0825 131.031 36.1676 129.926 33.9658 124.842C32.6558 121.817 31.0304 117.694 29.2653 112.919C26.1524 104.497 23.1993 95.6577 22.8296 93.9541C22.418 92.0565 22.0986 89.7001 23.2928 88.3091C24.0004 87.4851 25.1289 87.1392 26.6465 87.2801C30.4321 87.6326 80.5195 94.6197 82.7099 94.9257C83.981 95.0894 84.9054 95.801 85.7065 97.2322C86.4076 98.4847 87.0073 100.248 87.8367 102.688C88.2576 103.926 88.7346 105.328 89.3079 106.907C90.291 109.613 92.0697 114.154 94.5962 120.409C96.3615 120.603 103.897 121.455 111.531 122.66C116.639 123.467 120.795 124.273 123.883 125.057C129.261 126.42 130.378 127.444 130.752 128.185C130.962 128.603 130.962 129.056 130.751 129.466C130.619 129.778 130.28 130.205 128.988 130.976C128.139 131.482 126.956 132.092 125.473 132.787C122.764 134.058 119.058 135.609 115.038 137.157C107.714 139.976 99.2502 142.82 96.8524 142.82Z" fill="#0B0C0A"/>
<path fill-rule="evenodd" clip-rule="evenodd" d="M96.7654 140.51C96.6135 140.51 96.469 140.418 96.4061 140.266C96.2783 139.957 83.6278 109.304 81.9501 103.883C80.1737 98.1445 82.9536 96.7877 83.0726 96.7327L83.393 97.4623L83.3972 97.4604C83.3745 97.4713 82.8369 97.7432 82.4706 98.6099C81.8348 100.117 82.2414 102.178 82.6943 103.642C84.3609 109.027 96.9974 139.646 97.1248 139.954C97.209 140.158 97.116 140.392 96.9173 140.478C96.8677 140.5 96.8164 140.51 96.7654 140.51Z" fill="#0B0C0A"/>
<path fill-rule="evenodd" clip-rule="evenodd" d="M99.4296 133.956L111.079 130.09C111.079 130.09 100.544 128.572 97.0609 128.197C98.5423 131.804 99.4296 133.956 99.4296 133.956Z" fill="#F9D022"/>
<path fill-rule="evenodd" clip-rule="evenodd" d="M52.6795 117.19C52.6795 117.19 53.0981 120.537 57.9966 121.011C63.8689 121.58 66.0116 120.848 65.4564 117.19C64.7784 112.725 63.5517 110.117 62.5992 110.279C61.6471 110.442 60.9325 112.8 60.9325 112.8L55.4126 112.309C55.4126 112.309 54.1873 110.265 52.6795 110.272C51.1717 110.279 52.1062 115.278 52.6795 117.19Z" fill="#F9D022"/>
<path fill-rule="evenodd" clip-rule="evenodd" d="M92.0381 115.786C92.0381 115.786 104.573 107.762 117.715 107.895C135.558 108.075 160.785 110.028 160.004 113.494C159.223 116.96 146.081 123.225 146.081 123.225C134.761 128.957 130.261 128.197 130.261 128.197C130.261 128.197 123.961 123.892 95.7659 121.183C94.14 121.024 92.0381 115.786 92.0381 115.786Z" fill="#FFFFFE"/>
<path fill-rule="evenodd" clip-rule="evenodd" d="M130.473 127.55C130.81 127.576 131.923 127.608 133.94 127.177C136.202 126.694 140.096 125.512 145.793 122.627C145.797 122.625 145.802 122.623 145.807 122.621C145.839 122.605 149.112 121.04 152.431 119.077C154.368 117.933 155.939 116.88 157.101 115.949C158.887 114.518 159.289 113.703 159.37 113.344C159.375 113.322 159.339 113.268 159.317 113.239C159.109 112.968 158.219 112.252 154.469 111.446C151.866 110.887 148.369 110.381 144.077 109.944C136.465 109.168 126.608 108.651 117.708 108.562C114.768 108.531 111.611 108.92 108.324 109.717C105.685 110.356 102.957 111.258 100.218 112.398C96.6016 113.902 93.9106 115.432 92.8627 116.058C93.0794 116.552 93.4383 117.331 93.8648 118.108C95.116 120.387 95.7583 120.512 95.8273 120.519C103.89 121.294 115.283 122.711 123.757 125.062C128.114 126.272 129.967 127.251 130.473 127.55ZM130.875 128.898C130.428 128.898 130.195 128.862 130.155 128.855C130.064 128.84 129.977 128.805 129.9 128.752C129.887 128.743 128.254 127.676 123.226 126.297C114.854 123.999 103.639 122.608 95.7051 121.846C94.7794 121.756 93.8328 120.772 92.7247 118.751C91.9851 117.402 91.4582 116.094 91.4359 116.039C91.3155 115.738 91.4239 115.393 91.6929 115.22C91.8231 115.137 94.9294 113.161 99.7028 111.173C102.507 110.005 105.301 109.08 108.009 108.424C111.403 107.599 114.671 107.197 117.721 107.229C126.657 107.319 136.558 107.838 144.206 108.618C148.544 109.059 152.087 109.572 154.736 110.141C158.875 111.03 159.916 111.864 160.339 112.414C160.707 112.893 160.704 113.347 160.638 113.643C160.422 114.6 159.527 115.699 157.9 117.001C156.689 117.971 155.065 119.06 153.075 120.236C149.784 122.181 146.542 123.74 146.363 123.826C137.359 128.384 132.572 128.898 130.875 128.898Z" fill="#0B0C0A"/>
<path fill-rule="evenodd" clip-rule="evenodd" d="M125.361 125.717C124.031 125.717 123.095 125.573 121.411 125.314C120.68 125.201 119.77 125.061 118.632 124.905C118.418 124.875 118.268 124.674 118.297 124.455C118.325 124.236 118.522 124.083 118.735 124.112C119.88 124.27 120.793 124.41 121.527 124.523C124.824 125.03 125.25 125.096 131.576 124.429C135.412 123.558 141.636 121.607 149.54 117.257C154.279 114.65 157.405 112.39 157.436 112.368C157.612 112.24 157.856 112.282 157.98 112.462C158.105 112.643 158.064 112.892 157.888 113.02C157.856 113.043 154.69 115.331 149.909 117.961C145.495 120.391 138.757 123.621 131.722 125.215C131.708 125.218 131.693 125.221 131.678 125.222C128.593 125.548 126.777 125.714 125.408 125.717C125.392 125.717 125.376 125.717 125.361 125.717Z" fill="#0B0C0A"/>
<path fill-rule="evenodd" clip-rule="evenodd" d="M99.9535 136.573C99.7997 136.573 99.6552 136.48 99.5932 136.327L92.8919 119.846C92.8091 119.642 92.9031 119.408 93.1022 119.323C93.3013 119.238 93.5296 119.334 93.6125 119.538L100.177 135.683L125.913 127.439C126.119 127.373 126.338 127.491 126.402 127.701C126.467 127.912 126.352 128.137 126.146 128.202L100.07 136.555C100.031 136.568 99.9924 136.573 99.9535 136.573Z" fill="#0B0C0A"/>
<path fill-rule="evenodd" clip-rule="evenodd" d="M127.51 112.853C127.738 113.852 126.83 117.852 125.924 118.053C125.018 118.253 122.21 115.172 121.983 114.172L117.294 93.5554C117.067 92.5558 117.674 91.5563 118.65 91.3233L120.644 90.8475C121.619 90.6146 122.595 91.236 122.822 92.2361L127.51 112.853Z" fill="#FFFFFE"/>
<path fill-rule="evenodd" clip-rule="evenodd" d="M121.058 91.4653C120.969 91.4653 120.88 91.4758 120.791 91.4967L118.797 91.9725C118.173 92.1215 117.782 92.7638 117.928 93.4042L122.616 114.021C122.669 114.253 123.158 115.032 124.04 115.967C124.914 116.894 125.53 117.29 125.77 117.377C125.917 117.207 126.246 116.641 126.567 115.375C126.873 114.172 126.933 113.249 126.877 113.004L122.188 92.3871C122.118 92.0769 121.934 91.8136 121.67 91.6456C121.483 91.5265 121.272 91.4653 121.058 91.4653ZM125.831 118.729C125.48 118.729 125.079 118.564 124.59 118.221C124.074 117.86 123.569 117.375 123.237 117.032C122.47 116.241 121.516 115.057 121.349 114.323L116.661 93.7069C116.353 92.3506 117.178 90.99 118.502 90.674L120.496 90.1982C121.137 90.0454 121.799 90.1574 122.357 90.5137C122.916 90.87 123.306 91.4279 123.456 92.0849L128.144 112.702C128.304 113.407 128.054 114.709 127.938 115.236C127.822 115.77 127.496 117.099 126.983 117.929C126.708 118.374 126.406 118.628 126.061 118.704C125.987 118.721 125.91 118.729 125.831 118.729Z" fill="#0B0C0A"/>
<path fill-rule="evenodd" clip-rule="evenodd" d="M111.482 107.446C113.101 107.372 115.133 108.233 117.347 111.392C119.474 114.62 125.174 111.171 123.211 106.801C121.923 103.936 115.439 97.5804 109.414 99.7271L111.482 107.446Z" fill="#F9D022"/>
<path fill-rule="evenodd" clip-rule="evenodd" d="M119.666 113.993C119.475 113.993 119.286 113.98 119.1 113.955C117.949 113.799 116.949 113.16 116.281 112.156C115.363 110.85 114.437 109.906 113.527 109.353C112.852 108.942 112.184 108.748 111.54 108.778C110.823 108.811 110.214 108.241 110.182 107.505C110.15 106.77 110.706 106.147 111.424 106.115C113.884 106.001 116.232 107.516 118.404 110.615C118.412 110.625 118.419 110.636 118.426 110.647C119.216 111.847 120.599 111.134 120.868 110.979C121.69 110.505 122.86 109.209 122.03 107.359C121.478 106.132 119.662 104.013 117.383 102.504C113.971 100.245 111.399 100.432 109.842 100.986C109.163 101.228 108.422 100.86 108.185 100.165C107.949 99.47 108.308 98.71 108.987 98.4685C110.624 97.885 112.383 97.8024 114.216 98.2232C115.735 98.5719 117.276 99.2589 118.796 100.265C120.058 101.101 121.273 102.141 122.309 103.274C123.259 104.312 123.999 105.367 124.393 106.244C125.029 107.661 125.09 109.127 124.568 110.486C124.117 111.661 123.256 112.662 122.144 113.303C121.359 113.755 120.497 113.993 119.666 113.993Z" fill="#0B0C0A"/>
<path fill-rule="evenodd" clip-rule="evenodd" d="M163.658 103.305C162.076 103.663 157.662 103.893 155.303 110.147C154.063 113.828 147.685 112.006 148.479 107.265C149.001 104.155 151.848 98.2274 160.022 97.0974L163.658 103.305Z" fill="#F9D022"/>
<path fill-rule="evenodd" clip-rule="evenodd" d="M152.478 113.436C152.04 113.436 151.593 113.379 151.151 113.263C149.915 112.938 148.83 112.2 148.098 111.184C147.251 110.01 146.939 108.577 147.197 107.04C147.376 105.969 148.05 103.191 150.421 100.538C151.5 99.3308 152.786 98.3232 154.24 97.5442C155.897 96.6561 157.784 96.0617 159.848 95.7761C160.561 95.6774 161.215 96.1893 161.311 96.9189C161.408 97.6486 160.908 98.3199 160.196 98.4185C156.902 98.8735 154.259 100.193 152.34 102.339C150.381 104.53 149.871 106.836 149.761 107.491C149.425 109.498 150.883 110.44 151.797 110.68C152.096 110.758 153.611 111.081 154.072 109.712C154.078 109.697 154.083 109.681 154.089 109.666C155.115 106.946 156.645 104.922 158.636 103.65C160.305 102.584 161.938 102.278 162.913 102.096C163.096 102.061 163.254 102.032 163.378 102.004C164.08 101.845 164.774 102.3 164.929 103.018C165.084 103.737 164.64 104.449 163.938 104.607C163.768 104.646 163.58 104.681 163.381 104.718C162.486 104.886 161.261 105.115 160.012 105.913C158.516 106.869 157.342 108.448 156.524 110.607C156.131 111.752 155.326 112.632 154.256 113.087C153.71 113.319 153.103 113.436 152.478 113.436Z" fill="#0B0C0A"/>
<path fill-rule="evenodd" clip-rule="evenodd" d="M122.868 124.137C122.717 124.137 122.573 124.047 122.509 123.895C122.424 123.693 122.514 123.457 122.712 123.37C122.918 123.279 143.308 114.231 146.962 112.305C147.153 112.204 147.389 112.281 147.487 112.478C147.586 112.674 147.51 112.915 147.319 113.016C143.642 114.954 123.228 124.012 123.022 124.104C122.972 124.126 122.919 124.137 122.868 124.137Z" fill="#0B0C0A"/>
<path fill-rule="evenodd" clip-rule="evenodd" d="M144.227 118.062C144.227 118.784 143.26 119.368 142.067 119.368C140.873 119.368 139.906 118.784 139.906 118.062C139.906 117.342 140.873 116.756 142.067 116.756C143.26 116.756 144.227 117.342 144.227 118.062Z" fill="#F9D022"/>
<path fill-rule="evenodd" clip-rule="evenodd" d="M136.642 121.48C136.642 122.094 135.818 122.592 134.801 122.592C133.784 122.592 132.96 122.094 132.96 121.48C132.96 120.865 133.784 120.367 134.801 120.367C135.818 120.367 136.642 120.865 136.642 121.48Z" fill="#F9D022"/>
<path fill-rule="evenodd" clip-rule="evenodd" d="M150.822 114.615C150.822 115.23 149.998 115.728 148.981 115.728C147.964 115.728 147.14 115.23 147.14 114.615C147.14 114.001 147.964 113.502 148.981 113.502C149.998 113.502 150.822 114.001 150.822 114.615Z" fill="#F9D022"/>
<path fill-rule="evenodd" clip-rule="evenodd" d="M108.736 102.952C108.478 102.025 112.96 100.528 117.922 104.436C118.461 104.829 118.222 106.155 116.825 105.249C114.951 104.032 113.997 103.287 111.437 103.033C109.044 102.796 108.926 103.637 108.736 102.952Z" fill="#FFFFFE"/>
<path fill-rule="evenodd" clip-rule="evenodd" d="M160.442 100.026C160.384 99.0621 155.672 99.1778 152.261 104.554C151.88 105.108 152.535 106.277 153.559 104.947C154.931 103.161 155.589 102.132 157.921 101.021C160.101 99.9829 160.485 100.736 160.442 100.026Z" fill="#FFFFFE"/>
<path fill-rule="evenodd" clip-rule="evenodd" d="M175.822 123.6C175.688 122.645 171 123.157 168.032 128.802C167.697 129.387 168.444 130.496 169.357 129.085C170.581 127.189 171.154 126.109 173.389 124.805C175.48 123.586 175.922 124.305 175.822 123.6Z" fill="#FFFFFE"/>
<path fill-rule="evenodd" clip-rule="evenodd" d="M46.5337 61.1084L42.8961 90.0951L38.5746 89.5097L44.3379 47.0417L46.5337 61.1084Z" fill="#FFFFFE"/>
<path fill-rule="evenodd" clip-rule="evenodd" d="M39.1621 89.0515L42.4463 89.496L46.008 61.117L44.3737 50.6487L39.1621 89.0515ZM42.896 90.6284C42.8733 90.6284 42.8505 90.6265 42.8278 90.6237L38.5062 90.0383C38.3688 90.0198 38.2443 89.9453 38.1603 89.8324C38.0763 89.7195 38.0398 89.5767 38.0589 89.4362L43.8222 46.9683C43.8577 46.7069 44.0747 46.5114 44.3324 46.5085C44.591 46.5076 44.811 46.6969 44.8517 46.9573L47.0476 61.0245C47.0554 61.0748 47.0564 61.126 47.0499 61.1768L43.4122 90.163C43.3945 90.3035 43.323 90.4311 43.2133 90.5174C43.1219 90.5895 43.0101 90.6284 42.896 90.6284Z" fill="#0B0C0A"/>
<path fill-rule="evenodd" clip-rule="evenodd" d="M51.2795 69.9443C51.2795 69.9443 37.6219 49.7246 47.811 41.1549C57.9997 32.5842 74.6951 52.469 74.6951 52.469L51.2795 69.9443Z" fill="#F9D022"/>
<path fill-rule="evenodd" clip-rule="evenodd" d="M53.7128 39.5603C53.1158 39.5603 52.5398 39.614 51.9873 39.7207C50.5856 39.9921 49.295 40.6173 48.1516 41.5794C45.9511 43.4301 44.7531 46.0232 44.5907 49.2871C44.4579 51.9547 45.0071 55.0744 46.2229 58.5594C47.9446 63.4937 50.5365 67.7771 51.4163 69.1624L73.9012 52.3821C72.7481 51.0808 69.1477 47.1817 64.7521 44.0378C61.6509 41.8195 58.7701 40.4076 56.1898 39.8421C55.3326 39.6543 54.5046 39.5603 53.7128 39.5603ZM51.2797 70.4936C51.2496 70.4936 51.22 70.4912 51.1899 70.486C51.0477 70.4613 50.9208 70.3788 50.8389 70.2568C50.8041 70.2056 47.3593 65.0716 45.2196 58.9484C43.9528 55.323 43.3806 52.0572 43.519 49.2411C43.6955 45.6508 45.0251 42.7873 47.4709 40.7302C49.9275 38.6637 52.9394 38.0038 56.4227 38.7695C59.1456 39.3682 62.1593 40.8412 65.381 43.1478C70.8208 47.0422 75.0594 52.0605 75.1015 52.1108C75.1992 52.227 75.2451 52.3798 75.2279 52.5325C75.2108 52.6848 75.1321 52.8229 75.0107 52.913L51.5956 70.3883C51.5029 70.457 51.3923 70.4936 51.2797 70.4936Z" fill="#0B0C0A"/>
<path fill-rule="evenodd" clip-rule="evenodd" d="M77.4026 61.1085C77.4026 69.3044 70.9176 75.948 62.9174 75.948C54.9177 75.948 48.4327 69.3044 48.4327 61.1085C48.4327 52.9131 54.9177 46.269 62.9174 46.269C70.9176 46.269 77.4026 52.9131 77.4026 61.1085Z" fill="#FFFFFE"/>
<path fill-rule="evenodd" clip-rule="evenodd" d="M62.9174 46.8187C59.1915 46.8187 55.6887 48.305 53.0543 51.0039C50.4198 53.7028 48.969 57.2917 48.969 61.1083C48.969 64.9254 50.4198 68.5143 53.0543 71.2132C55.6887 73.9121 59.1915 75.3984 62.9174 75.3984C66.6434 75.3984 70.1461 73.9121 72.781 71.2132C75.4155 68.5143 76.8663 64.9254 76.8663 61.1083C76.8663 57.2917 75.4155 53.7028 72.781 51.0039C70.1461 48.305 66.6434 46.8187 62.9174 46.8187ZM62.9174 76.4971C58.9053 76.4971 55.133 74.8965 52.2957 71.9902C49.4589 69.0835 47.8965 65.219 47.8965 61.1083C47.8965 56.998 49.4589 53.1335 52.2957 50.2268C55.133 47.3206 58.9053 45.7195 62.9174 45.7195C66.93 45.7195 70.7023 47.3206 73.5391 50.2268C76.3764 53.1335 77.9388 56.998 77.9388 61.1083C77.9388 65.219 76.3764 69.0835 73.5391 71.9902C70.7023 74.8965 66.93 76.4971 62.9174 76.4971Z" fill="#0B0C0A"/>
<path fill-rule="evenodd" clip-rule="evenodd" d="M61.4526 46.8398C66.5914 47.7896 70.0062 52.8278 69.0786 58.0923C68.1511 63.3573 63.2336 66.8551 58.0944 65.9053C52.9556 64.9551 49.5413 59.9174 50.4684 54.6524C50.4684 54.6524 51.8048 51.5607 54.8176 49.441C58.161 47.0884 61.4526 46.8398 61.4526 46.8398Z" fill="#F9D022"/>
<path fill-rule="evenodd" clip-rule="evenodd" d="M60.2941 54.3359C60.7132 54.8317 61.0998 55.2729 61.4198 55.6121C61.9505 56.1733 62.6465 56.1496 63.1212 55.9403C63.512 55.7677 63.7774 55.4583 63.7653 55.1875C63.7514 54.8582 63.3282 54.5214 62.6331 54.2866C61.9412 54.0527 61.2017 54.0536 60.4358 54.2899C60.3885 54.3041 60.3413 54.3198 60.2941 54.3359ZM57.6119 56.3488C56.977 57.1885 56.6441 58.0942 56.7635 58.7673C56.8487 59.246 57.1007 59.5643 57.4739 59.663C57.8221 59.7551 58.2065 59.6279 58.4306 59.3471C58.6024 59.1322 58.8266 58.6383 58.4033 57.7474C58.2033 57.3266 57.9291 56.8507 57.6119 56.3488ZM57.7091 60.4932C57.5656 60.4932 57.4211 60.4747 57.2785 60.4373C56.6135 60.2612 56.1337 59.6905 55.9953 58.9106C55.8258 57.9537 56.2782 56.7298 57.1562 55.6543C55.5637 53.3022 53.352 50.7072 53.3224 50.673L53.91 50.1459C53.9198 50.1573 54.9047 51.3116 56.0282 52.7685C56.6746 53.6072 57.234 54.372 57.7036 55.0579C57.7772 54.9863 57.8536 54.9152 57.9314 54.8459C58.2773 54.5375 58.646 54.2695 59.0275 54.0479C57.2789 51.9202 55.3354 49.3636 55.2229 49.2156L55.8392 48.7246C55.8675 48.7616 57.9574 51.5108 59.7536 53.6883C59.9055 53.6257 60.0579 53.5707 60.2107 53.5237C61.1332 53.2395 62.0306 53.2405 62.8776 53.527C63.4833 53.732 64.5053 54.2149 64.5456 55.1524C64.572 55.7667 64.1339 56.364 63.43 56.6747C62.5331 57.0704 61.524 56.8716 60.859 56.1681C60.4862 55.7738 60.0315 55.2515 59.5434 54.6699C59.1614 54.8781 58.7904 55.1405 58.4441 55.4493C58.3422 55.5399 58.244 55.6334 58.1495 55.7288C58.5608 56.3664 58.8798 56.9238 59.1053 57.3973C59.5536 58.3404 59.5281 59.2356 59.0354 59.8533C58.708 60.2636 58.2167 60.4932 57.7091 60.4932Z" fill="#FFFFFE"/>
<path fill-rule="evenodd" clip-rule="evenodd" d="M52.7903 47.3077C51.4455 48.2409 47.7589 43.8863 48.9736 42.5983C50.1878 41.3093 54.3495 46.2256 52.7903 47.3077Z" fill="#FFFFFE"/>
<path fill-rule="evenodd" clip-rule="evenodd" d="M69.0677 71.81C67.6511 72.6231 64.3368 67.9654 65.6534 66.7865C66.9695 65.6076 70.7107 70.8669 69.0677 71.81Z" fill="#0B0C0A"/>
<path fill-rule="evenodd" clip-rule="evenodd" d="M61.0196 73.5378C59.4349 73.903 57.5548 68.4701 59.145 67.7248C60.7348 66.9795 62.8566 73.1132 61.0196 73.5378Z" fill="#0B0C0A"/>
<path fill-rule="evenodd" clip-rule="evenodd" d="M74.5147 64.9373C73.5279 66.2586 68.6854 63.3234 69.4393 61.7071C70.1928 60.0913 75.6599 63.4055 74.5147 64.9373Z" fill="#0B0C0A"/>
<path fill-rule="evenodd" clip-rule="evenodd" d="M74.8876 56.5305C74.3704 57.8062 69.8738 56.5077 70.1424 55.0466C70.4115 53.5849 75.4878 55.0518 74.8876 56.5305Z" fill="#0B0C0A"/>
<path fill-rule="evenodd" clip-rule="evenodd" d="M53.2243 69.7323C51.8772 69.6721 51.5239 64.9 52.9558 64.6567C54.3881 64.4138 54.7863 69.8016 53.2243 69.7323Z" fill="#0B0C0A"/>
<path fill-rule="evenodd" clip-rule="evenodd" d="M48.6079 51.8828C47.0288 52.2718 45.0722 46.8674 46.6514 46.0984C48.2305 45.3298 50.4384 51.4312 48.6079 51.8828Z" fill="#FFFFFE"/>
<path fill-rule="evenodd" clip-rule="evenodd" d="M58.4631 44.515C57.4253 45.795 52.701 42.6634 53.5174 41.0794C54.3338 39.4953 59.6662 43.0315 58.4631 44.515Z" fill="#FFFFFE"/>
<path fill-rule="evenodd" clip-rule="evenodd" d="M103.283 170.953C103.154 172.127 99.1521 172.14 99.0326 170.872C98.9131 169.604 103.432 169.591 103.283 170.953Z" fill="#FFFFFE"/>
<path fill-rule="evenodd" clip-rule="evenodd" d="M103.283 166.287C103.154 167.462 99.1521 167.474 99.0326 166.206C98.9131 164.939 103.432 164.925 103.283 166.287Z" fill="#FFFFFE"/>
<path fill-rule="evenodd" clip-rule="evenodd" d="M103.204 161.888C103.076 163.063 99.0738 163.075 98.9544 161.807C98.8349 160.539 103.354 160.526 103.204 161.888Z" fill="#FFFFFE"/>
<path fill-rule="evenodd" clip-rule="evenodd" d="M103.283 157.456C103.154 158.631 99.1521 158.643 99.0326 157.375C98.9131 156.107 103.432 156.093 103.283 157.456Z" fill="#FFFFFE"/>
<path fill-rule="evenodd" clip-rule="evenodd" d="M162.538 145.989C162.413 147.125 158.544 147.137 158.428 145.911C158.313 144.685 162.681 144.672 162.538 145.989Z" fill="#FFFFFE"/>
<path fill-rule="evenodd" clip-rule="evenodd" d="M162.538 141.478C162.413 142.613 158.544 142.625 158.428 141.399C158.313 140.173 162.681 140.16 162.538 141.478Z" fill="#FFFFFE"/>
<path fill-rule="evenodd" clip-rule="evenodd" d="M162.462 137.224C162.338 138.36 158.468 138.372 158.352 137.146C158.236 135.92 162.606 135.907 162.462 137.224Z" fill="#FFFFFE"/>
<path fill-rule="evenodd" clip-rule="evenodd" d="M162.538 132.939C162.413 134.074 158.544 134.086 158.428 132.86C158.313 131.634 162.681 131.621 162.538 132.939Z" fill="#FFFFFE"/>
<path fill-rule="evenodd" clip-rule="evenodd" d="M141.363 148.901C140.558 148.901 139.839 148.767 139.196 148.5C136.965 147.574 136.003 145.213 135.073 142.929C134.275 140.97 133.45 138.944 131.834 137.939C127.351 135.149 114.226 134.915 114.094 134.912C113.879 134.909 113.707 134.727 113.71 134.507C113.713 134.288 113.887 134.113 114.1 134.113C114.102 134.113 114.104 134.113 114.106 134.113C114.14 134.113 117.496 134.169 121.373 134.577C126.615 135.13 130.271 136.03 132.24 137.255C134.072 138.396 134.947 140.544 135.794 142.621C136.702 144.852 137.56 146.958 139.49 147.759C141.123 148.438 143.401 148.115 146.454 146.772C149.187 145.571 151.582 143.783 153.572 141.46C155.23 139.523 156.617 137.206 157.696 134.572C159.559 130.024 160.055 125.621 160.055 123.737C160.055 123.43 159.927 123.149 159.663 122.88C159.075 122.28 157.545 121.473 153.593 121.031C151.18 120.761 149.005 120.765 148.983 120.766C148.982 120.766 148.982 120.766 148.981 120.766C148.766 120.766 148.592 120.588 148.591 120.368C148.59 120.147 148.764 119.967 148.98 119.967C149.002 119.967 151.214 119.961 153.67 120.235C157.028 120.61 159.229 121.309 160.214 122.313C160.626 122.735 160.836 123.213 160.836 123.736C160.836 125.68 160.327 130.216 158.416 134.882C157.304 137.595 155.872 139.986 154.159 141.987C152.091 144.401 149.603 146.259 146.762 147.507C144.646 148.438 142.858 148.901 141.363 148.901Z" fill="#0B0C0A"/>
<path fill-rule="evenodd" clip-rule="evenodd" d="M43.2135 87.8004C43.181 87.8004 43.1482 87.7975 43.1151 87.7909L38.9406 86.9498C38.6555 86.8924 38.468 86.5997 38.5219 86.2965C38.5759 85.9929 38.851 85.7932 39.1361 85.851L43.3106 86.6917C43.5958 86.7491 43.7832 87.0418 43.7293 87.3454C43.6815 87.6135 43.461 87.8004 43.2135 87.8004Z" fill="#0B0C0A"/>
<path fill-rule="evenodd" clip-rule="evenodd" d="M44.0063 81.4863C43.9743 81.4872 43.9417 81.4844 43.9089 81.4787L39.765 80.7415C39.4819 80.6912 39.2914 80.4113 39.3396 80.1162C39.3878 79.8216 39.6564 79.6233 39.9394 79.6736L44.0834 80.4108C44.3664 80.4611 44.5569 80.741 44.5087 81.0361C44.4661 81.2965 44.2512 81.482 44.0063 81.4863Z" fill="#0B0C0A"/>
<path fill-rule="evenodd" clip-rule="evenodd" d="M44.7228 75.3074C44.6896 75.3074 44.6561 75.3041 44.6225 75.2979L40.7014 74.5379C40.4104 74.4815 40.2192 74.194 40.2742 73.8961C40.3293 73.5977 40.6099 73.4017 40.9008 73.4582L44.8218 74.2182C45.1128 74.2746 45.3041 74.5621 45.249 74.8601C45.2004 75.1238 44.9754 75.3074 44.7228 75.3074Z" fill="#0B0C0A"/>
<path fill-rule="evenodd" clip-rule="evenodd" d="M45.5705 69.0548C45.5378 69.0548 45.5046 69.052 45.4713 69.0454L41.4556 68.2697C41.1681 68.2137 40.9791 67.931 41.0335 67.6373C41.0879 67.3437 41.3652 67.151 41.6526 67.2066L45.6684 67.9827C45.9559 68.0382 46.1448 68.3209 46.0904 68.6146C46.0423 68.8741 45.82 69.0548 45.5705 69.0548Z" fill="#0B0C0A"/>
<path fill-rule="evenodd" clip-rule="evenodd" d="M46.3753 62.8314C46.3401 62.8314 46.3043 62.8281 46.2685 62.8205L42.2755 61.9945C41.9852 61.9348 41.7973 61.6449 41.8559 61.3475C41.9146 61.05 42.1977 60.8579 42.4877 60.9176L46.4809 61.7436C46.7712 61.8034 46.9588 62.0932 46.9004 62.3907C46.849 62.6516 46.6249 62.8314 46.3753 62.8314Z" fill="#0B0C0A"/>
<defs>
<radialGradient id="paint0_radial_1798_30383" cx="0" cy="0" r="1" gradientUnits="userSpaceOnUse" gradientTransform="translate(145.764 60.6519) rotate(89.9522) scale(70.3026 72.7227)">
<stop stop-color="#FFEF9E"/>
<stop offset="0.452438" stop-color="#FFD921"/>
<stop offset="1" stop-color="#FAD001"/>
</radialGradient>
<linearGradient id="paint1_linear_1798_30383" x1="294.14" y1="121.697" x2="110.495" y2="65.2321" gradientUnits="userSpaceOnUse">
<stop offset="0.369792" stop-color="#E64500" stop-opacity="0.81"/>
<stop offset="0.572917" stop-color="#FF5C00" stop-opacity="0.79"/>
<stop offset="0.927083" stop-color="#FF9921"/>
</linearGradient>
<linearGradient id="paint2_linear_1798_30383" x1="209.249" y1="41.6872" x2="94.7112" y2="19.4773" gradientUnits="userSpaceOnUse">
<stop offset="0.369792" stop-color="#E64500" stop-opacity="0.81"/>
<stop offset="0.572917" stop-color="#FF5C00" stop-opacity="0.79"/>
<stop offset="0.927083" stop-color="#FF9921"/>
</linearGradient>
<linearGradient id="paint3_linear_1798_30383" x1="236.014" y1="76.6077" x2="178.488" y2="70.3977" gradientUnits="userSpaceOnUse">
<stop offset="0.369792" stop-color="#E64500" stop-opacity="0.81"/>
<stop offset="0.572917" stop-color="#FF5C00" stop-opacity="0.79"/>
<stop offset="0.927083" stop-color="#FF9921"/>
</linearGradient>
<linearGradient id="paint4_linear_1798_30383" x1="119.077" y1="87.6381" x2="86.4077" y2="84.0891" gradientUnits="userSpaceOnUse">
<stop offset="0.369792" stop-color="#E64500" stop-opacity="0.81"/>
<stop offset="0.572917" stop-color="#FF5C00" stop-opacity="0.79"/>
<stop offset="0.927083" stop-color="#FF9921"/>
</linearGradient>
</defs>
</svg>
