<svg width="29" height="28" viewBox="0 0 29 28" fill="none" xmlns="http://www.w3.org/2000/svg">
<path fill-rule="evenodd" clip-rule="evenodd" d="M23.9798 14.9998V24.9598C23.9798 26.2665 22.7285 27.3332 21.1958 27.3332H19.5849C18.0521 27.3332 16.8165 26.2665 16.8165 24.9598V14.9998H6.19678C5.86834 14.9998 5.5399 14.8798 5.32093 14.6665L1.03551 10.5465C0.628866 10.1732 0.628866 9.59984 1.03551 9.2265L5.32093 5.1065C5.5399 4.89317 5.86834 4.77317 6.19678 4.77317H16.8165V3.03984C16.8165 1.73317 18.0521 0.666504 19.5849 0.666504H21.1958C22.7285 0.666504 23.9798 1.73317 23.9798 3.03984V4.77317H27.624C28.2809 4.77317 28.797 5.2265 28.797 5.77317V13.9998C28.797 14.5465 28.2809 14.9998 27.624 14.9998H23.9798ZM21.1958 2.6665H19.5849C19.3502 2.6665 19.1626 2.83984 19.1626 3.03984V4.77317H21.6338V3.03984C21.6338 2.83984 21.4304 2.6665 21.1958 2.6665ZM19.1626 14.9998V24.9598C19.1626 25.1598 19.3502 25.3332 19.5849 25.3332H21.1958C21.4304 25.3332 21.6338 25.1598 21.6338 24.9598V14.9998H19.1626Z" fill="#2D1B0E"/>
<path fill-rule="evenodd" clip-rule="evenodd" d="M23.9798 14.9998V24.9598C23.9798 26.2665 22.7285 27.3332 21.1958 27.3332H19.5849C18.0521 27.3332 16.8165 26.2665 16.8165 24.9598V14.9998H6.19678C5.86834 14.9998 5.5399 14.8798 5.32093 14.6665L1.03551 10.5465C0.628866 10.1732 0.628866 9.59984 1.03551 9.2265L5.32093 5.1065C5.5399 4.89317 5.86834 4.77317 6.19678 4.77317H16.8165V3.03984C16.8165 1.73317 18.0521 0.666504 19.5849 0.666504H21.1958C22.7285 0.666504 23.9798 1.73317 23.9798 3.03984V4.77317H27.624C28.2809 4.77317 28.797 5.2265 28.797 5.77317V13.9998C28.797 14.5465 28.2809 14.9998 27.624 14.9998H23.9798ZM21.1958 2.6665H19.5849C19.3502 2.6665 19.1626 2.83984 19.1626 3.03984V4.77317H21.6338V3.03984C21.6338 2.83984 21.4304 2.6665 21.1958 2.6665ZM19.1626 14.9998V24.9598C19.1626 25.1598 19.3502 25.3332 19.5849 25.3332H21.1958C21.4304 25.3332 21.6338 25.1598 21.6338 24.9598V14.9998H19.1626Z" fill="black" fill-opacity="0.5"/>
<path fill-rule="evenodd" clip-rule="evenodd" d="M23.9798 14.9998V24.9598C23.9798 26.2665 22.7285 27.3332 21.1958 27.3332H19.5849C18.0521 27.3332 16.8165 26.2665 16.8165 24.9598V14.9998H6.19678C5.86834 14.9998 5.5399 14.8798 5.32093 14.6665L1.03551 10.5465C0.628866 10.1732 0.628866 9.59984 1.03551 9.2265L5.32093 5.1065C5.5399 4.89317 5.86834 4.77317 6.19678 4.77317H16.8165V3.03984C16.8165 1.73317 18.0521 0.666504 19.5849 0.666504H21.1958C22.7285 0.666504 23.9798 1.73317 23.9798 3.03984V4.77317H27.624C28.2809 4.77317 28.797 5.2265 28.797 5.77317V13.9998C28.797 14.5465 28.2809 14.9998 27.624 14.9998H23.9798ZM21.1958 2.6665H19.5849C19.3502 2.6665 19.1626 2.83984 19.1626 3.03984V4.77317H21.6338V3.03984C21.6338 2.83984 21.4304 2.6665 21.1958 2.6665ZM19.1626 14.9998V24.9598C19.1626 25.1598 19.3502 25.3332 19.5849 25.3332H21.1958C21.4304 25.3332 21.6338 25.1598 21.6338 24.9598V14.9998H19.1626Z" fill="black" fill-opacity="0.2"/>
</svg>
