<svg width="18" height="18" viewBox="0 0 18 18" fill="none" xmlns="http://www.w3.org/2000/svg">
<path d="M13.5454 11.505C13.5454 11.955 13.3204 12.3675 12.9529 12.615C12.0454 13.215 10.5604 13.9275 8.61037 13.9275C7.72537 13.9275 5.98536 13.755 4.26786 12.6075C3.90036 12.3675 3.68286 11.955 3.68286 11.505V9.00751L4.80786 9.50249L7.84535 10.86C8.01785 10.9425 8.18286 10.9725 8.27286 10.98C8.49786 11.025 8.72286 11.025 8.93286 10.9875C9.03786 10.9725 9.20286 10.9425 9.37536 10.86L12.4204 9.50249L13.5454 9V11.505Z" fill="#F7F7F7"/>
<path d="M15.728 14.0624V15.1649C15.728 15.4799 15.473 15.7274 15.1655 15.7274C14.8505 15.7274 14.603 15.4799 14.603 15.1649V14.0624C14.1455 13.8524 13.8305 13.3874 13.8305 12.8549C13.8305 12.3224 14.1455 11.8574 14.603 11.6474V7.46238L13.5455 7.93489L12.4205 8.43738L9.37549 9.79487C9.20299 9.87737 9.03799 9.90736 8.93299 9.92236C8.72299 9.95986 8.49799 9.95985 8.27299 9.91485C8.18299 9.90735 8.01798 9.87737 7.84548 9.79487L4.80799 8.43738L3.68299 7.9424L2.378 7.35737C1.838 7.11737 1.50049 6.64489 1.50049 6.11239C1.50049 5.57989 1.838 5.09986 2.378 4.85986L7.85299 2.42236C8.33299 2.21986 8.888 2.21985 9.3605 2.41485L14.8505 4.85986C15.3905 5.09986 15.728 5.57989 15.728 6.11239V11.6474C16.1855 11.8574 16.5005 12.3224 16.5005 12.8549C16.5005 13.3874 16.1855 13.8524 15.728 14.0624Z" fill="#F7F7F7"/>
</svg>
