<svg width="24" height="24" viewBox="0 0 24 24" fill="none" xmlns="http://www.w3.org/2000/svg">
<path d="M10.66 16.63C10.53 16.73 10.37 16.78 10.21 16.78C10.1 16.78 9.98 16.75 9.88 16.7C9.62 16.57 9.45999 16.31 9.45999 16.03V15.13H7.20001C6.79001 15.13 6.45001 14.79 6.45001 14.38V4.34V2.39C6.25001 2.5 6.07 2.62999 5.91 2.78999L3.63 4.97C3.08 5.5 2.76001 6.24999 2.76001 7.00999V16.1C2.76001 17.67 4.03001 18.94 5.60001 18.94H7.01001V21.04C7.01001 21.42 7.24 21.77 7.59 21.92C7.72 21.97 7.85 22 7.97 22C8.21 22 8.45 21.91 8.63 21.74L11.58 18.94H14.11C14.3 18.94 14.49 18.87 14.63 18.73L18.43 15.13H16.24H12.66V15.13L10.66 16.63Z" fill="#47131A"/>
<path fill-rule="evenodd" clip-rule="evenodd" d="M7.94995 2V3.5V13.63H10.2099C10.6299 13.63 10.9599 13.97 10.9599 14.38V14.53L11.9599 13.78C12.0899 13.68 12.2499 13.63 12.4099 13.63H17.8199H20.0099L20.3599 13.3C20.9199 12.77 21.2399 12.02 21.2399 11.24V4.84C21.2399 3.27 19.9699 2 18.3999 2H7.94995ZM13.2299 10.71C12.8099 10.71 12.4799 10.38 12.4799 9.96001V5.85001C12.4799 5.44001 12.8099 5.10001 13.2299 5.10001C13.6399 5.10001 13.9799 5.44001 13.9799 5.85001V9.96001C13.9799 10.38 13.6399 10.71 13.2299 10.71ZM16.5899 9.96001V5.85001C16.5899 5.44001 16.9199 5.10001 17.3399 5.10001C17.7499 5.10001 18.0899 5.44001 18.0899 5.85001V9.96001C18.0899 10.38 17.7499 10.71 17.3399 10.71C16.9199 10.71 16.5899 10.38 16.5899 9.96001Z" fill="#47131A"/>
</svg>
