<svg width="36" height="36" viewBox="0 0 36 36" fill="none" xmlns="http://www.w3.org/2000/svg">
<path d="M18 0C27.9411 0 36 8.05887 36 18C36 27.9411 27.9411 36 18 36C8.05887 36 0 27.9411 0 18C0 8.05887 8.05887 0 18 0ZM27.5539 10.6872C27.8967 9.35786 27.0553 8.73958 26.1827 9.14146L7.0476 16.4681C5.73869 16.9937 5.73869 17.7047 6.79828 18.0138L11.7223 19.5595L23.0974 12.4493C23.6272 12.1092 24.1258 12.2947 23.7207 12.6657L14.4959 20.8888L14.1531 25.9278C14.6518 25.9278 14.8699 25.7114 15.1504 25.4332L17.5501 23.1147L22.5053 26.7625C23.4402 27.2881 24.0947 27.0098 24.3128 25.9278L27.5539 10.6872Z" fill="#47131A"/>
</svg>
