<svg width="22" height="22" viewBox="0 0 22 22" fill="none" xmlns="http://www.w3.org/2000/svg">
<mask id="mask0_1602_19769" style="mask-type:alpha" maskUnits="userSpaceOnUse" x="0" y="0" width="22" height="22">
<path d="M22 0H0V22H22V0Z" fill="white"/>
</mask>
<g mask="url(#mask0_1602_19769)">
<path d="M11.0001 3.19507C15.3107 3.19507 18.8051 6.68949 18.8051 11.0001C18.8051 15.3107 15.3107 18.8051 11.0001 18.8051C6.68949 18.8051 3.19507 15.3107 3.19507 11.0001C3.19507 6.68949 6.68949 3.19507 11.0001 3.19507ZM11.01 6.80249C10.6343 6.80249 10.3301 7.10671 10.3285 7.48408L10.3279 12.7065L8.45492 10.8338C8.18894 10.5678 7.75837 10.5678 7.49239 10.8338C7.2264 11.0998 7.2264 11.5304 7.49239 11.7964L10.4297 14.7342C10.4529 14.768 10.4796 14.8002 10.5097 14.8303C10.6447 14.9653 10.8222 15.0318 10.9995 15.0297C11.1763 15.0318 11.3538 14.9653 11.4888 14.8303C11.5183 14.8008 11.5445 14.7693 11.5675 14.7362L14.5061 11.7964C14.7721 11.5304 14.7721 11.0998 14.5061 10.8338C14.2401 10.5678 13.8095 10.5678 13.5436 10.8338L11.6909 12.6855L11.6916 7.48408C11.6916 7.10671 11.3857 6.80249 11.01 6.80249Z" fill="#47131A"/>
</g>
</svg>
