<svg width="36" height="36" viewBox="0 0 36 36" fill="none" xmlns="http://www.w3.org/2000/svg">
<path d="M0 18C0 27.9411 8.05887 36 18 36C27.9411 36 36 27.9411 36 18C36 8.05887 27.9411 0 18 0C8.05887 0 0 8.05887 0 18Z" fill="#47131A"/>
<path d="M24.7 9C25.245 9.00132 25.7672 9.2191 26.1517 9.60543C26.5361 9.99175 26.7513 10.515 26.75 11.06V29L24.6 27.1L23.39 26L22.11 24.77L22.64 26.62H11.3C10.755 26.6187 10.2328 26.4009 9.84837 26.0146C9.46392 25.6282 9.24868 25.105 9.25001 24.56V11.06C9.24868 10.515 9.46392 9.99175 9.84837 9.60543C10.2328 9.2191 10.755 9.00132 11.3 9H24.7ZM16.46 13.68C15.4372 13.7306 14.4554 14.0975 13.65 14.73C12.7348 16.5392 12.2424 18.5327 12.21 20.56C12.9147 21.5352 14.0574 22.0971 15.26 22.06C15.26 22.06 15.517 21.747 15.776 21.423L15.93 21.23C15.227 21.0527 14.608 20.6353 14.18 20.05C14.18 20.05 14.28 20.12 14.46 20.22L14.5 20.25L14.61 20.31C14.845 20.44 15.09 20.554 15.34 20.65C15.816 20.838 16.308 20.982 16.81 21.08C17.6658 21.2411 18.5442 21.2411 19.4 21.08C19.8983 20.9929 20.3848 20.8486 20.85 20.65C21.2544 20.4974 21.6402 20.2995 22 20.06C21.5535 20.6598 20.9085 21.0815 20.18 21.25C20.48 21.63 20.84 22.06 20.84 22.06C22.0486 22.0906 23.1942 21.5216 23.9 20.54C23.8431 18.5292 23.3338 16.557 22.41 14.77C21.6047 14.1375 20.6228 13.7706 19.6 13.72L19.46 13.88C20.3741 14.121 21.2263 14.5539 21.96 15.15C21.032 14.638 20.0129 14.3119 18.96 14.19C18.2957 14.1109 17.6243 14.1109 16.96 14.19C16.9034 14.1852 16.8466 14.1852 16.79 14.19C16.0049 14.2791 15.2388 14.4917 14.52 14.82C14.15 14.99 13.93 15.11 13.93 15.11C14.6998 14.4854 15.5977 14.0381 16.56 13.8L16.46 13.68ZM16.065 17.384L16.19 17.39C16.77 17.425 17.216 17.919 17.19 18.5C17.1896 18.9614 16.9051 19.3749 16.4743 19.5401C16.0435 19.7053 15.5554 19.5882 15.2466 19.2454C14.9378 18.9026 14.872 18.405 15.0811 17.9937C15.2902 17.5824 15.7311 17.3424 16.19 17.39L16.065 17.384ZM19.84 17.39C20.403 17.39 20.86 17.887 20.86 18.5C20.86 19.113 20.403 19.61 19.84 19.61C19.277 19.61 18.82 19.113 18.82 18.5C18.82 17.887 19.277 17.39 19.84 17.39Z" fill="#FAFAFA"/>
</svg>
