<svg width="15" height="16" viewBox="0 0 15 16" fill="none" xmlns="http://www.w3.org/2000/svg">
<path fill-rule="evenodd" clip-rule="evenodd" d="M8.35428 6.73284C9.67015 6.39419 10.6425 5.1997 10.6425 3.77811C10.6425 2.09319 9.27657 0.727295 7.59165 0.727295C5.90673 0.727295 4.54083 2.09319 4.54083 3.77811C4.54083 5.19965 5.51307 6.3941 6.82887 6.7328V8.37764C3.39682 8.58844 0.7274 10.205 0.7274 12.1679L0.727349 12.2539C0.726404 13.3128 0.724962 14.928 1.93873 15.6001C2.72808 16.0371 4.79026 16.0118 6.54989 15.9902C6.91484 15.9857 7.26677 15.9814 7.59164 15.9814C7.88677 15.9814 8.20536 15.9843 8.53635 15.9874C10.3264 16.0039 12.4792 16.0238 13.2445 15.6001C14.4583 14.928 14.4569 13.3128 14.4559 12.2539L14.4559 12.1679C14.4559 10.2049 11.7864 8.5884 8.35428 8.37763V6.73284Z" fill="#583A1E"/>
</svg>
