<svg width="12" height="10" viewBox="0 0 12 10" fill="none" xmlns="http://www.w3.org/2000/svg">
<path fill-rule="evenodd" clip-rule="evenodd" d="M3.97282 6.16311L5.80582 8.01165C6.27184 8.46213 6.27184 9.19223 5.80582 9.65825C5.58835 9.87573 5.2932 10 4.98252 10C4.68738 10 4.39223 9.87573 4.15922 9.65825L0.337864 5.82136C-0.112621 5.37087 -0.112621 4.62524 0.337864 4.17476L4.15922 0.337864C4.62524 -0.112621 5.35534 -0.112621 5.80582 0.337864C6.27184 0.803883 6.27184 1.53398 5.80582 1.98447L3.97282 3.83301H10.7612C11.4136 3.83301 11.9262 4.36116 11.9262 4.99806C11.9262 5.63495 11.4136 6.16311 10.7612 6.16311H3.97282Z" fill="#47131A"/>
</svg>
