<svg width="22" height="22" viewBox="0 0 22 22" fill="none" xmlns="http://www.w3.org/2000/svg">
<path d="M11.4241 9.86805C11.3121 9.98005 11.1601 10.044 11.0001 10.044C10.8401 10.044 10.6881 9.98004 10.5761 9.86004L10.4001 9.68404C10.0321 9.32404 9.56012 9.14804 9.08812 9.14804C8.60812 9.14804 8.12812 9.32404 7.76812 9.68404C7.41612 10.036 7.22412 10.508 7.22412 11.004C7.22412 11.5 7.41612 11.964 7.76812 12.316L10.9681 15.508L14.2321 12.316C14.5841 11.964 14.7761 11.5 14.7761 11.004C14.7761 10.508 14.5841 10.036 14.2321 9.68404C13.5041 8.96404 12.3281 8.96404 11.6001 9.68404L11.4241 9.86805Z" fill="#47131A"/>
<path fill-rule="evenodd" clip-rule="evenodd" d="M9.064 3.732L4.064 8.124C3.392 8.716 3 9.588 3 10.516V15.876C3 17.596 4.344 19.004 6 19.004H16C17.656 19.004 19 17.596 19 15.876V10.516C19 9.588 18.608 8.716 17.936 8.124L12.936 3.732C11.816 2.756 10.184 2.756 9.064 3.732ZM11.88 16.364C11.832 16.42 11.736 16.492 11.664 16.54C11.464 16.676 11.24 16.748 11 16.748C10.76 16.748 10.536 16.676 10.336 16.54C10.256 16.492 10.16 16.404 10.104 16.356L6.92 13.164C6.344 12.588 6.024 11.82 6.024 11.004C6.024 10.188 6.344 9.412 6.92 8.836C8.032 7.724 9.8 7.652 11 8.62C12.2 7.652 13.968 7.724 15.08 8.836C15.656 9.412 15.976 10.188 15.976 11.004C15.976 11.82 15.656 12.588 15.08 13.164L11.88 16.364Z" fill="#47131A"/>
</svg>
