<svg width="39" height="39" viewBox="0 0 39 39" fill="none" xmlns="http://www.w3.org/2000/svg">
<path d="M33.6818 24.766V15.651C33.6824 14.6558 33.4123 13.678 32.8986 12.8155C32.3848 11.953 31.6454 11.236 30.7544 10.7365L22.4273 6.08017C21.5382 5.58108 20.5282 5.31818 19.5 5.31818C18.4717 5.31818 17.4617 5.58108 16.5727 6.08017L8.2455 10.7365C7.35036 11.2383 6.60826 11.9596 6.09424 12.8274C5.58022 13.6951 5.31252 14.6786 5.3182 15.6784V24.7934C5.32249 25.7839 5.59491 26.7561 6.10843 27.6134C6.62195 28.4707 7.3587 29.1833 8.2455 29.6804L16.5727 34.3423C17.4627 34.8387 18.4723 35.1 19.5 35.1C20.5276 35.1 21.5373 34.8387 22.4273 34.3423L30.7544 29.6859C31.6451 29.1847 32.3841 28.4666 32.8977 27.6033C33.4114 26.7401 33.6817 25.7617 33.6818 24.766Z" fill="url(#paint0_linear_823_61569)"/>
<path d="M17.9845 12.3793C17.9845 11.7016 18.5339 11.1523 19.2116 11.1523C19.8892 11.1523 20.4386 11.7016 20.4386 12.3793V12.9411C21.1614 13.0156 21.814 13.1764 22.3965 13.4235C23.2305 13.7631 23.8776 14.2371 24.3377 14.8456C24.8122 15.4541 25.0494 16.1546 25.0494 16.947C25.0494 17.6545 24.8553 18.2842 24.4671 18.8361C24.0932 19.388 23.6187 19.8125 23.0436 20.1097C23.4749 20.2229 23.8919 20.4139 24.2945 20.6828C24.6972 20.9375 25.0279 21.2842 25.2867 21.7229C25.5455 22.1474 25.6749 22.6922 25.6749 23.3573C25.6749 24.1497 25.4305 24.8785 24.9416 25.5436C24.4527 26.1945 23.7697 26.7181 22.8926 27.1143C22.3368 27.3654 21.1098 27.5369 20.4386 27.6288V28.0382C20.4386 28.7159 19.8892 29.2652 19.2116 29.2652C18.5339 29.2652 17.9845 28.7159 17.9845 28.0382V27.6049C17.2512 27.5624 16.3501 27.5176 15.6887 27.4327C14.7028 27.285 14.0063 26.4237 14.0063 25.4269V16.0626C14.0063 14.5244 15.0842 13.1806 16.6161 13.0414C17.0689 12.9934 17.525 12.9571 17.9845 12.9323V12.3793ZM19.4632 15.5885C18.5429 15.5885 17.7233 15.6593 17.0044 15.8008V19.2394H19.7004C20.4338 19.2394 21.0089 19.0625 21.4259 18.7088C21.8573 18.355 22.073 17.9022 22.073 17.3503C22.073 16.7843 21.8142 16.3527 21.2965 16.0555C20.7933 15.7442 20.1821 15.5885 19.4632 15.5885ZM17.0044 24.8006C17.407 24.8997 17.8671 24.9705 18.3848 25.0129C18.9168 25.0412 19.341 25.0554 19.6573 25.0554C20.4913 25.0554 21.1743 24.8926 21.7063 24.5672C22.2527 24.2417 22.5259 23.7818 22.5259 23.1875C22.5259 22.5931 22.2455 22.1545 21.6848 21.8715C21.124 21.5743 20.4482 21.4257 19.6573 21.4257H17.0044V24.8006Z" fill="#018626"/>
<defs>
<linearGradient id="paint0_linear_823_61569" x1="33.6818" y1="5.31818" x2="3.93534" y2="33.6481" gradientUnits="userSpaceOnUse">
<stop offset="0.322917" stop-color="#20FF5D"/>
<stop offset="1" stop-color="#0D9F35"/>
</linearGradient>
</defs>
</svg>
