<svg width="22" height="22" viewBox="0 0 22 22" fill="none" xmlns="http://www.w3.org/2000/svg">
<mask id="mask0_1602_19751" style="mask-type:alpha" maskUnits="userSpaceOnUse" x="0" y="0" width="22" height="22">
<path d="M22 0H0V22H22V0Z" fill="white"/>
</mask>
<g mask="url(#mask0_1602_19751)">
<path d="M17.4166 4.58337C18.176 4.58337 18.7916 5.19898 18.7916 5.95837V15.125C18.7916 15.8844 18.176 16.5 17.4166 16.5H10.2767L7.12609 18.5648C6.98521 18.6571 6.80507 18.6647 6.65692 18.5846C6.50878 18.5045 6.4165 18.3496 6.41659 18.1812V16.5H4.58325C3.82386 16.5 3.20825 15.8844 3.20825 15.125V5.95837C3.20825 5.19898 3.82386 4.58337 4.58325 4.58337H17.4166ZM11.5866 10.5417H7.79158V11.9167H11.5866V10.5417ZM14.2083 7.79171H7.79158V9.16671H14.2083V7.79171Z" fill="#47131A"/>
</g>
</svg>
