<svg width="22" height="22" viewBox="0 0 22 22" fill="none" xmlns="http://www.w3.org/2000/svg">
<mask id="mask0_1602_19408" style="mask-type:alpha" maskUnits="userSpaceOnUse" x="0" y="0" width="22" height="22">
<path d="M22 0H0V22H22V0Z" fill="white"/>
</mask>
<g mask="url(#mask0_1602_19408)">
<path d="M11.7131 3.81033L17.7779 7.67315C18.1655 7.92006 18.4 8.34755 18.4 8.80677V17.0558C18.4 17.7982 17.7976 18.4 17.0545 18.4H4.94543C4.20236 18.4 3.59998 17.7982 3.59998 17.0558V8.69027C3.59998 8.22505 3.84063 7.79286 4.23638 7.54769L10.2811 3.80182C10.7206 3.5295 11.2774 3.53298 11.7135 3.81078L11.7131 3.81033ZM14.8121 13.4573H7.18785V14.8015H14.8121V13.4573ZM14.8121 11.2169H7.18785V12.5612H14.8121V11.2169Z" fill="#47131A"/>
</g>
</svg>
