<svg width="36" height="36" viewBox="0 0 36 36" fill="none" xmlns="http://www.w3.org/2000/svg">
<path d="M18 0C27.9411 0 36 8.05887 36 18C36 27.9411 27.9411 36 18 36C8.05887 36 0 27.9411 0 18C0 8.05887 8.05887 0 18 0ZM7.68516 9.10381C7.53047 9.11765 7.41094 9.17301 7.32656 9.2699C7.24219 9.36678 7.2 9.49827 7.2 9.66436V23.1799C7.2 23.3737 7.25625 23.5606 7.36875 23.7405C7.48125 23.9204 7.62891 24.0519 7.81172 24.1349L13.4016 26.917C13.5281 26.9723 13.6617 27 13.8023 27C13.9992 26.9862 14.1469 26.9135 14.2453 26.782C14.3437 26.6505 14.393 26.4879 14.393 26.2941V12.3633C14.393 12.3495 14.3859 12.3287 14.3719 12.301L8.19141 9.2699C7.96641 9.15917 7.79766 9.10381 7.68516 9.10381ZM28.8 13.7751L22.3031 24.1972L27.6187 26.8131C27.8016 26.9239 27.9879 26.9723 28.1777 26.9585C28.3676 26.9446 28.5187 26.8789 28.6312 26.7612C28.7437 26.6436 28.8 26.4879 28.8 26.2941V13.7751ZM15.1734 13.5675V20.6886L21.607 23.8443L15.1734 13.5675ZM21.8812 9C21.6 9 21.3961 9.11765 21.2695 9.35294L17.3461 15.6021L22.0711 23.0969C22.4086 22.5294 23.6074 20.6021 25.6676 17.3149C27.7277 14.0277 28.7578 12.3702 28.7578 12.3426C28.7578 12.3149 28.7437 12.2941 28.7156 12.2803L22.1977 9.08305C22.1133 9.02768 22.0078 9 21.8812 9Z" fill="#47131A"/>
</svg>
