<?xml version="1.0" encoding="utf-8"?>
<!-- Generator: Adobe Illustrator 24.1.3, SVG Export Plug-In . SVG Version: 6.00 Build 0)  -->
<svg version="1.1" id="Layer_1" xmlns="http://www.w3.org/2000/svg" xmlns:xlink="http://www.w3.org/1999/xlink" x="0px" y="0px"
	 viewBox="0 0 28 27" style="enable-background:new 0 0 28 27;" xml:space="preserve">
<style type="text/css">
	.st0{fill:url(#SVGID_1_);}
	.st1{fill:#000100;}
	.st2{fill:#FE7825;}
	.st3{fill:url(#SVGID_2_);}
	.st4{fill:url(#SVGID_3_);}
	.st5{fill:url(#SVGID_4_);}
	.st6{fill:#F6A505;}
	.st7{fill:url(#SVGID_5_);}
	.st8{opacity:0.8;}
	.st9{fill-rule:evenodd;clip-rule:evenodd;fill:#FFFFFF;}
	.st10{fill:#47131A;}
	.st11{opacity:0.5;fill-rule:evenodd;clip-rule:evenodd;fill:#FFFFFF;enable-background:new    ;}
	.st12{fill-rule:evenodd;clip-rule:evenodd;fill:#47131A;}
	.st13{fill-rule:evenodd;clip-rule:evenodd;fill:#FFB43C;}
	.st14{opacity:0.5;fill:#F7F7F7;enable-background:new    ;}
</style>
<g>
	
		<radialGradient id="SVGID_1_" cx="-519.5146" cy="-257.5468" r="0.9998" gradientTransform="matrix(1.042700e-02 12.8326 -12.9195 1.158027e-02 -3307.9663 6680.4473)" gradientUnits="userSpaceOnUse">
		<stop  offset="0" style="stop-color:#FFEF9E"/>
		<stop  offset="0.4524" style="stop-color:#FFD921"/>
		<stop  offset="1" style="stop-color:#FAD001"/>
	</radialGradient>
	<path class="st0" d="M23.3,10.2c-1.1-4.7-5.4-5-5.4-5s-0.1-0.9-0.6-1.7c-0.7,0-1.6,1.4-1.6,1.4h-3.6c0,0-0.9-1.4-1.6-1.4
		C10,4.5,9.9,5.3,9.9,5.3s-4,0.3-5.2,5c-0.4,1.3-0.7,5.5-0.7,7.6c0,3.4,1.9,5.6,5.2,5.8h1.7c0.5,0,5.7,0,6.4,0H19l0,0
		c3.4-0.1,5.2-2.2,5.2-5.8C24.1,15.7,23.7,11.5,23.3,10.2z"/>
	<path class="st1" d="M17.1,23.8c-0.6,0-5.9,0-6.4,0l0,0H9l0,0c-0.9,0-1.6-0.3-2.2-0.5S5.5,22.7,5,22.1c-0.5-0.5-0.9-1.2-1.1-1.8
		c-0.2-0.7-0.4-1.6-0.4-2.4c0-2,0.4-6.3,0.7-7.6c0.4-1,0.7-2.1,1.5-2.9c0.5-0.7,1.1-1.2,1.9-1.6C8.6,5.3,9.4,5,9.8,5
		c0-0.3,0.2-0.9,0.6-1.7c0,0,0-0.1,0.1-0.1h0.1l0,0c0.4,0,0.7,0.3,1.2,0.8c0.1,0.3,0.4,0.4,0.5,0.7h3.4c0.1-0.3,0.4-0.4,0.5-0.7
		c0.5-0.5,0.9-0.8,1.2-0.8l0,0h0.1c0,0,0.1,0,0.1,0.1c0.4,0.7,0.5,1.3,0.6,1.7c0.4,0,1.2,0.3,2.1,0.8c0.7,0.4,1.4,0.9,1.9,1.6
		c0.6,0.8,1.1,1.7,1.4,2.9c0.1,0.7,0.4,2,0.5,3.5c0.1,1.6,0.2,3.1,0.2,4.1c0,0.9-0.1,1.7-0.4,2.4c-0.2,0.7-0.6,1.3-1.1,1.8
		c-0.5,0.5-1,0.9-1.7,1.2c-0.6,0.3-1.5,0.4-2.2,0.5l0,0l0,0L17.1,23.8L17.1,23.8z M13.4,23.3h3.7h1.7l0,0l0,0c0.7,0,1.5-0.1,2.1-0.4
		s1.1-0.7,1.5-1c0.4-0.5,0.7-1,1-1.7c0.2-0.7,0.4-1.4,0.4-2.2c0-0.9-0.1-2.5-0.2-4.1c-0.1-1.6-0.4-2.9-0.5-3.5c-0.2-1-0.7-2-1.2-2.6
		c-0.4-0.7-1-1.2-1.6-1.6c-0.5-0.3-1-0.5-1.5-0.7c-0.4-0.1-0.6-0.1-0.6-0.1S18,5.4,18,5.3l-0.1-0.1c0,0-0.1-0.8-0.5-1.4
		c-0.2,0-0.5,0.3-0.7,0.7c-0.2,0.3-0.4,0.4-0.5,0.7c0,0,0,0-0.1,0.1h-0.1h-3.6h-0.1c0,0-0.1,0-0.1-0.1c-0.1-0.3-0.4-0.5-0.5-0.7
		c-0.2-0.4-0.6-0.5-0.7-0.7c-0.5,0.8-0.5,1.6-0.5,1.6s0,0.1-0.1,0.1c0,0-0.1,0-0.1,0.1c0,0-0.2,0-0.6,0.1c-0.5,0-1,0.3-1.5,0.5
		C7.3,6.6,6.6,7.1,6.1,7.6c-0.6,0.8-1,1.6-1.4,2.6c-0.1,0.5-0.4,1.8-0.5,3.4c-0.1,1.4-0.2,3-0.2,4.1c0,0.8,0.1,1.6,0.4,2.2
		c0.2,0.7,0.5,1.2,1,1.7c0.4,0.5,1,0.8,1.5,1c0.6,0.3,1.4,0.4,2.1,0.4h1.7L13.4,23.3z"/>
	<path class="st2" d="M18.5,21.7c0.1,0.9,0,1.6,0,1.6H9.4c-0.5-0.8,0-0.9,0-1.6C9.4,16.8,18.4,16.6,18.5,21.7z"/>
	
		<linearGradient id="SVGID_2_" gradientUnits="userSpaceOnUse" x1="38.5177" y1="561.4797" x2="5.2651" y2="550.3405" gradientTransform="matrix(1 0 0 1 0 -532)">
		<stop  offset="0.3698" style="stop-color:#E64500;stop-opacity:0.81"/>
		<stop  offset="0.5729" style="stop-color:#FF5C00;stop-opacity:0.79"/>
		<stop  offset="0.9271" style="stop-color:#FF9921"/>
	</linearGradient>
	<path class="st3" d="M18.5,21.7c0.1,0.9,0,1.6,0,1.6H9.4c-0.5-0.8,0-0.9,0-1.6C9.4,16.8,18.4,16.6,18.5,21.7z"/>
	<path class="st2" d="M23.2,10.2c0,0-0.6,0.1-1.6,1.4c-1,1.2-0.7,3.3,2.1,3.1C23.7,12.8,23.2,10.2,23.2,10.2z"/>
	
		<linearGradient id="SVGID_3_" gradientUnits="userSpaceOnUse" x1="30.0339" y1="545.274" x2="19.7827" y2="544.1412" gradientTransform="matrix(1 0 0 1 0 -532)">
		<stop  offset="0.3698" style="stop-color:#E64500;stop-opacity:0.81"/>
		<stop  offset="0.5729" style="stop-color:#FF5C00;stop-opacity:0.79"/>
		<stop  offset="0.9271" style="stop-color:#FF9921"/>
	</linearGradient>
	<path class="st4" d="M23.2,10.2c0,0-0.6,0.1-1.6,1.4c-1,1.2-0.7,3.3,2.1,3.1C23.7,12.8,23.2,10.2,23.2,10.2z"/>
	<path class="st2" d="M4.2,16.6c0,0,1.5,0.1,1.5-1.4c0-1-1.4-1.2-1.4-1.2L4.2,16.6z"/>
	
		<linearGradient id="SVGID_4_" gradientUnits="userSpaceOnUse" x1="9.2085" y1="547.8885" x2="3.3783" y2="547.2402" gradientTransform="matrix(1 0 0 1 0 -532)">
		<stop  offset="0.3698" style="stop-color:#E64500;stop-opacity:0.81"/>
		<stop  offset="0.5729" style="stop-color:#FF5C00;stop-opacity:0.79"/>
		<stop  offset="0.9271" style="stop-color:#FF9921"/>
	</linearGradient>
	<path class="st5" d="M4.2,16.6c0,0,1.5,0.1,1.5-1.4c0-1-1.4-1.2-1.4-1.2L4.2,16.6z"/>
	<path class="st6" d="M20.1,23.2c3-0.8,3.9-3.3,3.7-6.3c0,2.6-2.6,4.7-3.9,4.8c-2.1-3.7-5.4-3.7-5.4-3.7c2.6,0.4,3.7,2.1,3.9,3.7
		c0,0,0.1,1,0.1,1.7C19.5,23.3,20.1,23.2,20.1,23.2z"/>
	<path class="st6" d="M7.9,23.2c-3-0.8-3.9-3.3-3.7-6.3c0,2.6,2.6,4.7,3.9,4.8c2.1-3.7,5.4-3.7,5.4-3.7c-2.6,0.4-3.7,2.1-3.9,3.7
		c0,0-0.1,1-0.1,1.7C8.5,23.3,7.9,23.2,7.9,23.2z"/>
	<path class="st2" d="M12,5.1c0,0,1.2,3.3-1.4,3.7C7.8,9.2,7,6.7,7,6.7c0.4-0.3,1.5-1.2,3.1-1.4c0.2-1,0.5-1.6,0.5-1.6
		S11.1,3.8,12,5.1z"/>
	
		<linearGradient id="SVGID_5_" gradientUnits="userSpaceOnUse" x1="24.4449" y1="541.0562" x2="4.6564" y2="537.1752" gradientTransform="matrix(1 0 0 1 0 -532)">
		<stop  offset="0.3698" style="stop-color:#E64500;stop-opacity:0.81"/>
		<stop  offset="0.5729" style="stop-color:#FF5C00;stop-opacity:0.79"/>
		<stop  offset="0.9271" style="stop-color:#FF9921"/>
	</linearGradient>
	<path class="st7" d="M12,5.1c0,0,1.2,3.3-1.4,3.7C7.8,9.2,7,6.7,7,6.7c0.4-0.3,1.5-1.2,3.1-1.4c0.2-1,0.5-1.6,0.5-1.6
		S11.1,3.8,12,5.1z"/>
	<g class="st8">
		<path class="st9" d="M14.4,6.4l0.1-0.1c0-0.1,0-0.3,0-0.3c0-0.1-0.1-0.1-0.2-0.1c-0.1,0-0.1,0-0.2,0c-0.1,0-0.1,0-0.1,0.1
			c0,0-0.1,0.1-0.1,0.3c0,0.1,0,0.1,0,0.3c0,0.1,0.1,0.1,0.1,0.1s0.1,0,0.2,0C14.2,6.4,14.2,6.4,14.4,6.4z M15.7,6.6
			C18.1,7,20.2,8.3,21,8.9c0.7,0.7,1.5-0.4-0.6-1.7c-1.4-0.8-3.1-1.3-4.5-1.3C15.1,5.8,14.6,6.4,15.7,6.6z"/>
	</g>
	<path class="st10" d="M22.9,14.3L22.9,14.3l-1.1-0.4c0,0-0.1,0-0.1-0.1v-0.1c0,0,0-0.1,0.1-0.1h0.1l1.1,0.4c0,0,0,0,0.1,0.1v0.1
		C23.1,14.2,23,14.2,22.9,14.3C23,14.3,23,14.3,22.9,14.3L22.9,14.3z"/>
	<path class="st10" d="M23,13.1h-1.2h-0.1V13v-0.1h0.1H23h0.1V13C23.1,13,23.1,13,23,13.1C23.1,13.1,23.1,13.1,23,13.1L23,13.1z"/>
	<path class="st10" d="M5.5,14.3L5.5,14.3c-0.1-0.1-0.1-0.1-0.1-0.1V14c0,0,0,0,0.1-0.1l1.1-0.4l0,0l0,0l0,0l0,0l0,0l0,0l0,0l0,0
		L5.5,14.3C5.6,14.3,5.6,14.3,5.5,14.3L5.5,14.3z"/>
	<path class="st10" d="M6.6,13.1H5.4l0,0l0,0l0,0l0,0l0,0l0,0l0,0l0,0H6.6h0.1v0.1C6.8,13,6.8,13,6.6,13.1
		C6.8,13.1,6.8,13.1,6.6,13.1L6.6,13.1z"/>
	<path class="st11" d="M19.2,9.2c-1,0-1.6,1.2-1.6,3c0,1.7,0.7,2.9,1.6,2.9s1.6-1.2,1.6-3C20.9,10.5,20.2,9.2,19.2,9.2"/>
	<path class="st12" d="M19.2,9c-1,0-1.6,1-1.6,2.6s0.7,2.6,1.6,2.6s1.6-1,1.6-2.6C20.9,10.2,20.2,9,19.2,9"/>
	<path class="st9" d="M19.5,10.6c0,0.4-0.2,0.7-0.6,0.7s-0.6-0.3-0.6-0.7s0.2-0.7,0.6-0.7C19.1,10,19.5,10.4,19.5,10.6"/>
	<path class="st13" d="M18.5,16.1c0-0.4,0.5-0.5,1.1-0.5s1.2,0.1,1.2,0.5s-0.6,0.5-1.2,0.5S18.5,16.5,18.5,16.1"/>
	<path class="st11" d="M9,9.4c-1,0-1.6,1.3-1.6,3s0.7,2.9,1.6,2.9c0.9,0,1.6-1.2,1.6-3C10.6,10.8,10,9.4,9,9.4"/>
	<path class="st12" d="M9,9.4c-1,0-1.6,1.2-1.6,2.7s0.7,2.6,1.6,2.6c0.9,0,1.6-1.2,1.6-2.6C10.6,10.6,10,9.4,9,9.4"/>
	<path class="st9" d="M9.8,10.8c0,0.4-0.2,0.7-0.6,0.7s-0.6-0.3-0.6-0.7s0.2-0.7,0.6-0.7C9.5,10.1,9.8,10.4,9.8,10.8"/>
	<path class="st13" d="M7.9,16.2c0-0.4,0.7-0.5,1.4-0.5c0.6,0,1.1,0.3,1.1,0.7c0,0.4-0.5,0.5-1.1,0.5C8.5,16.9,7.9,16.6,7.9,16.2"/>
	<path class="st14" d="M16.4,13.4L16,13.5l0,0c0,0,0,0.3-0.1,0.5c-0.1,0.3-0.5,0.3-0.9,0.3c-0.1,0-0.2,0-0.4-0.1
		c0,0-0.1-0.1-0.1-0.3l0,0v-0.4c0,0,0,0,0-0.1c0,0,0,0,0-0.1c0,0,0,0-0.1,0c0,0,0,0-0.1,0l0,0c0,0,0,0-0.1,0c0,0,0,0-0.1,0
		c0,0,0,0,0,0.1c0,0,0,0,0,0.1v0.4l0,0c0,0.1-0.1,0.3-0.1,0.3c-0.1,0-0.2,0.1-0.4,0.1c-0.5,0-0.7-0.1-0.9-0.3
		c-0.1-0.3-0.1-0.5-0.1-0.5l0,0l-0.4-0.1c0,0-0.1,0.5,0.2,0.9c0.2,0.3,0.6,0.5,1.2,0.5c0.2,0,0.5-0.1,0.7-0.3
		c0.1,0.1,0.4,0.3,0.7,0.3c0.6,0,1-0.1,1.2-0.5C16.4,13.9,16.4,13.5,16.4,13.4z"/>
	<path class="st10" d="M16.4,13.1L16,13.2l0,0c0,0,0,0.3-0.1,0.5C15.7,14,15.4,14,15,14c-0.1,0-0.2,0-0.4-0.1c0,0-0.1-0.1-0.1-0.3
		l0,0v-0.4c0,0,0,0,0-0.1c0,0,0,0,0-0.1c0,0,0,0-0.1,0c0,0,0,0-0.1,0l0,0c0,0,0,0-0.1,0c0,0,0,0-0.1,0c0,0,0,0,0,0.1c0,0,0,0,0,0.1
		v0.4l0,0c0,0.1-0.1,0.3-0.1,0.3c-0.1,0-0.2,0.1-0.4,0.1c-0.5,0-0.7-0.1-0.9-0.3c-0.1-0.3-0.1-0.5-0.1-0.5l0,0l-0.4-0.1
		c0,0-0.1,0.5,0.2,0.9c0.2,0.3,0.6,0.5,1.2,0.5c0.2,0,0.5-0.1,0.7-0.3c0.1,0.1,0.4,0.3,0.7,0.3c0.6,0,1-0.1,1.2-0.5
		C16.4,13.5,16.4,13.1,16.4,13.1z"/>
</g>
</svg>
