<svg width="22" height="22" viewBox="0 0 22 22" fill="none" xmlns="http://www.w3.org/2000/svg">
<path d="M6.33907 2.93746L6.54916 2.94426C6.68658 2.9536 6.8184 2.97226 6.9445 3.0002L7.12955 3.04925C7.39002 3.12976 7.62339 3.25359 7.82834 3.42023C7.9077 3.48478 7.98237 3.55532 8.05276 3.63218C8.0958 3.67916 8.13643 3.72767 8.17477 3.77746C8.18486 3.79045 8.19486 3.80371 8.20469 3.81706C8.23023 3.85186 8.25482 3.88728 8.27838 3.92319C8.29561 3.94926 8.31193 3.97518 8.32773 4.00132C8.34087 4.02328 8.35392 4.04563 8.36661 4.06812C8.38411 4.09886 8.4008 4.12988 8.41685 4.16112C8.4263 4.17984 8.43565 4.19856 8.44477 4.21734C8.4613 4.25101 8.47705 4.28517 8.49211 4.31949C8.50297 4.34466 8.51336 4.36927 8.52341 4.39393C8.56133 4.48669 8.59432 4.58041 8.62299 4.67385C8.85923 4.51381 9.11744 4.36065 9.39499 4.21416C9.96226 3.91495 10.6192 3.76329 11.3491 3.76329C12.4148 3.76329 13.5873 4.09742 14.5661 4.68043C15.5054 5.23939 16.1189 5.93937 16.279 6.62479C16.4701 6.80238 16.881 7.19557 17.2967 7.66808C18.1063 8.5883 18.4997 9.31031 18.5 9.87483C18.5 10.6277 17.688 11.6307 17.0772 12.3195C16.5876 12.8715 16.104 13.3448 15.8732 13.5652L15.8749 14.8779L15.9689 14.9359C16.0789 15.0045 16.1843 15.0718 16.2857 15.1384C16.9538 15.576 17.4453 15.9787 17.7794 16.3606C18.2254 16.87 18.3894 17.354 18.2669 17.7998C18.1381 18.2674 17.7191 18.6156 17.0218 18.834C16.5586 18.9792 15.9728 19.0627 15.4151 19.0627C14.8023 19.0627 14.2354 18.7871 13.5784 18.4684C12.5004 17.9456 11.0239 17.2287 8.36556 17.2287C7.84725 17.2287 7.29676 17.2565 6.72881 17.3109C6.55832 17.3273 6.39434 17.2424 6.30841 17.0945C6.22248 16.9463 6.23173 16.7618 6.33032 16.6221C6.3423 16.605 7.56448 14.8669 8.01569 13.2572C8.11634 12.8984 7.78495 12.1641 7.46383 11.4537C7.00953 10.4479 6.44432 9.19631 6.51793 7.92313C6.55901 7.20934 6.79865 6.54827 7.23 5.95909C7.31485 5.84292 7.40775 5.72879 7.5086 5.6168C7.36645 5.53598 7.21833 5.48437 7.07584 5.48437C6.50468 5.48437 6.41221 5.81499 6.31037 6.69027C6.26294 7.09562 6.20933 7.55499 6.0224 7.94838C5.79581 8.42528 5.41975 8.72362 4.8725 8.86033C4.66903 8.91135 4.46655 8.93726 4.27065 8.93726C3.45695 8.93726 2.71898 8.49244 2.13706 7.65124C1.77355 7.12597 1.5796 6.60539 1.52671 6.45131L1.52099 6.4351C1.51561 6.41913 1.51255 6.40921 1.51189 6.40628C1.47263 6.28173 1.53341 6.148 1.65318 6.09619C1.77256 6.04437 1.91206 6.09121 1.97623 6.2046C1.97842 6.20839 2.20103 6.5986 2.55218 6.98044C2.8257 7.27835 3.23078 7.62776 3.66893 7.69467L3.81607 7.70605L3.94547 7.69711C4.03143 7.68494 4.1166 7.66068 4.1999 7.62454L4.21979 7.6152C4.34875 7.54967 4.4249 7.41685 4.46697 7.23864L4.468 7.22926L4.48868 7.12367C4.49459 7.08357 4.49923 7.04176 4.50277 6.99843L4.51019 6.86405L4.51148 6.827C4.51706 6.56437 4.49417 6.26148 4.47073 5.9517C4.43803 5.51753 4.40317 5.05495 4.4424 4.62452C4.44436 4.60685 4.44607 4.58951 4.4479 4.57223C4.45853 4.46875 4.47407 4.36707 4.49523 4.26828L4.50963 4.2066C4.51861 4.16797 4.52885 4.12986 4.54008 4.09229L4.55463 4.0467C4.58668 3.94676 4.62636 3.85096 4.67466 3.76023C4.6805 3.74996 4.68606 3.73979 4.69173 3.72968C4.74692 3.63068 4.81323 3.53797 4.89203 3.45302C5.17422 3.14886 5.5901 2.97791 6.13043 2.94368L6.33887 2.93726L6.33907 2.93746ZM17.4774 10.3124H16.5206L14.8222 12.4106L15.3946 12.8111C15.6414 12.5705 16.0361 12.1747 16.4264 11.7341C17.0262 11.0573 17.3268 10.6047 17.4774 10.3124ZM15.3953 10.3124H14.7808L13.7623 11.668L14.1039 11.9073L15.3953 10.3124ZM11.0626 9.00014C10.5795 9.00014 10.1872 9.39213 10.1872 9.87518C10.1872 10.3582 10.5795 10.7499 11.0626 10.7499C11.3877 10.7499 11.6714 10.5724 11.8222 10.3091L13.0447 11.1665L13.6863 10.3127H11.9372C11.8996 10.3127 11.8634 10.3078 11.8287 10.2986C11.898 10.1717 11.9372 10.028 11.9372 9.87518C11.9372 9.39179 11.5456 8.9998 11.0626 9.00014ZM15.8061 7.38188L15.2183 7.69786L16.5301 9.43732H17.4921C17.3336 9.1162 17.0409 8.70333 16.6448 8.25246C16.3299 7.89334 16.0112 7.57736 15.8061 7.38188ZM13.1252 8.82384L11.9852 9.43732H13.6329L13.1252 8.82384ZM14.4391 8.11758L13.9109 8.40138L14.7678 9.43732H15.4343L14.4391 8.11758Z" fill="#431216"/>
</svg>
