<svg width="22" height="22" viewBox="0 0 22 22" fill="none" xmlns="http://www.w3.org/2000/svg">
<path d="M19.1601 8.64064L13.8546 3.3312C13.4133 2.8896 12.6847 2.8896 12.2332 3.3312C11.792 3.7728 11.792 4.50195 12.2332 4.95381L13.3415 6.06294L10.5708 8.84603L9.51379 7.78825C8.76467 7.03856 7.54349 7.03856 6.79437 7.78825L4.63935 9.94489C2.45355 12.1323 2.45355 15.6754 4.63935 17.8628C6.82515 20.0503 10.3655 20.0503 12.5513 17.8628L14.7064 15.7062C15.4555 14.9565 15.4555 13.7344 14.7064 12.9847L13.6596 11.9372L16.4406 9.15412L17.5489 10.2633C17.9902 10.7048 18.7188 10.7048 19.1703 10.2633C19.6116 9.81138 19.6116 9.08224 19.1601 8.64064ZM10.8684 12.5637L6.87647 16.5586C6.74306 16.6921 6.57887 16.7537 6.40441 16.7537C6.22996 16.7537 6.06577 16.6921 5.93236 16.5586C5.67581 16.3018 5.67581 15.8808 5.93236 15.6138L9.92427 11.6189C10.1808 11.3621 10.6016 11.3621 10.8684 11.6189C11.1352 11.8859 11.1352 12.3069 10.8684 12.5637Z" fill="#47131A"/>
</svg>
