<svg width="36" height="36" viewBox="0 0 36 36" fill="none" xmlns="http://www.w3.org/2000/svg">
<path d="M18 0C27.9411 0 36 8.05887 36 18C36 27.9411 27.9411 36 18 36C8.05887 36 0 27.9411 0 18C0 8.05887 8.05887 0 18 0ZM23.3998 9C20.7417 9 18.6041 11.039 18.6041 13.5407C18.6041 13.8928 18.6495 14.2447 18.7225 14.5824C14.7431 14.3868 11.1946 12.5864 8.8339 9.82915C8.41824 10.5032 8.18004 11.2775 8.18004 12.1223C8.18004 13.6972 9.02657 15.0882 10.3177 15.9043C9.53183 15.8756 8.78846 15.6645 8.14978 15.3281V15.3841C8.14978 17.59 9.79737 19.4191 11.9956 19.8414C11.595 19.9392 11.1642 19.9952 10.7334 19.9952C10.4223 19.9952 10.1249 19.9678 9.82904 19.9248C10.4375 21.7253 12.2048 23.0329 14.3122 23.0759C12.6632 24.2987 10.5998 25.0157 8.35763 25.0157C7.95708 25.0157 7.5854 25.0028 7.2 24.961C9.32391 26.2542 11.847 27 14.5655 27C23.3846 27 28.2105 20.0814 28.2105 14.0778C28.2105 13.8797 28.2105 13.6842 28.1967 13.486C29.1299 12.8394 29.9463 12.0363 30.6 11.1368C29.7384 11.4888 28.8037 11.7416 27.8374 11.8394C28.8327 11.2775 29.5896 10.3924 29.9463 9.33768C29.0254 9.85782 27.9861 10.2372 26.9028 10.4341C26.0274 9.54752 24.7803 9 23.3998 9Z" fill="#47131A"/>
</svg>
