<svg width="29" height="29" viewBox="0 0 29 29" fill="none" xmlns="http://www.w3.org/2000/svg">
<rect y="5" width="24" height="24" rx="12" fill="#FFE000"/>
<path d="M20.2267 14.2636C19.2009 10.3822 15.5257 10.0772 15.5257 10.0772C15.5257 10.0772 15.4324 9.36283 15.0152 8.63123C14.3703 8.62822 13.5943 9.8398 13.5943 9.8398H10.4049C10.4049 9.8398 9.62877 8.62822 8.98394 8.63123C8.56681 9.36277 8.4735 10.0772 8.4735 10.0772C8.4735 10.0772 4.93275 10.3826 3.77256 14.2636C3.44633 15.3549 3.15039 18.8786 3.15039 20.5708C3.15039 23.4553 4.79129 25.2273 7.71933 25.3451L9.22694 25.3687C9.68817 25.3687 14.2806 25.3687 14.754 25.3687L16.2503 25.3441L16.2798 25.3449C19.2079 25.2271 20.8488 23.4551 20.8488 20.5706C20.8488 18.8785 20.5178 15.3647 20.2267 14.2636Z" fill="url(#paint0_radial_2521_3060)"/>
<path d="M14.754 25.5713C14.2338 25.5713 9.66274 25.5713 9.227 25.5713H9.22405L7.71614 25.5474H7.71122C6.9651 25.5174 6.28667 25.3814 5.69466 25.1429C5.1059 24.9058 4.59976 24.5667 4.19012 24.1347C3.78257 23.7051 3.47011 23.1833 3.26151 22.5836C3.05352 21.9859 2.94824 21.3087 2.94824 20.5707C2.94824 18.929 3.23694 15.3496 3.57889 14.2053C3.85174 13.2926 4.27722 12.4964 4.8435 11.8396C5.29749 11.3128 5.84189 10.8744 6.46148 10.5368C7.27228 10.0948 7.99267 9.9433 8.29986 9.89529C8.35158 9.63618 8.48911 9.08998 8.80839 8.53057C8.82599 8.49969 8.85141 8.474 8.88209 8.45607C8.91276 8.43814 8.94762 8.42862 8.98314 8.42847H8.98646C9.31281 8.42847 9.68277 8.65365 10.086 9.09792C10.2394 9.26838 10.3819 9.44846 10.5125 9.63704H13.4869C13.6175 9.44846 13.76 9.26839 13.9135 9.09792C14.3168 8.65371 14.6867 8.42847 15.013 8.42847H15.0163C15.0518 8.42862 15.0867 8.43814 15.1174 8.45607C15.1481 8.474 15.1735 8.49969 15.1911 8.53057C15.51 9.08998 15.6476 9.6352 15.6994 9.89461C16.0139 9.9417 16.7594 10.0924 17.5871 10.5363C18.2173 10.8744 18.7645 11.3132 19.2134 11.8407C19.7738 12.4992 20.1805 13.297 20.4224 14.2118C20.5613 14.7372 20.7166 15.8176 20.8484 17.1759C20.9754 18.4847 21.0511 19.7538 21.0511 20.5708C21.0511 21.3088 20.9457 21.9861 20.7378 22.5837C20.529 23.1834 20.2168 23.7052 19.8092 24.1349C19.3996 24.5667 18.8934 24.9058 18.3047 25.143C17.7127 25.3814 17.0342 25.5175 16.2881 25.5475C16.2786 25.5479 16.2691 25.5476 16.2597 25.5467H16.2535L14.7572 25.5713H14.754ZM11.461 25.1663H14.7523L16.2468 25.1417C16.2547 25.1415 16.2626 25.1419 16.2704 25.1427H16.2715C16.9712 25.1145 17.6044 24.9882 18.1533 24.7671C18.6877 24.5519 19.1461 24.2453 19.5154 23.8559C19.8832 23.4682 20.1658 22.9953 20.3554 22.4504C20.5485 21.8956 20.6463 21.2632 20.6463 20.5706C20.6463 19.7659 20.5712 18.5113 20.4453 17.2149C20.3174 15.897 20.1628 14.813 20.0309 14.3152C19.8057 13.463 19.4289 12.7214 18.9117 12.1109C18.4979 11.6226 17.9926 11.2154 17.41 10.9007C16.9902 10.6751 16.5441 10.502 16.082 10.3853C15.7359 10.2986 15.5108 10.2786 15.5085 10.2785C15.4625 10.2745 15.4192 10.255 15.3858 10.2231C15.3524 10.1911 15.3309 10.1488 15.3249 10.1029C15.3241 10.0968 15.2406 9.49245 14.9039 8.84889C14.7152 8.90126 14.476 9.08015 14.216 9.36582C14.0513 9.54857 13.9003 9.74328 13.7643 9.94834C13.746 9.97687 13.7208 10.0003 13.6911 10.0166C13.6613 10.0329 13.628 10.0414 13.5941 10.0415H10.4049C10.371 10.0414 10.3376 10.0329 10.3078 10.0166C10.2781 10.0003 10.2529 9.97684 10.2345 9.94828C10.0986 9.74342 9.94767 9.54892 9.78301 9.36637C9.52306 9.08076 9.28382 8.90181 9.09506 8.84944C8.75833 9.4927 8.67491 10.0974 8.67405 10.1035C8.66795 10.1492 8.64648 10.1914 8.61319 10.2233C8.5799 10.2551 8.53676 10.2747 8.49089 10.2787C8.48898 10.2787 8.27234 10.2988 7.93659 10.3855C7.48481 10.5035 7.04924 10.6766 6.63967 10.9009C6.06597 11.2159 5.56223 11.6236 5.14245 12.1127C4.61721 12.7246 4.22157 13.4678 3.96611 14.3216C3.82194 14.8039 3.66673 15.8569 3.54031 17.2108C3.42441 18.4517 3.35242 19.7393 3.35242 20.5711C3.35242 21.2636 3.45026 21.8961 3.64332 22.4508C3.83294 22.9958 4.11555 23.4687 4.4833 23.8563C4.85265 24.2457 5.31094 24.5523 5.84545 24.7675C6.39373 24.9883 7.02597 25.1146 7.72474 25.143L9.22823 25.1666L11.461 25.1663Z" fill="#000100"/>
<path d="M15.9467 23.8664C16.0077 24.6018 15.9971 25.1918 15.9971 25.1918H7.98489C7.57647 24.5419 7.93192 24.447 7.98489 23.8664C7.98513 19.7424 15.7846 19.6232 15.9467 23.8664Z" fill="#FE7825"/>
<path d="M15.9467 23.8664C16.0077 24.6018 15.9971 25.1918 15.9971 25.1918H7.98489C7.57647 24.5419 7.93192 24.447 7.98489 23.8664C7.98513 19.7424 15.7846 19.6232 15.9467 23.8664Z" fill="url(#paint1_linear_2521_3060)"/>
<path d="M20.0486 14.2854C20.0486 14.2854 19.5081 14.3991 18.6091 15.4825C17.7822 16.4791 17.997 18.2538 20.4791 18.0716C20.4791 16.4499 20.0486 14.2854 20.0486 14.2854Z" fill="#FE7825"/>
<path d="M20.0486 14.2854C20.0486 14.2854 19.5081 14.3991 18.6091 15.4825C17.7822 16.4791 17.997 18.2538 20.4791 18.0716C20.4791 16.4499 20.0486 14.2854 20.0486 14.2854Z" fill="url(#paint2_linear_2521_3060)"/>
<path d="M3.35449 19.6254C3.35449 19.6254 4.65055 19.7534 4.66326 18.4646C4.67211 17.5634 3.51463 17.4846 3.51463 17.4846L3.35449 19.6254Z" fill="#FE7825"/>
<path d="M3.35449 19.6254C3.35449 19.6254 4.65055 19.7534 4.66326 18.4646C4.67211 17.5634 3.51463 17.4846 3.51463 17.4846L3.35449 19.6254Z" fill="url(#paint3_linear_2521_3060)"/>
<path d="M17.3826 25.0461C20.0258 24.4252 20.8089 22.307 20.6238 19.7555C20.5698 21.8879 18.2876 23.7021 17.2761 23.8257C15.4563 20.7413 12.5547 20.7413 12.5547 20.7413C14.8741 21.0524 15.8239 22.5087 15.9168 23.758C15.9168 23.758 16.002 24.6377 15.9901 25.164C16.7513 25.164 17.3826 25.0461 17.3826 25.0461Z" fill="#F6A505"/>
<path d="M6.60874 25.0485C3.96552 24.4276 3.18248 22.3093 3.36762 19.7578C3.42155 21.8902 5.70371 23.7044 6.71525 23.8281C8.53514 20.7437 11.4367 20.7437 11.4367 20.7437C9.11732 21.0547 8.16758 22.5111 8.07464 23.7604C8.07464 23.7604 7.98938 24.6401 8.00136 25.1664C7.24 25.1663 6.60874 25.0485 6.60874 25.0485Z" fill="#F6A505"/>
<path d="M10.2503 9.97303C10.2503 9.97303 11.2935 12.7205 9.04797 13.0524C6.58226 13.4168 5.91699 11.3764 5.91699 11.3764C6.19285 11.1349 7.2618 10.4102 8.61811 10.2261C8.84799 9.20231 9.08937 8.8457 9.08937 8.8457C9.08937 8.8457 9.50316 8.88021 10.2503 9.97303Z" fill="#FE7825"/>
<path d="M10.2503 9.97303C10.2503 9.97303 11.2935 12.7205 9.04797 13.0524C6.58226 13.4168 5.91699 11.3764 5.91699 11.3764C6.19285 11.1349 7.2618 10.4102 8.61811 10.2261C8.84799 9.20231 9.08937 8.8457 9.08937 8.8457C9.08937 8.8457 9.50316 8.88021 10.2503 9.97303Z" fill="url(#paint4_linear_2521_3060)"/>
<g opacity="0.8" filter="url(#filter0_f_2521_3060)">
<path fill-rule="evenodd" clip-rule="evenodd" d="M12.2783 11.0861C12.3264 11.047 12.3618 10.9946 12.3801 10.9354C12.4046 10.8559 12.3965 10.7698 12.3577 10.6963C12.3188 10.6227 12.2523 10.5676 12.1729 10.543C12.1137 10.5248 12.0504 10.5246 11.9911 10.5423C11.9317 10.5601 11.879 10.5951 11.8395 10.6428C11.8 10.6906 11.7756 10.7489 11.7692 10.8106C11.7629 10.8723 11.775 10.9344 11.8039 10.9892C11.8328 11.044 11.8774 11.089 11.9318 11.1185C11.9863 11.1479 12.0483 11.1606 12.11 11.1549C12.1716 11.1491 12.2302 11.1252 12.2783 11.0861ZM13.5036 11.246C15.6253 11.5833 17.4062 12.6297 18.1094 13.1645C18.8124 13.6991 19.3732 12.8749 17.5143 11.7624C16.2639 11.0694 14.8365 10.6826 13.6213 10.6375C13.0341 10.6158 12.5335 11.0918 13.5036 11.246Z" fill="white"/>
</g>
<path d="M19.7907 17.6264C19.7767 17.6264 19.7627 17.6241 19.7494 17.6196L18.7729 17.2914C18.7408 17.28 18.7145 17.2564 18.6996 17.2257C18.6847 17.195 18.6824 17.1597 18.6933 17.1274C18.7041 17.095 18.7272 17.0682 18.7576 17.0527C18.788 17.0373 18.8232 17.0343 18.8557 17.0446L19.8321 17.3728C19.8614 17.3826 19.8862 17.4025 19.9021 17.429C19.918 17.4554 19.9241 17.4867 19.9191 17.5172C19.9141 17.5476 19.8985 17.5754 19.875 17.5954C19.8515 17.6154 19.8216 17.6264 19.7907 17.6264V17.6264Z" fill="#47131A"/>
<path d="M19.879 16.6533H18.824C18.7901 16.6524 18.7579 16.6383 18.7342 16.614C18.7105 16.5897 18.6973 16.5571 18.6973 16.5231C18.6973 16.4892 18.7105 16.4565 18.7342 16.4322C18.7579 16.4079 18.7901 16.3938 18.824 16.3929H19.879C19.9129 16.3938 19.9452 16.4079 19.9689 16.4322C19.9925 16.4565 20.0058 16.4892 20.0058 16.5231C20.0058 16.5571 19.9925 16.5897 19.9689 16.614C19.9452 16.6383 19.9129 16.6524 19.879 16.6533V16.6533Z" fill="#47131A"/>
<path d="M4.63003 17.6264C4.59917 17.6263 4.56933 17.6153 4.54582 17.5953C4.52231 17.5753 4.50668 17.5476 4.5017 17.5171C4.49673 17.4867 4.50274 17.4554 4.51866 17.4289C4.53459 17.4025 4.55939 17.3826 4.58864 17.3727L5.56506 17.0446C5.58135 17.0387 5.59863 17.0362 5.6159 17.0372C5.63316 17.0381 5.65006 17.0425 5.66562 17.0501C5.68117 17.0576 5.69506 17.0682 5.70648 17.0812C5.71789 17.0942 5.72661 17.1094 5.73211 17.1258C5.73761 17.1422 5.73979 17.1595 5.73852 17.1768C5.73725 17.194 5.73255 17.2109 5.72471 17.2263C5.71686 17.2417 5.70603 17.2554 5.69283 17.2666C5.67963 17.2778 5.66434 17.2862 5.64785 17.2914L4.67143 17.6196C4.65809 17.6241 4.64411 17.6264 4.63003 17.6264V17.6264Z" fill="#47131A"/>
<path d="M5.59665 16.6532H4.54165C4.52429 16.6537 4.50701 16.6506 4.49084 16.6443C4.47467 16.6379 4.45994 16.6284 4.4475 16.6163C4.43506 16.6042 4.42518 16.5897 4.41843 16.5736C4.41168 16.5576 4.4082 16.5404 4.4082 16.523C4.4082 16.5057 4.41168 16.4885 4.41843 16.4724C4.42518 16.4564 4.43506 16.4419 4.4475 16.4298C4.45994 16.4177 4.47467 16.4081 4.49084 16.4018C4.50701 16.3955 4.52429 16.3924 4.54165 16.3929H5.59665C5.63057 16.3937 5.6628 16.4078 5.68648 16.4322C5.71016 16.4565 5.72341 16.4891 5.72341 16.523C5.72341 16.557 5.71016 16.5896 5.68648 16.6139C5.6628 16.6382 5.63057 16.6523 5.59665 16.6532V16.6532Z" fill="#47131A"/>
<path opacity="0.5" fill-rule="evenodd" clip-rule="evenodd" d="M16.5795 13.4268C15.7369 13.4327 15.1683 14.4558 15.1968 15.9046C15.2252 17.3539 15.8123 18.3551 16.6246 18.3495C17.4371 18.3439 18.0058 17.3349 18.0076 15.8852C18.0095 14.4366 17.4223 13.4212 16.5795 13.4268" fill="white"/>
<path fill-rule="evenodd" clip-rule="evenodd" d="M16.562 13.3324C15.7195 13.3383 15.1489 14.2591 15.1747 15.5614C15.2003 16.8644 15.7872 17.7632 16.6025 17.7577C17.4179 17.7522 17.9885 16.8454 17.9902 15.5422C17.9919 14.2398 17.4047 13.3267 16.562 13.3324" fill="#47131A"/>
<path fill-rule="evenodd" clip-rule="evenodd" d="M16.7518 14.6338C16.7536 14.9267 16.5192 15.1647 16.2285 15.1663C15.9377 15.168 15.6987 14.9329 15.6946 14.6402C15.6903 14.3472 15.9248 14.1071 16.2178 14.1056C16.5108 14.1036 16.7501 14.3409 16.7518 14.6338" fill="white"/>
<path fill-rule="evenodd" clip-rule="evenodd" d="M15.9204 19.1746C15.9189 18.8527 16.3696 18.7183 16.9264 18.71C17.4832 18.7021 18.0608 18.826 18.0674 19.1476C18.074 19.4693 17.4986 19.6086 16.938 19.6166C16.3775 19.625 15.922 19.4965 15.9204 19.1746" fill="#FFB43C"/>
<path opacity="0.5" fill-rule="evenodd" clip-rule="evenodd" d="M7.63634 13.6688C6.79371 13.684 6.23171 14.7136 6.26936 16.1622C6.30727 17.6111 6.90082 18.6057 7.71317 18.591C8.52527 18.5764 9.08753 17.5606 9.08015 16.1113C9.07277 14.6622 8.47896 13.6535 7.63634 13.6688" fill="white"/>
<path fill-rule="evenodd" clip-rule="evenodd" d="M7.63626 13.6688C6.79389 13.6841 6.22909 14.6115 6.26318 15.9136C6.29727 17.216 6.89006 18.1085 7.70521 18.0938C8.52036 18.079 9.08491 17.1656 9.07829 15.8624C9.07168 14.56 8.47863 13.6535 7.63626 13.6688" fill="#47131A"/>
<path fill-rule="evenodd" clip-rule="evenodd" d="M8.3238 14.7128C8.32685 15.0057 8.09381 15.2469 7.80301 15.2523C7.51221 15.2579 7.27204 15.0258 7.2667 14.7332C7.2611 14.4402 7.4944 14.1972 7.78749 14.1916C8.08058 14.186 8.32075 14.4199 8.3238 14.7128" fill="white"/>
<path fill-rule="evenodd" clip-rule="evenodd" d="M6.64405 19.3352C6.66379 18.9997 7.24637 18.8946 7.80287 18.9257C8.35963 18.9569 8.80504 19.1158 8.79011 19.4515C8.77568 19.7873 8.31509 19.9023 7.75453 19.8709C7.19398 19.8392 6.62431 19.6707 6.64405 19.3352" fill="#FFB43C"/>
<path opacity="0.5" d="M14.043 16.9314L13.7009 17.0032V17.0019C13.7009 17.0045 13.7479 17.2569 13.5876 17.4517C13.4426 17.6279 13.1702 17.7176 12.7782 17.7176C12.6552 17.7176 12.5475 17.6917 12.4745 17.6444C12.4233 17.6112 12.3569 17.5503 12.3459 17.4017C12.3466 17.3873 12.3471 17.3729 12.3471 17.3582V17.0044C12.3471 16.9814 12.3425 16.9586 12.3337 16.9374C12.325 16.9161 12.3121 16.8968 12.2959 16.8806C12.2796 16.8643 12.2604 16.8514 12.2391 16.8426C12.2179 16.8338 12.1952 16.8293 12.1723 16.8293H12.1695C12.1466 16.8293 12.1238 16.8338 12.1026 16.8426C12.0814 16.8514 12.0621 16.8643 12.0459 16.8806C12.0297 16.8968 12.0168 16.9161 12.008 16.9374C11.9992 16.9586 11.9947 16.9814 11.9947 17.0044V17.3582C11.9947 17.3729 11.9947 17.3873 11.9958 17.4017C11.9848 17.5501 11.9183 17.611 11.8672 17.6444C11.7944 17.6917 11.6866 17.7176 11.5635 17.7176C11.1712 17.7176 10.8991 17.6283 10.7541 17.4517C10.5938 17.2569 10.6404 17.0045 10.6408 17.0019V17.0032L10.2989 16.9314C10.2953 16.9481 10.2165 17.3435 10.4808 17.6695C10.6948 17.9335 11.0592 18.0674 11.5638 18.0674C11.8268 18.0674 12.0356 17.9864 12.1712 17.8426C12.3069 17.9867 12.5155 18.0674 12.7785 18.0674C13.2833 18.0674 13.6476 17.9335 13.8617 17.6695C14.1249 17.3435 14.0465 16.9476 14.043 16.9314Z" fill="#F7F7F7"/>
<path d="M14.043 16.622L13.7009 16.6938V16.6925C13.7009 16.695 13.7479 16.9475 13.5876 17.1423C13.4426 17.3184 13.1702 17.4081 12.7782 17.4081C12.6552 17.4081 12.5475 17.3822 12.4745 17.335C12.4233 17.3018 12.3569 17.2409 12.3459 17.0922C12.3466 17.0779 12.3471 17.0634 12.3471 17.0487V16.6949C12.3471 16.6719 12.3425 16.6491 12.3337 16.6279C12.325 16.6067 12.3121 16.5874 12.2959 16.5711C12.2796 16.5549 12.2604 16.542 12.2391 16.5332C12.2179 16.5244 12.1952 16.5199 12.1723 16.5199H12.1695C12.1466 16.5199 12.1238 16.5244 12.1026 16.5332C12.0814 16.542 12.0621 16.5549 12.0459 16.5711C12.0297 16.5874 12.0168 16.6067 12.008 16.6279C11.9992 16.6491 11.9947 16.6719 11.9947 16.6949V17.0487C11.9947 17.0634 11.9947 17.0779 11.9958 17.0922C11.9848 17.2406 11.9183 17.3015 11.8672 17.335C11.7944 17.3822 11.6866 17.4081 11.5635 17.4081C11.1712 17.4081 10.8991 17.3189 10.7541 17.1423C10.5938 16.9475 10.6404 16.695 10.6408 16.6925V16.6938L10.2989 16.622C10.2953 16.6386 10.2165 17.0341 10.4808 17.36C10.6948 17.6241 11.0592 17.7579 11.5638 17.7579C11.8268 17.7579 12.0356 17.677 12.1712 17.5332C12.3069 17.6772 12.5155 17.7579 12.7785 17.7579C13.2833 17.7579 13.6476 17.6241 13.8617 17.36C14.1249 17.0341 14.0465 16.6381 14.043 16.622Z" fill="#47131A"/>
<defs>
<filter id="filter0_f_2521_3060" x="1.76758" y="0.529175" width="27.0049" height="22.8024" filterUnits="userSpaceOnUse" color-interpolation-filters="sRGB">
<feFlood flood-opacity="0" result="BackgroundImageFix"/>
<feBlend mode="normal" in="SourceGraphic" in2="BackgroundImageFix" result="shape"/>
<feGaussianBlur stdDeviation="5" result="effect1_foregroundBlur_2521_3060"/>
</filter>
<radialGradient id="paint0_radial_2521_3060" cx="0" cy="0" r="1" gradientUnits="userSpaceOnUse" gradientTransform="translate(11.9905 14.677) rotate(89.9511) scale(10.6917 11.3055)">
<stop stop-color="#FFEF9E"/>
<stop offset="0.452438" stop-color="#FFD921"/>
<stop offset="1" stop-color="#FAD001"/>
</radialGradient>
<linearGradient id="paint1_linear_2521_3060" x1="35.631" y1="23.8185" x2="6.66105" y2="14.1138" gradientUnits="userSpaceOnUse">
<stop offset="0.369792" stop-color="#E64500" stop-opacity="0.81"/>
<stop offset="0.572917" stop-color="#FF5C00" stop-opacity="0.79"/>
<stop offset="0.927083" stop-color="#FF9921"/>
</linearGradient>
<linearGradient id="paint2_linear_2521_3060" x1="25.9918" y1="16.9156" x2="17.0538" y2="15.928" gradientUnits="userSpaceOnUse">
<stop offset="0.369792" stop-color="#E64500" stop-opacity="0.81"/>
<stop offset="0.572917" stop-color="#FF5C00" stop-opacity="0.79"/>
<stop offset="0.927083" stop-color="#FF9921"/>
</linearGradient>
<linearGradient id="paint3_linear_2521_3060" x1="7.79442" y1="18.9692" x2="2.71858" y2="18.4047" gradientUnits="userSpaceOnUse">
<stop offset="0.369792" stop-color="#E64500" stop-opacity="0.81"/>
<stop offset="0.572917" stop-color="#FF5C00" stop-opacity="0.79"/>
<stop offset="0.927083" stop-color="#FF9921"/>
</linearGradient>
<linearGradient id="paint4_linear_2521_3060" x1="21.4377" y1="11.7882" x2="4.13992" y2="8.3958" gradientUnits="userSpaceOnUse">
<stop offset="0.369792" stop-color="#E64500" stop-opacity="0.81"/>
<stop offset="0.572917" stop-color="#FF5C00" stop-opacity="0.79"/>
<stop offset="0.927083" stop-color="#FF9921"/>
</linearGradient>
</defs>
</svg>
