<svg width="22" height="22" viewBox="0 0 22 22" fill="none" xmlns="http://www.w3.org/2000/svg">
<path d="M14.4326 4.97156C18.1818 4.97156 21.6327 16.9859 18.3096 16.9859C16.1794 16.9859 14.3048 13.4924 11.1095 13.4924C7.1899 13.4924 6.80646 17.0285 3.90939 17.0285C0.501061 17.0285 3.09991 4.97156 7.65855 4.97156C10.2574 6.07926 11.919 6.20708 14.4326 4.97156ZM7.91417 6.93134C6.67865 6.93134 5.69876 7.91124 5.69876 9.14676C5.69876 10.3823 6.67865 11.3622 7.91417 11.3622C9.10709 11.3622 10.1296 10.3823 10.1296 9.14676C10.1296 7.91124 9.14969 6.93134 7.91417 6.93134ZM14.2056 9.77585C13.8002 9.77585 13.4716 10.1044 13.4716 10.5098C13.4716 10.9151 13.8002 11.2437 14.2056 11.2437C14.6109 11.2437 14.9395 10.9151 14.9395 10.5098C14.9395 10.1044 14.6109 9.77585 14.2056 9.77585ZM7.91417 7.74082C8.63844 7.74082 9.2775 8.33728 9.2775 9.10415C9.2775 9.87103 8.68104 10.4675 7.91417 10.4675C7.1473 10.4675 6.55084 9.87103 6.55084 9.10415C6.55084 8.33728 7.1473 7.74082 7.91417 7.74082ZM12.8424 8.41282C12.4371 8.41282 12.1085 8.74141 12.1085 9.14676C12.1085 9.5521 12.4371 9.8807 12.8424 9.8807C13.2477 9.8807 13.5763 9.5521 13.5763 9.14676C13.5763 8.74141 13.2477 8.41282 12.8424 8.41282ZM15.5688 8.41282C15.1634 8.41282 14.8348 8.74141 14.8348 9.14676C14.8348 9.5521 15.1634 9.8807 15.5688 9.8807C15.9741 9.8807 16.3027 9.5521 16.3027 9.14676C16.3027 8.74141 15.9741 8.41282 15.5688 8.41282ZM14.2056 7.04979C13.8002 7.04979 13.4716 7.37838 13.4716 7.78373C13.4716 8.18907 13.8002 8.51767 14.2056 8.51767C14.6109 8.51767 14.9395 8.18907 14.9395 7.78373C14.9395 7.37838 14.6109 7.04979 14.2056 7.04979Z" fill="#47131A"/>
</svg>
