<svg width="24" height="24" viewBox="0 0 24 24" fill="none" xmlns="http://www.w3.org/2000/svg">
<path fill-rule="evenodd" clip-rule="evenodd" d="M13.1701 8.50002C12.3901 8.36002 11.6001 8.36001 10.8201 8.48001C10.4901 8.54001 10.1701 8.37002 10.0301 8.08002C9.66009 8.15002 9.09008 8.33002 8.49008 8.75002C8.24008 9.27002 7.4101 11.14 7.3501 13.4C7.5601 13.64 8.0901 14.14 9.1001 14.26L9.7301 13.53C9.9201 13.31 10.2101 13.22 10.4901 13.29C11.5401 13.56 12.6201 13.55 13.6301 13.27C13.9401 13.18 14.2701 13.3 14.4501 13.57L14.9201 14.26C15.9001 14.12 16.4301 13.64 16.6501 13.39C16.5901 11.13 15.7401 9.26002 15.4801 8.75002C14.9001 8.34002 14.3501 8.16002 13.9701 8.08002C13.8301 8.38002 13.5001 8.56002 13.1701 8.50002ZM9.3801 11.16C9.3801 10.59 9.84009 10.13 10.4001 10.13C10.9701 10.13 11.4301 10.59 11.4301 11.16C11.4301 11.72 10.9701 12.18 10.4001 12.18C9.84009 12.18 9.3801 11.72 9.3801 11.16ZM12.4601 11.16C12.4601 10.59 12.9201 10.13 13.4901 10.13C14.0601 10.13 14.5201 10.59 14.5201 11.16C14.5201 11.72 14.0601 12.18 13.4901 12.18C12.9201 12.18 12.4601 11.72 12.4601 11.16Z" fill="#47131A"/>
<path fill-rule="evenodd" clip-rule="evenodd" d="M5.75989 2C4.16989 2 2.87988 3.29 2.87988 4.88V17.66C2.87988 19.19 4.05989 20.39 5.56989 20.39H17.5299C17.9799 20.8 18.2699 21.06 18.9999 21.69C19.2399 21.89 19.5299 22 19.8299 22C20.0099 22 20.1999 21.96 20.3699 21.88C20.8299 21.67 21.1199 21.23 21.1199 20.72V4.88C21.1199 3.29 19.8299 2 18.2399 2H5.75989ZM14.5499 15.79C14.2999 15.79 14.0699 15.67 13.9299 15.46L13.4999 14.84C12.5499 15.03 11.5499 15.04 10.5699 14.84L9.98987 15.53C9.83987 15.7 9.60989 15.79 9.38989 15.79C6.93989 15.7 5.98989 14.07 5.94989 14C5.87989 13.89 5.84988 13.76 5.84988 13.63C5.84988 10.48 7.17987 7.99 7.23987 7.89C7.28987 7.8 7.35989 7.70999 7.44989 7.64999C8.97989 6.48999 10.4699 6.52 10.5199 6.52C10.7999 6.53 11.0399 6.68999 11.1699 6.92999C11.7099 6.87999 12.2499 6.88 12.7899 6.94C12.9199 6.69 13.1599 6.53 13.4399 6.52C13.4899 6.52 14.9899 6.48999 16.5199 7.64999C16.5999 7.70999 16.6699 7.79 16.7199 7.88C16.7799 7.99001 18.1499 10.47 18.1499 13.63C18.1499 13.77 18.1199 13.9 18.0499 14.02C18.0099 14.08 17.0099 15.71 14.5699 15.79C14.5699 15.79 14.5599 15.79 14.5499 15.79Z" fill="#47131A"/>
</svg>
