<svg width="14" height="14" viewBox="0 0 14 14" fill="none" xmlns="http://www.w3.org/2000/svg">
<path d="M13.6819 12.8975C13.3594 13.37 12.827 13.685 12.212 13.685H1.79444C1.60694 13.685 1.42695 13.655 1.26195 13.6025C0.864448 13.4825 0.534433 13.235 0.309433 12.8975C0.121933 12.6125 0.00195312 12.2675 0.00195312 11.8925C0.00195312 11.09 0.53444 10.415 1.25444 10.1825C1.36694 10.1525 1.47943 10.13 1.59943 10.115V6.6875C1.59943 3.9125 3.71444 1.6325 6.40694 1.3325V1.085C6.40694 0.762499 6.66944 0.5 6.99194 0.5C7.31444 0.5 7.57693 0.762499 7.57693 1.085V1.3325C8.79193 1.4675 9.92445 1.99999 10.8019 2.88499C11.8219 3.88999 12.3844 5.2475 12.3844 6.6875V10.115C13.2844 10.2125 13.9894 10.97 13.9894 11.8925C13.9894 12.2675 13.8694 12.6125 13.6819 12.8975Z" fill="#F7F7F7"/>
</svg>
