<svg width="174" height="160" viewBox="0 0 174 160" fill="none" xmlns="http://www.w3.org/2000/svg">
<path d="M139.422 147.799C139.422 147.799 176.845 151.092 170.605 132.948C167.635 124.316 154.168 133.155 152.842 134.003C152.842 134.008 115.833 145.557 139.422 147.799Z" fill="#FFD400"/>
<path d="M145.838 149.841C142.084 149.841 139.433 149.613 139.263 149.597C139.258 149.597 139.253 149.597 139.253 149.597C136.411 149.327 134.306 148.918 132.826 148.346C130.944 147.619 129.916 146.543 129.772 145.148C129.534 142.853 131.93 141.082 133.76 139.952C135.589 138.818 138.145 137.572 141.358 136.246C146.177 134.258 150.96 132.709 152.074 132.354C155.944 129.883 163.033 126.103 168.012 127.826C170.053 128.537 171.543 130.101 172.317 132.359C173.017 134.401 173.261 136.32 173.033 138.075C172.816 139.767 172.164 141.32 171.098 142.678C168.076 146.543 161.729 148.876 152.249 149.602C149.947 149.783 147.747 149.841 145.838 149.841ZM139.587 146.002C139.799 146.018 145.578 146.5 152.021 146.002C155.796 145.71 159.051 145.143 161.692 144.321C164.799 143.356 167.005 142.057 168.256 140.456C169.666 138.648 169.878 136.384 168.897 133.537C168.479 132.317 167.821 131.585 166.824 131.241C165.202 130.679 162.673 131.092 159.513 132.444C157.72 133.213 155.828 134.231 153.892 135.477L153.818 135.525C153.68 135.61 153.537 135.679 153.383 135.726C153.335 135.742 148.452 137.269 143.468 139.284C135.997 142.301 134.025 144.067 133.521 144.698C134.035 145 135.531 145.615 139.587 146.002Z" fill="#000100"/>
<path d="M154.231 52.0414C143.875 17.4231 112.269 14.6978 112.269 14.6978C112.269 14.6978 111.436 8.32452 107.714 1.80278C101.956 1.77627 95.0313 12.5822 95.0313 12.5822H66.5584C66.5584 12.5822 59.6284 1.77627 53.8755 1.80278C50.1533 8.32982 49.3209 14.6978 49.3209 14.6978C49.3209 14.6978 16.516 17.4231 7.35905 52.0414C4.76096 61.8611 1.80762 93.2025 1.80762 108.298C1.80762 134.024 16.4577 149.83 42.5923 150.88L56.2138 151.092C60.4396 151.092 101.436 151.092 105.551 151.092L119.008 150.88C145.148 149.83 159.793 134.024 159.793 108.298C159.787 93.2025 157.147 61.7763 154.231 52.0414Z" fill="url(#paint0_radial_1798_39164)"/>
<path d="M105.546 152.9C105.546 152.9 105.541 152.9 105.546 152.9C103.796 152.9 94.2524 152.9 83.9873 152.9C71.8293 152.9 58.6532 152.9 56.2089 152.9C56.1983 152.9 56.1877 152.9 56.1824 152.9L42.561 152.688C42.5451 152.688 42.5292 152.688 42.5185 152.688C35.859 152.418 29.8038 151.209 24.5175 149.083C19.263 146.967 14.7455 143.945 11.087 140.09C7.44963 136.257 4.66066 131.601 2.79958 126.257C0.943799 120.928 0 114.883 0 108.303C0 101.018 0.678689 89.6978 1.81336 78.0223C2.99046 65.9067 4.37434 56.2725 5.61506 51.5854C7.77306 43.4252 11.4051 36.3096 16.4051 30.4348C20.4136 25.7317 25.2969 21.8134 30.9226 18.8017C38.3139 14.8409 44.9682 13.4995 47.7731 13.0806C48.2343 10.7688 49.4645 5.90138 52.3118 0.911983C52.6299 0.349948 53.2237 0.00530223 53.8706 0C53.8812 0 53.8918 0 53.9024 0C56.8186 0 60.1166 2.00955 63.7168 5.97031C65.4348 7.8632 66.8027 9.73489 67.5238 10.7794H94.0721C94.7932 9.74019 96.1612 7.8632 97.8791 5.97031C101.479 2.00955 104.783 0 107.693 0C107.704 0 107.715 0 107.725 0C108.372 0.00530223 108.966 0.349948 109.284 0.911983C112.137 5.90668 113.362 10.7741 113.823 13.0859C116.564 13.5154 122.996 14.8674 130.233 18.807C135.763 21.8187 140.626 25.7264 144.677 30.4295C149.73 36.2884 153.531 43.3881 155.965 51.5323C159.019 61.7391 161.596 93.6638 161.596 108.309C161.596 114.894 160.652 120.933 158.796 126.262C156.935 131.612 154.146 136.267 150.509 140.095C146.85 143.945 142.333 146.972 137.078 149.088C131.792 151.214 125.737 152.428 119.077 152.693C118.081 152.731 117.243 151.956 117.2 150.96C117.158 149.963 117.937 149.125 118.934 149.083C125.18 148.833 130.832 147.704 135.732 145.732C140.504 143.812 144.592 141.076 147.89 137.603C151.172 134.146 153.696 129.926 155.387 125.069C157.11 120.122 157.985 114.48 157.985 108.303C157.985 100.885 157.344 89.4008 156.31 78.3298C155.18 66.2566 153.796 56.8611 152.508 52.561C150.228 44.947 146.697 38.3139 142.009 32.8579C138.261 28.4942 133.765 24.8568 128.643 22.0467C124.061 19.5334 119.82 18.1601 117.068 17.4496C114.072 16.6755 112.137 16.5005 112.116 16.4952C111.272 16.421 110.594 15.7688 110.482 14.9311C110.477 14.878 109.73 9.48568 106.723 3.74867C105.032 4.21527 102.884 5.82715 100.551 8.39342C98.229 10.9491 96.5694 13.526 96.5535 13.5525C96.2195 14.0721 95.6468 14.3849 95.0318 14.3849H66.5588C65.9438 14.3849 65.3711 14.0721 65.0371 13.5525C65.0212 13.526 63.3351 10.912 61.0074 8.35631C58.685 5.81124 56.5535 4.21527 54.8674 3.74337C51.8611 9.48038 51.1188 14.8727 51.1082 14.9258C50.9968 15.7688 50.3128 16.421 49.4698 16.4899C49.4539 16.4899 47.4443 16.6702 44.3531 17.4443C41.5164 18.1548 37.1527 19.5281 32.4973 22.0414C27.2959 24.8462 22.7837 28.4783 19.0933 32.8367C14.4751 38.2821 11.1135 44.8993 9.10392 52.4973C7.92683 56.9353 6.54825 66.6066 5.40297 78.3616C4.2789 89.9257 3.61081 101.113 3.61081 108.293C3.61081 114.47 4.48568 120.111 6.2089 125.058C7.90031 129.92 10.4242 134.136 13.7063 137.593C17.0042 141.066 21.0923 143.802 25.8643 145.721C30.7582 147.688 36.4051 148.818 42.6405 149.072L56.2248 149.284C60.8059 149.284 101.729 149.284 105.551 149.284C106.548 149.284 107.354 150.095 107.354 151.092C107.349 152.094 106.543 152.9 105.546 152.9Z" fill="#000100"/>
<path d="M45.5204 138.075C44.9796 142.37 44.8408 145.35 44.8408 149.509C65.2108 149.509 80.9081 149.509 80.9081 149.509C80.9081 149.509 85.4564 149.509 105.832 149.509C109.452 143.559 111.302 140.98 116.22 139.012C116.225 101.261 49.6767 98.2158 45.5204 138.075Z" fill="#FE7825"/>
<path d="M45.5204 138.075C44.9796 142.37 44.8408 145.35 44.8408 149.509C65.2108 149.509 80.9081 149.509 80.9081 149.509C80.9081 149.509 85.4564 149.509 105.832 149.509C109.452 143.559 111.302 140.98 116.22 139.012C116.225 101.261 49.6767 98.2158 45.5204 138.075Z" fill="url(#paint1_linear_1798_39164)"/>
<path d="M122.477 137.45C113.564 136.66 107.021 147.402 106.295 151.644C105.192 158.065 114.041 160.535 115.764 155.546C120.255 143.658 128.002 149.65 128.002 149.65L122.477 137.45Z" fill="url(#paint2_linear_1798_39164)"/>
<path d="M111.839 160C111.229 160 110.609 159.92 109.994 159.767C108.276 159.327 106.775 158.324 105.757 156.951C104.58 155.361 104.151 153.42 104.506 151.336C104.729 150.037 105.359 148.378 106.277 146.67C107.279 144.804 108.557 142.996 109.972 141.442C111.674 139.571 113.52 138.123 115.46 137.126C117.793 135.928 120.206 135.429 122.629 135.647C123.62 135.737 124.357 136.612 124.267 137.603C124.177 138.595 123.302 139.332 122.311 139.242C120.01 139.035 116.468 139.677 112.645 143.871C110.089 146.675 108.382 150.122 108.069 151.946C107.878 153.049 108.08 154.008 108.663 154.804C109.177 155.504 109.994 156.034 110.89 156.267C113.254 156.872 113.933 155.281 114.05 154.958C114.055 154.942 114.06 154.926 114.066 154.91C115.81 150.297 118.281 147.513 121.409 146.628C125.481 145.477 128.949 148.112 129.098 148.224L126.886 151.082L126.897 151.087C126.876 151.071 124.675 149.443 122.369 150.111C120.444 150.668 118.748 152.762 117.454 156.166C116.908 157.72 115.794 158.913 114.304 159.533C113.551 159.841 112.708 160 111.839 160Z" fill="#000100"/>
<path d="M85.8911 109.676C85.8911 109.676 111.792 109.894 128.038 137.407C137.068 136.304 157.275 120.122 157.757 101.103C159.762 122.1 152.583 142.757 128.988 148.293C123.192 143.823 117.068 147.211 113.818 155.514C112.583 157.455 109.035 155.652 114.433 147.799C116.649 144.576 119.847 141.405 124.47 141.803C125.997 141.108 123.807 136.824 122.18 136.193C120.631 135.599 117.418 136.304 115.907 136.803C115.075 125.657 106.596 112.45 85.8911 109.676Z" fill="#F6A505"/>
<path d="M32.6931 148.293C9.0982 142.757 1.91898 122.1 3.92323 101.103C4.40573 120.122 24.6178 136.304 33.6422 137.407C49.8882 109.894 75.9699 109.73 75.9699 109.73C55.2647 112.503 46.6061 125.657 45.7737 136.803C45.7737 136.803 45.1715 144.758 44.9647 149.509C40.9085 148.332 32.6931 148.293 32.6931 148.293Z" fill="#F6A505"/>
<path d="M34.7083 78.16C34.3636 78.16 34.0402 77.9426 33.9236 77.5927C33.7751 77.1579 34.0137 76.686 34.4485 76.5428L40.6839 74.4485C41.1187 74.3 41.5906 74.5386 41.7337 74.9734C41.8822 75.4082 41.6436 75.8801 41.2088 76.0232L34.9734 78.1176C34.8833 78.1441 34.7984 78.16 34.7083 78.16Z" fill="#000100"/>
<path d="M40.8798 71.9512H34.1459C33.6846 71.9512 33.3135 71.58 33.3135 71.1187C33.3135 70.6574 33.6846 70.2863 34.1459 70.2863H40.8798C41.341 70.2863 41.7122 70.6574 41.7122 71.1187C41.7122 71.58 41.341 71.9512 40.8798 71.9512Z" fill="#000100"/>
<path d="M127.55 78.1601C127.46 78.1601 127.375 78.1442 127.285 78.1176L121.049 76.0233C120.615 75.8748 120.381 75.4082 120.525 74.9734C120.673 74.5386 121.14 74.3053 121.574 74.4485L127.81 76.5429C128.245 76.6913 128.478 77.1579 128.335 77.5927C128.218 77.9427 127.895 78.1601 127.55 78.1601Z" fill="#000100"/>
<path d="M128.113 71.9512H121.379C120.918 71.9512 120.547 71.58 120.547 71.1187C120.547 70.6574 120.918 70.2863 121.379 70.2863H128.113C128.574 70.2863 128.946 70.6574 128.946 71.1187C128.946 71.58 128.574 71.9512 128.113 71.9512Z" fill="#000100"/>
<g opacity="0.8">
<path d="M66.2023 14.7906C66.2023 14.7906 73.9118 37.6538 53.8641 40.6124C31.8545 43.8627 26.1182 26.1181 26.1182 26.1181C26.1182 26.1181 39.3502 16.8757 50.4849 15.9425C53.873 5.26917 54.7593 3.58127 54.7593 3.58127C54.7593 3.58127 57.532 2.88813 66.2023 14.7906Z" fill="#FE7825"/>
<path d="M66.2023 14.7906C66.2023 14.7906 73.9118 37.6538 53.8641 40.6124C31.8545 43.8627 26.1182 26.1181 26.1182 26.1181C26.1182 26.1181 39.3502 16.8757 50.4849 15.9425C53.873 5.26917 54.7593 3.58127 54.7593 3.58127C54.7593 3.58127 57.532 2.88813 66.2023 14.7906Z" fill="url(#paint3_linear_1798_39164)"/>
</g>
<path d="M152.805 54.8979C152.805 54.8979 147.98 55.9107 139.958 65.5766C132.577 74.4632 134.491 90.2956 156.649 88.6731C156.649 74.2087 152.805 54.8979 152.805 54.8979Z" fill="#FE7825"/>
<path d="M152.805 54.8979C152.805 54.8979 147.98 55.9107 139.958 65.5766C132.577 74.4632 134.491 90.2956 156.649 88.6731C156.649 74.2087 152.805 54.8979 152.805 54.8979Z" fill="url(#paint4_linear_1798_39164)"/>
<path d="M3.66113 99.9482C3.66113 99.9482 15.2306 101.088 15.3419 89.593C15.4215 81.5548 5.08743 80.8496 5.08743 80.8496L3.66113 99.9482Z" fill="#FE7825"/>
<path d="M3.66113 99.9482C3.66113 99.9482 15.2306 101.088 15.3419 89.593C15.4215 81.5548 5.08743 80.8496 5.08743 80.8496L3.66113 99.9482Z" fill="url(#paint5_linear_1798_39164)"/>
<g style="mix-blend-mode:overlay">
<path d="M135.001 42.227C128.723 37.4603 112.827 28.123 93.8876 25.1167C85.2291 23.7381 89.6989 19.4963 94.9375 19.6925C105.786 20.0955 118.527 23.5472 129.688 29.7296C146.279 39.6448 141.279 46.9937 135.001 42.227Z" fill="white"/>
</g>
<g style="mix-blend-mode:overlay">
<path d="M83.8561 22.3435C83.4001 23.8229 81.836 24.65 80.3567 24.194C78.8774 23.738 78.0502 22.1739 78.5062 20.6946C78.9622 19.2152 80.5263 18.3881 82.0057 18.8441C83.485 19.3001 84.3121 20.8642 83.8561 22.3435Z" fill="white"/>
</g>
<path d="M61.3735 81.2938C61.3735 78.2874 70.1593 75.8484 80.9971 75.8484C91.8348 75.8484 100.621 78.2874 100.621 81.2938C100.621 81.2938 100.621 95.912 100.621 101.103C100.621 106.294 94.3905 108.409 80.9971 108.409C67.6036 108.409 61.3735 106.288 61.3735 101.103C61.3735 95.912 61.3735 81.2938 61.3735 81.2938Z" fill="white"/>
<path d="M80.9968 109.221C74.0721 109.221 69.1251 108.648 65.8854 107.466C64.1198 106.824 62.8314 106.002 61.9406 104.963C61.0286 103.892 60.562 102.593 60.562 101.103V81.3521C60.562 81.3362 60.562 81.315 60.562 81.2991C60.562 80.2705 61.2036 79.332 62.4708 78.4995C63.5313 77.8049 65.0212 77.1899 66.9035 76.665C70.6786 75.6151 75.684 75.0425 80.9968 75.0425C86.3096 75.0425 91.3149 75.6204 95.0901 76.665C96.9724 77.1899 98.4676 77.8049 99.5228 78.4995C100.79 79.332 101.432 80.2705 101.432 81.2991C101.432 81.315 101.432 81.3256 101.432 81.3415V101.108C101.432 102.598 100.97 103.897 100.053 104.968C99.1622 106.007 97.8738 106.829 96.1081 107.471C92.8685 108.648 87.9268 109.221 80.9968 109.221ZM62.1845 81.2567C62.1845 81.2673 62.1845 81.2832 62.1845 81.2938V101.103C62.1845 103.346 63.5366 104.883 66.4369 105.939C69.4963 107.057 74.2577 107.598 80.9915 107.598C87.7253 107.598 92.4867 107.057 95.5461 105.939C98.4464 104.878 99.7985 103.34 99.7985 101.103V81.2938C99.7985 81.2832 99.7985 81.2779 99.7985 81.2673C99.7667 80.5091 98.404 79.2683 94.6447 78.2291C91.0074 77.2217 86.1558 76.665 80.9862 76.665C75.8165 76.665 70.965 77.2217 67.3276 78.2291C65.6309 78.701 64.2577 79.263 63.351 79.8569C62.6246 80.3394 62.211 80.8325 62.1845 81.2567Z" fill="#000100"/>
<path d="M80.8541 79.2151C69.2051 79.2204 65.0799 81.5799 65.4087 81.8397C68.9028 84.6021 80.3503 84.6128 80.8965 84.6128C81.4426 84.6128 92.8901 84.6021 96.3843 81.8397C96.713 81.5799 92.5083 79.2204 80.8541 79.2151Z" fill="#000100"/>
<path d="M95.1802 92.8103C95.1802 92.8103 89.6235 88.2875 85.2491 90.7053C80.8748 93.1231 79.3531 102.089 90.2173 103.287C93.3668 96.3044 95.1802 92.8103 95.1802 92.8103Z" fill="#FFD400"/>
<path d="M72.8529 93.8919C72.8529 93.8919 78.977 91.5324 77.1795 86.7232C69.1678 85.6946 64.7723 84.3691 64.6238 84.3001C64.4754 84.2312 63.3407 86.4846 64.0035 88.2026C66.591 88.4147 72.0682 92.2058 72.8529 93.8919Z" fill="#FFD400"/>
<path d="M91.4049 101.103C90.302 107.524 99.1514 109.995 100.875 105.005C102.736 100.074 105.159 98.2184 107.354 97.7359L107.423 86.8929C98.5947 86.2513 92.126 96.8929 91.4049 101.103Z" fill="#FFD400"/>
<path d="M96.9512 109.464C96.3414 109.464 95.7211 109.385 95.1113 109.231C93.3934 108.791 91.8928 107.789 90.8748 106.416C89.6977 104.825 89.2682 102.884 89.6235 100.801C89.8462 99.5121 90.4666 97.8631 91.3785 96.1664C92.37 94.3107 93.6373 92.5185 95.0371 90.9703C96.7232 89.1092 98.5471 87.6564 100.461 86.6543C102.768 85.4453 105.159 84.9257 107.556 85.1007C108.552 85.1749 109.295 86.0392 109.226 87.036C109.157 88.0328 108.287 88.7804 107.291 88.7062C105.011 88.5365 101.495 89.2152 97.7147 93.3987C95.8271 95.4825 93.6002 99.0031 93.1866 101.421C92.9957 102.524 93.1972 103.484 93.7804 104.279C94.2948 104.979 95.1113 105.509 96.0074 105.742C98.3722 106.347 99.0509 104.756 99.1622 104.433C99.1675 104.417 99.1728 104.401 99.1781 104.385C100.127 101.866 101.31 99.8727 102.688 98.4623C103.95 97.1686 105.387 96.3361 106.956 95.9915C107.932 95.7794 108.892 96.3944 109.109 97.3647C109.321 98.3404 108.706 99.3 107.736 99.5174C106.861 99.7083 106.034 100.201 105.276 100.981C104.252 102.031 103.34 103.6 102.566 105.636C102.02 107.19 100.907 108.383 99.4167 109.003C98.6638 109.305 97.8207 109.464 96.9512 109.464Z" fill="#000100"/>
<path d="M69.2107 90.5831C65.6211 88.2661 53.41 85.8217 47.9116 92.757L55.9392 100.048C57.7844 98.7592 60.7854 98.2342 65.6741 100.196C70.5044 102.306 74.6826 94.1197 69.2107 90.5831Z" fill="#FFD400"/>
<path d="M67.2534 102.344C66.4899 102.344 65.7158 102.185 64.9787 101.866C62.9533 101.055 61.1823 100.668 59.7189 100.711C58.632 100.742 57.7041 101.018 56.9724 101.532C56.1558 102.105 55.0318 101.904 54.4591 101.087C53.8865 100.27 54.088 99.1464 54.9045 98.5737C56.2248 97.6511 57.8101 97.158 59.6129 97.105C61.5853 97.0467 63.8547 97.5239 66.352 98.5313C66.3679 98.5366 66.3838 98.5472 66.3997 98.5525C66.7126 98.6904 68.3456 99.2683 69.5015 97.1156C69.9416 96.2991 70.0954 95.3394 69.931 94.4857C69.7454 93.5207 69.1728 92.7201 68.229 92.1103C66.6914 91.1188 63.0275 90.0478 59.2576 90.0159C59.1993 90.0159 59.141 90.0159 59.0827 90.0159C53.563 90.0159 50.7317 92.1156 49.3266 93.8919C48.7062 94.6713 47.5715 94.8039 46.7921 94.1835C46.0127 93.5631 45.8801 92.4285 46.5005 91.649C47.9957 89.7667 49.9947 88.3616 52.4496 87.4815C54.4856 86.7498 56.7868 86.3892 59.3001 86.4104C61.3838 86.4263 63.5631 86.7127 65.5991 87.2376C67.4655 87.7201 69.0986 88.3722 70.1961 89.0827C71.9724 90.228 73.1071 91.8611 73.4835 93.8017C73.8069 95.4825 73.5259 97.2641 72.6882 98.8282C71.9618 100.18 70.8642 101.251 69.597 101.84C68.8388 102.169 68.0487 102.344 67.2534 102.344Z" fill="#000100"/>
<path d="M81.092 87.3752C73.8968 87.3752 67.2531 86.267 63.7537 84.4908C63.4886 84.3529 63.3825 84.0295 63.5151 83.7644C63.6529 83.4992 63.9764 83.3932 64.2415 83.5258C67.5978 85.2331 74.0506 86.2935 81.0866 86.2935C84.6975 86.2935 88.2181 86.0125 91.2616 85.4823C94.1991 84.9733 96.5798 84.2575 98.1439 83.4091C98.409 83.2659 98.7378 83.3667 98.8756 83.6265C99.0188 83.8916 98.918 84.2203 98.6582 84.3582C95.2224 86.2193 88.4886 87.3752 81.092 87.3752Z" fill="#000100"/>
<path d="M67.2969 30.7954C65.0593 28.0701 58.3414 29.0404 58.246 33.8124C52.7953 35.0796 50.2608 44.9099 56.3955 46.665C59.5132 52.3118 68.9512 53.2874 72.1643 47.4444C77.9066 48.6109 79.6723 38.6851 76.0615 36.3468C78.1983 31.4794 70.8017 27.2906 67.2969 30.7954Z" fill="white"/>
<path d="M93.9772 69.1092C93.9772 69.1092 92.2168 66.1241 88.8764 67.5132C86.273 68.5949 86.8775 71.1983 86.8775 71.1983C86.8775 71.1983 84.7778 74.3902 87.975 76.0074C91.1723 77.6246 92.5402 75.9915 92.5402 75.9915C92.5402 75.9915 95.2073 76.4528 96.0079 74.0403C96.9411 71.2672 95.9814 69.1622 93.9772 69.1092Z" fill="white"/>
<path d="M38.096 137.45C29.183 136.66 22.64 147.402 21.9136 151.644C20.8108 158.065 29.6602 160.535 31.3834 155.546C35.8744 143.658 43.621 149.65 43.621 149.65L38.096 137.45Z" fill="#FFD400"/>
<path d="M27.4657 160C26.856 160 26.2356 159.92 25.6206 159.767C23.9027 159.327 22.4021 158.324 21.3841 156.951C20.207 155.361 19.7775 153.42 20.1328 151.336C20.3555 150.037 20.9864 148.378 21.9037 146.67C22.9058 144.804 24.1837 142.996 25.5994 141.442C27.3014 139.571 29.1466 138.123 31.0872 137.126C33.4201 135.928 35.8327 135.429 38.2558 135.647C39.2473 135.737 39.9843 136.612 39.8942 137.603C39.804 138.595 38.9292 139.332 37.9376 139.242C35.6365 139.04 32.0946 139.677 28.2717 143.871C25.716 146.675 24.0087 150.122 23.6959 151.946C23.505 153.049 23.7065 154.008 24.2897 154.804C24.804 155.504 25.6206 156.034 26.5166 156.267C28.8814 156.872 29.5601 155.281 29.6768 154.958C29.6821 154.942 29.6874 154.926 29.6927 154.91C31.4371 150.297 33.9079 147.513 37.0363 146.628C41.1084 145.477 45.7485 148.335 45.633 149.259L42.5135 151.082L42.5241 151.087C42.5029 151.071 40.3024 149.443 37.996 150.111C36.0713 150.668 34.3745 152.762 33.0808 156.166C32.5347 157.72 31.4212 158.913 29.9313 159.533C29.1731 159.841 28.33 160 27.4657 160Z" fill="#000100"/>
<path d="M39.0995 139.544C40.1546 141.363 37.7898 141.32 33.7283 144.252C29.916 147.01 27.249 152.911 27.249 156.384C28.8291 156.654 29.5449 155.642 29.9532 154.422C30.3614 153.203 34.5873 143.123 44.248 147.794C46.0984 141.909 37.7898 137.28 39.0995 139.544Z" fill="url(#paint6_linear_1798_39164)"/>
<path d="M51.6168 93.8917C53.0961 92.089 57.9954 90.1802 65.9116 92.2905C66.7758 92.6086 67.0038 94.0561 64.7345 93.7539C61.6115 93.3297 59.8511 93.1176 56.2403 93.51C52.9211 93.8705 50.4344 95.3339 51.6168 93.8917Z" fill="white"/>
<path d="M105.397 90.5512C103.064 90.5937 98.5308 93.2501 95.2805 100.774C94.9942 101.649 95.991 102.73 97.1575 100.758C98.7641 98.0486 99.6867 96.5322 102.232 93.9447C104.57 91.5587 107.264 90.5141 105.397 90.5512Z" fill="white"/>
<g style="mix-blend-mode:overlay">
<path d="M118.796 141.06C116.468 141.241 112.105 144.162 109.305 151.866C109.072 152.752 110.127 153.775 111.177 151.739C112.619 148.939 113.446 147.37 115.838 144.634C118.033 142.121 120.657 140.917 118.796 141.06Z" fill="white"/>
</g>
<g style="mix-blend-mode:overlay">
<path d="M34.2844 141.087C31.9568 141.267 27.593 144.189 24.7935 151.893C24.5602 152.778 25.6153 153.802 26.6651 151.766C28.1074 148.966 28.9345 147.397 31.3258 144.661C33.5209 142.142 36.1455 140.938 34.2844 141.087Z" fill="white"/>
</g>
<path d="M90.0373 60.8961C89.9418 60.4454 89.5018 60.1591 89.0564 60.2545C88.6057 60.35 88.3194 60.7901 88.4148 61.2355C88.4148 61.2461 88.6375 62.4232 87.8846 63.3511C87.2006 64.1941 85.9016 64.6236 84.0246 64.6236C83.4413 64.6236 82.927 64.5016 82.5824 64.2789C82.3385 64.1199 82.0256 63.8336 81.9726 63.1337C81.9779 63.0647 81.9779 62.9958 81.9779 62.9216V61.2408C81.9779 60.7795 81.6068 60.4083 81.1455 60.4083H81.1402H81.1349C80.6736 60.4083 80.3024 60.7795 80.3024 61.2408V62.9216C80.3024 62.9958 80.3024 63.0647 80.3077 63.1337C80.2547 63.8336 79.9366 64.1199 79.698 64.2789C79.3533 64.5016 78.839 64.6236 78.2557 64.6236C76.3947 64.6236 75.1009 64.1994 74.4116 63.367C74.401 63.351 74.2844 63.1973 74.2738 63.1867C74.2579 63.1655 74.2208 63.1071 74.2208 63.1018C73.6905 62.2323 73.8708 61.2461 73.8708 61.2355V61.2408C73.9663 60.7901 73.6746 60.35 73.2292 60.2599C72.7785 60.1644 72.3385 60.456 72.2483 60.9014C72.243 60.9332 72.1741 61.2779 72.1847 61.7763C72.2006 62.4815 72.3756 63.4995 73.1126 64.4062C74.1306 65.6575 75.8591 66.2938 78.2611 66.2938C79.5124 66.2938 80.5039 65.912 81.1455 65.228C81.7923 65.912 82.7838 66.2938 84.0299 66.2938C86.4265 66.2938 88.1603 65.6575 89.1783 64.4062C90.4244 62.8526 90.0532 60.9757 90.0373 60.8961Z" fill="#000100"/>
<path d="M53.5042 60.053C51.3568 60.053 49.6177 61.7921 49.6177 63.9395C49.6177 66.0869 51.3568 67.826 53.5042 67.826C55.6516 67.826 57.3907 66.0869 57.3907 63.9395C57.3907 61.7921 55.6516 60.053 53.5042 60.053Z" fill="#000100"/>
<path d="M108.729 60.053C106.581 60.053 104.842 61.7921 104.842 63.9395C104.842 66.0869 106.581 67.826 108.729 67.826C110.876 67.826 112.615 66.0869 112.615 63.9395C112.615 61.7921 110.876 60.053 108.729 60.053Z" fill="#000100"/>
<defs>
<radialGradient id="paint0_radial_1798_39164" cx="0" cy="0" r="1" gradientUnits="userSpaceOnUse" gradientTransform="translate(80.7187 55.7282) rotate(89.9511) scale(95.3641 100.919)">
<stop stop-color="#FFEF9E"/>
<stop offset="0.452438" stop-color="#FFD921"/>
<stop offset="1" stop-color="#FAD001"/>
</radialGradient>
<linearGradient id="paint1_linear_1798_39164" x1="286.98" y1="137.174" x2="33.4184" y2="54.9227" gradientUnits="userSpaceOnUse">
<stop offset="0.369792" stop-color="#E64500" stop-opacity="0.81"/>
<stop offset="0.572917" stop-color="#FF5C00" stop-opacity="0.79"/>
<stop offset="0.927083" stop-color="#FF9921"/>
</linearGradient>
<linearGradient id="paint2_linear_1798_39164" x1="128.002" y1="137.408" x2="107.235" y2="159.186" gradientUnits="userSpaceOnUse">
<stop offset="0.354167" stop-color="#FFD702"/>
<stop offset="1" stop-color="#FFAA00"/>
</linearGradient>
<linearGradient id="paint3_linear_1798_39164" x1="167.039" y1="29.4912" x2="10.3466" y2="-2.18629" gradientUnits="userSpaceOnUse">
<stop offset="0.369792" stop-color="#E64500" stop-opacity="0.81"/>
<stop offset="0.572917" stop-color="#FF5C00" stop-opacity="0.79"/>
<stop offset="0.927083" stop-color="#FF9921"/>
</linearGradient>
<linearGradient id="paint4_linear_1798_39164" x1="205.855" y1="78.3609" x2="126.076" y2="69.5398" gradientUnits="userSpaceOnUse">
<stop offset="0.369792" stop-color="#E64500" stop-opacity="0.81"/>
<stop offset="0.572917" stop-color="#FF5C00" stop-opacity="0.79"/>
<stop offset="0.927083" stop-color="#FF9921"/>
</linearGradient>
<linearGradient id="paint5_linear_1798_39164" x1="43.2875" y1="94.0933" x2="-2.01391" y2="89.0536" gradientUnits="userSpaceOnUse">
<stop offset="0.369792" stop-color="#E64500" stop-opacity="0.81"/>
<stop offset="0.572917" stop-color="#FF5C00" stop-opacity="0.79"/>
<stop offset="0.927083" stop-color="#FF9921"/>
</linearGradient>
<linearGradient id="paint6_linear_1798_39164" x1="44.5181" y1="138.958" x2="27.0497" y2="156.226" gradientUnits="userSpaceOnUse">
<stop offset="0.354167" stop-color="#FFD702"/>
<stop offset="1" stop-color="#FFAA00"/>
</linearGradient>
</defs>
</svg>
