<svg width="66" height="39" viewBox="0 0 66 39" fill="none" xmlns="http://www.w3.org/2000/svg">
<rect y="2" width="36" height="36" rx="18" fill="#FF6F0E"/>
<path d="M30.3405 15.8955C28.8018 10.0736 23.289 9.61601 23.289 9.61601C23.289 9.61601 23.149 8.54443 22.5233 7.44703C21.5559 7.44251 20.3919 9.25989 20.3919 9.25989H15.6078C15.6078 9.25989 14.4437 7.44251 13.4764 7.44703C12.8507 8.54434 12.7107 9.61601 12.7107 9.61601C12.7107 9.61601 7.39961 10.074 5.65933 15.8955C5.16999 17.5326 4.72607 22.8181 4.72607 25.3563C4.72607 29.6831 7.18742 32.3411 11.5795 32.5179L13.8409 32.5533C14.5327 32.5533 21.4214 32.5533 22.1315 32.5533L24.376 32.5164L24.4202 32.5176C28.8123 32.3408 31.2736 29.6829 31.2736 25.3561C31.2736 22.818 30.7771 17.5472 30.3405 15.8955Z" fill="url(#paint0_radial_1794_74050)"/>
<path d="M22.131 32.8571C21.3507 32.8571 14.4941 32.8571 13.8405 32.8571H13.8361L11.5742 32.8212H11.5668C10.4476 32.7762 9.43 32.5723 8.54198 32.2145C7.65885 31.8588 6.89965 31.3501 6.28518 30.7022C5.67386 30.0578 5.20516 29.275 4.89226 28.3755C4.58029 27.479 4.42236 26.4631 4.42236 25.3562C4.42236 22.8937 4.85541 17.5245 5.36833 15.8081C5.7776 14.439 6.41583 13.2447 7.26524 12.2595C7.94623 11.4693 8.76284 10.8118 9.69222 10.3054C10.9084 9.64237 11.989 9.41507 12.4498 9.34306C12.5274 8.95439 12.7337 8.1351 13.2126 7.29598C13.239 7.24966 13.2771 7.21111 13.3231 7.18423C13.3691 7.15734 13.4214 7.14306 13.4747 7.14282H13.4797C13.9692 7.14282 14.5242 7.48059 15.1289 8.147C15.3591 8.4027 15.5728 8.67281 15.7687 8.95568H20.2304C20.4263 8.67281 20.64 8.4027 20.8703 8.147C21.4751 7.48068 22.0301 7.14282 22.5195 7.14282H22.5245C22.5778 7.14306 22.6301 7.15734 22.6761 7.18423C22.7221 7.21111 22.7602 7.24966 22.7866 7.29598C23.265 8.1351 23.4715 8.95291 23.5491 9.34204C24.0209 9.41268 25.139 9.63868 26.3807 10.3045C27.326 10.8117 28.1468 11.4699 28.8201 12.2612C29.6607 13.2489 30.2708 14.4456 30.6335 15.8178C30.842 16.6059 31.0749 18.2265 31.2726 20.264C31.4631 22.2272 31.5766 24.1309 31.5766 25.3563C31.5766 26.4633 31.4185 27.4792 31.1067 28.3757C30.7935 29.2752 30.3252 30.058 29.7138 30.7024C29.0994 31.3501 28.3402 31.8588 27.457 32.2147C26.569 32.5723 25.5513 32.7764 24.4322 32.8214C24.4179 32.822 24.4037 32.8216 24.3895 32.8202H24.3803L22.1358 32.8571H22.131ZM17.1915 32.2495H22.1284L24.3703 32.2127C24.3821 32.2124 24.3939 32.2129 24.4056 32.2141H24.4073C25.4568 32.1719 26.4067 31.9824 27.2299 31.6507C28.0315 31.328 28.7191 30.868 29.2731 30.284C29.8248 29.7025 30.2487 28.993 30.5331 28.1757C30.8227 27.3436 30.9695 26.3949 30.9695 25.3561C30.9695 24.1489 30.8568 22.267 30.668 20.3225C30.4762 18.3457 30.2442 16.7196 30.0463 15.9729C29.7085 14.6947 29.1434 13.5823 28.3676 12.6665C27.7468 11.934 26.989 11.3232 26.1151 10.8512C25.4852 10.5127 24.8162 10.2531 24.1231 10.0781C23.6038 9.94796 23.2662 9.91808 23.2628 9.91781C23.1938 9.91189 23.1288 9.88257 23.0787 9.8347C23.0286 9.78683 22.9964 9.72327 22.9873 9.65454C22.9861 9.64532 22.861 8.7388 22.3559 7.77345C22.0728 7.85201 21.714 8.12035 21.3239 8.54885C21.0769 8.82298 20.8504 9.11504 20.6465 9.42264C20.619 9.46542 20.5812 9.50063 20.5366 9.52503C20.492 9.54944 20.442 9.56226 20.3911 9.56233H15.6073C15.5564 9.56228 15.5064 9.54946 15.4618 9.52504C15.4171 9.50062 15.3793 9.46537 15.3518 9.42254C15.1479 9.11526 14.9215 8.8235 14.6745 8.54968C14.2846 8.12127 13.9257 7.85284 13.6426 7.77428C13.1375 8.73917 13.0124 9.64615 13.0111 9.65537C13.0019 9.7239 12.9697 9.78726 12.9198 9.83503C12.8698 9.8828 12.8051 9.91212 12.7363 9.91817C12.7335 9.91817 12.4085 9.94833 11.9049 10.0784C11.2272 10.2554 10.5739 10.515 9.95951 10.8515C9.09895 11.324 8.34334 11.9356 7.71367 12.6692C6.92581 13.587 6.33236 14.7019 5.94916 15.9825C5.73292 16.706 5.50009 18.2855 5.31047 20.3164C5.13661 22.1777 5.02862 24.109 5.02862 25.3567C5.02862 26.3955 5.1754 27.3442 5.46498 28.1763C5.74941 28.9938 6.17333 29.7031 6.72495 30.2846C7.27897 30.8687 7.9664 31.3285 8.76818 31.6514C9.59059 31.9826 10.539 32.1721 11.5871 32.2147L13.8423 32.25L17.1915 32.2495Z" fill="#000100"/>
<path d="M23.9206 30.2998C24.012 31.4029 23.9962 32.2879 23.9962 32.2879H11.9778C11.3652 31.3132 11.8984 31.1707 11.9778 30.2998C11.9782 24.1138 23.6775 23.935 23.9206 30.2998Z" fill="#FE7825"/>
<path d="M23.9206 30.2998C24.012 31.4029 23.9962 32.2879 23.9962 32.2879H11.9778C11.3652 31.3132 11.8984 31.1707 11.9778 30.2998C11.9782 24.1138 23.6775 23.935 23.9206 30.2998Z" fill="url(#paint1_linear_1794_74050)"/>
<path d="M30.0739 15.9283C30.0739 15.9283 29.2631 16.0989 27.9147 17.724C26.6742 19.219 26.9964 21.881 30.7197 21.6077C30.7197 19.1752 30.0739 15.9283 30.0739 15.9283Z" fill="#FE7825"/>
<path d="M30.0739 15.9283C30.0739 15.9283 29.2631 16.0989 27.9147 17.724C26.6742 19.219 26.9964 21.881 30.7197 21.6077C30.7197 19.1752 30.0739 15.9283 30.0739 15.9283Z" fill="url(#paint2_linear_1794_74050)"/>
<path d="M5.03223 23.9384C5.03223 23.9384 6.97631 24.1303 6.99538 22.1972C7.00865 20.8453 5.27243 20.7272 5.27243 20.7272L5.03223 23.9384Z" fill="#FE7825"/>
<path d="M5.03223 23.9384C5.03223 23.9384 6.97631 24.1303 6.99538 22.1972C7.00865 20.8453 5.27243 20.7272 5.27243 20.7272L5.03223 23.9384Z" fill="url(#paint3_linear_1794_74050)"/>
<path d="M26.0758 32.0692C30.0407 31.1379 31.2152 27.9606 30.9376 24.1333C30.8566 27.3319 27.4334 30.0532 25.9162 30.2387C23.1863 25.6121 18.834 25.6121 18.834 25.6121C22.3132 26.0787 23.7378 28.2631 23.8771 30.1371C23.8771 30.1371 24.005 31.4566 23.9871 32.2461C25.129 32.2461 26.0758 32.0692 26.0758 32.0692Z" fill="#F6A505"/>
<path d="M9.91458 32.0727C5.94975 31.1414 4.77519 27.964 5.05289 24.1367C5.13378 27.3353 8.55704 30.0566 10.0743 30.2422C12.8042 25.6155 17.1565 25.6155 17.1565 25.6155C13.6775 26.0821 12.2528 28.2666 12.1134 30.1406C12.1134 30.1406 11.9855 31.4601 12.0035 32.2496C10.8615 32.2495 9.91458 32.0727 9.91458 32.0727Z" fill="#F6A505"/>
<path d="M15.3764 9.45966C15.3764 9.45966 16.9412 13.5808 13.5729 14.0787C9.87437 14.6253 8.87646 11.5648 8.87646 11.5648C9.29025 11.2024 10.8937 10.1154 12.9281 9.83927C13.273 8.30358 13.635 7.76868 13.635 7.76868C13.635 7.76868 14.2557 7.82044 15.3764 9.45966Z" fill="#FE7825"/>
<path d="M15.3764 9.45966C15.3764 9.45966 16.9412 13.5808 13.5729 14.0787C9.87437 14.6253 8.87646 11.5648 8.87646 11.5648C9.29025 11.2024 10.8937 10.1154 12.9281 9.83927C13.273 8.30358 13.635 7.76868 13.635 7.76868C13.635 7.76868 14.2557 7.82044 15.3764 9.45966Z" fill="url(#paint4_linear_1794_74050)"/>
<g opacity="0.8" filter="url(#filter0_f_1794_74050)">
<path fill-rule="evenodd" clip-rule="evenodd" d="M18.4189 11.1293C18.491 11.0708 18.5442 10.9921 18.5716 10.9033C18.6083 10.784 18.5962 10.6549 18.5379 10.5446C18.4796 10.4342 18.3799 10.3515 18.2607 10.3147C18.172 10.2874 18.0771 10.287 17.9881 10.3137C17.8991 10.3403 17.8199 10.3928 17.7607 10.4644C17.7015 10.536 17.6648 10.6236 17.6553 10.7161C17.6458 10.8086 17.6639 10.9018 17.7073 10.984C17.7507 11.0662 17.8175 11.1337 17.8992 11.1779C17.9809 11.2221 18.0739 11.2411 18.1664 11.2325C18.2589 11.2238 18.3467 11.1879 18.4189 11.1293ZM20.2568 11.3692C23.4394 11.8752 26.1106 13.4447 27.1654 14.2469C28.22 15.0488 29.0612 13.8125 26.2729 12.1438C24.3972 11.1042 22.2561 10.5241 20.4333 10.4563C19.5525 10.4239 18.8016 11.1379 20.2568 11.3692Z" fill="white"/>
</g>
<path d="M29.6876 20.9397C29.6665 20.9397 29.6455 20.9363 29.6255 20.9295L28.1609 20.4373C28.1127 20.4201 28.0732 20.3847 28.0509 20.3387C28.0285 20.2926 28.0251 20.2397 28.0414 20.1912C28.0577 20.1426 28.0923 20.1025 28.1379 20.0792C28.1834 20.056 28.2363 20.0516 28.285 20.067L29.7497 20.5592C29.7935 20.574 29.8307 20.6039 29.8546 20.6436C29.8785 20.6833 29.8875 20.7302 29.8801 20.7759C29.8726 20.8216 29.8492 20.8632 29.8139 20.8932C29.7786 20.9232 29.7339 20.9397 29.6876 20.9397Z" fill="#47131A"/>
<path d="M29.8205 19.48H28.238C28.1871 19.4787 28.1388 19.4575 28.1032 19.4211C28.0677 19.3846 28.0479 19.3357 28.0479 19.2847C28.0479 19.2338 28.0677 19.1849 28.1032 19.1484C28.1388 19.1119 28.1871 19.0908 28.238 19.0895H29.8205C29.8714 19.0908 29.9197 19.1119 29.9552 19.1484C29.9908 19.1849 30.0106 19.2338 30.0106 19.2847C30.0106 19.3357 29.9908 19.3846 29.9552 19.4211C29.9197 19.4575 29.8714 19.4787 29.8205 19.48Z" fill="#47131A"/>
<path d="M6.94603 20.9398C6.89974 20.9398 6.85497 20.9233 6.81971 20.8933C6.78445 20.8633 6.76099 20.8217 6.75353 20.776C6.74607 20.7303 6.75509 20.6834 6.77897 20.6437C6.80286 20.604 6.84006 20.5741 6.88394 20.5594L8.34857 20.0671C8.373 20.0584 8.39892 20.0547 8.42482 20.0561C8.45072 20.0575 8.47607 20.0641 8.4994 20.0754C8.52273 20.0868 8.54356 20.1026 8.56069 20.1221C8.57782 20.1416 8.59089 20.1643 8.59914 20.189C8.60739 20.2136 8.61066 20.2396 8.60876 20.2655C8.60685 20.2914 8.59981 20.3166 8.58804 20.3397C8.57627 20.3629 8.56002 20.3834 8.54022 20.4002C8.52043 20.417 8.49749 20.4296 8.47275 20.4374L7.00812 20.9297C6.98811 20.9364 6.96714 20.9399 6.94603 20.9398Z" fill="#47131A"/>
<path d="M8.39595 19.4801H6.81345C6.78741 19.4807 6.7615 19.4762 6.73724 19.4667C6.71299 19.4572 6.69088 19.4429 6.67222 19.4247C6.65357 19.4065 6.63874 19.3847 6.62862 19.3607C6.6185 19.3367 6.61328 19.3109 6.61328 19.2848C6.61328 19.2587 6.6185 19.2329 6.62862 19.2089C6.63874 19.1849 6.65357 19.1631 6.67222 19.1449C6.69088 19.1267 6.71299 19.1124 6.73724 19.1029C6.7615 19.0934 6.78741 19.0889 6.81345 19.0895H8.39595C8.44683 19.0909 8.49518 19.112 8.5307 19.1485C8.56622 19.1849 8.5861 19.2339 8.5861 19.2848C8.5861 19.3357 8.56622 19.3847 8.5307 19.4211C8.49518 19.4576 8.44683 19.4788 8.39595 19.4801Z" fill="#47131A"/>
<path opacity="0.5" fill-rule="evenodd" clip-rule="evenodd" d="M24.8712 14.6407C23.6073 14.6495 22.7545 16.1841 22.7971 18.3573C22.8398 20.5313 23.7204 22.033 24.9389 22.0247C26.1577 22.0163 27.0106 20.5028 27.0134 18.3283C27.0163 16.1553 26.1355 14.6322 24.8712 14.6407Z" fill="white"/>
<path fill-rule="evenodd" clip-rule="evenodd" d="M24.845 14.4991C23.5811 14.5079 22.7254 15.8891 22.764 17.8425C22.8024 19.7971 23.6827 21.1453 24.9057 21.137C26.1287 21.1288 26.9847 19.7686 26.9872 17.8138C26.9898 15.8602 26.1089 14.4906 24.845 14.4991Z" fill="#47131A"/>
<path fill-rule="evenodd" clip-rule="evenodd" d="M25.1297 16.4511C25.1323 16.8904 24.7807 17.2475 24.3446 17.2499C23.9085 17.2524 23.5499 16.8998 23.5439 16.4607C23.5374 16.0213 23.8891 15.6611 24.3287 15.6588C24.7682 15.6558 25.127 16.0118 25.1297 16.4511Z" fill="white"/>
<path fill-rule="evenodd" clip-rule="evenodd" d="M23.8826 23.2623C23.8803 22.7795 24.5564 22.5779 25.3915 22.5655C26.2267 22.5535 27.0931 22.7394 27.103 23.2219C27.1129 23.7044 26.2498 23.9133 25.409 23.9253C24.5681 23.938 23.8849 23.7452 23.8826 23.2623Z" fill="#FFB43C"/>
<path opacity="0.5" fill-rule="evenodd" clip-rule="evenodd" d="M11.4545 15.0034C10.1906 15.0264 9.34756 16.5707 9.40404 18.7436C9.4609 20.9169 10.3512 22.4089 11.5698 22.3868C12.7879 22.365 13.6313 20.8412 13.6202 18.6672C13.6092 16.4935 12.7184 14.9805 11.4545 15.0034Z" fill="white"/>
<path fill-rule="evenodd" clip-rule="evenodd" d="M11.4554 15.0037C10.1918 15.0266 9.34461 16.4178 9.39575 18.371C9.44689 20.3246 10.3361 21.6634 11.5588 21.6412C12.7815 21.619 13.6283 20.2489 13.6184 18.2942C13.6085 16.3406 12.7189 14.9808 11.4554 15.0037Z" fill="#47131A"/>
<path fill-rule="evenodd" clip-rule="evenodd" d="M12.4862 16.5696C12.4908 17.009 12.1412 17.3708 11.705 17.3789C11.2688 17.3873 10.9086 17.0392 10.9005 16.6002C10.8921 16.1608 11.2421 15.7963 11.6817 15.7879C12.1214 15.7795 12.4816 16.1302 12.4862 16.5696Z" fill="white"/>
<path fill-rule="evenodd" clip-rule="evenodd" d="M9.96754 23.503C9.99715 22.9998 10.871 22.8421 11.7058 22.8888C12.5409 22.9355 13.209 23.1739 13.1866 23.6775C13.165 24.1811 12.4741 24.3536 11.6333 24.3065C10.7924 24.259 9.93794 24.0062 9.96754 23.503Z" fill="#FFB43C"/>
<path opacity="0.5" d="M21.0655 19.8972L20.5524 20.0049V20.003C20.5524 20.0068 20.6228 20.3855 20.3824 20.6777C20.1649 20.9419 19.7563 21.0765 19.1683 21.0765C18.9838 21.0765 18.8222 21.0376 18.7128 20.9667C18.636 20.917 18.5363 20.8256 18.5198 20.6026C18.5209 20.5811 18.5216 20.5594 18.5216 20.5374V20.0067C18.5216 19.9722 18.5148 19.938 18.5016 19.9062C18.4884 19.8743 18.4691 19.8453 18.4448 19.821C18.4204 19.7966 18.3915 19.7773 18.3597 19.7641C18.3279 19.7509 18.2938 19.7441 18.2594 19.7441H18.2552C18.2208 19.7441 18.1867 19.7509 18.1549 19.7641C18.1231 19.7773 18.0942 19.7966 18.0698 19.821C18.0455 19.8453 18.0262 19.8743 18.013 19.9062C17.9998 19.938 17.993 19.9722 17.993 20.0067V20.5374C17.993 20.5594 17.993 20.5811 17.9946 20.6026C17.9782 20.8252 17.8785 20.9166 17.8018 20.9667C17.6926 21.0376 17.5308 21.0765 17.3462 21.0765C16.7578 21.0765 16.3497 20.9426 16.1322 20.6777C15.8916 20.3855 15.9615 20.0068 15.9622 20.003V20.0049L15.4493 19.8972C15.4439 19.9222 15.3257 20.5154 15.7222 21.0043C16.0432 21.4004 16.5897 21.6012 17.3467 21.6012C17.7412 21.6012 18.0543 21.4798 18.2578 21.2641C18.4613 21.4801 18.7742 21.6012 19.1688 21.6012C19.9259 21.6012 20.4724 21.4004 20.7935 21.0043C21.1884 20.5154 21.0707 19.9215 21.0655 19.8972Z" fill="#F7F7F7"/>
<path d="M21.066 19.433L20.5529 19.5407V19.5388C20.5529 19.5426 20.6233 19.9213 20.3829 20.2134C20.1654 20.4777 19.7568 20.6122 19.1688 20.6122C18.9843 20.6122 18.8227 20.5734 18.7133 20.5025C18.6364 20.4527 18.5368 20.3613 18.5203 20.1384C18.5214 20.1169 18.522 20.0952 18.522 20.0732V19.5424C18.522 19.5079 18.5153 19.4738 18.5021 19.4419C18.4889 19.4101 18.4696 19.3811 18.4453 19.3567C18.4209 19.3324 18.392 19.313 18.3602 19.2998C18.3284 19.2867 18.2943 19.2799 18.2599 19.2799H18.2557C18.2213 19.2799 18.1872 19.2867 18.1554 19.2998C18.1236 19.313 18.0947 19.3324 18.0703 19.3567C18.046 19.3811 18.0267 19.4101 18.0135 19.4419C18.0003 19.4738 17.9935 19.5079 17.9935 19.5424V20.0732C17.9935 20.0952 17.9935 20.1169 17.9951 20.1384C17.9786 20.361 17.879 20.4524 17.8023 20.5025C17.6931 20.5734 17.5313 20.6122 17.3466 20.6122C16.7582 20.6122 16.3502 20.4784 16.1326 20.2134C15.8921 19.9213 15.962 19.5426 15.9627 19.5388V19.5407L15.4498 19.433C15.4444 19.458 15.3262 20.0512 15.7227 20.5401C16.0437 20.9361 16.5902 21.1369 17.3472 21.1369C17.7417 21.1369 18.0548 21.0156 18.2583 20.7999C18.4618 21.0159 18.7747 21.1369 19.1693 21.1369C19.9264 21.1369 20.4729 20.9361 20.7939 20.5401C21.1889 20.0512 21.0712 19.4573 21.066 19.433Z" fill="#47131A"/>
<circle cx="46.4209" cy="20" r="18.5" fill="#F0B90B" stroke="white"/>
<g clip-path="url(#clip0_1794_74050)">
<path fill-rule="evenodd" clip-rule="evenodd" d="M49.677 10.1808L46.4202 6.85559L38.2195 15.11L41.4763 18.357L49.677 10.1808ZM54.6209 15.11L51.3642 11.7848L38.2195 24.9683L41.4763 28.2153L54.6209 15.11ZM36.5321 16.7139L39.7889 20.0392L36.5321 23.2861L33.2754 20.0392L36.5321 16.7139ZM59.5644 20.0392L56.3077 16.7139L43.163 29.8975L46.4197 33.1445L59.5644 20.0392Z" fill="white"/>
</g>
<defs>
<filter id="filter0_f_1794_74050" x="7.65283" y="0.293945" width="30.5073" height="24.2035" filterUnits="userSpaceOnUse" color-interpolation-filters="sRGB">
<feFlood flood-opacity="0" result="BackgroundImageFix"/>
<feBlend mode="normal" in="SourceGraphic" in2="BackgroundImageFix" result="shape"/>
<feGaussianBlur stdDeviation="5" result="effect1_foregroundBlur_1794_74050"/>
</filter>
<radialGradient id="paint0_radial_1794_74050" cx="0" cy="0" r="1" gradientUnits="userSpaceOnUse" gradientTransform="translate(17.9862 16.5158) rotate(89.9511) scale(16.0375 16.9582)">
<stop stop-color="#FFEF9E"/>
<stop offset="0.452438" stop-color="#FFD921"/>
<stop offset="1" stop-color="#FAD001"/>
</radialGradient>
<linearGradient id="paint1_linear_1794_74050" x1="53.447" y1="30.228" x2="9.99207" y2="15.6709" gradientUnits="userSpaceOnUse">
<stop offset="0.369792" stop-color="#E64500" stop-opacity="0.81"/>
<stop offset="0.572917" stop-color="#FF5C00" stop-opacity="0.79"/>
<stop offset="0.927083" stop-color="#FF9921"/>
</linearGradient>
<linearGradient id="paint2_linear_1794_74050" x1="38.9887" y1="19.8737" x2="25.5817" y2="18.3922" gradientUnits="userSpaceOnUse">
<stop offset="0.369792" stop-color="#E64500" stop-opacity="0.81"/>
<stop offset="0.572917" stop-color="#FF5C00" stop-opacity="0.79"/>
<stop offset="0.927083" stop-color="#FF9921"/>
</linearGradient>
<linearGradient id="paint3_linear_1794_74050" x1="11.6921" y1="22.954" x2="4.07836" y2="22.1073" gradientUnits="userSpaceOnUse">
<stop offset="0.369792" stop-color="#E64500" stop-opacity="0.81"/>
<stop offset="0.572917" stop-color="#FF5C00" stop-opacity="0.79"/>
<stop offset="0.927083" stop-color="#FF9921"/>
</linearGradient>
<linearGradient id="paint4_linear_1794_74050" x1="32.1576" y1="12.1824" x2="6.21086" y2="7.09382" gradientUnits="userSpaceOnUse">
<stop offset="0.369792" stop-color="#E64500" stop-opacity="0.81"/>
<stop offset="0.572917" stop-color="#FF5C00" stop-opacity="0.79"/>
<stop offset="0.927083" stop-color="#FF9921"/>
</linearGradient>
<clipPath id="clip0_1794_74050">
<rect width="26.4" height="26.4" fill="white" transform="translate(33.2207 6.80005)"/>
</clipPath>
</defs>
</svg>
