<svg width="40" height="39" viewBox="0 0 40 39" fill="none" xmlns="http://www.w3.org/2000/svg">
<path d="M32.2681 17.8923C30.3524 10.6471 23.4888 10.0777 23.4888 10.0777C23.4888 10.0777 23.3146 8.7442 22.5355 7.37855C21.3311 7.37293 19.8819 9.63455 19.8819 9.63455H13.9255C13.9255 9.63455 12.4761 7.37293 11.2719 7.37855C10.4928 8.74409 10.3186 10.0777 10.3186 10.0777C10.3186 10.0777 3.70607 10.6477 1.53937 17.8923C0.93013 19.9294 0.377441 26.507 0.377441 29.6657C0.377441 35.0502 3.44189 38.3579 8.91015 38.5778L11.7257 38.6219C12.587 38.6219 21.1637 38.6219 22.0478 38.6219L24.8422 38.576L24.8973 38.5775C30.3655 38.3575 33.43 35.0498 33.43 29.6654C33.43 26.5068 32.8118 19.9477 32.2681 17.8923Z" fill="url(#paint0_radial_1794_74044)"/>
<path d="M22.0478 39C21.0762 39 12.5396 39 11.7259 39H11.7204L8.90426 38.9554H8.89508C7.50166 38.8994 6.23466 38.6455 5.12905 38.2003C4.02953 37.7577 3.08429 37.1246 2.31927 36.3184C1.55815 35.5164 0.974603 34.5423 0.585037 33.4229C0.196618 32.3073 0 31.0431 0 29.6655C0 26.6011 0.539151 19.9195 1.17776 17.7835C1.68731 16.0797 2.48193 14.5934 3.53947 13.3674C4.38732 12.3841 5.40402 11.5658 6.56113 10.9356C8.07535 10.1106 9.4207 9.82769 9.99438 9.73807C10.091 9.2544 10.3478 8.23483 10.9441 7.1906C10.977 7.13295 11.0244 7.08499 11.0817 7.05153C11.139 7.01807 11.2041 7.00029 11.2705 7H11.2766C11.8861 7 12.577 7.42033 13.33 8.24964C13.6166 8.56785 13.8827 8.90398 14.1266 9.256H19.6814C19.9254 8.90398 20.1915 8.56785 20.4781 8.24964C21.2312 7.42045 21.9221 7 22.5315 7H22.5377C22.604 7.00029 22.6691 7.01807 22.7264 7.05153C22.7837 7.08499 22.8312 7.13295 22.864 7.1906C23.4596 8.23483 23.7167 9.25256 23.8134 9.73681C24.4007 9.82471 25.7929 10.106 27.3388 10.9346C28.5157 11.5657 29.5376 12.3848 30.3759 13.3695C31.4225 14.5987 32.1821 16.0879 32.6337 17.7955C32.8932 18.7763 33.1832 20.7931 33.4294 23.3286C33.6666 25.7716 33.8079 28.1407 33.8079 29.6657C33.8079 31.0433 33.6111 32.3075 33.2229 33.4231C32.8328 34.5425 32.2498 35.5166 31.4886 36.3186C30.7236 37.1246 29.7784 37.7577 28.6789 38.2005C27.5733 38.6455 26.3061 38.8996 24.9128 38.9556C24.8951 38.9563 24.8774 38.9558 24.8597 38.9541H24.8482L22.0538 39H22.0478ZM15.898 38.2439H22.0445L24.8357 38.198C24.8504 38.1978 24.8652 38.1984 24.8798 38.1998H24.8819C26.1885 38.1473 27.3711 37.9115 28.3961 37.4987C29.3941 37.0971 30.2502 36.5247 30.94 35.7979C31.6268 35.0743 32.1546 34.1914 32.5087 33.1742C32.8692 32.1387 33.052 30.9581 33.052 29.6654C33.052 28.1632 32.9117 25.8212 32.6766 23.4013C32.4378 20.9413 32.1489 18.9178 31.9026 17.9885C31.482 16.3979 30.7785 15.0135 29.8126 13.8739C29.0396 12.9623 28.0961 12.2022 27.0081 11.6148C26.2239 11.1936 25.391 10.8705 24.528 10.6528C23.8814 10.4908 23.4611 10.4537 23.4569 10.4533C23.371 10.446 23.2901 10.4095 23.2277 10.3499C23.1654 10.2903 23.1252 10.2112 23.1139 10.1257C23.1124 10.1142 22.9566 8.98611 22.3278 7.78478C21.9754 7.88255 21.5287 8.21647 21.043 8.74972C20.7354 9.09086 20.4534 9.45432 20.1995 9.8371C20.1653 9.89035 20.1182 9.93416 20.0627 9.96453C20.0072 9.9949 19.9449 10.0109 19.8816 10.0109H13.9256C13.8623 10.0109 13.8 9.99493 13.7444 9.96454C13.6888 9.93414 13.6417 9.89029 13.6075 9.83699C13.3536 9.45459 13.0717 9.09152 12.7642 8.75075C12.2788 8.21762 11.832 7.88358 11.4795 7.78581C10.8506 8.98657 10.6948 10.1153 10.6932 10.1267C10.6818 10.212 10.6417 10.2909 10.5796 10.3503C10.5174 10.4097 10.4368 10.4462 10.3511 10.4538C10.3476 10.4538 9.94299 10.4913 9.31597 10.6532C8.47225 10.8734 7.65879 11.1965 6.89392 11.6153C5.82249 12.2033 4.88173 12.9643 4.09778 13.8773C3.11687 15.0194 2.378 16.4068 1.90091 18.0005C1.63168 18.9008 1.3418 20.8665 1.10572 23.3938C0.889256 25.7101 0.754812 28.1135 0.754812 29.6662C0.754812 30.959 0.937549 32.1395 1.29809 33.175C1.65221 34.1923 2.18001 35.0751 2.86679 35.7987C3.55656 36.5255 4.41244 37.0978 5.41067 37.4995C6.4346 37.9117 7.61534 38.1475 8.92032 38.2005L11.7282 38.2445L15.898 38.2439Z" fill="#47131A"/>
<path d="M24.2746 35.8177C24.3885 37.1904 24.3687 38.2918 24.3687 38.2918H9.40552C8.64279 37.0787 9.30661 36.9014 9.40552 35.8177C9.40598 28.1195 23.9719 27.897 24.2746 35.8177Z" fill="#FE7825"/>
<path d="M24.2746 35.8177C24.3885 37.1904 24.3687 38.2918 24.3687 38.2918H9.40552C8.64279 37.0787 9.30661 36.9014 9.40552 35.8177C9.40598 28.1195 23.9719 27.897 24.2746 35.8177Z" fill="url(#paint1_linear_1794_74044)"/>
<path d="M31.9359 17.9331C31.9359 17.9331 30.9265 18.1454 29.2476 20.1676C27.7033 22.0281 28.1044 25.3408 32.74 25.0007C32.74 21.9736 31.9359 17.9331 31.9359 17.9331Z" fill="#FE7825"/>
<path d="M31.9359 17.9331C31.9359 17.9331 30.9265 18.1454 29.2476 20.1676C27.7033 22.0281 28.1044 25.3408 32.74 25.0007C32.74 21.9736 31.9359 17.9331 31.9359 17.9331Z" fill="url(#paint2_linear_1794_74044)"/>
<path d="M0.757812 27.9011C0.757812 27.9011 3.17826 28.1399 3.202 25.7343C3.21852 24.0519 1.05687 23.9049 1.05687 23.9049L0.757812 27.9011Z" fill="#FE7825"/>
<path d="M0.757812 27.9011C0.757812 27.9011 3.17826 28.1399 3.202 25.7343C3.21852 24.0519 1.05687 23.9049 1.05687 23.9049L0.757812 27.9011Z" fill="url(#paint3_linear_1794_74044)"/>
<path d="M26.9577 38.0195C31.8941 36.8605 33.3564 32.9065 33.0108 28.1437C32.91 32.1242 28.6479 35.5107 26.7589 35.7414C23.3602 29.9839 17.9414 29.9839 17.9414 29.9839C22.2731 30.5646 24.0468 33.283 24.2202 35.6151C24.2202 35.6151 24.3795 37.2571 24.3572 38.2396C25.7788 38.2396 26.9577 38.0195 26.9577 38.0195Z" fill="#F6A505"/>
<path d="M6.83701 38.024C1.90068 36.865 0.438312 32.9109 0.784057 28.1481C0.884775 32.1285 5.14683 35.5151 7.03592 35.746C10.4346 29.9883 15.8535 29.9883 15.8535 29.9883C11.5219 30.569 9.7482 33.2875 9.57464 35.6196C9.57464 35.6196 9.41542 37.2616 9.43779 38.2441C8.01592 38.244 6.83701 38.024 6.83701 38.024Z" fill="#F6A505"/>
<path d="M13.6375 9.8829C13.6375 9.8829 15.5857 15.0115 11.3922 15.631C6.78734 16.3113 5.54492 12.5026 5.54492 12.5026C6.0601 12.0517 8.05642 10.6989 10.5894 10.3553C11.0187 8.44422 11.4695 7.77856 11.4695 7.77856C11.4695 7.77856 12.2422 7.84298 13.6375 9.8829Z" fill="#FE7825"/>
<path d="M13.6375 9.8829C13.6375 9.8829 15.5857 15.0115 11.3922 15.631C6.78734 16.3113 5.54492 12.5026 5.54492 12.5026C6.0601 12.0517 8.05642 10.6989 10.5894 10.3553C11.0187 8.44422 11.4695 7.77856 11.4695 7.77856C11.4695 7.77856 12.2422 7.84298 13.6375 9.8829Z" fill="url(#paint4_linear_1794_74044)"/>
<g opacity="0.8" filter="url(#filter0_f_1794_74044)">
<path fill-rule="evenodd" clip-rule="evenodd" d="M17.4244 11.961C17.5142 11.8881 17.5804 11.7902 17.6146 11.6797C17.6603 11.5312 17.6452 11.3706 17.5727 11.2333C17.5001 11.0959 17.376 10.993 17.2276 10.9472C17.117 10.9132 16.9989 10.9128 16.8881 10.9459C16.7773 10.9791 16.6788 11.0444 16.605 11.1335C16.5313 11.2226 16.4856 11.3316 16.4738 11.4467C16.4619 11.5618 16.4845 11.6778 16.5385 11.7801C16.5926 11.8824 16.6757 11.9664 16.7774 12.0214C16.8792 12.0764 16.9949 12.1001 17.1101 12.0893C17.2253 12.0786 17.3346 12.0339 17.4244 11.961ZM19.713 12.2596C23.6754 12.8892 27.0012 14.8424 28.3144 15.8407C29.6274 16.8386 30.6748 15.3001 27.2032 13.2235C24.868 11.9298 22.2022 11.2079 19.9328 11.1235C18.8361 11.0831 17.9012 11.9716 19.713 12.2596Z" fill="white"/>
</g>
<path d="M31.4548 24.1694C31.4285 24.1694 31.4024 24.1652 31.3775 24.1567L29.5539 23.5442C29.494 23.5228 29.4448 23.4787 29.417 23.4214C29.3892 23.3641 29.385 23.2982 29.4052 23.2379C29.4255 23.1775 29.4686 23.1275 29.5253 23.0986C29.582 23.0697 29.6478 23.0642 29.7085 23.0834L31.5321 23.6959C31.5867 23.7143 31.633 23.7515 31.6627 23.8009C31.6925 23.8503 31.7037 23.9086 31.6944 23.9655C31.6851 24.0224 31.6559 24.0742 31.612 24.1115C31.5681 24.1489 31.5124 24.1694 31.4548 24.1694Z" fill="#47131A"/>
<path d="M31.6201 22.3529H29.6498C29.5865 22.3513 29.5263 22.325 29.4821 22.2796C29.4378 22.2342 29.4131 22.1733 29.4131 22.1099C29.4131 22.0465 29.4378 21.9857 29.4821 21.9403C29.5263 21.8949 29.5865 21.8686 29.6498 21.8669H31.6201C31.6834 21.8686 31.7436 21.8949 31.7878 21.9403C31.8321 21.9857 31.8568 22.0465 31.8568 22.1099C31.8568 22.1733 31.8321 22.2342 31.7878 22.2796C31.7436 22.325 31.6834 22.3513 31.6201 22.3529Z" fill="#47131A"/>
<path d="M3.14079 24.1695C3.08316 24.1695 3.02742 24.1489 2.98352 24.1116C2.93962 24.0742 2.91042 24.0225 2.90113 23.9656C2.89184 23.9087 2.90307 23.8504 2.93281 23.801C2.96255 23.7516 3.00886 23.7144 3.06349 23.696L4.887 23.0835C4.91742 23.0726 4.94969 23.0679 4.98193 23.0697C5.01418 23.0715 5.04574 23.0797 5.07479 23.0938C5.10383 23.1079 5.12978 23.1276 5.1511 23.1519C5.17242 23.1762 5.18869 23.2044 5.19897 23.2351C5.20924 23.2657 5.21331 23.2981 5.21094 23.3303C5.20857 23.3625 5.1998 23.3939 5.18515 23.4227C5.1705 23.4515 5.15026 23.4771 5.12561 23.4979C5.10097 23.5188 5.07241 23.5345 5.04161 23.5443L3.21809 24.1568C3.19319 24.1652 3.16708 24.1695 3.14079 24.1695Z" fill="#47131A"/>
<path d="M4.94604 22.3529H2.97578C2.94336 22.3537 2.9111 22.348 2.8809 22.3362C2.8507 22.3244 2.82318 22.3066 2.79995 22.284C2.77672 22.2613 2.75826 22.2342 2.74566 22.2044C2.73306 22.1745 2.72656 22.1423 2.72656 22.1099C2.72656 22.0774 2.73306 22.0453 2.74566 22.0154C2.75826 21.9855 2.77672 21.9585 2.79995 21.9358C2.82318 21.9132 2.8507 21.8954 2.8809 21.8836C2.9111 21.8717 2.94336 21.8661 2.97578 21.8669H4.94604C5.00938 21.8685 5.06958 21.8948 5.1138 21.9402C5.15803 21.9856 5.18278 22.0465 5.18278 22.1099C5.18278 22.1733 5.15803 22.2342 5.1138 22.2795C5.06958 22.3249 5.00938 22.3513 4.94604 22.3529Z" fill="#47131A"/>
<path opacity="0.5" fill-rule="evenodd" clip-rule="evenodd" d="M25.4576 16.3306C23.8841 16.3416 22.8223 18.2513 22.8754 20.9558C22.9285 23.6612 24.025 25.5299 25.5419 25.5196C27.0594 25.5092 28.1214 23.6257 28.1248 20.9196C28.1284 18.2154 27.0317 16.32 25.4576 16.3306Z" fill="white"/>
<path fill-rule="evenodd" clip-rule="evenodd" d="M25.4248 16.1541C23.8512 16.1651 22.7858 17.884 22.8339 20.3149C22.8816 22.7472 23.9777 24.425 25.5004 24.4147C27.0231 24.4045 28.0887 22.7118 28.0919 20.2792C28.0952 17.848 26.9984 16.1436 25.4248 16.1541Z" fill="#47131A"/>
<path fill-rule="evenodd" clip-rule="evenodd" d="M25.7798 18.5834C25.7831 19.1301 25.3454 19.5745 24.8024 19.5776C24.2595 19.5806 23.813 19.1418 23.8055 18.5954C23.7974 18.0485 24.2353 17.6003 24.7826 17.5975C25.3298 17.5937 25.7765 18.0368 25.7798 18.5834Z" fill="white"/>
<path fill-rule="evenodd" clip-rule="evenodd" d="M24.2273 27.0597C24.2244 26.4589 25.0662 26.2079 26.106 26.1926C27.1458 26.1777 28.2245 26.409 28.2368 27.0094C28.2491 27.6098 27.1746 27.8698 26.1277 27.8847C25.0808 27.9005 24.2302 27.6606 24.2273 27.0597Z" fill="#FFB43C"/>
<path opacity="0.5" fill-rule="evenodd" clip-rule="evenodd" d="M8.75593 16.7818C7.18229 16.8103 6.13272 18.7322 6.20304 21.4363C6.27383 24.1408 7.38232 25.9975 8.89942 25.9699C10.416 25.9428 11.4661 24.0466 11.4523 21.3412C11.4385 18.6362 10.3296 16.7533 8.75593 16.7818Z" fill="white"/>
<path fill-rule="evenodd" clip-rule="evenodd" d="M8.75452 16.7823C7.18136 16.8109 6.12656 18.5421 6.19023 20.9727C6.2539 23.4038 7.36096 25.0699 8.88329 25.0423C10.4056 25.0148 11.4599 23.3097 11.4476 20.8772C11.4352 18.446 10.3277 16.7538 8.75452 16.7823Z" fill="#47131A"/>
<path fill-rule="evenodd" clip-rule="evenodd" d="M10.0383 18.7308C10.044 19.2776 9.60881 19.7279 9.06573 19.7379C8.52265 19.7483 8.07413 19.3152 8.06415 18.7689C8.0537 18.2221 8.48939 17.7685 9.03675 17.758C9.5841 17.7475 10.0326 18.184 10.0383 18.7308Z" fill="white"/>
<path fill-rule="evenodd" clip-rule="evenodd" d="M6.90083 27.359C6.9377 26.7328 8.02568 26.5365 9.06498 26.5947C10.1048 26.6528 10.9366 26.9495 10.9087 27.5762C10.8817 28.2029 10.0216 28.4176 8.97471 28.359C7.92785 28.2998 6.86397 27.9853 6.90083 27.359Z" fill="#FFB43C"/>
<path opacity="0.5" d="M20.0388 20.6353L19.5384 20.7403V20.7384C19.5384 20.7421 19.6071 21.1113 19.3726 21.3961C19.1605 21.6537 18.762 21.7848 18.1885 21.7848C18.0086 21.7848 17.851 21.747 17.7443 21.6778C17.6694 21.6293 17.5722 21.5403 17.5561 21.3229C17.5571 21.3019 17.5578 21.2808 17.5578 21.2594V20.742C17.5578 20.7084 17.5512 20.6751 17.5383 20.644C17.5255 20.613 17.5067 20.5847 17.4829 20.561C17.4592 20.5372 17.431 20.5184 17.4 20.5055C17.3689 20.4927 17.3357 20.4861 17.3021 20.4861H17.2981C17.2645 20.4861 17.2313 20.4927 17.2002 20.5055C17.1692 20.5184 17.141 20.5372 17.1173 20.561C17.0935 20.5847 17.0747 20.613 17.0618 20.644C17.049 20.6751 17.0424 20.7084 17.0424 20.742V21.2594C17.0424 21.2808 17.0424 21.3019 17.0439 21.3229C17.0279 21.5399 16.9306 21.629 16.8559 21.6778C16.7494 21.747 16.5916 21.7848 16.4115 21.7848C15.8377 21.7848 15.4397 21.6544 15.2275 21.3961C14.9929 21.1113 15.0611 20.7421 15.0618 20.7384V20.7403L14.5616 20.6353C14.5563 20.6597 14.4411 21.2379 14.8277 21.7145C15.1408 22.1006 15.6738 22.2963 16.412 22.2963C16.7968 22.2963 17.1021 22.178 17.3006 21.9677C17.4991 22.1783 17.8042 22.2963 18.189 22.2963C18.9274 22.2963 19.4604 22.1006 19.7735 21.7145C20.1586 21.2379 20.0439 20.659 20.0388 20.6353Z" fill="#F7F7F7"/>
<path d="M20.0388 20.1824L19.5384 20.2874V20.2855C19.5384 20.2893 19.6071 20.6584 19.3726 20.9432C19.1605 21.2008 18.762 21.332 18.1885 21.332C18.0086 21.332 17.851 21.2941 17.7443 21.225C17.6694 21.1765 17.5722 21.0874 17.5561 20.87C17.5571 20.8491 17.5578 20.8279 17.5578 20.8065V20.2891C17.5578 20.2555 17.5512 20.2222 17.5383 20.1911C17.5255 20.1601 17.5067 20.1319 17.4829 20.1081C17.4592 20.0843 17.431 20.0655 17.4 20.0526C17.3689 20.0398 17.3357 20.0332 17.3021 20.0332H17.2981C17.2645 20.0332 17.2313 20.0398 17.2002 20.0526C17.1692 20.0655 17.141 20.0843 17.1173 20.1081C17.0935 20.1319 17.0747 20.1601 17.0618 20.1911C17.049 20.2222 17.0424 20.2555 17.0424 20.2891V20.8065C17.0424 20.8279 17.0424 20.8491 17.0439 20.87C17.0279 21.087 16.9306 21.1761 16.8559 21.225C16.7494 21.2941 16.5916 21.332 16.4115 21.332C15.8377 21.332 15.4397 21.2015 15.2275 20.9432C14.9929 20.6584 15.0611 20.2893 15.0618 20.2855V20.2874L14.5616 20.1824C14.5563 20.2068 14.4411 20.785 14.8277 21.2616C15.1408 21.6477 15.6738 21.8434 16.412 21.8434C16.7968 21.8434 17.1021 21.7251 17.3006 21.5148C17.4991 21.7254 17.8042 21.8434 18.189 21.8434C18.9274 21.8434 19.4604 21.6477 19.7735 21.2616C20.1586 20.785 20.0439 20.2061 20.0388 20.1824Z" fill="#47131A"/>
<defs>
<filter id="filter0_f_1794_74044" x="6.4707" y="0.921387" width="33.0825" height="25.2311" filterUnits="userSpaceOnUse" color-interpolation-filters="sRGB">
<feFlood flood-opacity="0" result="BackgroundImageFix"/>
<feBlend mode="normal" in="SourceGraphic" in2="BackgroundImageFix" result="shape"/>
<feGaussianBlur stdDeviation="5" result="effect1_foregroundBlur_1794_74044"/>
</filter>
<radialGradient id="paint0_radial_1794_74044" cx="0" cy="0" r="1" gradientUnits="userSpaceOnUse" gradientTransform="translate(16.8867 18.6641) rotate(89.9511) scale(19.9578 21.1135)">
<stop stop-color="#FFEF9E"/>
<stop offset="0.452438" stop-color="#FFD921"/>
<stop offset="1" stop-color="#FAD001"/>
</radialGradient>
<linearGradient id="paint1_linear_1794_74044" x1="61.0359" y1="35.7283" x2="6.93834" y2="17.5975" gradientUnits="userSpaceOnUse">
<stop offset="0.369792" stop-color="#E64500" stop-opacity="0.81"/>
<stop offset="0.572917" stop-color="#FF5C00" stop-opacity="0.79"/>
<stop offset="0.927083" stop-color="#FF9921"/>
</linearGradient>
<linearGradient id="paint2_linear_1794_74044" x1="43.0351" y1="22.8429" x2="26.3433" y2="20.9976" gradientUnits="userSpaceOnUse">
<stop offset="0.369792" stop-color="#E64500" stop-opacity="0.81"/>
<stop offset="0.572917" stop-color="#FF5C00" stop-opacity="0.79"/>
<stop offset="0.927083" stop-color="#FF9921"/>
</linearGradient>
<linearGradient id="paint3_linear_1794_74044" x1="9.04958" y1="26.676" x2="-0.429674" y2="25.6215" gradientUnits="userSpaceOnUse">
<stop offset="0.369792" stop-color="#E64500" stop-opacity="0.81"/>
<stop offset="0.572917" stop-color="#FF5C00" stop-opacity="0.79"/>
<stop offset="0.927083" stop-color="#FF9921"/>
</linearGradient>
<linearGradient id="paint4_linear_1794_74044" x1="34.5306" y1="13.2712" x2="2.22729" y2="6.93299" gradientUnits="userSpaceOnUse">
<stop offset="0.369792" stop-color="#E64500" stop-opacity="0.81"/>
<stop offset="0.572917" stop-color="#FF5C00" stop-opacity="0.79"/>
<stop offset="0.927083" stop-color="#FF9921"/>
</linearGradient>
</defs>
</svg>
