<svg width="22" height="22" viewBox="0 0 22 22" fill="none" xmlns="http://www.w3.org/2000/svg">
<mask id="mask0_1602_19816" style="mask-type:alpha" maskUnits="userSpaceOnUse" x="0" y="0" width="22" height="22">
<path d="M22 0H0V22H22V0Z" fill="white"/>
</mask>
<g mask="url(#mask0_1602_19816)">
<path d="M3.61158 13.3512L6.20574 14.5965L11.0027 16.9198L15.6286 14.6786L18.3951 13.3535C18.7178 14.0355 18.4306 14.8502 17.7516 15.1791L11.6022 18.1573C11.2235 18.3407 10.7818 18.3407 10.4032 18.1573L4.2537 15.1791C3.5739 14.8496 3.28717 14.0335 3.61158 13.3512ZM18.3892 10.4738C18.5485 10.8021 18.5708 11.1802 18.4513 11.5249C18.3317 11.8696 18.08 12.1527 17.7516 12.3117L11.6017 15.29C11.2231 15.4734 10.7813 15.4734 10.4027 15.29L4.2537 12.3117C3.59782 11.9937 3.30405 11.2192 3.58408 10.5462L10.3949 13.7587L11.0027 14.0529L17.1521 11.0747L17.1489 11.0733L18.3892 10.4743V10.4738ZM11.6022 3.99161L17.7512 6.9694C18.2255 7.19914 18.5268 7.67983 18.5268 8.2069C18.5268 8.73397 18.2255 9.21466 17.7512 9.4444L11.6022 12.4226C11.2235 12.6061 10.7818 12.6061 10.4032 12.4226L4.2537 9.4444C3.77934 9.21466 3.47805 8.73397 3.47805 8.2069C3.47805 7.67983 3.77934 7.19914 4.2537 6.9694L10.4032 3.99207C10.7818 3.80863 11.2235 3.80863 11.6022 3.99207V3.99161Z" fill="#47131A"/>
</g>
</svg>
