<svg width="10" height="11" viewBox="0 0 10 11" fill="none" xmlns="http://www.w3.org/2000/svg">
<path fill-rule="evenodd" clip-rule="evenodd" d="M7.82517 4.36496C7.7332 4.10656 7.62464 3.85437 7.50017 3.60996C7.07397 2.72116 6.47773 1.92448 5.74517 1.26496C5.54845 1.09334 5.29623 0.998779 5.03517 0.998779C4.77411 0.998779 4.52189 1.09334 4.32517 1.26496C3.58901 1.92356 2.98933 2.7203 2.56017 3.60996C2.44507 3.85475 2.34651 4.10698 2.26517 4.36496C2.19517 4.58996 2.13517 4.81496 2.09017 5.03496C1.92135 6.02458 1.98642 7.03998 2.28017 7.99996H7.78017C8.084 7.04064 8.15934 6.02358 8.00017 5.02996C7.95418 4.80523 7.89576 4.58322 7.82517 4.36496ZM4.27216 6.03616C4.0461 5.886 3.86973 5.67209 3.76542 5.42155C3.66111 5.17101 3.63356 4.89514 3.68626 4.62892C3.73896 4.3627 3.86954 4.11813 4.06144 3.92623C4.25334 3.73434 4.49791 3.60375 4.76413 3.55105C5.03035 3.49835 5.30622 3.5259 5.55676 3.63021C5.8073 3.73452 6.02121 3.91089 6.17137 4.13695C6.32152 4.36301 6.40116 4.62858 6.40017 4.89996C6.40017 5.07922 6.36486 5.25671 6.29627 5.42232C6.22767 5.58793 6.12712 5.73841 6.00037 5.86516C5.87362 5.99191 5.72314 6.09246 5.55753 6.16106C5.39192 6.22965 5.21442 6.26496 5.03517 6.26496C4.76379 6.26595 4.49822 6.18632 4.27216 6.03616Z" fill="black"/>
<path d="M1.99974 8.05493C1.98685 7.99053 1.9561 7.93106 1.91101 7.88332C1.86591 7.83557 1.8083 7.80148 1.74474 7.78493C1.68124 7.76747 1.61407 7.76855 1.55117 7.78804C1.48826 7.80753 1.43225 7.84462 1.38974 7.89493L1.25474 8.04993C1.15042 8.16188 1.07318 8.29628 1.02897 8.44277C0.984762 8.58927 0.974763 8.74396 0.999743 8.89493L1.29974 10.3649C1.32718 10.4966 1.38739 10.6192 1.47478 10.7215C1.56218 10.8238 1.67394 10.9023 1.79974 10.9499C1.92363 10.9962 2.05709 11.0108 2.18805 10.9925C2.31901 10.9741 2.44333 10.9234 2.54974 10.8449L2.63474 10.7799C2.70231 10.7315 2.75013 10.6604 2.76942 10.5795C2.78871 10.4987 2.77817 10.4136 2.73974 10.3399C2.57781 10.0087 2.43589 9.66812 2.31474 9.31993C2.17719 8.90704 2.07187 8.48411 1.99974 8.05493Z" fill="black"/>
<path d="M8.07008 8.05493C8.08297 7.99053 8.11372 7.93106 8.15881 7.88332C8.2039 7.83557 8.26152 7.80148 8.32508 7.78493C8.38858 7.76747 8.45575 7.76855 8.51865 7.78804C8.58156 7.80753 8.63757 7.84462 8.68008 7.89493L8.81508 8.04993C8.91239 8.1654 8.98229 8.30142 9.01952 8.44776C9.05676 8.59411 9.06037 8.74699 9.03008 8.89493L8.73008 10.3649C8.70263 10.4966 8.64243 10.6192 8.55504 10.7215C8.46764 10.8238 8.35588 10.9023 8.23008 10.9499C8.14066 10.9838 8.0457 11.0008 7.95008 10.9999C7.78096 10.9992 7.61642 10.945 7.48008 10.8449L7.39508 10.7799C7.32751 10.7315 7.27969 10.6604 7.2604 10.5795C7.24111 10.4987 7.25165 10.4136 7.29008 10.3399C7.46089 10.0102 7.60955 9.66943 7.73508 9.31993C7.87941 8.9076 7.99141 8.48465 8.07008 8.05493Z" fill="black"/>
<path d="M7.49404 8.68496C7.39549 9.07693 7.24054 9.45252 7.03404 9.79996C7.01998 9.81665 7.00821 9.83515 6.99904 9.85496C6.89813 9.9908 6.76698 10.1013 6.61598 10.1777C6.46497 10.254 6.29826 10.2942 6.12904 10.295H3.95404C3.78411 10.2952 3.61657 10.255 3.46528 10.1776C3.31399 10.1002 3.1833 9.98789 3.08404 9.84996C3.06958 9.83356 3.05778 9.815 3.04904 9.79496C2.84261 9.44927 2.68765 9.07534 2.58904 8.68496C2.56404 8.60496 2.54404 8.52996 2.51904 8.45996L7.56404 8.46496C7.53904 8.53496 7.51904 8.60996 7.49404 8.68496Z" fill="black"/>
</svg>
