<svg width="36" height="36" viewBox="0 0 36 36" fill="none" xmlns="http://www.w3.org/2000/svg">
<path d="M18 0C27.9411 0 36 8.05887 36 18C36 27.9411 27.9411 36 18 36C8.05887 36 0 27.9411 0 18C0 8.05887 8.05887 0 18 0ZM26.1746 6.2069C25.4335 6.21591 24.7592 6.63861 24.4261 7.30295L19.5755 6.22267L19.4869 6.20985C19.2807 6.2044 19.0843 6.3646 19.0293 6.57159L17.5165 13.4396L17.0265 13.4686C14.5923 13.6521 12.4076 14.4156 10.7426 15.5706C10.2443 15.0496 9.55464 14.7566 8.83495 14.7604C6.06879 14.7604 5.16704 18.4862 7.69352 19.7518C7.60411 20.1564 7.55866 20.5695 7.55796 20.9839C7.55796 25.163 12.2494 28.5517 18.0156 28.5517C23.8072 28.5517 28.4967 25.165 28.4967 20.9839C28.4967 20.562 28.4496 20.1244 28.3454 19.7281C30.8248 18.4566 29.9152 14.7604 27.1647 14.7604L26.9296 14.7713C26.3068 14.8279 25.7209 15.104 25.2787 15.5549C23.5047 14.3228 21.1137 13.5284 18.4596 13.4396L19.8367 7.21621L24.2257 8.20975L24.2337 8.38808C24.324 9.38634 25.1652 10.1653 26.1746 10.1653C27.2688 10.1653 28.147 9.26637 28.147 8.18609C28.147 7.10581 27.2688 6.2069 26.1746 6.2069ZM13.6345 23.996C13.8192 23.821 14.1079 23.821 14.2926 23.996C15.6796 25.4193 20.265 25.443 21.707 23.996C21.8918 23.821 22.1805 23.821 22.3652 23.996C22.5617 24.1951 22.5617 24.5046 22.3652 24.6801C20.5499 26.4937 15.4419 26.4937 13.6345 24.6801C13.438 24.5046 13.438 24.1951 13.6345 23.996ZM22.318 18.0348C23.1122 18.0292 23.8314 18.5044 24.1401 19.2386C24.4488 19.9728 24.2861 20.8213 23.7279 21.3882C23.1697 21.9551 22.3261 22.1285 21.5907 21.8276C20.8553 21.5267 20.3731 20.8108 20.3692 20.014C20.365 19.4922 20.5679 18.9902 20.9332 18.6189C21.2985 18.2476 21.7961 18.0374 22.3161 18.0348H22.318ZM13.6816 18.0348C14.7602 18.0348 15.6305 18.9179 15.6305 20.014C15.6284 21.0931 14.7571 21.9673 13.6816 21.9695C12.5992 21.975 11.7167 21.1001 11.7092 20.014C11.7092 18.9179 12.5893 18.0348 13.6816 18.0348Z" fill="#47131A"/>
</svg>
