<svg width="332" height="151" viewBox="0 0 332 151" fill="none" xmlns="http://www.w3.org/2000/svg">
<mask id="mask0_1798_29479" style="mask-type:alpha" maskUnits="userSpaceOnUse" x="0" y="0" width="332" height="151">
<path d="M0 0H332V151H0V0Z" fill="white"/>
</mask>
<g mask="url(#mask0_1798_29479)">
<path fill-rule="evenodd" clip-rule="evenodd" d="M169.594 138.65H248.606C259.58 138.65 266.047 135.552 261.33 129.368L236.963 97.4734C234.301 93.6335 229.149 91.5381 221.258 91.5381H106.598C98.707 91.5381 93.5555 93.6335 90.8925 97.4734L69.4959 125.481C63.9383 132.407 68.2759 138.65 79.2501 138.65H169.594Z" fill="#E9A02E"/>
<path fill-rule="evenodd" clip-rule="evenodd" d="M169.536 134.629H247.576C258.415 134.629 264.802 131.53 260.143 125.347L236.077 93.452C233.446 89.6121 228.359 87.5167 220.564 87.5167H107.316C99.5218 87.5167 94.4338 89.6121 91.8035 93.452L70.6702 121.46C65.181 128.385 69.4653 134.629 80.3044 134.629H169.536Z" fill="#F9D022"/>
<path fill-rule="evenodd" clip-rule="evenodd" d="M107.317 88.7235C100.143 88.7235 95.259 90.544 92.8 94.1343C92.7895 94.1493 92.7788 94.1642 92.7677 94.1792L71.6344 122.187C71.6286 122.194 71.6227 122.202 71.6168 122.21C69.5798 124.779 68.9817 127.278 69.9327 129.245C71.197 131.861 75.0746 133.422 80.3053 133.422H247.577C251.068 133.422 254.088 133.086 256.312 132.449C258.399 131.852 259.764 131.009 260.261 130.014C260.76 129.013 260.396 127.687 259.181 126.073L235.114 94.1792C235.103 94.1642 235.092 94.1493 235.082 94.1343C232.623 90.544 227.739 88.7235 220.565 88.7235H107.317ZM247.577 135.836H80.3053C74.0343 135.836 69.4616 133.816 67.7597 130.296C67.0732 128.876 66.9005 127.313 67.2465 125.65C67.5853 124.023 68.416 122.365 69.7159 120.722L90.8246 92.747C93.7649 88.476 99.3134 86.3101 107.317 86.3101H220.565C228.568 86.3101 234.116 88.4756 237.057 92.7466L261.108 124.62C261.981 125.78 262.54 126.902 262.77 127.957C263.015 129.081 262.897 130.135 262.421 131.091C261.602 132.731 259.771 133.969 256.976 134.769C254.505 135.477 251.342 135.836 247.577 135.836Z" fill="#0B0C0A"/>
<path fill-rule="evenodd" clip-rule="evenodd" d="M145.388 98.9687C145.388 99.6349 144.487 100.175 143.376 100.175C142.266 100.175 141.365 99.6349 141.365 98.9687C141.365 98.3025 142.266 97.762 143.376 97.762C144.487 97.762 145.388 98.3025 145.388 98.9687Z" fill="#0A0B09"/>
<path fill-rule="evenodd" clip-rule="evenodd" d="M141.714 116.251C140.421 120.03 136.309 123.093 132.531 123.093H82.9775C79.1989 123.093 77.1842 120.03 78.4776 116.251L78.6415 115.773C79.9349 111.994 84.0466 108.931 87.8251 108.931H137.378C141.157 108.931 143.172 111.994 141.878 115.773L141.714 116.251Z" fill="#E9A02E"/>
<path fill-rule="evenodd" clip-rule="evenodd" d="M119.216 84.887C119.216 87.0433 117.468 88.7914 115.312 88.7914H113.334C111.178 88.7914 109.43 87.0433 109.43 84.887V63.9268C109.43 61.7705 111.178 60.022 113.334 60.022L114.323 63.3404C116.479 63.3404 119.216 64.0291 119.216 66.1858V84.887Z" fill="#F9D022"/>
<path fill-rule="evenodd" clip-rule="evenodd" d="M112.476 61.3691C111.408 61.7283 110.637 62.7391 110.637 63.9269V84.8871C110.637 86.3745 111.847 87.5848 113.334 87.5848H115.312C116.799 87.5848 118.009 86.3745 118.009 84.8871V66.1859C118.009 65.9759 118.227 64.9615 117.289 64.5269C116.6 64.2079 115.38 64.5472 114.323 64.5472C113.789 64.5472 113.319 64.1965 113.167 63.6851L112.476 61.3691ZM115.312 89.9983H113.334C110.516 89.9983 108.223 87.7052 108.223 84.8871V63.9269C108.223 61.1083 110.516 58.8153 113.334 58.8153C113.868 58.8153 114.338 59.1661 114.491 59.6775L115.234 62.1708C116.066 62.2379 117.129 62.4166 118.085 62.8596C119.593 63.5576 120.423 64.7392 120.423 66.1859V84.8871C120.423 87.7052 118.13 89.9983 115.312 89.9983Z" fill="#0B0C0A"/>
<path fill-rule="evenodd" clip-rule="evenodd" d="M139.581 104.361C139.581 108.14 137.266 119.074 129.06 119.074L92.4433 111.203C88.6647 111.203 85.6017 108.14 85.6017 104.361L80.7744 92.2875C80.7744 84.7368 85.903 77.5745 91.8885 77.5745H132.739C136.518 77.5745 139.581 80.6379 139.581 84.4165V104.361Z" fill="#E9A02E"/>
<path fill-rule="evenodd" clip-rule="evenodd" d="M81.9837 92.0594L86.7231 103.914C86.78 104.056 86.8093 104.208 86.8093 104.362C86.8093 107.469 89.3371 109.996 92.4441 109.996C92.5293 109.996 92.6144 110.005 92.6977 110.023L129.185 117.866C130.762 117.841 132.186 117.334 133.418 116.36C134.535 115.477 135.511 114.21 136.32 112.594C137.946 109.346 138.375 105.788 138.375 104.362V84.4166C138.375 81.3095 135.847 78.7813 132.74 78.7813H91.8893C90.6574 78.7813 89.4316 79.1404 88.2461 79.8482C87.0905 80.5378 85.9876 81.565 85.0565 82.8189C83.1465 85.3912 82.0328 88.7472 81.9837 92.0594ZM129.061 120.28C128.976 120.28 128.891 120.272 128.808 120.254L92.3108 112.409C88.0145 112.339 84.526 108.885 84.3993 104.603L79.6546 92.7354C79.5977 92.5929 79.5684 92.4406 79.5684 92.2875C79.5684 88.3942 80.8624 84.4188 83.1187 81.3801C84.2537 79.8517 85.5625 78.6388 87.009 77.7753C88.5738 76.8417 90.2157 76.3678 91.8893 76.3678H132.74C137.178 76.3678 140.789 79.9788 140.789 84.4166V104.362C140.789 106.106 140.302 110.03 138.478 113.675C136.315 117.996 133.059 120.28 129.061 120.28Z" fill="#0B0C0A"/>
<path fill-rule="evenodd" clip-rule="evenodd" d="M134.754 112.232C134.754 116.011 131.691 119.073 127.912 119.073H87.616C83.8374 119.073 80.7744 116.011 80.7744 112.232V92.2873C80.7744 88.5083 83.8374 85.4453 87.616 85.4453H127.912C131.691 85.4453 134.754 88.5083 134.754 92.2873V112.232Z" fill="#F9D022"/>
<path fill-rule="evenodd" clip-rule="evenodd" d="M87.6167 86.6521C84.5097 86.6521 81.982 89.1798 81.982 92.2874V112.232C81.982 115.339 84.5097 117.867 87.6167 117.867H127.913C131.02 117.867 133.548 115.339 133.548 112.232V92.2874C133.548 89.1798 131.02 86.6521 127.913 86.6521H87.6167ZM127.913 120.28H87.6167C83.1788 120.28 79.5684 116.67 79.5684 112.232V92.2874C79.5684 87.8491 83.1788 84.2382 87.6167 84.2382H127.913C132.351 84.2382 135.962 87.8491 135.962 92.2874V112.232C135.962 116.67 132.351 120.28 127.913 120.28Z" fill="#0B0C0A"/>
<path fill-rule="evenodd" clip-rule="evenodd" d="M132.679 87.693C132.47 87.693 132.258 87.6387 132.065 87.524C131.492 87.1838 131.303 86.4434 131.643 85.8703L135.746 78.9532C136.086 78.3801 136.826 78.1912 137.4 78.531C137.973 78.8712 138.162 79.6115 137.822 80.1847L133.718 87.1017C133.493 87.482 133.092 87.693 132.679 87.693Z" fill="#0B0C0A"/>
<path fill-rule="evenodd" clip-rule="evenodd" d="M88.2484 102.912C88.8715 102.912 89.3765 103.417 89.3765 104.04C89.3765 104.662 88.8715 105.167 88.2484 105.167H84.8202C84.1973 105.167 83.6924 104.662 83.6924 104.04C83.6924 103.417 84.1973 102.912 84.8202 102.912H88.2484Z" fill="#E9A02E"/>
<path fill-rule="evenodd" clip-rule="evenodd" d="M88.2484 99.54C88.8715 99.54 89.3765 100.044 89.3765 100.667C89.3765 101.29 88.8715 101.795 88.2484 101.795H84.8202C84.1973 101.795 83.6924 101.29 83.6924 100.667C83.6924 100.044 84.1973 99.54 84.8202 99.54H88.2484Z" fill="#E9A02E"/>
<path fill-rule="evenodd" clip-rule="evenodd" d="M87.0928 94.0514C87.0928 93.4288 87.5978 92.9241 88.2208 92.9241C88.8435 92.9241 89.3483 93.4288 89.3483 94.0514V97.4788C89.3483 98.1009 88.8435 98.6061 88.2208 98.6061C87.5978 98.6061 87.0928 98.1009 87.0928 97.4788V94.0514Z" fill="#E9A02E"/>
<path fill-rule="evenodd" clip-rule="evenodd" d="M83.7188 94.0514C83.7188 93.4288 84.2237 92.9241 84.8466 92.9241C85.4694 92.9241 85.9743 93.4288 85.9743 94.0514V97.4788C85.9743 98.1009 85.4694 98.6061 84.8466 98.6061C84.2237 98.6061 83.7188 98.1009 83.7188 97.4788V94.0514Z" fill="#E9A02E"/>
<path fill-rule="evenodd" clip-rule="evenodd" d="M88.2484 89.6487C88.8715 89.6487 89.3765 90.1539 89.3765 90.776C89.3765 91.399 88.8715 91.9038 88.2484 91.9038H84.8202C84.1973 91.9038 83.6924 91.399 83.6924 90.776C83.6924 90.1539 84.1973 89.6487 84.8202 89.6487H88.2484Z" fill="#E9A02E"/>
<path fill-rule="evenodd" clip-rule="evenodd" d="M88.2484 112.829C88.8715 112.829 89.3765 113.333 89.3765 113.956C89.3765 114.578 88.8715 115.084 88.2484 115.084H84.8202C84.1973 115.084 83.6924 114.578 83.6924 113.956C83.6924 113.333 84.1973 112.829 84.8202 112.829H88.2484Z" fill="#E9A02E"/>
<path fill-rule="evenodd" clip-rule="evenodd" d="M87.0928 107.34C87.0928 106.717 87.5978 106.212 88.2208 106.212C88.8435 106.212 89.3483 106.717 89.3483 107.34V110.767C89.3483 111.39 88.8435 111.894 88.2208 111.894C87.5978 111.894 87.0928 111.39 87.0928 110.767V107.34Z" fill="#E9A02E"/>
<path fill-rule="evenodd" clip-rule="evenodd" d="M83.7188 107.34C83.7188 106.717 84.2237 106.212 84.8466 106.212C85.4694 106.212 85.9743 106.717 85.9743 107.34V110.767C85.9743 111.39 85.4694 111.894 84.8466 111.894C84.2237 111.894 83.7188 111.39 83.7188 110.767V107.34Z" fill="#E9A02E"/>
<path fill-rule="evenodd" clip-rule="evenodd" d="M95.2848 109.6C95.9078 109.6 96.4127 110.105 96.4127 110.727C96.4127 111.349 95.9078 111.854 95.2848 111.854H91.8563C91.2335 111.854 90.7285 111.349 90.7285 110.727C90.7285 110.105 91.2335 109.6 91.8563 109.6H95.2848Z" fill="#E9A02E"/>
<path fill-rule="evenodd" clip-rule="evenodd" d="M95.2848 106.227C95.9078 106.227 96.4127 106.732 96.4127 107.355C96.4127 107.977 95.9078 108.482 95.2848 108.482H91.8563C91.2335 108.482 90.7285 107.977 90.7285 107.355C90.7285 106.732 91.2335 106.227 91.8563 106.227H95.2848Z" fill="#E9A02E"/>
<path fill-rule="evenodd" clip-rule="evenodd" d="M94.1289 100.739C94.1289 100.116 94.6339 99.6112 95.2568 99.6112C95.8797 99.6112 96.3846 100.116 96.3846 100.739V104.166C96.3846 104.788 95.8797 105.293 95.2568 105.293C94.6339 105.293 94.1289 104.788 94.1289 104.166V100.739Z" fill="#E9A02E"/>
<path fill-rule="evenodd" clip-rule="evenodd" d="M90.7559 100.739C90.7559 100.116 91.2608 99.6112 91.8837 99.6112C92.5067 99.6112 93.0116 100.116 93.0116 100.739V104.166C93.0116 104.788 92.5067 105.293 91.8837 105.293C91.2608 105.293 90.7559 104.788 90.7559 104.166V100.739Z" fill="#E9A02E"/>
<path fill-rule="evenodd" clip-rule="evenodd" d="M95.2848 96.3359C95.9078 96.3359 96.4127 96.8411 96.4127 97.4632C96.4127 98.0862 95.9078 98.591 95.2848 98.591H91.8563C91.2335 98.591 90.7285 98.0862 90.7285 97.4632C90.7285 96.8411 91.2335 96.3359 91.8563 96.3359H95.2848Z" fill="#E9A02E"/>
<path fill-rule="evenodd" clip-rule="evenodd" d="M95.2848 92.9241C95.9078 92.9241 96.4127 93.4288 96.4127 94.0514C96.4127 94.674 95.9078 95.1787 95.2848 95.1787H91.8563C91.2335 95.1787 90.7285 94.674 90.7285 94.0514C90.7285 93.4288 91.2335 92.9241 91.8563 92.9241H95.2848Z" fill="#E9A02E"/>
<path fill-rule="evenodd" clip-rule="evenodd" d="M94.1289 114.027C94.1289 113.405 94.6339 112.899 95.2568 112.899C95.8797 112.899 96.3846 113.405 96.3846 114.027V116.012C95.7601 116.012 94.8902 116.012 94.1289 116.012V114.027Z" fill="#E9A02E"/>
<path fill-rule="evenodd" clip-rule="evenodd" d="M90.7559 114.027C90.7559 113.405 91.2608 112.899 91.8837 112.899C92.5067 112.899 93.0116 113.405 93.0116 114.027V116.012C92.1939 116.012 91.7239 116.012 90.7559 116.012V114.027Z" fill="#E9A02E"/>
<path fill-rule="evenodd" clip-rule="evenodd" d="M93.0116 90.7761C93.0116 91.3986 92.5064 91.9038 91.8837 91.9038C91.2608 91.9038 90.7559 91.3986 90.7559 90.7761V88.791C91.3803 88.791 92.2502 88.791 93.0116 88.791V90.7761Z" fill="#E9A02E"/>
<path fill-rule="evenodd" clip-rule="evenodd" d="M96.3846 90.7761C96.3846 91.3986 95.8797 91.9038 95.2568 91.9038C94.6339 91.9038 94.1289 91.3986 94.1289 90.7761V88.791C94.9465 88.791 95.4165 88.791 96.3846 88.791V90.7761Z" fill="#E9A02E"/>
<path fill-rule="evenodd" clip-rule="evenodd" d="M102.553 102.912C103.176 102.912 103.681 103.417 103.681 104.04C103.681 104.662 103.176 105.167 102.553 105.167H99.1251C98.5019 105.167 97.9971 104.662 97.9971 104.04C97.9971 103.417 98.5019 102.912 99.1251 102.912H102.553Z" fill="#E9A02E"/>
<path fill-rule="evenodd" clip-rule="evenodd" d="M102.553 99.54C103.176 99.54 103.681 100.044 103.681 100.667C103.681 101.29 103.176 101.795 102.553 101.795H99.1251C98.5019 101.795 97.9971 101.29 97.9971 100.667C97.9971 100.044 98.5019 99.54 99.1251 99.54H102.553Z" fill="#E9A02E"/>
<path fill-rule="evenodd" clip-rule="evenodd" d="M101.397 94.0514C101.397 93.4288 101.903 92.9241 102.526 92.9241C103.148 92.9241 103.653 93.4288 103.653 94.0514V97.4788C103.653 98.1009 103.148 98.6061 102.526 98.6061C101.903 98.6061 101.397 98.1009 101.397 97.4788V94.0514Z" fill="#E9A02E"/>
<path fill-rule="evenodd" clip-rule="evenodd" d="M98.0244 94.0514C98.0244 93.4288 98.5293 92.9241 99.1522 92.9241C99.7748 92.9241 100.28 93.4288 100.28 94.0514V97.4788C100.28 98.1009 99.7748 98.6061 99.1522 98.6061C98.5293 98.6061 98.0244 98.1009 98.0244 97.4788V94.0514Z" fill="#E9A02E"/>
<path fill-rule="evenodd" clip-rule="evenodd" d="M102.553 89.6487C103.176 89.6487 103.681 90.1539 103.681 90.776C103.681 91.399 103.176 91.9038 102.553 91.9038H99.1251C98.5019 91.9038 97.9971 91.399 97.9971 90.776C97.9971 90.1539 98.5019 89.6487 99.1251 89.6487H102.553Z" fill="#E9A02E"/>
<path fill-rule="evenodd" clip-rule="evenodd" d="M102.553 112.829C103.176 112.829 103.681 113.333 103.681 113.956C103.681 114.578 103.176 115.084 102.553 115.084H99.1251C98.5019 115.084 97.9971 114.578 97.9971 113.956C97.9971 113.333 98.5019 112.829 99.1251 112.829H102.553Z" fill="#E9A02E"/>
<path fill-rule="evenodd" clip-rule="evenodd" d="M101.397 107.34C101.397 106.717 101.903 106.212 102.526 106.212C103.148 106.212 103.653 106.717 103.653 107.34V110.767C103.653 111.39 103.148 111.894 102.526 111.894C101.903 111.894 101.397 111.39 101.397 110.767V107.34Z" fill="#E9A02E"/>
<path fill-rule="evenodd" clip-rule="evenodd" d="M98.0244 107.34C98.0244 106.717 98.5293 106.212 99.1522 106.212C99.7748 106.212 100.28 106.717 100.28 107.34V110.767C100.28 111.39 99.7748 111.894 99.1522 111.894C98.5293 111.894 98.0244 111.39 98.0244 110.767V107.34Z" fill="#E9A02E"/>
<path fill-rule="evenodd" clip-rule="evenodd" d="M109.59 109.6C110.213 109.6 110.717 110.105 110.717 110.727C110.717 111.349 110.213 111.854 109.59 111.854H106.161C105.538 111.854 105.033 111.349 105.033 110.727C105.033 110.105 105.538 109.6 106.161 109.6H109.59Z" fill="#E9A02E"/>
<path fill-rule="evenodd" clip-rule="evenodd" d="M109.59 106.227C110.213 106.227 110.717 106.732 110.717 107.355C110.717 107.977 110.213 108.482 109.59 108.482H106.161C105.538 108.482 105.033 107.977 105.033 107.355C105.033 106.732 105.538 106.227 106.161 106.227H109.59Z" fill="#E9A02E"/>
<path fill-rule="evenodd" clip-rule="evenodd" d="M108.434 100.739C108.434 100.116 108.939 99.6112 109.562 99.6112C110.184 99.6112 110.69 100.116 110.69 100.739V104.166C110.69 104.788 110.184 105.293 109.562 105.293C108.939 105.293 108.434 104.788 108.434 104.166V100.739Z" fill="#E9A02E"/>
<path fill-rule="evenodd" clip-rule="evenodd" d="M105.062 100.739C105.062 100.116 105.566 99.6112 106.189 99.6112C106.812 99.6112 107.317 100.116 107.317 100.739V104.166C107.317 104.788 106.812 105.293 106.189 105.293C105.566 105.293 105.062 104.788 105.062 104.166V100.739Z" fill="#E9A02E"/>
<path fill-rule="evenodd" clip-rule="evenodd" d="M109.59 96.3359C110.213 96.3359 110.717 96.8411 110.717 97.4632C110.717 98.0862 110.213 98.591 109.59 98.591H106.161C105.538 98.591 105.033 98.0862 105.033 97.4632C105.033 96.8411 105.538 96.3359 106.161 96.3359H109.59Z" fill="#E9A02E"/>
<path fill-rule="evenodd" clip-rule="evenodd" d="M109.59 92.9241C110.213 92.9241 110.717 93.4288 110.717 94.0514C110.717 94.674 110.213 95.1787 109.59 95.1787H106.161C105.538 95.1787 105.033 94.674 105.033 94.0514C105.033 93.4288 105.538 92.9241 106.161 92.9241H109.59Z" fill="#E9A02E"/>
<path fill-rule="evenodd" clip-rule="evenodd" d="M108.434 114.027C108.434 113.405 108.939 112.899 109.562 112.899C110.184 112.899 110.69 113.405 110.69 114.027V116.012C110.065 116.012 109.195 116.012 108.434 116.012V114.027Z" fill="#E9A02E"/>
<path fill-rule="evenodd" clip-rule="evenodd" d="M105.062 114.027C105.062 113.405 105.566 112.899 106.189 112.899C106.812 112.899 107.317 113.405 107.317 114.027V116.012C106.499 116.012 106.03 116.012 105.062 116.012V114.027Z" fill="#E9A02E"/>
<path fill-rule="evenodd" clip-rule="evenodd" d="M107.317 90.7761C107.317 91.3986 106.812 91.9038 106.189 91.9038C105.566 91.9038 105.062 91.3986 105.062 90.7761V88.791C105.686 88.791 106.555 88.791 107.317 88.791V90.7761Z" fill="#E9A02E"/>
<path fill-rule="evenodd" clip-rule="evenodd" d="M110.69 90.7761C110.69 91.3986 110.184 91.9038 109.561 91.9038C108.939 91.9038 108.434 91.3986 108.434 90.7761V88.791C109.252 88.791 109.722 88.791 110.69 88.791V90.7761Z" fill="#E9A02E"/>
<path fill-rule="evenodd" clip-rule="evenodd" d="M116.858 102.912C117.481 102.912 117.986 103.417 117.986 104.04C117.986 104.662 117.481 105.167 116.858 105.167H113.43C112.807 105.167 112.302 104.662 112.302 104.04C112.302 103.417 112.807 102.912 113.43 102.912H116.858Z" fill="#E9A02E"/>
<path fill-rule="evenodd" clip-rule="evenodd" d="M116.858 99.54C117.481 99.54 117.986 100.044 117.986 100.667C117.986 101.29 117.481 101.795 116.858 101.795H113.43C112.807 101.795 112.302 101.29 112.302 100.667C112.302 100.044 112.807 99.54 113.43 99.54H116.858Z" fill="#E9A02E"/>
<path fill-rule="evenodd" clip-rule="evenodd" d="M115.702 94.0514C115.702 93.4288 116.207 92.9241 116.83 92.9241C117.453 92.9241 117.958 93.4288 117.958 94.0514V97.4788C117.958 98.1009 117.453 98.6061 116.83 98.6061C116.207 98.6061 115.702 98.1009 115.702 97.4788V94.0514Z" fill="#E9A02E"/>
<path fill-rule="evenodd" clip-rule="evenodd" d="M112.33 94.0514C112.33 93.4288 112.835 92.9241 113.458 92.9241C114.08 92.9241 114.586 93.4288 114.586 94.0514V97.4788C114.586 98.1009 114.08 98.6061 113.458 98.6061C112.835 98.6061 112.33 98.1009 112.33 97.4788V94.0514Z" fill="#E9A02E"/>
<path fill-rule="evenodd" clip-rule="evenodd" d="M116.858 89.6487C117.481 89.6487 117.986 90.1539 117.986 90.776C117.986 91.399 117.481 91.9038 116.858 91.9038H113.43C112.807 91.9038 112.302 91.399 112.302 90.776C112.302 90.1539 112.807 89.6487 113.43 89.6487H116.858Z" fill="#E9A02E"/>
<path fill-rule="evenodd" clip-rule="evenodd" d="M116.858 112.829C117.481 112.829 117.986 113.333 117.986 113.956C117.986 114.578 117.481 115.084 116.858 115.084H113.43C112.807 115.084 112.302 114.578 112.302 113.956C112.302 113.333 112.807 112.829 113.43 112.829H116.858Z" fill="#E9A02E"/>
<path fill-rule="evenodd" clip-rule="evenodd" d="M115.702 107.34C115.702 106.717 116.207 106.212 116.83 106.212C117.453 106.212 117.958 106.717 117.958 107.34V110.767C117.958 111.39 117.453 111.894 116.83 111.894C116.207 111.894 115.702 111.39 115.702 110.767V107.34Z" fill="#E9A02E"/>
<path fill-rule="evenodd" clip-rule="evenodd" d="M112.33 107.34C112.33 106.717 112.835 106.212 113.458 106.212C114.08 106.212 114.586 106.717 114.586 107.34V110.767C114.586 111.39 114.08 111.894 113.458 111.894C112.835 111.894 112.33 111.39 112.33 110.767V107.34Z" fill="#E9A02E"/>
<path fill-rule="evenodd" clip-rule="evenodd" d="M130.777 102.341C131.4 102.341 131.905 102.846 131.905 103.468C131.905 104.091 131.4 104.596 130.777 104.596H127.348C126.725 104.596 126.221 104.091 126.221 103.468C126.221 102.846 126.725 102.341 127.348 102.341H130.777Z" fill="#E9A02E"/>
<path fill-rule="evenodd" clip-rule="evenodd" d="M130.777 98.9688C131.4 98.9688 131.905 99.4735 131.905 100.096C131.905 100.719 131.4 101.224 130.777 101.224H127.348C126.725 101.224 126.221 100.719 126.221 100.096C126.221 99.4735 126.725 98.9688 127.348 98.9688H130.777Z" fill="#E9A02E"/>
<path fill-rule="evenodd" clip-rule="evenodd" d="M129.621 93.48C129.621 92.8574 130.126 92.3527 130.749 92.3527C131.372 92.3527 131.877 92.8574 131.877 93.48V96.9074C131.877 97.5295 131.372 98.0347 130.749 98.0347C130.126 98.0347 129.621 97.5295 129.621 96.9074V93.48Z" fill="#E9A02E"/>
<path fill-rule="evenodd" clip-rule="evenodd" d="M126.248 93.48C126.248 92.8574 126.753 92.3527 127.376 92.3527C127.999 92.3527 128.504 92.8574 128.504 93.48V96.9074C128.504 97.5295 127.999 98.0347 127.376 98.0347C126.753 98.0347 126.248 97.5295 126.248 96.9074V93.48Z" fill="#E9A02E"/>
<path fill-rule="evenodd" clip-rule="evenodd" d="M130.777 89.0778C131.4 89.0778 131.905 89.5825 131.905 90.2046C131.905 90.8276 131.4 91.3324 130.777 91.3324H127.348C126.725 91.3324 126.221 90.8276 126.221 90.2046C126.221 89.5825 126.725 89.0778 127.348 89.0778H130.777Z" fill="#E9A02E"/>
<path fill-rule="evenodd" clip-rule="evenodd" d="M130.777 112.257C131.4 112.257 131.905 112.762 131.905 113.385C131.905 114.007 131.4 114.512 130.777 114.512H127.348C126.725 114.512 126.221 114.007 126.221 113.385C126.221 112.762 126.725 112.257 127.348 112.257H130.777Z" fill="#E9A02E"/>
<path fill-rule="evenodd" clip-rule="evenodd" d="M129.621 106.769C129.621 106.146 130.126 105.641 130.749 105.641C131.372 105.641 131.877 106.146 131.877 106.769V110.196C131.877 110.818 131.372 111.323 130.749 111.323C130.126 111.323 129.621 110.818 129.621 110.196V106.769Z" fill="#E9A02E"/>
<path fill-rule="evenodd" clip-rule="evenodd" d="M126.248 106.769C126.248 106.146 126.753 105.641 127.376 105.641C127.999 105.641 128.504 106.146 128.504 106.769V110.196C128.504 110.818 127.999 111.323 127.376 111.323C126.753 111.323 126.248 110.818 126.248 110.196V106.769Z" fill="#E9A02E"/>
<path fill-rule="evenodd" clip-rule="evenodd" d="M123.894 109.6C124.517 109.6 125.022 110.105 125.022 110.727C125.022 111.349 124.517 111.854 123.894 111.854H120.466C119.843 111.854 119.338 111.349 119.338 110.727C119.338 110.105 119.843 109.6 120.466 109.6H123.894Z" fill="#E9A02E"/>
<path fill-rule="evenodd" clip-rule="evenodd" d="M123.894 106.227C124.517 106.227 125.022 106.732 125.022 107.355C125.022 107.977 124.517 108.482 123.894 108.482H120.466C119.843 108.482 119.338 107.977 119.338 107.355C119.338 106.732 119.843 106.227 120.466 106.227H123.894Z" fill="#E9A02E"/>
<path fill-rule="evenodd" clip-rule="evenodd" d="M122.739 100.739C122.739 100.116 123.244 99.6112 123.867 99.6112C124.49 99.6112 124.995 100.116 124.995 100.739V104.166C124.995 104.788 124.49 105.293 123.867 105.293C123.244 105.293 122.739 104.788 122.739 104.166V100.739Z" fill="#E9A02E"/>
<path fill-rule="evenodd" clip-rule="evenodd" d="M119.366 100.739C119.366 100.116 119.871 99.6112 120.494 99.6112C121.117 99.6112 121.622 100.116 121.622 100.739V104.166C121.622 104.788 121.117 105.293 120.494 105.293C119.871 105.293 119.366 104.788 119.366 104.166V100.739Z" fill="#E9A02E"/>
<path fill-rule="evenodd" clip-rule="evenodd" d="M123.894 96.3359C124.517 96.3359 125.022 96.8411 125.022 97.4632C125.022 98.0862 124.517 98.591 123.894 98.591H120.466C119.843 98.591 119.338 98.0862 119.338 97.4632C119.338 96.8411 119.843 96.3359 120.466 96.3359H123.894Z" fill="#E9A02E"/>
<path fill-rule="evenodd" clip-rule="evenodd" d="M123.894 92.9241C124.517 92.9241 125.022 93.4288 125.022 94.0514C125.022 94.674 124.517 95.1787 123.894 95.1787H120.466C119.843 95.1787 119.338 94.674 119.338 94.0514C119.338 93.4288 119.843 92.9241 120.466 92.9241H123.894Z" fill="#E9A02E"/>
<path fill-rule="evenodd" clip-rule="evenodd" d="M122.739 114.027C122.739 113.405 123.244 112.899 123.867 112.899C124.49 112.899 124.995 113.405 124.995 114.027V116.012C124.37 116.012 123.5 116.012 122.739 116.012V114.027Z" fill="#E9A02E"/>
<path fill-rule="evenodd" clip-rule="evenodd" d="M119.366 114.027C119.366 113.405 119.871 112.899 120.494 112.899C121.117 112.899 121.622 113.405 121.622 114.027V116.012C120.804 116.012 120.334 116.012 119.366 116.012V114.027Z" fill="#E9A02E"/>
<path fill-rule="evenodd" clip-rule="evenodd" d="M121.622 90.7761C121.622 91.3986 121.117 91.9038 120.494 91.9038C119.871 91.9038 119.366 91.3986 119.366 90.7761V88.791C119.991 88.791 120.86 88.791 121.622 88.791V90.7761Z" fill="#E9A02E"/>
<path fill-rule="evenodd" clip-rule="evenodd" d="M124.995 90.7761C124.995 91.3986 124.49 91.9038 123.867 91.9038C123.244 91.9038 122.739 91.3986 122.739 90.7761V88.791C123.557 88.791 124.027 88.791 124.995 88.791V90.7761Z" fill="#E9A02E"/>
<path fill-rule="evenodd" clip-rule="evenodd" d="M110.179 90.7761C110.179 91.7874 109.359 92.6072 108.349 92.6072C107.337 92.6072 106.518 91.7874 106.518 90.7761C106.518 89.7653 107.337 88.9459 108.349 88.9459C109.359 88.9459 110.179 89.7653 110.179 90.7761Z" fill="#0B0C0A"/>
<path fill-rule="evenodd" clip-rule="evenodd" d="M91.891 80.5835C91.891 81.0309 91.5283 81.3936 91.0808 81.3936C90.6333 81.3936 90.2705 81.0309 90.2705 80.5835C90.2705 80.1361 90.6333 79.7729 91.0808 79.7729C91.5283 79.7729 91.891 80.1361 91.891 80.5835Z" fill="#FFFFFE"/>
<path fill-rule="evenodd" clip-rule="evenodd" d="M132.381 80.6174C132.381 81.0463 132.033 81.3935 131.605 81.3935H93.9986C93.5701 81.3935 93.2227 81.0463 93.2227 80.6174C93.2227 80.189 93.5701 79.8413 93.9986 79.8413H131.605C132.033 79.8413 132.381 80.189 132.381 80.6174Z" fill="#FFFFFE"/>
<path fill-rule="evenodd" clip-rule="evenodd" d="M87.3664 88.9853C87.3664 89.4547 86.986 89.835 86.5167 89.835C86.0474 89.835 85.667 89.4547 85.667 88.9853C85.667 88.5158 86.0474 88.1355 86.5167 88.1355C86.986 88.1355 87.3664 88.5158 87.3664 88.9853Z" fill="#FFFFFE"/>
<path fill-rule="evenodd" clip-rule="evenodd" d="M129.831 89.0208C129.831 89.4704 129.466 89.8349 129.017 89.8349H89.5786C89.1291 89.8349 88.7646 89.4704 88.7646 89.0208C88.7646 88.5712 89.1291 88.2068 89.5786 88.2068H129.017C129.466 88.2068 129.831 88.5712 129.831 89.0208Z" fill="#FFFFFE"/>
<path fill-rule="evenodd" clip-rule="evenodd" d="M112.226 59.3016C104.238 59.3016 103.436 63.9508 103.436 71.531V91.9455C103.436 94.1013 105.184 95.8499 107.34 95.8499H109.317C111.474 95.8499 113.222 94.1013 113.222 91.9455V72.0538C113.222 68.2479 113.273 66.9568 114.034 65.6455L119.216 65.7426C119.216 58.9685 112.226 59.3016 112.226 59.3016Z" fill="#F9D022"/>
<path fill-rule="evenodd" clip-rule="evenodd" d="M109.317 97.0566H107.34C104.522 97.0566 102.229 94.7635 102.229 91.9454V71.531C102.229 67.3244 102.489 64.2592 103.786 61.9776C104.539 60.6531 105.582 59.6956 106.976 59.0515C108.362 58.4099 110.072 58.0971 112.202 58.0949C112.604 58.0817 115.983 58.0397 118.303 60.2511C119.709 61.592 120.422 63.4398 120.422 65.7426C120.422 66.4093 119.882 66.9493 119.216 66.9493C118.549 66.9493 118.009 66.4093 118.009 65.7426C118.009 64.1317 117.551 62.8755 116.648 62.0081C114.99 60.4166 112.306 60.5062 112.279 60.5075C112.259 60.5084 112.244 60.5084 112.225 60.5084C108.886 60.5084 106.93 61.3295 105.884 63.1703C105.138 64.482 104.642 66.4058 104.642 71.531V91.9454C104.642 93.4328 105.852 94.6431 107.34 94.6431H109.317C110.805 94.6431 112.015 93.4328 112.015 91.9454V72.0538C112.015 68.2598 112.052 66.6559 112.99 65.0397C113.325 64.4635 114.063 64.2671 114.64 64.6016C115.216 64.9365 115.412 65.6746 115.078 66.2513C114.492 67.26 114.428 68.318 114.428 72.0538V91.9454C114.428 94.7635 112.136 97.0566 109.317 97.0566Z" fill="#0B0C0A"/>
<path fill-rule="evenodd" clip-rule="evenodd" d="M108.374 77.1357C108.307 73.8164 108.282 71.0235 108.761 66.1233C108.954 64.1426 106.949 64.4907 106.61 66.1272C105.92 69.4488 106.063 73.1047 105.923 77.1684C105.825 80.0028 108.433 80.0372 108.374 77.1357Z" fill="#FFFFFE"/>
<path fill-rule="evenodd" clip-rule="evenodd" d="M109.787 64.3645C110.379 64.3984 110.887 63.9458 110.921 63.3537C110.954 62.7611 110.502 62.2546 109.909 62.2211C109.317 62.1867 108.81 62.6393 108.776 63.2314C108.742 63.8235 109.195 64.3314 109.787 64.3645Z" fill="#FFFFFE"/>
<path fill-rule="evenodd" clip-rule="evenodd" d="M251.041 117.492C251.041 123.119 227.793 127.68 199.114 127.68C170.436 127.68 147.188 123.119 147.188 117.492C147.188 111.866 170.436 107.305 199.114 107.305C227.793 107.305 251.041 111.866 251.041 117.492Z" fill="#E9A02E"/>
<path fill-rule="evenodd" clip-rule="evenodd" d="M235.353 118.02C235.353 118.02 260.363 120.222 256.193 108.096C254.21 102.327 245.209 108.233 244.323 108.802C244.323 108.802 219.588 116.52 235.353 118.02Z" fill="#F9D022"/>
<path fill-rule="evenodd" clip-rule="evenodd" d="M235.462 116.818C235.598 116.83 239.463 117.151 243.772 116.818C246.295 116.623 248.47 116.245 250.236 115.696C252.311 115.05 253.787 114.181 254.622 113.113C255.567 111.905 255.707 110.392 255.053 108.489C254.772 107.673 254.332 107.186 253.667 106.955C252.581 106.579 250.892 106.857 248.78 107.759C247.582 108.271 246.319 108.953 245.025 109.785L244.974 109.818C244.883 109.876 244.785 109.922 244.682 109.954C244.65 109.964 241.387 110.986 238.054 112.331C233.061 114.345 231.743 115.528 231.407 115.947C231.75 116.15 232.753 116.56 235.462 116.818ZM239.64 119.385C237.13 119.385 235.358 119.232 235.247 119.223C235.245 119.222 235.242 119.222 235.239 119.222C233.339 119.041 231.934 118.768 230.944 118.386C229.687 117.902 229 117.183 228.903 116.248C228.743 114.713 230.347 113.531 231.567 112.775C232.79 112.017 234.498 111.184 236.644 110.299C239.864 108.971 243.062 107.936 243.806 107.699C246.394 106.046 251.133 103.521 254.458 104.675C255.821 105.148 256.816 106.196 257.335 107.704C257.804 109.067 257.965 110.351 257.815 111.523C257.669 112.655 257.234 113.69 256.523 114.6C254.502 117.185 250.263 118.741 243.925 119.227C242.387 119.345 240.918 119.385 239.64 119.385Z" fill="#0B0C0A"/>
<path fill-rule="evenodd" clip-rule="evenodd" d="M245.251 54.0219C238.329 30.8856 217.206 29.0651 217.206 29.0651C217.206 29.0651 216.649 24.8064 214.16 20.4453C210.313 20.4277 205.684 27.6497 205.684 27.6497H186.655C186.655 27.6497 182.026 20.4277 178.179 20.4453C175.69 24.8064 175.133 29.0651 175.133 29.0651C175.133 29.0651 153.209 30.8856 147.088 54.0228C145.351 60.5864 143.376 81.5326 143.376 91.6206C143.376 108.816 153.166 119.379 170.634 120.081L179.737 120.222C182.561 120.222 209.959 120.222 212.711 120.222L221.705 120.081C239.173 119.379 248.963 108.816 248.963 91.6206C248.963 81.5326 247.197 60.5273 245.251 54.0219Z" fill="url(#paint0_radial_1798_29479)"/>
<path fill-rule="evenodd" clip-rule="evenodd" d="M212.711 121.429C212.71 121.429 212.71 121.429 212.71 121.429C209.877 121.428 182.501 121.429 179.737 121.429C179.731 121.429 179.724 121.429 179.718 121.429L170.615 121.288C170.605 121.288 170.595 121.287 170.585 121.287C166.134 121.108 162.087 120.297 158.555 118.875C155.042 117.462 152.022 115.441 149.579 112.866C147.147 110.306 145.284 107.195 144.039 103.62C142.798 100.057 142.169 96.0201 142.169 91.6207C142.169 86.7505 142.621 79.1853 143.379 71.3836C144.166 63.2863 145.092 56.8462 145.921 53.714C147.363 48.2605 149.79 43.505 153.133 39.5794C155.812 36.4348 159.076 33.8184 162.836 31.8038C167.774 29.1573 172.221 28.2594 174.098 27.9788C174.406 26.4319 175.228 23.1814 177.13 19.8475C177.344 19.4729 177.742 19.2409 178.173 19.2386C178.179 19.2386 178.186 19.2386 178.193 19.2386C180.14 19.2386 182.347 20.5813 184.753 23.2295C185.901 24.4932 186.815 25.7467 187.298 26.4429H205.041C205.524 25.7467 206.438 24.4932 207.586 23.2295C209.992 20.5813 212.199 19.2386 214.146 19.2386C214.153 19.2386 214.159 19.2386 214.166 19.2386C214.597 19.2409 214.994 19.4729 215.208 19.8475C217.113 23.1845 217.934 26.4385 218.242 27.9832C220.075 28.2691 224.371 29.1728 229.21 31.8073C232.906 33.8206 236.154 36.4335 238.862 39.5733C242.241 43.49 244.779 48.2349 246.407 53.676C248.447 60.4969 250.169 81.8344 250.169 91.6207C250.169 96.0201 249.54 100.057 248.3 103.62C247.055 107.195 245.191 110.306 242.76 112.866C240.316 115.441 237.296 117.462 233.784 118.875C230.252 120.297 226.204 121.108 221.753 121.287C221.088 121.315 220.526 120.796 220.499 120.129C220.472 119.464 220.99 118.902 221.656 118.875C225.83 118.707 229.608 117.954 232.883 116.636C236.072 115.353 238.805 113.526 241.009 111.205C243.203 108.894 244.889 106.075 246.02 102.826C247.172 99.5195 247.756 95.7492 247.756 91.6207C247.756 86.6622 247.326 78.9872 246.635 71.5901C245.881 63.5206 244.955 57.2433 244.094 54.3679C242.565 49.2545 240.189 44.8075 237.035 41.1497C234.517 38.2311 231.496 35.8008 228.055 33.9269C222.199 30.7378 217.152 30.2718 217.102 30.2674C216.537 30.2189 216.082 29.7834 216.009 29.2213C216.004 29.1847 215.506 25.5825 213.497 21.7483C212.371 22.0603 210.944 23.1267 209.393 24.8294C207.837 26.5378 206.71 28.2841 206.699 28.3018C206.477 28.6473 206.094 28.8568 205.683 28.8568H186.655C186.244 28.8568 185.861 28.6473 185.639 28.3014C185.628 28.2841 184.501 26.5378 182.945 24.8294C181.394 23.1267 179.967 22.0603 178.841 21.7483C176.832 25.5825 176.335 29.1847 176.33 29.2226C176.255 29.7852 175.798 30.2207 175.233 30.2679C175.181 30.2723 169.853 30.759 163.89 33.9772C160.414 35.8529 157.4 38.28 154.931 41.1912C151.845 44.8309 149.598 49.2515 148.254 54.3312C147.469 57.2989 146.545 63.761 145.782 71.617C145.031 79.3455 144.582 86.8237 144.582 91.6207C144.582 95.7492 145.167 99.5195 146.318 102.826C147.449 106.075 149.135 108.894 151.329 111.205C153.533 113.526 156.267 115.353 159.456 116.636C162.727 117.952 166.499 118.706 170.668 118.875L179.745 119.015C182.557 119.015 209.881 119.014 212.711 119.015C213.377 119.016 213.917 119.556 213.917 120.223C213.917 120.889 213.377 121.429 212.711 121.429Z" fill="#0B0C0A"/>
<path fill-rule="evenodd" clip-rule="evenodd" d="M172.649 111.912C172.193 117.672 172.191 119.918 172.215 120.151C185.912 120.151 196.391 120.151 196.391 120.151C196.391 120.151 199.449 120.151 213.147 120.151C215.583 116.112 216.826 113.249 220.132 111.912C220.132 86.2788 173.725 85.463 172.649 111.912Z" fill="#FE7825"/>
<path fill-rule="evenodd" clip-rule="evenodd" d="M172.649 111.912C172.193 117.672 172.191 119.918 172.215 120.151C185.912 120.151 196.391 120.151 196.391 120.151C196.391 120.151 199.449 120.151 213.147 120.151C215.583 116.112 216.826 113.249 220.132 111.912C220.132 86.2788 173.725 85.463 172.649 111.912Z" fill="url(#paint1_linear_1798_29479)"/>
<path fill-rule="evenodd" clip-rule="evenodd" d="M224.025 111.101C218.069 110.571 213.697 117.754 213.211 120.587C212.475 124.879 218.389 126.528 219.539 123.196C222.542 115.25 227.718 119.254 227.718 119.254L224.025 111.101Z" fill="#F9D022"/>
<path fill-rule="evenodd" clip-rule="evenodd" d="M216.92 126.174C216.513 126.174 216.098 126.122 215.688 126.016C214.541 125.722 213.536 125.054 212.857 124.135C212.071 123.071 211.782 121.774 212.021 120.383C212.17 119.516 212.59 118.408 213.205 117.264C213.875 116.016 214.729 114.808 215.674 113.77C216.813 112.52 218.047 111.55 219.341 110.887C220.901 110.088 222.513 109.755 224.132 109.899C224.796 109.958 225.287 110.544 225.227 111.208C225.168 111.872 224.581 112.362 223.918 112.303C222.382 112.166 220.013 112.592 217.458 115.396C215.752 117.269 214.609 119.574 214.399 120.792C214.088 122.608 215.44 123.461 216.287 123.678C217.869 124.084 218.323 123.02 218.398 122.802C218.402 122.791 218.406 122.78 218.41 122.769C219.574 119.687 221.226 117.825 223.318 117.233C226.04 116.464 228.358 118.224 228.456 118.299L226.979 120.208L226.985 120.213C226.971 120.202 225.5 119.113 223.958 119.561C222.671 119.933 221.536 121.333 220.673 123.607C220.31 124.646 219.563 125.445 218.568 125.857C218.062 126.067 217.499 126.174 216.92 126.174Z" fill="#0B0C0A"/>
<g style="mix-blend-mode:soft-light">
<path fill-rule="evenodd" clip-rule="evenodd" d="M199.575 92.6866C199.575 92.6866 216.886 92.6866 227.743 111.073C233.777 110.337 247.284 99.5215 247.606 86.8099C248.945 100.844 244.147 114.647 228.378 118.348C224.506 115.361 220.413 117.624 218.241 123.175C217.416 124.472 215.043 123.268 218.65 118.02C220.132 115.864 222.268 113.748 225.359 114.011C226.381 113.547 224.917 110.682 223.827 110.262C222.792 109.864 220.643 110.336 219.633 110.67C219.079 103.223 213.413 94.5406 199.575 92.6866Z" fill="black"/>
</g>
<g style="mix-blend-mode:soft-light">
<path fill-rule="evenodd" clip-rule="evenodd" d="M164.024 118.348C148.255 114.647 143.457 100.844 144.796 86.8099C145.118 99.5215 158.625 110.337 164.659 111.073C175.516 92.6866 192.827 92.6866 192.827 92.6866C178.99 94.5406 173.323 103.223 172.769 110.67C172.769 110.67 172.356 116.01 172.217 119.184C169.501 118.398 164.024 118.348 164.024 118.348Z" fill="black"/>
</g>
<path fill-rule="evenodd" clip-rule="evenodd" d="M201.689 59.5098C201.389 59.5729 201.196 59.865 201.259 60.165C201.26 60.1729 201.408 60.9733 200.899 61.5906C200.438 62.1492 199.573 62.432 198.328 62.432C197.937 62.432 197.595 62.3499 197.363 62.2004C197.201 62.0949 196.99 61.9021 196.955 61.4317C196.957 61.3863 196.958 61.3404 196.958 61.2936V60.1721C196.958 59.8654 196.71 59.617 196.403 59.617C196.402 59.617 196.401 59.617 196.399 59.617C196.398 59.617 196.396 59.617 196.394 59.617C196.088 59.617 195.839 59.8654 195.839 60.1721V61.2936C195.839 61.3404 195.841 61.3863 195.843 61.4317C195.808 61.9021 195.597 62.0949 195.434 62.2004C195.203 62.3499 194.861 62.432 194.47 62.432C193.224 62.432 192.359 62.1492 191.899 61.5906C191.394 60.9791 191.535 60.1871 191.539 60.1654C191.599 59.8667 191.407 59.5747 191.109 59.512C190.809 59.4489 190.515 59.6413 190.452 59.9413C190.441 59.9943 190.19 61.2478 191.03 62.2811C191.709 63.1176 192.866 63.5421 194.47 63.5421C195.305 63.5421 195.968 63.2866 196.399 62.83C196.83 63.2866 197.493 63.5421 198.328 63.5421C199.931 63.5421 201.089 63.1181 201.768 62.2811C202.608 61.2478 202.357 59.9943 202.346 59.9413C202.283 59.6413 201.989 59.4471 201.689 59.5098Z" fill="#0B0C0A"/>
<path fill-rule="evenodd" clip-rule="evenodd" d="M169.359 68.9965L165.193 70.3961C164.902 70.4936 164.746 70.8082 164.843 71.0989C164.921 71.331 165.138 71.4775 165.369 71.4775C165.428 71.4775 165.488 71.4678 165.546 71.4484L169.713 70.0488C170.004 69.9513 170.16 69.6367 170.062 69.346C169.965 69.0556 169.65 68.899 169.359 68.9965Z" fill="#0B0C0A"/>
<path fill-rule="evenodd" clip-rule="evenodd" d="M169.494 67.3282C169.801 67.3282 170.049 67.0794 170.049 66.7732C170.049 66.4665 169.801 66.2181 169.494 66.2181H164.993C164.686 66.2181 164.438 66.4665 164.438 66.7732C164.438 67.0794 164.686 67.3282 164.993 67.3282H169.494Z" fill="#0B0C0A"/>
<path fill-rule="evenodd" clip-rule="evenodd" d="M176.621 60.5217C173.988 61.319 173.132 62.5302 173.931 63.7347C174.73 64.9384 176.728 63.868 178.914 63.2573C181.431 62.5562 182.475 62.2575 182.216 60.9634C181.943 59.5912 180.512 59.3441 176.621 60.5217Z" fill="#0B0C0A"/>
<path fill-rule="evenodd" clip-rule="evenodd" d="M216.185 60.5217C212.294 59.3441 210.863 59.5912 210.589 60.9634C210.331 62.2575 211.375 62.5562 213.892 63.2573C216.078 63.868 218.076 64.9384 218.874 63.7347C219.673 62.5302 218.817 61.319 216.185 60.5217Z" fill="#0B0C0A"/>
<path fill-rule="evenodd" clip-rule="evenodd" d="M227.595 70.3961L223.428 68.9965C223.138 68.899 222.823 69.0556 222.725 69.346C222.628 69.6367 222.784 69.9513 223.075 70.0488L227.241 71.4484C227.3 71.4678 227.359 71.4775 227.418 71.4775C227.65 71.4775 227.866 71.331 227.944 71.0989C228.042 70.8082 227.885 70.4936 227.595 70.3961Z" fill="#0B0C0A"/>
<path fill-rule="evenodd" clip-rule="evenodd" d="M227.795 66.2181H223.293C222.987 66.2181 222.738 66.4665 222.738 66.7732C222.738 67.0794 222.987 67.3282 223.293 67.3282H227.795C228.102 67.3282 228.35 67.0794 228.35 66.7732C228.35 66.4665 228.102 66.2181 227.795 66.2181Z" fill="#0B0C0A"/>
<path fill-rule="evenodd" clip-rule="evenodd" d="M186.195 28.6816C186.195 28.6816 191.346 43.9607 177.949 45.9391C163.239 48.1113 159.094 35.6207 159.094 35.6207C159.094 35.6207 167.691 29.6898 175.133 29.065C177.398 21.9336 178.178 20.4453 178.178 20.4453C178.178 20.4453 185.591 24.096 186.195 28.6816Z" fill="#FE7825"/>
<path fill-rule="evenodd" clip-rule="evenodd" d="M186.195 28.6816C186.195 28.6816 191.346 43.9607 177.949 45.9391C163.239 48.1113 159.094 35.6207 159.094 35.6207C159.094 35.6207 167.691 29.6898 175.133 29.065C177.398 21.9336 178.178 20.4453 178.178 20.4453C178.178 20.4453 185.591 24.096 186.195 28.6816Z" fill="url(#paint2_linear_1798_29479)"/>
<path fill-rule="evenodd" clip-rule="evenodd" d="M244.457 56.0951C244.457 56.0951 241.232 56.7728 235.869 63.231C230.936 69.1716 232.217 79.7512 247.026 78.6654C247.026 69 244.457 56.0951 244.457 56.0951Z" fill="#FE7825"/>
<path fill-rule="evenodd" clip-rule="evenodd" d="M244.457 56.0951C244.457 56.0951 241.232 56.7728 235.869 63.231C230.936 69.1716 232.217 79.7512 247.026 78.6654C247.026 69 244.457 56.0951 244.457 56.0951Z" fill="url(#paint3_linear_1798_29479)"/>
<path fill-rule="evenodd" clip-rule="evenodd" d="M144.778 85.151C144.778 85.151 152.511 85.9139 152.587 78.2317C152.639 72.859 145.733 72.3895 145.733 72.3895L144.778 85.151Z" fill="#FE7825"/>
<path fill-rule="evenodd" clip-rule="evenodd" d="M144.778 85.151C144.778 85.151 152.511 85.9139 152.587 78.2317C152.639 72.859 145.733 72.3895 145.733 72.3895L144.778 85.151Z" fill="url(#paint4_linear_1798_29479)"/>
<path fill-rule="evenodd" clip-rule="evenodd" d="M151.952 68.3198C152.102 64.2045 152.737 60.2101 154.214 53.3165C154.811 50.5306 152.556 50.4993 151.553 52.6727C149.476 57.1701 149.319 62.2098 148.459 67.9686C147.859 71.9846 151.8 72.4726 151.952 68.3198Z" fill="#FFFFFE"/>
<path fill-rule="evenodd" clip-rule="evenodd" d="M155.008 49.4762C155.845 49.6205 156.64 49.0593 156.785 48.2223C156.929 47.3853 156.368 46.5907 155.531 46.4468C154.694 46.3017 153.898 46.8629 153.754 47.7003C153.609 48.5369 154.171 49.3333 155.008 49.4762Z" fill="#FFFFFE"/>
<path fill-rule="evenodd" clip-rule="evenodd" d="M167.633 111.101C161.676 110.571 157.305 117.754 156.818 120.587C156.082 124.879 161.997 126.528 163.147 123.196C166.149 115.25 171.325 119.254 171.325 119.254L167.633 111.101Z" fill="#F9D022"/>
<path fill-rule="evenodd" clip-rule="evenodd" d="M160.528 126.174C160.121 126.174 159.707 126.122 159.296 126.016C158.15 125.722 157.145 125.054 156.466 124.135C155.68 123.071 155.391 121.774 155.629 120.383C155.778 119.515 156.199 118.408 156.813 117.264C157.483 116.016 158.338 114.808 159.283 113.77C160.422 112.52 161.655 111.55 162.949 110.887C164.51 110.088 166.122 109.755 167.74 109.899C168.405 109.958 168.895 110.544 168.836 111.208C168.776 111.872 168.19 112.362 167.527 112.303C165.99 112.166 163.621 112.592 161.067 115.396C159.36 117.269 158.217 119.574 158.008 120.792C157.697 122.608 159.048 123.461 159.896 123.678C161.477 124.084 161.931 123.02 162.006 122.802C162.01 122.791 162.014 122.78 162.018 122.769C163.183 119.687 164.858 117.903 166.926 117.233C170.676 116.018 172.079 119.119 172.177 119.194L170.588 120.208L170.594 120.213C170.579 120.202 169.109 119.114 167.566 119.561C166.28 119.933 165.144 121.333 164.282 123.607C163.918 124.646 163.171 125.445 162.177 125.857C161.67 126.067 161.108 126.174 160.528 126.174Z" fill="#0B0C0A"/>
<path fill-rule="evenodd" clip-rule="evenodd" d="M168.305 112.503C169.009 113.717 167.429 113.69 164.714 115.651C162.165 117.492 160.43 121.504 160.43 123.827C161.486 124.008 161.878 123.163 162.15 122.349C162.421 121.534 165.287 114.899 171.744 118.02C172.981 114.082 167.428 110.989 168.305 112.503Z" fill="#EA9F2E"/>
<path fill-rule="evenodd" clip-rule="evenodd" d="M221.567 113.516C220.013 113.638 217.093 115.591 215.224 120.738C215.068 121.332 215.775 122.014 216.474 120.651C217.437 118.779 217.993 117.733 219.591 115.903C221.058 114.224 222.813 113.42 221.567 113.516Z" fill="#FFFFFE"/>
<path fill-rule="evenodd" clip-rule="evenodd" d="M165.085 113.532C163.53 113.654 160.611 115.606 158.742 120.754C158.585 121.347 159.292 122.029 159.992 120.667C160.955 118.795 161.51 117.748 163.108 115.919C164.575 114.24 166.33 113.435 165.085 113.532Z" fill="#FFFFFE"/>
<path fill-rule="evenodd" clip-rule="evenodd" d="M173.567 26.3225C159.666 26.945 154.209 31.4053 154.86 38.0563C155.916 48.8438 166.696 49.7412 177.835 48.5292C188.973 47.3171 195.144 44.1703 194.391 35.8979C193.638 27.6254 189.738 25.598 173.567 26.3225Z" fill="#FFFFFE"/>
<path fill-rule="evenodd" clip-rule="evenodd" d="M178.97 26.7893C177.392 26.7893 175.617 26.8347 173.594 26.9256C165.36 27.2941 159.846 29.025 157.206 32.0703C155.82 33.6684 155.233 35.6632 155.462 37.9977C155.62 39.6191 156.017 41.0619 156.641 42.2868C157.224 43.4309 158.025 44.4223 159.023 45.2328C160.943 46.793 163.585 47.7425 167.101 48.1361C170.01 48.4617 173.5 48.3937 177.77 47.9291C183.697 47.2845 187.655 46.1519 190.229 44.3654C191.593 43.4181 192.544 42.3005 193.136 40.949C193.754 39.5371 193.968 37.9024 193.79 35.9526C193.598 33.8338 193.208 32.2909 192.563 31.0965C191.884 29.8368 190.912 28.9429 189.505 28.2824C188.049 27.5994 186.081 27.1639 183.488 26.9512C182.173 26.8431 180.688 26.7893 178.97 26.7893ZM171.017 49.5444C169.557 49.5444 168.212 49.4747 166.967 49.3353C163.214 48.9153 160.367 47.8797 158.262 46.1695C155.946 44.2868 154.599 41.5773 154.261 38.1155C153.998 35.4381 154.683 33.138 156.294 31.2796C157.707 29.6493 159.852 28.3552 162.668 27.4335C165.55 26.4906 169.208 25.9139 173.54 25.7198C182.193 25.3324 186.967 25.7582 190.018 27.1899C191.648 27.955 192.828 29.0453 193.625 30.5234C194.35 31.8664 194.784 33.5568 194.992 35.8432C195.378 40.0736 194.045 43.1855 190.917 45.3568C188.172 47.2629 184.036 48.4612 177.901 49.1288C175.352 49.4063 173.071 49.5444 171.017 49.5444Z" fill="#0B0C0A"/>
<path fill-rule="evenodd" clip-rule="evenodd" d="M174.577 29.4509C161.883 29.9817 158.253 33.5097 158.762 38.3256C159.615 46.4026 169.598 46.4207 177.67 45.5423C185.742 44.6642 191.534 42.185 190.988 36.1906C190.443 30.1966 186.298 28.9607 174.577 29.4509Z" fill="#0B0C0A"/>
<path fill-rule="evenodd" clip-rule="evenodd" d="M155.119 34.6851C155.119 34.6851 154.204 37.0081 155.27 40.3596C150.433 41.171 149.2 35.6941 155.119 34.6851Z" fill="#FFFFFE"/>
<path fill-rule="evenodd" clip-rule="evenodd" d="M154.29 35.4941C153.278 35.7959 152.689 36.2287 152.357 36.5738C151.884 37.0649 151.675 37.642 151.769 38.1988C151.923 39.109 152.893 39.8922 154.492 39.8348C154.018 37.9548 154.122 36.4321 154.29 35.4941ZM154.317 41.0456C152.152 41.046 150.818 39.807 150.579 38.4C150.422 37.4703 150.753 36.4997 151.487 35.7368C152.274 34.9192 153.495 34.3496 155.017 34.0901C155.232 34.0535 155.449 34.1356 155.587 34.3046C155.723 34.4727 155.76 34.7017 155.681 34.9037C155.667 34.939 154.868 37.1037 155.844 40.1768C155.897 40.3436 155.875 40.5249 155.784 40.6741C155.693 40.8232 155.542 40.9256 155.369 40.9547C155 41.0164 154.648 41.0456 154.317 41.0456Z" fill="#0B0C0A"/>
<path fill-rule="evenodd" clip-rule="evenodd" d="M220.99 25.59C234.902 25.7603 240.501 30.0411 240.068 36.7093C239.364 47.5258 228.618 48.7732 217.446 47.9238C206.274 47.0749 200.004 44.1297 200.488 35.8374C200.972 27.5447 204.803 25.3928 220.99 25.59Z" fill="#FFFFFE"/>
<path fill-rule="evenodd" clip-rule="evenodd" d="M219.059 26.181C215.775 26.181 213.213 26.2975 211.095 26.5411C208.51 26.838 206.557 27.337 205.124 28.0673C203.74 28.7728 202.797 29.698 202.159 30.9789C201.554 32.1936 201.214 33.7489 201.09 35.8725C200.976 37.8271 201.243 39.4539 201.907 40.8451C202.542 42.1767 203.529 43.2625 204.924 44.1653C207.554 45.8675 211.548 46.8704 217.492 47.3222C221.775 47.6478 225.265 47.6019 228.162 47.1819C231.663 46.674 234.273 45.6394 236.141 44.0174C237.112 43.1747 237.881 42.1581 238.426 40.9951C239.01 39.7508 239.36 38.2957 239.466 36.6702C239.618 34.3291 238.967 32.3551 237.529 30.8024C234.792 27.8449 229.225 26.294 220.983 26.1934C220.315 26.185 219.674 26.181 219.059 26.181ZM222.674 48.7425C221.056 48.7425 219.304 48.6701 217.4 48.5254C211.247 48.0577 207.075 46.9944 204.268 45.1783C201.072 43.1098 199.638 40.0429 199.886 35.8023C200.019 33.5102 200.398 31.8066 201.079 30.4406C201.828 28.9374 202.972 27.8096 204.576 26.992C207.579 25.4618 212.337 24.8812 220.997 24.9866C225.334 25.0396 229.008 25.4967 231.919 26.3461C234.764 27.1755 236.949 28.3991 238.415 29.9826C240.086 31.7876 240.844 34.0643 240.67 36.7483C240.444 40.2194 239.186 42.9717 236.932 44.929C234.885 46.7067 232.072 47.8345 228.335 48.3763C226.649 48.6207 224.775 48.7425 222.674 48.7425Z" fill="#0B0C0A"/>
<path fill-rule="evenodd" clip-rule="evenodd" d="M220.082 28.7495C232.787 28.8677 236.531 32.2757 236.179 37.1053C235.588 45.2062 225.61 45.5486 217.515 44.9331C209.418 44.318 203.549 42.028 203.9 36.0195C204.25 30.0109 208.353 28.6409 220.082 28.7495Z" fill="#0B0C0A"/>
<path fill-rule="evenodd" clip-rule="evenodd" d="M239.7 33.3483C239.7 33.3483 240.689 35.6409 239.734 39.025C244.594 39.6785 245.649 34.1645 239.7 33.3483Z" fill="#FFFFFE"/>
<path fill-rule="evenodd" clip-rule="evenodd" d="M240.494 38.4755C240.499 38.4755 240.505 38.4755 240.51 38.4755C242.101 38.4755 243.038 37.6632 243.162 36.7517C243.238 36.1922 243.011 35.6221 242.522 35.1465C242.179 34.8125 241.576 34.399 240.555 34.1303C240.753 35.0626 240.907 36.5809 240.494 38.4755ZM240.52 39.6831C240.244 39.6831 239.956 39.6637 239.654 39.6231C239.481 39.5997 239.326 39.5027 239.23 39.3562C239.134 39.2101 239.106 39.0297 239.154 38.8611C239.613 37.2352 239.587 35.8891 239.484 35.0463C239.372 34.1295 239.148 33.5907 239.146 33.5854C239.06 33.3856 239.088 33.1557 239.22 32.9823C239.352 32.8089 239.567 32.7211 239.783 32.7506C241.313 32.9607 242.551 33.4901 243.364 34.2821C244.123 35.0203 244.485 35.9795 244.358 36.9145C244.161 38.3687 242.796 39.6831 240.52 39.6831Z" fill="#0B0C0A"/>
<path fill-rule="evenodd" clip-rule="evenodd" d="M193.859 32.7612L200.881 32.8393C200.881 32.8393 200.441 35.5656 200.454 36.3356C194.87 36.3223 194.425 36.3484 194.425 36.3484L193.859 32.7612Z" fill="#FFFFFE"/>
<path fill-rule="evenodd" clip-rule="evenodd" d="M194.567 33.3726L194.939 35.7367C195.58 35.7305 196.953 35.7248 199.883 35.731C199.944 35.0413 200.08 34.0839 200.178 33.4349L194.567 33.3726ZM194.425 36.9519C194.13 36.9519 193.876 36.7374 193.829 36.4427L193.263 32.8551C193.235 32.6799 193.287 32.5012 193.403 32.3667C193.517 32.2338 193.684 32.158 193.859 32.158C193.862 32.158 193.864 32.158 193.866 32.158L200.888 32.2356C201.064 32.2378 201.23 32.3159 201.343 32.4505C201.456 32.5851 201.505 32.762 201.477 32.9354C201.357 33.6789 201.047 35.7376 201.057 36.3249C201.061 36.4868 200.998 36.6434 200.885 36.759C200.771 36.8742 200.616 36.9391 200.454 36.9391C200.454 36.9391 200.453 36.9391 200.453 36.9391C195.124 36.9263 194.489 36.9496 194.456 36.951C194.446 36.9514 194.435 36.9519 194.425 36.9519Z" fill="#0B0C0A"/>
<path fill-rule="evenodd" clip-rule="evenodd" d="M175.052 33.12C172.553 33.4752 169.049 41.9347 173.826 42.8397C178.603 43.7446 181.097 32.2601 175.052 33.12Z" fill="#FFFFFE"/>
<path fill-rule="evenodd" clip-rule="evenodd" d="M186.292 33.0627C184.808 32.0982 181.493 39.9493 184.061 40.7858C186.629 41.6219 189.344 35.0468 186.292 33.0627Z" fill="#FFFFFE"/>
<path fill-rule="evenodd" clip-rule="evenodd" d="M165.492 33.4624C164.41 33.4558 160.677 37.3077 162.879 40.529C165.081 43.7508 168.352 33.4801 165.492 33.4624Z" fill="#FFFFFE"/>
<path fill-rule="evenodd" clip-rule="evenodd" d="M220.445 32.1433C217.927 32.3295 213.862 40.5336 218.568 41.7584C223.273 42.9828 226.533 31.6919 220.445 32.1433Z" fill="#FFFFFE"/>
<path fill-rule="evenodd" clip-rule="evenodd" d="M231.628 33.3908C230.213 32.3288 226.376 39.939 228.883 40.9463C231.389 41.9536 234.539 35.5757 231.628 33.3908Z" fill="#FFFFFE"/>
<path fill-rule="evenodd" clip-rule="evenodd" d="M210.848 32.3904C209.77 32.3115 205.787 35.903 207.766 39.2651C209.746 42.6277 213.701 32.6 210.848 32.3904Z" fill="#FFFFFE"/>
<path fill-rule="evenodd" clip-rule="evenodd" d="M179.147 79.6331C179.147 79.6331 173.092 95.9517 196.624 95.9517C220.157 95.9517 213.458 79.6331 213.458 79.6331C213.458 79.6331 209.832 71.1846 203.409 69.9161C203.409 69.9161 201.777 74.5917 198.639 70.8506C197.872 74.2295 193.207 73.9052 193.207 70.5285C191.447 72.5802 186.765 73.6259 187.169 69.5229C184.499 71.0571 179.793 76.47 179.147 79.6331Z" fill="#E9A02E"/>
<path fill-rule="evenodd" clip-rule="evenodd" d="M180.279 80.0513C180.264 80.0924 179.783 81.4416 179.676 83.2797C179.536 85.6809 180.066 87.7595 181.253 89.4564C182.339 91.01 183.993 92.241 186.17 93.115C188.863 94.1965 192.381 94.7449 196.624 94.7449C200.835 94.7449 204.308 94.2053 206.948 93.1402C209.077 92.2816 210.678 91.0726 211.705 89.5473C212.846 87.8543 213.307 85.7704 213.076 83.3539C212.904 81.5599 212.393 80.2238 212.344 80.0985C212.206 79.7875 209.153 73.0103 204.072 71.3363C203.596 72.1671 202.753 73.2265 201.467 73.4617C200.645 73.6126 199.827 73.4078 199.022 72.8528C198.761 73.196 198.447 73.4939 198.086 73.7392C197.292 74.2797 196.326 74.518 195.366 74.4103C194.456 74.3084 193.623 73.898 193.02 73.2552C192.834 73.0579 192.673 72.8426 192.538 72.6114C191.573 73.1788 190.439 73.5424 189.371 73.5424C188.838 73.5424 188.322 73.452 187.85 73.2508C187.167 72.9587 186.634 72.4513 186.309 71.7833C186.293 71.7502 186.278 71.7171 186.263 71.6831C185.328 72.4914 184.286 73.5689 183.332 74.7324C181.703 76.7183 180.581 78.6403 180.329 79.8744C180.317 79.9344 180.3 79.9935 180.279 80.0513ZM196.624 97.1588C188.028 97.1588 182.186 95.0255 179.26 90.818C177.769 88.6755 177.082 85.988 177.272 83.0459C177.396 81.1288 177.854 79.6807 177.982 79.3061C178.468 77.1009 180.367 74.5418 181.465 73.2018C183.181 71.1099 185.136 69.2992 186.567 68.4763C186.959 68.2513 187.444 68.2641 187.824 68.5094C188.203 68.7543 188.414 69.1915 188.369 69.6411C188.311 70.2315 188.398 70.5584 188.48 70.7292C188.552 70.8761 188.647 70.9661 188.799 71.031C189.178 71.1933 189.805 71.1501 190.477 70.9162C191.198 70.6652 191.876 70.2262 192.291 69.7426C192.62 69.3596 193.152 69.2215 193.626 69.3967C194.099 69.5723 194.413 70.0237 194.413 70.5284C194.413 70.8443 194.501 71.8847 195.635 72.0118C196.365 72.0939 197.212 71.6835 197.462 70.5831C197.563 70.1362 197.909 69.7854 198.355 69.6773C198.801 69.5696 199.269 69.7236 199.564 70.0748C200.146 70.7693 200.695 71.1483 201.031 71.0879C201.502 71.0036 202.052 70.122 202.27 69.5167C202.465 68.9453 203.05 68.6153 203.643 68.7322C205.295 69.0583 206.906 69.8278 208.431 71.0182C209.615 71.9421 210.75 73.1215 211.806 74.5246C213.582 76.8842 214.527 79.0656 214.566 79.157C214.569 79.1631 214.571 79.1689 214.574 79.1746C214.601 79.2412 215.245 80.8301 215.47 83.0349C215.771 86.0074 215.167 88.7191 213.72 90.8767C210.925 95.0449 205.173 97.1588 196.624 97.1588Z" fill="#0B0C0A"/>
<path fill-rule="evenodd" clip-rule="evenodd" d="M119.998 126.714C119.998 127.38 119.097 127.92 117.986 127.92C116.875 127.92 115.975 127.38 115.975 126.714C115.975 126.047 116.875 125.507 117.986 125.507C119.097 125.507 119.998 126.047 119.998 126.714Z" fill="#0A0B09"/>
<path fill-rule="evenodd" clip-rule="evenodd" d="M143.604 129.852C143.604 130.518 142.703 131.059 141.592 131.059C140.482 131.059 139.581 130.518 139.581 129.852C139.581 129.185 140.482 128.645 141.592 128.645C142.703 128.645 143.604 129.185 143.604 129.852Z" fill="#0A0B09"/>
<path fill-rule="evenodd" clip-rule="evenodd" d="M147.627 114.512C147.627 115.178 146.726 115.719 145.615 115.719C144.504 115.719 143.604 115.178 143.604 114.512C143.604 113.846 144.504 113.305 145.615 113.305C146.726 113.305 147.627 113.846 147.627 114.512Z" fill="#0A0B09"/>
<path fill-rule="evenodd" clip-rule="evenodd" d="M173.936 125.507C173.936 126.173 173.036 126.714 171.925 126.714C170.814 126.714 169.913 126.173 169.913 125.507C169.913 124.841 170.814 124.3 171.925 124.3C173.036 124.3 173.936 124.841 173.936 125.507Z" fill="#0A0B09"/>
<path fill-rule="evenodd" clip-rule="evenodd" d="M198.908 131.059C198.908 131.725 198.007 132.266 196.896 132.266C195.785 132.266 194.885 131.725 194.885 131.059C194.885 130.393 195.785 129.852 196.896 129.852C198.007 129.852 198.908 130.393 198.908 131.059Z" fill="#0A0B09"/>
<path fill-rule="evenodd" clip-rule="evenodd" d="M226.014 124.968C226.014 125.634 225.114 126.174 224.003 126.174C222.892 126.174 221.991 125.634 221.991 124.968C221.991 124.301 222.892 123.761 224.003 123.761C225.114 123.761 226.014 124.301 226.014 124.968Z" fill="#0A0B09"/>
<path fill-rule="evenodd" clip-rule="evenodd" d="M253.053 129.852C253.053 130.518 252.152 131.059 251.041 131.059C249.931 131.059 249.03 130.518 249.03 129.852C249.03 129.185 249.931 128.645 251.041 128.645C252.152 128.645 253.053 129.185 253.053 129.852Z" fill="#0A0B09"/>
<path fill-rule="evenodd" clip-rule="evenodd" d="M77.3968 124.3C77.3968 124.966 76.4963 125.507 75.3854 125.507C74.2745 125.507 73.374 124.966 73.374 124.3C73.374 123.634 74.2745 123.093 75.3854 123.093C76.4963 123.093 77.3968 123.634 77.3968 124.3Z" fill="#0A0B09"/>
<path fill-rule="evenodd" clip-rule="evenodd" d="M96.1409 129.852C96.1409 130.518 95.2404 131.059 94.1296 131.059C93.0187 131.059 92.1182 130.518 92.1182 129.852C92.1182 129.185 93.0187 128.645 94.1296 128.645C95.2404 128.645 96.1409 129.185 96.1409 129.852Z" fill="#0A0B09"/>
<path fill-rule="evenodd" clip-rule="evenodd" d="M184.624 77.0007C184.624 77.0007 185.88 74.7787 186.966 75.4767C188.052 76.1752 190.401 77.2456 192.052 76.1708C194.846 78.207 198.275 77.5632 199.576 76.1708C201.639 77.8258 204.115 76.3022 204.877 74.8418C208.051 76.8101 208.75 78.207 208.686 78.969C208.623 79.7305 205.7 76.4906 204.686 77.8893C203.092 80.091 200.941 78.969 200.242 78.6513C197.83 80.6827 193.385 80.3099 191.798 79.0996C188.242 80.7467 186.966 77.8893 185.957 78.0799C184.948 78.2701 181.195 81.1905 184.624 77.0007Z" fill="#FFFFFE"/>
<path fill-rule="evenodd" clip-rule="evenodd" d="M184.979 77.5615C182.579 76.0115 174.419 74.3781 170.743 79.014L176.108 83.8856C177.34 83.0238 179.348 82.6726 182.615 83.9857C185.847 85.3954 188.636 79.9251 184.979 77.5615Z" fill="#F9D022"/>
<path fill-rule="evenodd" clip-rule="evenodd" d="M183.672 85.4193C183.16 85.4193 182.645 85.3129 182.15 85.0998C180.798 84.5576 179.614 84.2977 178.634 84.3264C177.906 84.3475 177.289 84.532 176.799 84.8744C176.253 85.2565 175.501 85.1232 175.119 84.577C174.737 84.0312 174.87 83.2784 175.416 82.8964C177.287 81.5881 179.86 81.578 183.065 82.8659C183.076 82.8703 183.087 82.8752 183.098 82.8796C183.309 82.9718 184.399 83.3574 185.171 81.9195C185.585 81.1482 185.872 79.5762 184.323 78.5755C183.296 77.9114 180.846 77.1953 178.329 77.175C178.29 77.1746 178.25 77.1741 178.211 77.1741C174.52 77.1741 172.628 78.5786 171.689 79.7637C171.275 80.2861 170.516 80.3739 169.993 79.96C169.471 79.5457 169.383 78.7868 169.797 78.2644C170.796 77.0047 172.133 76.0671 173.772 75.4776C175.131 74.9888 176.671 74.7483 178.349 74.7611C179.743 74.7726 181.199 74.9636 182.559 75.314C183.807 75.6352 184.899 76.0737 185.633 76.5481C186.819 77.314 187.578 78.4052 187.829 79.7028C188.046 80.8253 187.857 82.0179 187.298 83.0605C186.812 83.9659 186.078 84.6802 185.231 85.0729C184.733 85.3037 184.204 85.4193 183.672 85.4193Z" fill="#0B0C0A"/>
<path fill-rule="evenodd" clip-rule="evenodd" d="M173.224 79.7706C174.213 78.5656 177.485 77.2892 182.776 78.7019C183.352 78.9133 183.507 79.8835 181.989 79.6783C179.903 79.396 178.726 79.2526 176.312 79.516C174.096 79.7573 172.432 80.7359 173.224 79.7706Z" fill="#FFFFFE"/>
<path fill-rule="evenodd" clip-rule="evenodd" d="M206.92 77.5615C203.263 79.9251 206.052 85.3954 209.284 83.9857C212.551 82.6726 214.559 83.0238 215.792 83.8856L221.156 79.014C217.481 74.3781 209.32 76.0115 206.92 77.5615Z" fill="#F9D022"/>
<path fill-rule="evenodd" clip-rule="evenodd" d="M208.226 85.4193C207.694 85.4193 207.165 85.3041 206.667 85.0729C205.82 84.6802 205.086 83.9659 204.6 83.0605C204.041 82.0179 203.852 80.8253 204.069 79.7032C204.32 78.4052 205.079 77.314 206.265 76.5481C206.999 76.0737 208.091 75.6352 209.339 75.314C210.699 74.9636 212.155 74.7726 213.549 74.7611C215.225 74.7483 216.767 74.9888 218.126 75.4776C219.765 76.0671 221.102 77.0047 222.101 78.2644C222.514 78.7868 222.427 79.5457 221.905 79.96C221.382 80.3739 220.623 80.2861 220.209 79.7637C219.26 78.5658 217.338 77.145 213.569 77.175C211.69 77.19 208.951 77.686 207.574 78.5755C206.026 79.5762 206.313 81.1482 206.727 81.9195C207.499 83.3574 208.59 82.9718 208.8 82.8796C208.811 82.8752 208.822 82.8703 208.833 82.8659C212.038 81.578 214.611 81.5881 216.482 82.8964C217.028 83.2784 217.162 84.0312 216.779 84.577C216.397 85.1232 215.645 85.2565 215.099 84.8744C214.61 84.532 213.992 84.3475 213.264 84.3264C212.284 84.2981 211.1 84.5576 209.748 85.0998C209.253 85.3129 208.738 85.4193 208.226 85.4193Z" fill="#0B0C0A"/>
<path fill-rule="evenodd" clip-rule="evenodd" d="M218.675 79.7706C217.686 78.5656 214.414 77.2892 209.123 78.7019C208.547 78.9133 208.392 79.8835 209.91 79.6783C211.996 79.396 213.173 79.2526 215.587 79.516C217.803 79.7573 219.467 80.7359 218.675 79.7706Z" fill="#FFFFFE"/>
<path fill-rule="evenodd" clip-rule="evenodd" d="M244.026 111.423C244.026 111.423 247.949 110.051 251.041 108.554C254.133 107.057 252.676 112.537 242.07 113.509C243.38 112.163 244.026 111.423 244.026 111.423Z" fill="#FFFFFE"/>
<path fill-rule="evenodd" clip-rule="evenodd" d="M126.965 56.0865C126.965 56.0865 129.901 51.1183 135.657 54.7853C140.772 58.0437 139.147 65.3963 139.147 65.3963C139.147 65.3963 136.941 64.227 129.054 62.2693C123.562 60.9059 126.965 56.0865 126.965 56.0865Z" fill="#FFFFFE"/>
<path fill-rule="evenodd" clip-rule="evenodd" d="M138.987 64.5146C138.555 63.795 138.064 63.0992 137.518 62.4299L138.445 62.1678C138.602 62.1236 138.694 61.96 138.649 61.8024C138.605 61.6454 138.441 61.5536 138.284 61.5982L137.098 61.933C136.766 61.554 136.415 61.1834 136.047 60.8229L138.433 60.2568C138.592 60.2189 138.69 60.0592 138.653 59.9003C138.615 59.7411 138.455 59.6427 138.296 59.6806L135.532 60.3367C135.366 60.1845 135.196 60.0345 135.024 59.8867C134.783 59.6802 134.535 59.4781 134.282 59.2791L137.427 58.2872C137.583 58.2378 137.669 58.0715 137.621 57.9157C137.572 57.76 137.405 57.673 137.249 57.7225L133.706 58.8401C133.218 58.4809 132.71 58.1346 132.182 57.8023L136.114 56.57C136.27 56.5215 136.357 56.3551 136.308 56.1994C136.259 56.0432 136.093 55.9562 135.937 56.0052L131.51 57.3929C131.176 57.1961 130.835 57.005 130.487 56.8193L134.004 55.4078C134.156 55.3469 134.23 55.1748 134.169 55.0231C134.108 54.8713 133.936 54.7976 133.784 54.8585L129.793 56.4597C129.458 56.2925 129.13 56.1363 128.811 55.9907L131.597 54.7116C131.745 54.6432 131.81 54.4676 131.742 54.3189C131.674 54.1702 131.498 54.1053 131.349 54.1733L128.086 55.6721C127.977 55.6258 127.87 55.5808 127.763 55.5371C128.294 54.952 129.209 54.1671 130.491 53.8626C132.021 53.4986 133.706 53.8931 135.498 55.0345C136.616 55.7471 137.489 56.7244 138.091 57.9404C138.577 58.9217 138.891 60.0609 139.024 61.3268C139.16 62.616 139.077 63.7787 138.987 64.5146ZM129.126 61.982C127.647 61.6149 126.722 60.9597 126.377 60.0349C125.751 58.3569 127.193 56.2779 127.208 56.2567C127.212 56.2505 127.216 56.2439 127.22 56.2373C127.223 56.2333 127.273 56.1508 127.37 56.0176C127.488 56.0652 127.607 56.1146 127.729 56.1654L126.92 58.8215C126.873 58.9777 126.961 59.1432 127.118 59.1908C127.146 59.1997 127.175 59.2036 127.204 59.2036C127.331 59.2036 127.448 59.1216 127.487 58.9941L128.276 56.4006C128.637 56.5598 129.01 56.7332 129.391 56.9212L127.714 60.5754C127.646 60.7241 127.711 60.8997 127.86 60.9676C127.9 60.9862 127.942 60.995 127.983 60.995C128.095 60.995 128.203 60.931 128.252 60.822L129.919 57.189C130.32 57.3973 130.713 57.613 131.095 57.8359L129.509 61.4075C129.442 61.5571 129.51 61.7318 129.659 61.798C129.698 61.8157 129.739 61.8236 129.779 61.8236C129.893 61.8236 130.001 61.7583 130.05 61.648L131.607 58.1416C132.186 58.4964 132.741 58.8679 133.271 59.2548L131.886 61.8933C131.81 62.0381 131.865 62.2172 132.01 62.2931C132.054 62.316 132.101 62.3271 132.147 62.3271C132.254 62.3271 132.357 62.2693 132.41 62.1687L133.751 59.6149C134.055 59.85 134.352 60.0905 134.638 60.3363C134.784 60.4611 134.928 60.5878 135.068 60.7157L133.937 62.5883C133.852 62.7281 133.897 62.9103 134.037 62.9946C134.085 63.0237 134.138 63.0374 134.19 63.0374C134.29 63.0374 134.388 62.9867 134.444 62.8945L135.511 61.1282C135.902 61.5055 136.274 61.8929 136.624 62.2909L136.068 63.1027C135.975 63.2377 136.01 63.4222 136.145 63.5144C136.196 63.5492 136.254 63.5664 136.312 63.5664C136.406 63.5664 136.499 63.521 136.556 63.4376L137.021 62.7586C137.551 63.4032 138.027 64.073 138.447 64.7652C137.221 64.2742 134.482 63.3114 129.126 61.982ZM139.615 61.2818C139.476 59.9431 139.143 58.7333 138.626 57.6867C137.975 56.3683 137.029 55.3081 135.816 54.5355C133.881 53.3023 132.04 52.8827 130.346 53.2882C128.785 53.6619 127.732 54.6445 127.176 55.3024C125.268 54.5629 123.94 54.2686 123.862 54.2518C123.702 54.217 123.545 54.3184 123.51 54.4781C123.475 54.6379 123.576 54.7954 123.736 54.8302C123.754 54.8342 124.999 55.11 126.801 55.7948C126.758 55.8592 126.73 55.9046 126.717 55.9254C126.661 56.007 126.292 56.5528 125.998 57.3112C125.576 58.4024 125.515 59.415 125.821 60.2392C126.238 61.3599 127.302 62.1391 128.983 62.5565C133.021 63.5589 135.531 64.3483 136.926 64.8336C138.439 65.3613 139.003 65.6547 139.009 65.6574C139.013 65.66 139.017 65.6614 139.022 65.6636C139.027 65.6658 139.032 65.6684 139.037 65.6706C139.044 65.6733 139.051 65.6755 139.058 65.6777C139.063 65.6795 139.068 65.6812 139.073 65.6821C139.081 65.6843 139.089 65.6856 139.097 65.6874C139.101 65.6878 139.106 65.6892 139.11 65.6896C139.121 65.6909 139.131 65.6914 139.142 65.6918C139.144 65.6918 139.146 65.6923 139.148 65.6923C139.151 65.6923 139.154 65.6918 139.157 65.6914C139.165 65.6914 139.172 65.6909 139.18 65.69C139.185 65.6896 139.19 65.6887 139.195 65.6878C139.201 65.6865 139.208 65.6856 139.214 65.6843C139.219 65.683 139.223 65.6817 139.228 65.6803C139.235 65.6786 139.241 65.6764 139.247 65.6742C139.252 65.6728 139.256 65.6706 139.261 65.6689C139.264 65.6675 139.268 65.6662 139.272 65.6649C139.274 65.6636 139.277 65.6618 139.279 65.6605C139.282 65.6592 139.284 65.6583 139.287 65.657C139.29 65.6556 139.292 65.6539 139.295 65.6521C139.299 65.6499 139.303 65.6477 139.306 65.645C139.312 65.6415 139.318 65.6375 139.324 65.6331C139.326 65.6314 139.329 65.6292 139.332 65.627C139.339 65.6212 139.346 65.6155 139.352 65.6097C139.353 65.6084 139.355 65.6071 139.356 65.6058C139.371 65.5908 139.385 65.5736 139.396 65.5559C139.398 65.5533 139.399 65.5511 139.4 65.5489C139.404 65.5422 139.408 65.5352 139.412 65.5286C139.413 65.525 139.415 65.5219 139.416 65.5184C139.419 65.5122 139.422 65.5056 139.424 65.4994C139.426 65.4955 139.427 65.4919 139.428 65.4884C139.43 65.4813 139.433 65.4743 139.434 65.4672C139.435 65.4646 139.436 65.4624 139.436 65.4597C139.453 65.383 139.85 63.5488 139.615 61.2818Z" fill="#0B0C0A"/>
<path fill-rule="evenodd" clip-rule="evenodd" d="M141.385 8.75588C141.385 8.75588 145.073 13.195 139.679 17.3774C134.886 21.0938 128.513 17.0839 128.513 17.0839C128.513 17.0839 130.357 15.402 134.86 8.63719C137.996 3.9267 141.385 8.75588 141.385 8.75588Z" fill="#FFFFFE"/>
<path fill-rule="evenodd" clip-rule="evenodd" d="M129.396 17.2308C130.22 17.0658 131.04 16.839 131.854 16.5505L131.788 17.5114C131.777 17.6747 131.9 17.8159 132.063 17.8274C132.226 17.8384 132.368 17.7153 132.379 17.5525L132.464 16.3224C132.933 16.1379 133.399 15.9328 133.864 15.7073L133.592 18.1446C133.574 18.3074 133.691 18.4539 133.853 18.472C134.016 18.4901 134.162 18.3727 134.18 18.2103L134.495 15.387C134.693 15.282 134.892 15.173 135.09 15.0605C135.365 14.9034 135.639 14.7384 135.912 14.5672L135.785 17.8622C135.779 18.0259 135.906 18.1631 136.069 18.1698C136.233 18.1759 136.37 18.0484 136.377 17.8852L136.52 14.1723C137.022 13.8347 137.519 13.4734 138.01 13.0882L137.844 17.2052C137.838 17.3685 137.965 17.5066 138.128 17.5132C138.291 17.5198 138.429 17.3928 138.436 17.2291L138.623 12.5931C138.92 12.3452 139.215 12.0888 139.507 11.8241L139.65 15.6111C139.656 15.7744 139.793 15.9019 139.957 15.8957C140.12 15.8895 140.248 15.7523 140.241 15.589L140.08 11.2915C140.35 11.033 140.608 10.7766 140.853 10.5251L141.118 13.5793C141.132 13.7421 141.275 13.863 141.438 13.8489C141.601 13.8347 141.721 13.6909 141.708 13.5281L141.397 9.95066C141.478 9.8633 141.556 9.77726 141.633 9.69167C142.005 10.3888 142.435 11.5157 142.29 12.8243C142.116 14.388 141.176 15.841 139.498 17.1435C138.45 17.9553 137.235 18.4468 135.887 18.6039C134.8 18.731 133.621 18.6423 132.385 18.3405C131.125 18.0334 130.059 17.564 129.396 17.2308ZM135.106 8.80128C135.951 7.53276 136.879 6.88329 137.866 6.87005C139.657 6.84667 141.128 8.90541 141.143 8.92615C141.147 8.93232 141.152 8.93894 141.157 8.94467C141.16 8.9482 141.221 9.02321 141.313 9.15955C141.229 9.25441 141.142 9.3506 141.053 9.44767L138.826 7.79088C138.694 7.69337 138.509 7.72073 138.411 7.85177C138.393 7.87604 138.379 7.90163 138.37 7.92854C138.327 8.04811 138.365 8.18621 138.472 8.26607L140.647 9.8836C140.376 10.1695 140.087 10.462 139.781 10.7572L136.907 7.94663C136.79 7.83235 136.602 7.83456 136.488 7.95148C136.457 7.98281 136.435 8.01943 136.421 8.05826C136.383 8.16371 136.407 8.28637 136.493 8.36977L139.351 11.1645C139.019 11.472 138.684 11.7685 138.345 12.0535L135.518 9.35545C135.399 9.2425 135.212 9.24691 135.099 9.36516C135.07 9.39605 135.048 9.43178 135.035 9.46929C134.997 9.57606 135.022 9.70049 135.109 9.78344L137.884 12.4325C137.355 12.8574 136.818 13.255 136.275 13.623L134.259 11.4292C134.148 11.3087 133.961 11.3008 133.841 11.4115C133.804 11.4451 133.778 11.4857 133.763 11.5294C133.726 11.6295 133.746 11.746 133.823 11.8298L135.775 13.9534C135.451 14.1612 135.125 14.3589 134.797 14.546C134.63 14.6409 134.462 14.7331 134.294 14.8226L132.913 13.1257C132.809 12.9991 132.623 12.9801 132.496 13.0833C132.453 13.1186 132.422 13.1636 132.404 13.2126C132.371 13.307 132.386 13.4165 132.454 13.4999L133.756 15.1002C133.27 15.3415 132.779 15.5604 132.287 15.7558L131.71 14.9581C131.614 14.8257 131.429 14.7962 131.297 14.8919C131.246 14.9281 131.211 14.9775 131.192 15.0318C131.159 15.1205 131.171 15.2233 131.23 15.3053L131.713 15.972C130.927 16.2535 130.136 16.4755 129.342 16.6374C130.218 15.6491 132.048 13.3953 135.106 8.80128ZM132.228 18.9119C133.535 19.2327 134.786 19.3271 135.946 19.1934C137.407 19.0248 138.724 18.4923 139.86 17.6112C141.674 16.205 142.689 14.6135 142.879 12.8817C143.054 11.2862 142.484 9.96346 142.052 9.21824C143.392 7.67131 144.116 6.5206 144.159 6.45265C144.246 6.31411 144.203 6.13144 144.065 6.04496C143.926 5.95848 143.743 6.0004 143.656 6.13938C143.647 6.15483 142.967 7.23406 141.715 8.69936C141.669 8.6367 141.636 8.59479 141.62 8.57581C141.562 8.49551 141.173 7.96428 140.558 7.43217C139.674 6.66621 138.741 6.26734 137.861 6.27793C136.666 6.29293 135.573 7.03154 134.614 8.47301C132.308 11.9366 130.719 14.0333 129.791 15.1822C128.784 16.4296 128.317 16.8615 128.313 16.8651C128.309 16.8686 128.306 16.8721 128.303 16.8756C128.299 16.8796 128.295 16.8836 128.291 16.8876C128.286 16.8933 128.282 16.8995 128.277 16.9052C128.274 16.9092 128.271 16.9132 128.268 16.9171C128.264 16.9242 128.259 16.9312 128.255 16.9387C128.253 16.9423 128.251 16.9458 128.249 16.9498C128.244 16.9595 128.24 16.9696 128.236 16.9798C128.235 16.9811 128.234 16.9829 128.234 16.9842C128.233 16.9873 128.232 16.9904 128.231 16.9935C128.229 17.001 128.226 17.0085 128.224 17.016C128.223 17.0208 128.223 17.0257 128.222 17.031C128.22 17.0371 128.219 17.0433 128.219 17.0495C128.218 17.0543 128.218 17.0596 128.218 17.0645C128.217 17.0711 128.217 17.0777 128.217 17.0843C128.217 17.0892 128.217 17.0941 128.217 17.0989C128.217 17.1024 128.217 17.1064 128.218 17.1104C128.218 17.1135 128.219 17.1166 128.219 17.1196C128.219 17.1218 128.219 17.1245 128.219 17.1271C128.22 17.1307 128.221 17.1338 128.222 17.1369C128.223 17.1413 128.223 17.1457 128.224 17.1496C128.226 17.1567 128.227 17.1633 128.23 17.1699C128.23 17.1735 128.231 17.177 128.233 17.1805C128.236 17.1885 128.239 17.1964 128.242 17.2044C128.243 17.2061 128.244 17.2079 128.245 17.2097C128.254 17.2295 128.265 17.2476 128.278 17.2648C128.28 17.2666 128.282 17.2688 128.283 17.271C128.288 17.2767 128.293 17.2829 128.298 17.2882C128.301 17.2908 128.304 17.2935 128.306 17.2961C128.311 17.301 128.317 17.3054 128.322 17.3103C128.325 17.3125 128.328 17.3151 128.331 17.3173C128.337 17.3222 128.343 17.3261 128.349 17.3301C128.351 17.3314 128.353 17.3332 128.355 17.3345C128.422 17.3764 130.014 18.3687 132.228 18.9119Z" fill="#0B0C0A"/>
<path fill-rule="evenodd" clip-rule="evenodd" d="M88.9039 18.5229C88.9039 18.5229 84.0549 15.3942 80.5491 21.2501C77.4338 26.4534 82.1782 32.3005 82.1782 32.3005C82.1782 32.3005 83.6273 30.2678 89.8035 24.9868C94.1046 21.3092 88.9039 18.5229 88.9039 18.5229Z" fill="#FFFFFE"/>
<path fill-rule="evenodd" clip-rule="evenodd" d="M80.4659 28.6067C80.0183 27.4154 79.7891 26.2563 79.7846 25.1612C79.7791 23.804 80.1215 22.5395 80.8024 21.402C81.8939 19.5789 83.2239 18.4723 84.7554 18.1122C86.0375 17.8113 87.2077 18.1034 87.9441 18.3884C87.8687 18.4754 87.7925 18.5641 87.7157 18.6541L84.1266 18.775C83.9632 18.7803 83.8352 18.917 83.8407 19.0807C83.8462 19.244 83.9832 19.3719 84.1466 19.3666L87.2106 19.2634C86.9901 19.5365 86.7666 19.8233 86.5422 20.1224L82.2565 20.4772C82.0935 20.4904 81.9723 20.6338 81.9858 20.7966C81.9993 20.9594 82.1423 21.0808 82.3053 21.0671L86.082 20.7547C85.8541 21.0764 85.6349 21.4002 85.4244 21.7254L80.8443 22.4662C80.6828 22.4927 80.5732 22.6445 80.5994 22.806C80.6254 22.9674 80.7775 23.0769 80.9389 23.0508L85.0063 22.393C84.683 22.926 84.3836 23.4634 84.1088 24.0026L80.4399 24.5894C80.2784 24.615 80.1685 24.7668 80.1943 24.9282C80.2201 25.0897 80.3719 25.1996 80.5334 25.174L83.7895 24.6529C83.6522 24.9446 83.5213 25.2362 83.3985 25.5283C83.3103 25.7379 83.226 25.9479 83.1454 26.1584L80.3801 26.8087C80.2211 26.8462 80.1223 27.0055 80.1597 27.1648C80.1972 27.3241 80.3566 27.4225 80.5157 27.3854L82.9032 26.8233C82.735 27.3108 82.5872 27.7988 82.4601 28.2868L81.2493 28.518C81.0887 28.5489 80.9834 28.7038 81.0141 28.8644C81.0448 29.025 81.1998 29.1304 81.3604 29.1L82.3069 28.9191C82.118 29.7618 81.9908 30.6037 81.926 31.4411C81.5157 30.823 80.9219 29.8205 80.4659 28.6067ZM82.5216 31.4235C82.5872 30.616 82.7129 29.8042 82.8979 28.9906L83.6177 29.3894C83.7065 29.4389 83.8096 29.4375 83.8941 29.3952C83.9455 29.3696 83.9901 29.3285 84.0202 29.2743C84.0994 29.1313 84.0478 28.9509 83.9048 28.8719L83.0441 28.3945C83.1789 27.8822 83.3373 27.3691 83.5189 26.8568L85.2637 27.9586C85.3547 28.0159 85.465 28.0177 85.5546 27.9727C85.6012 27.9493 85.6423 27.9135 85.6721 27.8663C85.7594 27.7278 85.7181 27.5451 85.5798 27.4578L83.7296 26.2898C83.7984 26.1125 83.8698 25.9351 83.9443 25.7577C84.0905 25.4101 84.248 25.0624 84.4154 24.7156L86.7576 26.3988C86.8501 26.4655 86.9679 26.4708 87.0631 26.4231C87.1046 26.4024 87.1418 26.3715 87.1708 26.3313C87.2662 26.1985 87.2359 26.0132 87.1031 25.9179L84.6833 24.179C84.9838 23.5957 85.3139 23.0151 85.6726 22.4389L88.6348 24.8766C88.728 24.9534 88.8541 24.9635 88.9556 24.9128C88.9915 24.8951 89.0243 24.8696 89.0515 24.8365C89.1554 24.7103 89.1373 24.5236 89.011 24.4195L85.9935 21.9359C86.2359 21.5657 86.4899 21.1973 86.7556 20.8311L89.8725 23.3337C89.9657 23.4087 90.0903 23.4179 90.1906 23.3676C90.2275 23.3491 90.2611 23.3226 90.2887 23.2882C90.391 23.1607 90.3707 22.9745 90.2432 22.8721L87.1084 20.355C87.3651 20.0166 87.6208 19.6949 87.872 19.3909L89.7386 21.3565C89.8305 21.4532 89.9722 21.4739 90.0857 21.4174C90.1113 21.4046 90.1354 21.3879 90.1571 21.3671C90.2757 21.2546 90.2805 21.0671 90.1679 20.9484L88.256 18.9351C88.3418 18.8354 88.4269 18.7379 88.511 18.6426C88.6573 18.718 88.7393 18.7697 88.7431 18.7719C88.7495 18.7763 88.7564 18.7802 88.7632 18.7838C88.7856 18.7961 91.0058 20.0099 91.1969 21.7903C91.3023 22.772 90.7685 23.7718 89.6104 24.7619C85.416 28.3482 83.3978 30.4351 82.5216 31.4235ZM81.9476 32.4873C81.9492 32.489 81.951 32.4908 81.9527 32.4925C81.9574 32.4983 81.9623 32.5036 81.9675 32.5089C81.9702 32.512 81.973 32.5146 81.9759 32.5173C81.981 32.5217 81.9862 32.5265 81.9916 32.5305C81.9945 32.5331 81.9973 32.5353 82.0002 32.5376C82.0064 32.542 82.0128 32.5464 82.0194 32.5508C82.0217 32.5521 82.0239 32.5539 82.0262 32.5552C82.0446 32.5658 82.0642 32.5751 82.0849 32.5817C82.0867 32.5826 82.0885 32.583 82.0902 32.5834C82.0985 32.5861 82.1068 32.5883 82.1154 32.5901C82.1189 32.5909 82.1224 32.5914 82.1259 32.5918C82.1328 32.5931 82.1397 32.594 82.1467 32.5949C82.151 32.5954 82.1554 32.5958 82.1597 32.5958C82.163 32.5962 82.1663 32.5967 82.1696 32.5967C82.1723 32.5967 82.1748 32.5962 82.1775 32.5962C82.1806 32.5962 82.1836 32.5967 82.1867 32.5967C82.1906 32.5967 82.1943 32.5958 82.1981 32.5958C82.203 32.5954 82.2079 32.5949 82.2127 32.5945C82.2192 32.5936 82.2256 32.5923 82.232 32.5914C82.237 32.5905 82.2421 32.5896 82.247 32.5883C82.2531 32.587 82.2591 32.5848 82.2652 32.583C82.27 32.5817 82.2749 32.5804 82.2795 32.5786C82.2869 32.5759 82.294 32.5724 82.3011 32.5693C82.304 32.568 82.307 32.5671 82.3098 32.5658C82.3113 32.5649 82.3128 32.5636 82.3143 32.5631C82.3239 32.5579 82.3333 32.5526 82.3424 32.5464C82.3459 32.5442 82.3492 32.5411 82.3526 32.5389C82.3593 32.5336 82.3661 32.5287 82.3723 32.5234C82.3761 32.5199 82.3794 32.5164 82.383 32.5128C82.3884 32.5076 82.3939 32.5023 82.3989 32.497C82.4026 32.4926 82.406 32.4881 82.4095 32.4837C82.4125 32.4798 82.4157 32.4767 82.4186 32.4727C82.422 32.4678 82.7948 31.9529 83.9125 30.8036C84.942 29.7451 86.8329 27.9158 89.9952 25.2119C91.3117 24.0864 91.914 22.9132 91.7854 21.7245C91.6907 20.85 91.1828 19.972 90.3166 19.1853C89.7143 18.6386 89.1405 18.3156 89.0535 18.268C89.0329 18.2548 88.9874 18.227 88.9198 18.1886C90.2244 16.7696 91.2143 15.9661 91.2287 15.9542C91.3561 15.8519 91.3761 15.6652 91.2735 15.5382C91.1709 15.4106 90.9846 15.3908 90.8573 15.4931C90.7949 15.5434 89.7396 16.4003 88.3642 17.9159C87.5727 17.5766 86.1909 17.1693 84.628 17.5342C82.9313 17.93 81.4732 19.1288 80.2944 21.098C79.5556 22.3321 79.1849 23.703 79.1925 25.1736C79.1987 26.341 79.4427 27.5716 79.9177 28.8313C80.7221 30.9637 81.898 32.4259 81.9476 32.4873Z" fill="#0B0C0A"/>
<path fill-rule="evenodd" clip-rule="evenodd" d="M262.748 41.4675C262.748 41.4675 268.051 39.1921 270.53 45.5505C272.734 51.2008 267.08 56.1743 267.08 56.1743C267.08 56.1743 265.991 53.9285 260.782 47.6905C257.155 43.3471 262.748 41.4675 262.748 41.4675Z" fill="#FFFFFE"/>
<path fill-rule="evenodd" clip-rule="evenodd" d="M267.471 55.3688C267.547 54.5322 267.562 53.6811 267.517 52.8181L268.419 53.1547C268.573 53.2117 268.743 53.1336 268.8 52.9805C268.857 52.8274 268.779 52.6566 268.626 52.5997L267.471 52.1695C267.427 51.6674 267.362 51.1613 267.278 50.6526L269.539 51.6052C269.689 51.6683 269.863 51.5977 269.926 51.4472C269.99 51.2963 269.919 51.1229 269.769 51.0594L267.15 49.9563C267.106 49.7357 267.058 49.5147 267.006 49.2932C266.934 48.9848 266.853 48.675 266.766 48.3648L269.89 49.4216C270.045 49.4741 270.213 49.3911 270.265 49.2363C270.318 49.0814 270.235 48.9133 270.08 48.8608L266.56 47.6699C266.379 47.0924 266.174 46.513 265.944 45.9333L269.844 47.2609C269.999 47.3134 270.167 47.2309 270.22 47.076C270.273 46.9212 270.19 46.7531 270.035 46.7001L265.643 45.2052C265.49 44.8496 265.328 44.494 265.157 44.1384L268.828 45.0768C268.987 45.1174 269.148 45.0217 269.188 44.8633C269.229 44.7049 269.134 44.5439 268.975 44.5033L264.809 43.4386C264.637 43.1059 264.465 42.786 264.293 42.4798L267.297 43.0927C267.457 43.1253 267.613 43.0221 267.646 42.8619C267.678 42.7018 267.575 42.5456 267.415 42.5129L263.896 41.7946C263.836 41.6931 263.775 41.593 263.715 41.495C264.489 41.3366 265.692 41.244 266.906 41.7549C268.356 42.3651 269.482 43.6782 270.254 45.6579C270.736 46.8929 270.862 48.1972 270.63 49.5341C270.443 50.6129 270.024 51.7177 269.384 52.8176C268.732 53.9384 267.979 54.8279 267.471 55.3688ZM261.009 47.5005C260.032 46.3312 259.673 45.2564 259.941 44.306C260.426 42.5822 262.818 41.7562 262.842 41.7478C262.849 41.7456 262.857 41.7425 262.864 41.7394C262.868 41.7377 262.957 41.7006 263.114 41.6508C263.181 41.7584 263.249 41.8692 263.317 41.9817L261.096 43.6477C260.965 43.7461 260.938 43.9314 261.037 44.0625C261.054 44.0863 261.076 44.107 261.098 44.1238C261.201 44.1988 261.344 44.2015 261.451 44.1216L263.62 42.4948C263.816 42.8368 264.015 43.1964 264.211 43.5732L260.7 45.5317C260.558 45.6116 260.506 45.7921 260.586 45.9346C260.608 45.973 260.636 46.0047 260.67 46.0294C260.76 46.0956 260.884 46.1071 260.989 46.0489L264.48 44.1013C264.681 44.5068 264.87 44.9123 265.047 45.3182L261.657 47.2631C261.515 47.3447 261.466 47.5256 261.548 47.6673C261.569 47.7043 261.597 47.7352 261.629 47.759C261.721 47.8261 261.847 47.8367 261.952 47.7767L265.279 45.8671C265.537 46.4954 265.765 47.1228 265.964 47.748L263.288 49.0589C263.141 49.1308 263.081 49.3082 263.152 49.4551C263.174 49.4997 263.206 49.5363 263.243 49.5636C263.329 49.6267 263.446 49.6409 263.549 49.5906L266.139 48.322C266.246 48.6918 266.343 49.0606 266.429 49.4282C266.473 49.6153 266.514 49.8019 266.552 49.9885L264.533 50.8313C264.382 50.8944 264.311 51.0678 264.374 51.2187C264.396 51.2703 264.43 51.3126 264.472 51.3435C264.553 51.4027 264.662 51.4194 264.761 51.3779L266.665 50.5829C266.759 51.1185 266.83 51.6502 266.877 52.1783L265.949 52.5048C265.794 52.5595 265.714 52.7285 265.768 52.8825C265.789 52.9412 265.826 52.9888 265.872 53.0228C265.948 53.0789 266.05 53.0974 266.146 53.0634L266.922 52.7903C266.969 53.6233 266.957 54.4449 266.887 55.2519C266.188 54.1312 264.546 51.7367 261.009 47.5005ZM269.887 53.1305C270.565 51.9679 271.011 50.7955 271.212 49.6453C271.465 48.1967 271.328 46.7826 270.806 45.4431C269.972 43.3049 268.735 41.8793 267.128 41.2056C265.647 40.5856 264.217 40.756 263.38 40.9589C262.277 39.2351 261.38 38.2141 261.327 38.1541C261.218 38.0314 261.031 38.0204 260.909 38.1285C260.786 38.237 260.775 38.4241 260.883 38.5463C260.895 38.5604 261.737 39.5183 262.787 41.135C262.714 41.1614 262.664 41.1813 262.642 41.1906C262.548 41.2232 261.928 41.446 261.243 41.8846C260.258 42.5156 259.611 43.2965 259.372 44.1432C259.046 45.2935 259.444 46.5505 260.554 47.8804C263.221 51.0739 264.78 53.1931 265.619 54.4087C266.529 55.728 266.811 56.298 266.813 56.3033C266.815 56.3077 266.818 56.3117 266.82 56.3161C266.823 56.321 266.826 56.3258 266.829 56.3307C266.833 56.3368 266.837 56.343 266.841 56.3492C266.845 56.3532 266.847 56.3576 266.85 56.3611C266.856 56.3677 266.861 56.3739 266.867 56.3796C266.87 56.3827 266.873 56.3863 266.876 56.3889C266.884 56.3964 266.892 56.4035 266.901 56.4101C266.902 56.411 266.904 56.4123 266.905 56.4132C266.908 56.4154 266.91 56.4167 266.913 56.4185C266.92 56.4229 266.926 56.4273 266.933 56.4313C266.937 56.4335 266.942 56.4357 266.946 56.4379C266.952 56.441 266.957 56.4436 266.963 56.4463C266.968 56.448 266.972 56.4498 266.977 56.4516C266.983 56.4538 266.99 56.456 266.996 56.4577C267.001 56.4591 267.005 56.4604 267.01 56.4617C267.014 56.4626 267.017 56.4635 267.021 56.4643C267.024 56.4652 267.027 56.4652 267.03 56.4657C267.033 56.4661 267.036 56.467 267.038 56.4674C267.041 56.4679 267.044 56.4679 267.048 56.4683C267.052 56.4688 267.057 56.4692 267.061 56.4692C267.068 56.4696 267.075 56.4701 267.082 56.4701C267.085 56.4701 267.089 56.4701 267.092 56.4696C267.101 56.4696 267.11 56.4688 267.119 56.4674C267.12 56.467 267.122 56.467 267.124 56.467C267.145 56.4635 267.166 56.4582 267.186 56.4502C267.189 56.4493 267.191 56.448 267.194 56.4471C267.201 56.4441 267.208 56.441 267.215 56.4374C267.218 56.4357 267.221 56.4339 267.224 56.4321C267.231 56.4286 267.236 56.4251 267.243 56.4211C267.246 56.4189 267.249 56.4167 267.252 56.4145C267.258 56.4105 267.264 56.4057 267.269 56.4013C267.271 56.3995 267.273 56.3982 267.275 56.3964C267.334 56.3443 268.738 55.0988 269.887 53.1305Z" fill="#0B0C0A"/>
<path fill-rule="evenodd" clip-rule="evenodd" d="M245.215 16.8666C245.215 16.8666 243.701 11.2976 250.343 9.72946C256.246 8.33561 260.382 14.6278 260.382 14.6278C260.382 14.6278 258.006 15.3933 251.103 19.681C246.296 22.6666 245.215 16.8666 245.215 16.8666Z" fill="#FFFFFE"/>
<path fill-rule="evenodd" clip-rule="evenodd" d="M259.639 14.1269C258.821 13.9351 257.98 13.8015 257.12 13.7262L257.579 12.8792C257.656 12.7351 257.603 12.5556 257.459 12.4778C257.316 12.3997 257.136 12.4532 257.058 12.5969L256.471 13.6811C255.967 13.6543 255.457 13.6476 254.942 13.6601L256.2 11.5546C256.284 11.4145 256.238 11.2329 256.098 11.149C255.958 11.0651 255.776 11.1107 255.692 11.2509L254.235 13.6897C254.01 13.7026 253.784 13.7194 253.558 13.74C253.242 13.7687 252.924 13.805 252.605 13.8478L254.087 10.9023C254.161 10.7558 254.102 10.5782 253.956 10.5046C253.81 10.431 253.632 10.4897 253.559 10.6358L251.888 13.9549C251.291 14.0539 250.689 14.1763 250.083 14.323L251.941 10.6459C252.015 10.4999 251.957 10.3219 251.811 10.2479C251.665 10.1743 251.487 10.2326 251.413 10.3786L249.32 14.5195C248.946 14.6215 248.571 14.7327 248.196 14.8522L249.637 11.3476C249.699 11.1964 249.627 11.0231 249.476 10.9612C249.325 10.899 249.152 10.9709 249.089 11.1225L247.454 15.0993C247.1 15.2228 246.76 15.3491 246.433 15.4763L247.459 12.5873C247.513 12.4333 247.433 12.2642 247.279 12.2095C247.125 12.1549 246.955 12.2353 246.901 12.3893L245.699 15.7735C245.59 15.8192 245.482 15.8651 245.377 15.9109C245.328 15.1224 245.404 13.9189 246.079 12.7878C246.886 11.4372 248.343 10.505 250.411 10.0165C251.701 9.71206 253.01 9.76855 254.302 10.1849C255.344 10.5206 256.38 11.0897 257.38 11.8771C258.398 12.6792 259.174 13.5486 259.639 14.1269ZM250.946 19.4285C249.652 20.2323 248.538 20.4384 247.634 20.0407C245.995 19.3197 245.51 16.836 245.506 16.8108C245.504 16.8035 245.502 16.7956 245.5 16.7882C245.499 16.784 245.475 16.6902 245.447 16.5277C245.564 16.4763 245.682 16.4249 245.803 16.3733L247.143 18.8051C247.222 18.9485 247.402 19.0006 247.546 18.9214C247.572 18.9073 247.595 18.8892 247.615 18.8688C247.703 18.7779 247.726 18.6363 247.662 18.5194L246.354 16.1452C246.72 15.9979 247.104 15.8515 247.504 15.7096L248.954 19.4593C249.013 19.612 249.184 19.6878 249.337 19.6286C249.378 19.6126 249.413 19.5886 249.442 19.5593C249.52 19.4789 249.549 19.3574 249.506 19.2457L248.065 15.5172C248.494 15.375 248.922 15.2445 249.348 15.1255L250.802 18.7536C250.863 18.9052 251.035 18.9789 251.187 18.9183C251.226 18.9025 251.261 18.8788 251.289 18.8502C251.368 18.7687 251.396 18.6453 251.351 18.5333L249.925 14.9718C250.582 14.8047 251.236 14.6659 251.883 14.5561L252.807 17.3888C252.858 17.5443 253.025 17.6293 253.181 17.5786C253.228 17.5629 253.269 17.537 253.301 17.5037C253.375 17.4273 253.406 17.3135 253.37 17.2052L252.475 14.4631C252.857 14.4085 253.235 14.3639 253.611 14.3299C253.803 14.3123 253.993 14.2982 254.183 14.2861L254.736 16.403C254.778 16.5612 254.939 16.6562 255.097 16.6147C255.152 16.6005 255.198 16.5724 255.235 16.5351C255.304 16.4635 255.336 16.3574 255.309 16.2533L254.787 14.2572C255.331 14.2393 255.867 14.2436 256.397 14.27L256.591 15.2348C256.623 15.3953 256.779 15.4988 256.939 15.4666C257 15.4547 257.053 15.4242 257.093 15.3831C257.159 15.3153 257.191 15.2174 257.171 15.1179L257.009 14.3112C257.84 14.3811 258.652 14.507 259.442 14.6891C258.235 15.2248 255.634 16.5166 250.946 19.4285ZM257.759 11.4226C256.703 10.5886 255.604 9.98371 254.493 9.62405C253.094 9.17169 251.675 9.10994 250.275 9.44036C248.042 9.96748 246.457 10.9942 245.567 12.4915C244.746 13.8708 244.715 15.3111 244.799 16.1682C242.938 17.02 241.802 17.7662 241.735 17.8103C241.599 17.9007 241.562 18.0844 241.652 18.2205C241.742 18.3571 241.926 18.3946 242.062 18.3042C242.078 18.2939 243.144 17.5938 244.891 16.7799C244.907 16.8561 244.92 16.9078 244.926 16.9314C244.945 17.0286 245.079 17.6735 245.418 18.4132C245.905 19.4768 246.588 20.2267 247.393 20.5816C248.487 21.064 249.788 20.8453 251.259 19.9315C254.793 17.7362 257.109 16.4877 258.43 15.8271C259.863 15.1098 260.467 14.9106 260.473 14.9087C260.477 14.9071 260.482 14.9051 260.486 14.9035C260.491 14.9015 260.497 14.8996 260.502 14.8972C260.509 14.8942 260.515 14.8906 260.522 14.8871C260.526 14.8846 260.531 14.8826 260.535 14.8801C260.542 14.8757 260.549 14.8709 260.556 14.866C260.559 14.8634 260.563 14.8612 260.566 14.8582C260.575 14.8518 260.583 14.8444 260.59 14.8366C260.592 14.8354 260.593 14.8343 260.594 14.8331C260.597 14.8308 260.598 14.8284 260.6 14.826C260.606 14.8201 260.611 14.8146 260.616 14.8081C260.619 14.8041 260.622 14.8 260.624 14.796C260.628 14.7907 260.632 14.7854 260.635 14.7801C260.638 14.776 260.64 14.7714 260.642 14.7668C260.645 14.761 260.648 14.7552 260.651 14.7494C260.653 14.7448 260.655 14.7405 260.657 14.7359C260.658 14.7321 260.66 14.7288 260.661 14.7254C260.662 14.7224 260.663 14.7194 260.664 14.7164C260.664 14.7138 260.666 14.7113 260.666 14.7087C260.667 14.7057 260.668 14.7027 260.669 14.6992C260.67 14.6949 260.671 14.6906 260.672 14.6867C260.673 14.6798 260.674 14.6728 260.675 14.6658C260.676 14.6623 260.676 14.6588 260.677 14.6554C260.677 14.6465 260.678 14.6377 260.678 14.6292C260.678 14.6275 260.678 14.6257 260.678 14.6235C260.678 14.602 260.675 14.5807 260.67 14.5596C260.669 14.5572 260.669 14.5544 260.668 14.5517C260.666 14.5443 260.664 14.5368 260.661 14.5298C260.66 14.526 260.659 14.5227 260.657 14.5194C260.655 14.5128 260.652 14.5067 260.649 14.5C260.647 14.4967 260.646 14.4933 260.644 14.4899C260.641 14.4832 260.637 14.4769 260.633 14.4706C260.632 14.4686 260.631 14.4662 260.629 14.4642C260.586 14.3984 259.548 12.8349 257.759 11.4226Z" fill="#0B0C0A"/>
</g>
<defs>
<radialGradient id="paint0_radial_1798_29479" cx="0" cy="0" r="1" gradientUnits="userSpaceOnUse" gradientTransform="translate(196.115 56.486) rotate(89.9511) scale(63.736 67.4476)">
<stop stop-color="#FFEF9E"/>
<stop offset="0.452438" stop-color="#FFD921"/>
<stop offset="1" stop-color="#FAD001"/>
</radialGradient>
<linearGradient id="paint1_linear_1798_29479" x1="334.783" y1="111.606" x2="163.55" y2="57.7702" gradientUnits="userSpaceOnUse">
<stop offset="0.369792" stop-color="#E64500" stop-opacity="0.81"/>
<stop offset="0.572917" stop-color="#FF5C00" stop-opacity="0.79"/>
<stop offset="0.927083" stop-color="#FF9921"/>
</linearGradient>
<linearGradient id="paint2_linear_1798_29479" x1="254.331" y1="38.2705" x2="148.292" y2="17.2054" gradientUnits="userSpaceOnUse">
<stop offset="0.369792" stop-color="#E64500" stop-opacity="0.81"/>
<stop offset="0.572917" stop-color="#FF5C00" stop-opacity="0.79"/>
<stop offset="0.927083" stop-color="#FF9921"/>
</linearGradient>
<linearGradient id="paint3_linear_1798_29479" x1="279.915" y1="71.7744" x2="226.592" y2="65.8773" gradientUnits="userSpaceOnUse">
<stop offset="0.369792" stop-color="#E64500" stop-opacity="0.81"/>
<stop offset="0.572917" stop-color="#FF5C00" stop-opacity="0.79"/>
<stop offset="0.927083" stop-color="#FF9921"/>
</linearGradient>
<linearGradient id="paint4_linear_1798_29479" x1="171.268" y1="81.2389" x2="140.985" y2="77.8686" gradientUnits="userSpaceOnUse">
<stop offset="0.369792" stop-color="#E64500" stop-opacity="0.81"/>
<stop offset="0.572917" stop-color="#FF5C00" stop-opacity="0.79"/>
<stop offset="0.927083" stop-color="#FF9921"/>
</linearGradient>
</defs>
</svg>
