<svg width="78" height="78" viewBox="0 0 78 78" fill="none" xmlns="http://www.w3.org/2000/svg">
<g opacity="0.5">
<path fill-rule="evenodd" clip-rule="evenodd" d="M77.7554 38.8777C77.7554 60.3493 60.3493 77.7554 38.8777 77.7554C17.4061 77.7554 0 60.3493 0 38.8777C0 17.4061 17.4061 0 38.8777 0C60.3493 0 77.7554 17.4061 77.7554 38.8777ZM38.5 23.9453C43.2396 23.9453 47.1042 27.8099 47.1042 32.5495V36.0349C49.6709 36.5745 51.6105 38.8641 51.6105 41.5912V47.4099C51.6105 50.5599 49.0584 53.112 45.923 53.112H31.0917C27.9417 53.112 25.3896 50.5599 25.3896 47.4099V41.5912C25.3896 38.8641 27.3292 36.5745 29.8959 36.0349V32.5495C29.8959 27.8099 33.7605 23.9453 38.5 23.9453ZM38.5 48.6057C39.098 48.6057 39.5938 48.1099 39.5938 47.512V45.3536C40.4834 44.9307 41.0959 44.0411 41.0959 43.0057C41.0959 41.5766 39.9292 40.4099 38.5 40.4099C37.0709 40.4099 35.9042 41.5766 35.9042 43.0057C35.9042 44.0411 36.5167 44.9307 37.4063 45.3536V47.512C37.4063 48.1099 37.9021 48.6057 38.5 48.6057ZM38.5 26.1328C34.9563 26.1328 32.0834 29.0057 32.0834 32.5495V35.9037H44.9167V32.5495C44.9167 29.0057 42.0438 26.1328 38.5 26.1328Z" fill="url(#paint0_linear_3075_35048)"/>
</g>
<defs>
<linearGradient id="paint0_linear_3075_35048" x1="38.8777" y1="0" x2="38.8777" y2="77.7554" gradientUnits="userSpaceOnUse">
<stop stop-color="#B56400"/>
<stop offset="1" stop-color="#FCD10A"/>
</linearGradient>
</defs>
</svg>
