<svg width="29" height="28" viewBox="0 0 29 28" fill="none" xmlns="http://www.w3.org/2000/svg">
<path d="M20.168 14.8076C18.9707 10.2794 14.6809 9.92355 14.6809 9.92355C14.6809 9.92355 14.572 9.0901 14.0851 8.23657C13.3323 8.23306 12.4266 9.64657 12.4266 9.64657H8.70388C8.70388 9.64657 7.798 8.23306 7.04534 8.23657C6.55845 9.09003 6.44955 9.92355 6.44955 9.92355C6.44955 9.92355 2.31672 10.2798 0.962534 14.8076C0.581758 16.0809 0.236328 20.1918 0.236328 22.166C0.236328 25.5313 2.15161 27.5986 5.56927 27.7361L7.32897 27.7637C7.86733 27.7637 13.2277 27.7637 13.7803 27.7637L15.5268 27.735L15.5612 27.7359C18.9789 27.5984 20.8942 25.5311 20.8942 22.1658C20.8942 20.1918 20.5078 16.0923 20.168 14.8076Z" fill="url(#paint0_radial_1989_162184)"/>
<path d="M13.7798 28C13.1727 28 7.83727 28 7.32866 28H7.32522L5.56516 27.9721H5.55943C4.68854 27.9371 3.89666 27.7785 3.20566 27.5002C2.51846 27.2236 1.92768 26.8279 1.44954 26.324C0.973842 25.8227 0.609127 25.2139 0.365648 24.5143C0.122886 23.817 0 23.0269 0 22.1659C0 20.2507 0.336969 16.0747 0.736099 14.7397C1.05457 13.6748 1.55121 12.7459 2.21217 11.9796C2.74207 11.3651 3.37751 10.8536 4.10071 10.4598C5.04709 9.94409 5.88794 9.76731 6.24649 9.71129C6.30686 9.409 6.46738 8.77177 6.84006 8.11913C6.8606 8.0831 6.89027 8.05312 6.92608 8.0322C6.96188 8.01129 7.00257 8.00018 7.04403 8H7.0479C7.42882 8 7.86065 8.26271 8.33126 8.78102C8.51038 8.9799 8.67667 9.18999 8.82911 9.41H12.3009C12.4534 9.18999 12.6197 8.97991 12.7988 8.78102C13.2695 8.26278 13.7013 8 14.0822 8H14.0861C14.1275 8.00018 14.1682 8.01129 14.204 8.0322C14.2398 8.05312 14.2695 8.0831 14.29 8.11913C14.6623 8.77177 14.8229 9.40785 14.8834 9.71051C15.2505 9.76544 16.1206 9.94123 17.0867 10.4591C17.8223 10.8536 18.461 11.3655 18.985 11.9809C19.639 12.7492 20.1138 13.68 20.3961 14.7472C20.5582 15.3602 20.7395 16.6207 20.8933 18.2054C21.0416 19.7323 21.1299 21.2129 21.1299 22.1661C21.1299 23.0271 21.0069 23.8172 20.7643 24.5144C20.5205 25.2141 20.1561 25.8229 19.6804 26.3241C19.2023 26.8279 18.6115 27.2236 17.9243 27.5003C17.2333 27.7785 16.4413 27.9372 15.5705 27.9722C15.5594 27.9727 15.5484 27.9724 15.5373 27.9713H15.5301L13.7836 28H13.7798ZM9.93624 27.5274H13.7778L15.5223 27.4988C15.5315 27.4986 15.5407 27.499 15.5499 27.4999H15.5512C16.3678 27.4671 17.107 27.3197 17.7476 27.0617C18.3713 26.8107 18.9064 26.4529 19.3375 25.9987C19.7667 25.5464 20.0966 24.9946 20.3179 24.3589C20.5433 23.7117 20.6575 22.9738 20.6575 22.1659C20.6575 21.227 20.5698 19.7633 20.4229 18.2508C20.2736 16.7133 20.0931 15.4486 19.9391 14.8678C19.6762 13.8737 19.2365 13.0084 18.6329 12.2962C18.1498 11.7265 17.5601 11.2514 16.88 10.8843C16.3899 10.621 15.8693 10.4191 15.33 10.283C14.9259 10.1818 14.6632 10.1585 14.6606 10.1583C14.6069 10.1537 14.5563 10.1309 14.5173 10.0937C14.4784 10.0564 14.4533 10.007 14.4462 9.95356C14.4453 9.94639 14.3479 9.24132 13.9549 8.49049C13.7346 8.55159 13.4554 8.7603 13.1519 9.09358C12.9596 9.30679 12.7834 9.53395 12.6247 9.77319C12.6033 9.80647 12.5739 9.83385 12.5392 9.85283C12.5045 9.87181 12.4656 9.88179 12.426 9.88184H8.7035C8.66391 9.8818 8.62497 9.87183 8.59024 9.85284C8.5555 9.83384 8.52609 9.80643 8.50469 9.77312C8.346 9.53412 8.16984 9.3072 7.97765 9.09422C7.67424 8.76101 7.39498 8.55224 7.17466 8.49113C6.78162 9.2416 6.68426 9.94704 6.68326 9.95421C6.67613 10.0075 6.65108 10.0568 6.61222 10.0939C6.57336 10.1311 6.52301 10.1539 6.46946 10.1586C6.46724 10.1586 6.21437 10.1821 5.82248 10.2833C5.29515 10.4209 4.78674 10.6228 4.3087 10.8845C3.63906 11.252 3.05108 11.7277 2.56111 12.2983C1.94804 13.0121 1.48625 13.8793 1.18807 14.8753C1.0198 15.438 0.838625 16.6666 0.691075 18.2461C0.555785 19.6938 0.471757 21.1959 0.471757 22.1664C0.471757 22.9743 0.585968 23.7122 0.811308 24.3594C1.03263 24.9952 1.3625 25.5469 1.79175 25.9992C2.22285 26.4534 2.75777 26.8111 3.38167 27.0622C4.02163 27.3198 4.75959 27.4672 5.5752 27.5003L7.3301 27.5278L9.93624 27.5274Z" fill="#47131A"/>
<path d="M15.1718 26.0111C15.243 26.869 15.2306 27.5574 15.2306 27.5574H5.87863C5.40193 26.7992 5.81681 26.6884 5.87863 26.0111C5.87892 21.1997 14.9826 21.0606 15.1718 26.0111Z" fill="#FE7825"/>
<path d="M15.1718 26.0111C15.243 26.869 15.2306 27.5574 15.2306 27.5574H5.87863C5.40193 26.7992 5.81681 26.6884 5.87863 26.0111C5.87892 21.1997 14.9826 21.0606 15.1718 26.0111Z" fill="url(#paint1_linear_1989_162184)"/>
<path d="M19.9596 14.8332C19.9596 14.8332 19.3287 14.9658 18.2794 16.2297C17.3142 17.3925 17.5649 19.463 20.4621 19.2504C20.4621 17.3585 19.9596 14.8332 19.9596 14.8332Z" fill="#FE7825"/>
<path d="M19.9596 14.8332C19.9596 14.8332 19.3287 14.9658 18.2794 16.2297C17.3142 17.3925 17.5649 19.463 20.4621 19.2504C20.4621 17.3585 19.9596 14.8332 19.9596 14.8332Z" fill="url(#paint2_linear_1989_162184)"/>
<path d="M0.473633 21.0632C0.473633 21.0632 1.98641 21.2125 2.00125 19.7089C2.01158 18.6575 0.660544 18.5656 0.660544 18.5656L0.473633 21.0632Z" fill="#FE7825"/>
<path d="M0.473633 21.0632C0.473633 21.0632 1.98641 21.2125 2.00125 19.7089C2.01158 18.6575 0.660544 18.5656 0.660544 18.5656L0.473633 21.0632Z" fill="url(#paint3_linear_1989_162184)"/>
<path d="M16.8481 27.3872C19.9333 26.6628 20.8473 24.1916 20.6313 21.2148C20.5682 23.7026 17.9045 25.8192 16.7239 25.9634C14.5997 22.365 11.2129 22.365 11.2129 22.365C13.9202 22.7279 15.0287 24.4269 15.1372 25.8845C15.1372 25.8845 15.2367 26.9107 15.2228 27.5247C16.1113 27.5247 16.8481 27.3872 16.8481 27.3872Z" fill="#F6A505"/>
<path d="M4.27319 27.39C1.18798 26.6656 0.274006 24.1943 0.490097 21.2175C0.553046 23.7053 3.21683 25.8219 4.39751 25.9662C6.52171 22.3677 9.90848 22.3677 9.90848 22.3677C7.20125 22.7306 6.09269 24.4297 5.98421 25.8872C5.98421 25.8872 5.8847 26.9135 5.89868 27.5275C5.01001 27.5274 4.27319 27.39 4.27319 27.39Z" fill="#F6A505"/>
<path d="M8.52369 9.80184C8.52369 9.80184 9.74132 13.0072 7.12034 13.3944C4.24233 13.8196 3.46582 11.4391 3.46582 11.4391C3.78781 11.1573 5.03551 10.3118 6.61861 10.0971C6.88693 8.90267 7.16867 8.48663 7.16867 8.48663C7.16867 8.48663 7.65165 8.52689 8.52369 9.80184Z" fill="#FE7825"/>
<path d="M8.52369 9.80184C8.52369 9.80184 9.74132 13.0072 7.12034 13.3944C4.24233 13.8196 3.46582 11.4391 3.46582 11.4391C3.78781 11.1573 5.03551 10.3118 6.61861 10.0971C6.88693 8.90267 7.16867 8.48663 7.16867 8.48663C7.16867 8.48663 7.65165 8.52689 8.52369 9.80184Z" fill="url(#paint4_linear_1989_162184)"/>
<g opacity="0.8" filter="url(#filter0_f_1989_162184)">
<path fill-rule="evenodd" clip-rule="evenodd" d="M10.89 11.1006C10.9462 11.055 10.9875 10.9939 11.0089 10.9248C11.0375 10.832 11.028 10.7316 10.9827 10.6458C10.9373 10.56 10.8597 10.4956 10.767 10.467C10.6979 10.4458 10.6241 10.4455 10.5548 10.4662C10.4855 10.4869 10.424 10.5277 10.3779 10.5834C10.3318 10.6391 10.3033 10.7073 10.2959 10.7792C10.2885 10.8511 10.3025 10.9236 10.3363 10.9876C10.3701 11.0515 10.4221 11.104 10.4857 11.1384C10.5492 11.1728 10.6216 11.1875 10.6936 11.1808C10.7655 11.1741 10.8339 11.1462 10.89 11.1006ZM12.3204 11.2872C14.7969 11.6807 16.8755 12.9015 17.6963 13.5254C18.5169 14.1491 19.1715 13.1876 17.0017 11.8897C15.5422 11.0811 13.8761 10.6299 12.4577 10.5772C11.7723 10.552 11.188 11.1073 12.3204 11.2872Z" fill="white"/>
</g>
<path d="M19.659 18.7309C19.6426 18.731 19.6262 18.7283 19.6107 18.723L18.471 18.3402C18.4335 18.3268 18.4028 18.2993 18.3854 18.2635C18.368 18.2277 18.3654 18.1865 18.378 18.1487C18.3907 18.111 18.4176 18.0797 18.4531 18.0617C18.4885 18.0436 18.5297 18.0402 18.5676 18.0522L19.7073 18.435C19.7414 18.4465 19.7704 18.4698 19.789 18.5006C19.8076 18.5315 19.8146 18.568 19.8088 18.6035C19.803 18.6391 19.7847 18.6714 19.7573 18.6948C19.7298 18.7181 19.695 18.7309 19.659 18.7309Z" fill="#47131A"/>
<path d="M19.7622 17.5956H18.5308C18.4912 17.5946 18.4536 17.5781 18.4259 17.5498C18.3983 17.5214 18.3828 17.4833 18.3828 17.4437C18.3828 17.4041 18.3983 17.3661 18.4259 17.3377C18.4536 17.3093 18.4912 17.2929 18.5308 17.2919H19.7622C19.8018 17.2929 19.8394 17.3093 19.867 17.3377C19.8947 17.3661 19.9101 17.4041 19.9101 17.4437C19.9101 17.4833 19.8947 17.5214 19.867 17.5498C19.8394 17.5781 19.8018 17.5946 19.7622 17.5956Z" fill="#47131A"/>
<path d="M1.9633 18.7309C1.92728 18.7309 1.89244 18.7181 1.86501 18.6947C1.83757 18.6714 1.81932 18.6391 1.81351 18.6035C1.8077 18.5679 1.81472 18.5315 1.83331 18.5006C1.8519 18.4697 1.88085 18.4465 1.91499 18.435L3.05468 18.0522C3.07369 18.0454 3.09386 18.0424 3.11401 18.0436C3.13417 18.0447 3.1539 18.0498 3.17205 18.0586C3.1902 18.0674 3.20641 18.0798 3.21974 18.0949C3.23307 18.1101 3.24324 18.1278 3.24966 18.1469C3.25608 18.166 3.25863 18.1863 3.25714 18.2064C3.25566 18.2265 3.25018 18.2462 3.24102 18.2642C3.23187 18.2822 3.21922 18.2981 3.20381 18.3112C3.18841 18.3242 3.17056 18.3341 3.15131 18.3401L2.01161 18.723C1.99605 18.7283 1.97973 18.7309 1.9633 18.7309Z" fill="#47131A"/>
<path d="M3.09128 17.5955H1.85986C1.8396 17.5961 1.81943 17.5925 1.80056 17.5851C1.78169 17.5777 1.76448 17.5666 1.74997 17.5525C1.73545 17.5383 1.72391 17.5214 1.71604 17.5027C1.70816 17.484 1.7041 17.464 1.7041 17.4437C1.7041 17.4234 1.70816 17.4033 1.71604 17.3846C1.72391 17.366 1.73545 17.349 1.74997 17.3349C1.76448 17.3207 1.78169 17.3096 1.80056 17.3022C1.81943 17.2948 1.8396 17.2913 1.85986 17.2918H3.09128C3.13086 17.2928 3.16849 17.3093 3.19613 17.3376C3.22377 17.366 3.23924 17.4041 3.23924 17.4437C3.23924 17.4833 3.22377 17.5213 3.19613 17.5497C3.16849 17.5781 3.13086 17.5945 3.09128 17.5955Z" fill="#47131A"/>
<path opacity="0.5" fill-rule="evenodd" clip-rule="evenodd" d="M15.9113 13.8316C14.9278 13.8385 14.2642 15.0321 14.2974 16.7224C14.3306 18.4133 15.0158 19.5812 15.964 19.5748C16.9124 19.5683 17.5761 18.3911 17.5782 16.6998C17.5805 15.0097 16.8951 13.825 15.9113 13.8316Z" fill="white"/>
<path fill-rule="evenodd" clip-rule="evenodd" d="M15.8909 13.7213C14.9074 13.7282 14.2415 14.8025 14.2716 16.3218C14.3014 17.842 14.9865 18.8906 15.9382 18.8842C16.8898 18.8778 17.5559 17.8199 17.5579 16.2995C17.5599 14.78 16.8744 13.7148 15.8909 13.7213Z" fill="#47131A"/>
<path fill-rule="evenodd" clip-rule="evenodd" d="M16.1126 15.2397C16.1146 15.5814 15.8411 15.8591 15.5017 15.861C15.1623 15.8629 14.8833 15.5887 14.8786 15.2472C14.8736 14.9054 15.1473 14.6252 15.4893 14.6235C15.8313 14.6211 16.1105 14.898 16.1126 15.2397Z" fill="white"/>
<path fill-rule="evenodd" clip-rule="evenodd" d="M15.1429 20.5374C15.1411 20.1618 15.6672 20.005 16.317 19.9954C16.9669 19.9861 17.6411 20.1306 17.6488 20.5059C17.6565 20.8812 16.9849 21.0437 16.3306 21.053C15.6763 21.0628 15.1447 20.9129 15.1429 20.5374Z" fill="#FFB43C"/>
<path opacity="0.5" fill-rule="evenodd" clip-rule="evenodd" d="M5.47264 14.1137C4.48911 14.1315 3.83313 15.3327 3.87708 17.0227C3.92133 18.713 4.61413 19.8735 5.56232 19.8563C6.51021 19.8393 7.16649 18.6542 7.15787 16.9633C7.14926 15.2727 6.45616 14.0958 5.47264 14.1137Z" fill="white"/>
<path fill-rule="evenodd" clip-rule="evenodd" d="M5.47158 14.1141C4.48835 14.1319 3.8291 15.2139 3.8689 16.7331C3.90869 18.2525 4.6006 19.2938 5.55205 19.2766C6.50351 19.2594 7.16246 18.1937 7.15474 16.6733C7.14702 15.1539 6.45481 14.0963 5.47158 14.1141Z" fill="#47131A"/>
<path fill-rule="evenodd" clip-rule="evenodd" d="M6.27402 15.3318C6.27758 15.6736 6.00557 15.955 5.66614 15.9612C5.32672 15.9678 5.04639 15.697 5.04015 15.3556C5.03362 15.0138 5.30593 14.7303 5.64803 14.7238C5.99012 14.7173 6.27045 14.9901 6.27402 15.3318Z" fill="white"/>
<path fill-rule="evenodd" clip-rule="evenodd" d="M4.31308 20.7244C4.33612 20.3331 5.01611 20.2104 5.66567 20.2467C6.31553 20.2831 6.83542 20.4685 6.81799 20.8602C6.80115 21.2518 6.26354 21.386 5.60925 21.3494C4.95496 21.3124 4.29004 21.1158 4.31308 20.7244Z" fill="#FFB43C"/>
<path opacity="0.5" d="M12.5237 16.5221L12.2109 16.5877V16.5865C12.2109 16.5888 12.2539 16.8195 12.1074 16.9975C11.9748 17.1585 11.7257 17.2405 11.3673 17.2405C11.2548 17.2405 11.1563 17.2168 11.0896 17.1736C11.0428 17.1433 10.9821 17.0876 10.972 16.9518C10.9727 16.9387 10.9731 16.9255 10.9731 16.9121V16.5887C10.9731 16.5677 10.969 16.5469 10.9609 16.5275C10.9529 16.5081 10.9411 16.4904 10.9263 16.4756C10.9114 16.4607 10.8938 16.449 10.8744 16.4409C10.855 16.4329 10.8343 16.4288 10.8133 16.4288H10.8107C10.7898 16.4288 10.769 16.4329 10.7496 16.4409C10.7302 16.449 10.7126 16.4607 10.6977 16.4756C10.6829 16.4904 10.6711 16.5081 10.6631 16.5275C10.6551 16.5469 10.6509 16.5677 10.6509 16.5887V16.9121C10.6509 16.9255 10.6509 16.9387 10.6519 16.9518C10.6419 17.0874 10.5811 17.1431 10.5344 17.1736C10.4678 17.2168 10.3692 17.2405 10.2566 17.2405C9.89799 17.2405 9.64926 17.159 9.51667 16.9975C9.37004 16.8195 9.41266 16.5888 9.41308 16.5865V16.5877L9.10043 16.5221C9.09716 16.5373 9.02511 16.8987 9.26677 17.1966C9.46245 17.4378 9.79557 17.5602 10.257 17.5602C10.4975 17.5602 10.6883 17.4862 10.8123 17.3548C10.9364 17.4864 11.1271 17.5602 11.3676 17.5602C11.8291 17.5602 12.1622 17.4378 12.3579 17.1966C12.5986 16.8987 12.5269 16.5369 12.5237 16.5221Z" fill="#F7F7F7"/>
<path d="M12.5237 16.2391L12.2109 16.3047V16.3035C12.2109 16.3058 12.2539 16.5365 12.1074 16.7145C11.9748 16.8755 11.7257 16.9575 11.3673 16.9575C11.2548 16.9575 11.1563 16.9338 11.0896 16.8906C11.0428 16.8603 10.9821 16.8047 10.972 16.6688C10.9727 16.6557 10.9731 16.6425 10.9731 16.6291V16.3057C10.9731 16.2847 10.969 16.2639 10.9609 16.2445C10.9529 16.2251 10.9411 16.2074 10.9263 16.1926C10.9114 16.1777 10.8938 16.166 10.8744 16.1579C10.855 16.1499 10.8343 16.1458 10.8133 16.1458H10.8107C10.7898 16.1458 10.769 16.1499 10.7496 16.1579C10.7302 16.166 10.7126 16.1777 10.6977 16.1926C10.6829 16.2074 10.6711 16.2251 10.6631 16.2445C10.6551 16.2639 10.6509 16.2847 10.6509 16.3057V16.6291C10.6509 16.6425 10.6509 16.6557 10.6519 16.6688C10.6419 16.8044 10.5811 16.8601 10.5344 16.8906C10.4678 16.9338 10.3692 16.9575 10.2566 16.9575C9.89799 16.9575 9.64926 16.876 9.51667 16.7145C9.37004 16.5365 9.41266 16.3058 9.41308 16.3035V16.3047L9.10043 16.2391C9.09716 16.2543 9.02511 16.6157 9.26677 16.9136C9.46245 17.1548 9.79557 17.2772 10.257 17.2772C10.4975 17.2772 10.6883 17.2032 10.8123 17.0718C10.9364 17.2034 11.1271 17.2772 11.3676 17.2772C11.8291 17.2772 12.1622 17.1548 12.3579 16.9136C12.5986 16.6157 12.5269 16.2539 12.5237 16.2391Z" fill="#47131A"/>
<defs>
<filter id="filter0_f_1989_162184" x="0.293945" y="0.450863" width="28.1768" height="23.2694" filterUnits="userSpaceOnUse" color-interpolation-filters="sRGB">
<feFlood flood-opacity="0" result="BackgroundImageFix"/>
<feBlend mode="normal" in="SourceGraphic" in2="BackgroundImageFix" result="shape"/>
<feGaussianBlur stdDeviation="5" result="effect1_foregroundBlur_1989_162184"/>
</filter>
<radialGradient id="paint0_radial_1989_162184" cx="0" cy="0" r="1" gradientUnits="userSpaceOnUse" gradientTransform="translate(10.5546 15.29) rotate(89.9511) scale(12.4736 13.1959)">
<stop stop-color="#FFEF9E"/>
<stop offset="0.452438" stop-color="#FFD921"/>
<stop offset="1" stop-color="#FAD001"/>
</radialGradient>
<linearGradient id="paint1_linear_1989_162184" x1="38.1476" y1="25.9552" x2="4.33665" y2="14.6234" gradientUnits="userSpaceOnUse">
<stop offset="0.369792" stop-color="#E64500" stop-opacity="0.81"/>
<stop offset="0.572917" stop-color="#FF5C00" stop-opacity="0.79"/>
<stop offset="0.927083" stop-color="#FF9921"/>
</linearGradient>
<linearGradient id="paint2_linear_1989_162184" x1="26.8966" y1="17.9018" x2="16.4642" y2="16.7485" gradientUnits="userSpaceOnUse">
<stop offset="0.369792" stop-color="#E64500" stop-opacity="0.81"/>
<stop offset="0.572917" stop-color="#FF5C00" stop-opacity="0.79"/>
<stop offset="0.927083" stop-color="#FF9921"/>
</linearGradient>
<linearGradient id="paint3_linear_1989_162184" x1="5.65599" y1="20.2975" x2="-0.268546" y2="19.6384" gradientUnits="userSpaceOnUse">
<stop offset="0.369792" stop-color="#E64500" stop-opacity="0.81"/>
<stop offset="0.572917" stop-color="#FF5C00" stop-opacity="0.79"/>
<stop offset="0.927083" stop-color="#FF9921"/>
</linearGradient>
<linearGradient id="paint4_linear_1989_162184" x1="21.5819" y1="11.9195" x2="1.3923" y2="7.95815" gradientUnits="userSpaceOnUse">
<stop offset="0.369792" stop-color="#E64500" stop-opacity="0.81"/>
<stop offset="0.572917" stop-color="#FF5C00" stop-opacity="0.79"/>
<stop offset="0.927083" stop-color="#FF9921"/>
</linearGradient>
</defs>
</svg>
