<svg width="37" height="36" viewBox="0 0 37 36" fill="none" xmlns="http://www.w3.org/2000/svg">
<path d="M18.8597 36C28.8258 36 36.9049 27.9411 36.9049 18C36.9049 8.05887 28.8258 0 18.8597 0C8.89358 0 0.814453 8.05887 0.814453 18C0.814453 27.9411 8.89358 36 18.8597 36Z" fill="black"/>
<path fill-rule="evenodd" clip-rule="evenodd" d="M21.2822 26.1736V28.9748L18.8599 30.375L16.437 28.9748V26.1736L18.8599 27.5745L21.2822 26.1736ZM29.5929 16.5875V24.1692L23.0027 27.9603V25.1592L27.1699 22.7689V17.9878L29.5929 16.5875ZM8.12695 16.5875L10.5499 17.9878V22.7683L14.7172 25.1592V27.9603L8.12695 24.1692V16.5875ZM23.0271 12.7963L25.4494 14.1966V16.9977L21.2822 19.3886V24.1691L18.8598 25.57L16.4369 24.1691V19.3886L12.2703 16.9977V14.1966L14.6926 12.7963L18.8598 15.1866L23.0271 12.7963ZM25.4496 18.9776V21.7787L23.0273 23.1796V20.3785L25.4496 18.9776ZM12.2703 18.9776L14.6926 20.3785V23.1796L12.2703 21.7787V18.9776ZM27.1699 10.4055L29.5928 11.8064V14.6075L27.1699 16.0078V13.2073L24.7475 11.8064L27.1699 10.4055ZM10.5499 10.4055L12.9722 11.8064L10.5499 13.2073V16.0078L8.12695 14.6075V11.8064L10.5499 10.4055ZM18.86 10.4058L21.2823 11.8061L18.86 13.2069L16.437 11.8061L18.86 10.4058ZM18.8599 5.625L25.4501 9.41551L23.0272 10.8164L18.8599 8.4255L14.692 10.8164L12.2697 9.41551L18.8599 5.625Z" fill="#F0B90B"/>
</svg>
