<svg width="23" height="23" viewBox="0 0 23 23" fill="none" xmlns="http://www.w3.org/2000/svg">
<path d="M8.9668 15.2271C9.83606 15.7946 10.8741 16.0457 11.9066 15.9384C12.9391 15.8311 13.9033 15.3719 14.6373 14.6379C15.3713 13.9039 15.8305 12.9397 15.9378 11.9072C16.0451 10.8747 15.7939 9.83667 15.2265 8.96741L8.9668 15.2271Z" fill="#FC346D"/>
<path d="M11.4546 0.600006C9.3077 0.600006 7.20899 1.23664 5.4239 2.4294C3.6388 3.62217 2.24749 5.31749 1.4259 7.30098C0.604313 9.28447 0.389347 11.467 0.80819 13.5727C1.22703 15.6784 2.26087 17.6126 3.77897 19.1306C5.29707 20.6487 7.23124 21.6826 9.33691 22.1014C11.4426 22.5203 13.6251 22.3053 15.6086 21.4837C17.5921 20.6621 19.2875 19.2708 20.4802 17.4857C21.673 15.7006 22.3096 13.6019 22.3096 11.455C22.3096 8.57608 21.166 5.81507 19.1303 3.77936C17.0945 1.74365 14.3335 0.600006 11.4546 0.600006ZM11.4546 17.7871C10.2022 17.7871 8.978 17.4157 7.9367 16.7199C6.89539 16.0242 6.08379 15.0352 5.60453 13.8782C5.12527 12.7212 4.99988 11.448 5.2442 10.2197C5.48852 8.99137 6.0916 7.86311 6.97716 6.97755C7.86271 6.09199 8.99098 5.48892 10.2193 5.24459C11.4476 5.00027 12.7208 5.12566 13.8778 5.60492C15.0348 6.08418 16.0238 6.89578 16.7195 7.93709C17.4153 8.9784 17.7867 10.2026 17.7867 11.455C17.7867 13.1344 17.1196 14.745 15.9321 15.9325C14.7446 17.12 13.134 17.7871 11.4546 17.7871Z" fill="#FC346D"/>
<path d="M13.9425 7.68289C13.0732 7.11546 12.0352 6.86431 11.0027 6.9716C9.97021 7.07889 9.00603 7.53808 8.272 8.27211C7.53798 9.00614 7.07878 9.97032 6.97149 11.0028C6.86421 12.0353 7.11535 13.0733 7.68278 13.9426L13.9425 7.68289Z" fill="#FC346D"/>
</svg>
