<svg width="22" height="22" viewBox="0 0 22 22" fill="none" xmlns="http://www.w3.org/2000/svg">
<circle cx="11" cy="11" r="10.5" fill="#F0B90B" stroke="white"/>
<g clip-path="url(#clip0_1989_162227)">
<path d="M8.19434 9.84745L10.9996 7.04222L13.8061 9.84866L15.4383 8.21644L10.9996 3.77778L6.56223 8.21511L8.1944 9.84733L8.19434 9.84745ZM3.77734 11L5.40962 9.36749L7.04179 10.9997L5.40951 12.6319L3.77734 11ZM8.19434 12.1527L10.9996 14.9578L13.8061 12.1514L15.4392 13.7828L15.4383 13.7836L10.9996 18.2222L6.56223 13.7849L6.55992 13.7826L8.19451 12.1526L8.19434 12.1527ZM14.9573 11.0007L16.5896 9.36841L18.2218 11.0006L16.5896 12.6329L14.9573 11.0007Z" fill="white"/>
<path d="M12.6544 10.9991H12.6551L10.9989 9.34288L9.77479 10.5667L9.63415 10.7074L9.34411 10.9975L9.3418 10.9997L9.34411 11.0021L10.9989 12.6571L12.6552 11.0009L12.656 10.9999L12.6545 10.9991" fill="white"/>
</g>
<defs>
<clipPath id="clip0_1989_162227">
<rect width="14.4445" height="14.4444" fill="white" transform="translate(3.77734 3.77778)"/>
</clipPath>
</defs>
</svg>
