<svg width="22" height="22" viewBox="0 0 22 22" fill="none" xmlns="http://www.w3.org/2000/svg">
<path fill-rule="evenodd" clip-rule="evenodd" d="M0.165039 11C0.165039 16.9692 5.02921 21.8333 10.9984 21.8333C16.9675 21.8333 21.8317 16.9692 21.8317 11C21.8317 5.03084 16.9675 0.166672 10.9984 0.166672C5.02921 0.166672 0.165039 5.03084 0.165039 11ZM11.0742 13.2858C10.9117 13.4483 10.7059 13.5242 10.5 13.5242C10.2942 13.5242 10.0775 13.4483 9.92587 13.2858L8.01921 11.3792C7.69421 11.065 7.69421 10.545 8.01921 10.2308C8.33337 9.91666 8.85337 9.91666 9.16754 10.2308L10.5 11.5633L13.7392 8.32417C14.0534 8.01 14.5625 8.01 14.8875 8.32417C15.2017 8.63834 15.2017 9.15833 14.8875 9.4725L11.0742 13.2858Z" fill="#0FD545"/>
</svg>
