<svg width="37" height="36" viewBox="0 0 37 36" fill="none" xmlns="http://www.w3.org/2000/svg">
<path d="M18.8597 36C28.8258 36 36.9049 27.9411 36.9049 18C36.9049 8.05887 28.8258 0 18.8597 0C8.89358 0 0.814453 8.05887 0.814453 18C0.814453 27.9411 8.89358 36 18.8597 36Z" fill="url(#paint0_linear_672_2290)"/>
<path d="M24.7658 15.7612C21.6478 15.7583 19.1179 18.2773 19.1151 21.3874C19.1122 24.4976 21.6375 27.0212 24.7555 27.024C27.8734 27.0269 30.4034 24.5079 30.4062 21.3977C30.4051 18.2892 27.8821 15.768 24.7658 15.7612ZM24.7658 24.7097C23.4192 24.7087 22.206 23.8984 21.6922 22.6569C21.1783 21.4153 21.4651 19.9873 22.4187 19.039C23.3724 18.0907 24.8049 17.8091 26.0479 18.3255C27.291 18.8419 28.0995 20.0546 28.0964 21.3977C28.0927 23.2294 26.602 24.7117 24.7658 24.7097ZM25.931 21.4183C25.9345 21.9136 25.6215 22.3561 25.1525 22.5189V23.3623H24.3791V22.5189C23.9075 22.3596 23.5929 21.9149 23.6006 21.4183C23.6006 20.7764 24.1223 20.256 24.7658 20.256C25.4093 20.256 25.931 20.7764 25.931 21.4183ZM17.7849 22.2052C17.7849 24.8665 15.622 27.024 12.9539 27.024C10.2858 27.024 8.12293 24.8665 8.12293 22.2052H10.443C10.443 23.5898 11.5683 24.7123 12.9565 24.7123C14.3446 24.7123 15.4699 23.5898 15.4699 22.2052H17.7849ZM7.31348 14.6263C7.31443 17.7351 9.84071 20.2551 12.9573 20.256C16.074 20.257 18.6018 17.7385 18.6046 14.6297C18.6029 11.5174 16.074 8.99487 12.9539 8.99316C9.83727 8.996 7.31253 11.5175 7.31348 14.6263ZM9.87233 15.9007C9.35575 14.6581 9.64076 13.2274 10.5944 12.2761C11.548 11.3249 12.9823 11.0406 14.2281 11.5559C15.4738 12.0712 16.2856 13.2845 16.2845 14.6297C16.278 16.4619 14.7907 17.9455 12.9539 17.952C11.6053 17.9531 10.3889 17.1434 9.87233 15.9007ZM14.1243 14.7635C14.1283 15.3568 13.6845 15.8584 13.0938 15.9282C12.503 15.9979 11.9541 15.6136 11.8192 15.0356C11.6842 14.4577 12.0064 13.871 12.5672 13.6732V12.8349H13.3457V13.6732C13.8122 13.8332 14.1251 14.2714 14.1243 14.7635ZM29.5968 13.812C29.5986 14.6178 29.3945 15.4107 29.0038 16.116C28.4004 15.6267 27.7142 15.2488 26.9776 15C27.4759 14.0803 27.3495 12.9488 26.6606 12.161C25.9716 11.3733 24.8648 11.0948 23.8837 11.4625C22.9027 11.8301 22.2535 12.7666 22.2549 13.812C22.2505 14.2271 22.3535 14.6363 22.554 15C21.8174 15.2488 21.1312 15.6267 20.5277 16.116C20.1371 15.4107 19.933 14.6178 19.9348 13.812C19.9348 11.1506 22.0977 8.99316 24.7658 8.99316C27.4339 8.99316 29.5968 11.1506 29.5968 13.812Z" fill="#252525"/>
<defs>
<linearGradient id="paint0_linear_672_2290" x1="36.9049" y1="0" x2="0.905021" y2="36.0903" gradientUnits="userSpaceOnUse">
<stop stop-color="#F1D961"/>
<stop offset="1" stop-color="#CDA146"/>
</linearGradient>
</defs>
</svg>
