<svg width="24" height="24" viewBox="0 0 24 24" fill="none" xmlns="http://www.w3.org/2000/svg">
<path d="M4 11C4 9.14348 4.7375 7.36301 6.05025 6.05025C7.36301 4.7375 9.14348 4 11 4H17.9C17.6695 2.87064 17.0558 1.8556 16.1629 1.12669C15.27 0.397783 14.1527 -0.000235151 13 1.04228e-07H5C3.67392 1.04228e-07 2.40215 0.526784 1.46447 1.46447C0.526784 2.40215 1.04228e-07 3.67392 1.04228e-07 5V13C-0.000235151 14.1527 0.397783 15.27 1.12669 16.1629C1.8556 17.0558 2.87064 17.6695 4 17.9V11Z" fill="#583A1E"/>
<path d="M19 6H11C8.23858 6 6 8.23858 6 11V19C6 21.7614 8.23858 24 11 24H19C21.7614 24 24 21.7614 24 19V11C24 8.23858 21.7614 6 19 6Z" fill="#583A1E"/>
</svg>
