<svg width="24" height="24" viewBox="0 0 24 24" fill="none" xmlns="http://www.w3.org/2000/svg">
<path d="M19.4157 4.58438C19.1348 4.52798 18.849 4.49972 18.5625 4.5H7.31254C7.0639 4.5 6.82544 4.40123 6.64963 4.22541C6.47381 4.0496 6.37504 3.81114 6.37504 3.5625C6.37504 3.31386 6.47381 3.0754 6.64963 2.89959C6.82544 2.72377 7.0639 2.625 7.31254 2.625H18.5625C18.1259 2.04283 17.5597 1.57031 16.9089 1.24487C16.258 0.91943 15.5402 0.75 14.8125 0.75H5.43754C4.70983 0.75 3.99211 0.91943 3.34122 1.24487C2.69034 1.57031 2.12416 2.04283 1.68754 2.625C1.07531 3.43445 0.745926 4.4226 0.750038 5.4375V18.5625C0.750038 19.8057 1.2439 20.998 2.12297 21.8771C3.00205 22.7561 4.19434 23.25 5.43754 23.25H18.5625C19.8057 23.25 20.998 22.7561 21.8771 21.8771C22.7562 20.998 23.25 19.8057 23.25 18.5625V9.1875C23.2486 8.09334 22.8645 7.03414 22.1642 6.19344C21.4639 5.35275 20.4916 4.78351 19.4157 4.58438ZM16.9125 16.6875C16.8378 16.6965 16.7623 16.6965 16.6875 16.6875C15.9416 16.6875 15.2262 16.3912 14.6988 15.8637C14.1714 15.3363 13.875 14.6209 13.875 13.875C13.875 13.1291 14.1714 12.4137 14.6988 11.8863C15.2262 11.3588 15.9416 11.0625 16.6875 11.0625C17.0078 11.0605 17.3256 11.1177 17.625 11.2313C18.2225 11.4525 18.7272 11.8701 19.0564 12.4157C19.3855 12.9612 19.5197 13.6023 19.4369 14.2341C19.3542 14.8659 19.0593 15.4508 18.6007 15.8931C18.1421 16.3354 17.5469 16.6089 16.9125 16.6687V16.6875Z" fill="#47131A"/>
</svg>
