<svg width="37" height="36" viewBox="0 0 37 36" fill="none" xmlns="http://www.w3.org/2000/svg">
<mask id="mask0_672_2337" style="mask-type:alpha" maskUnits="userSpaceOnUse" x="0" y="0" width="37" height="36">
<path d="M18.8597 36C28.8258 36 36.9049 27.9411 36.9049 18C36.9049 8.05887 28.8258 0 18.8597 0C8.89358 0 0.814453 8.05887 0.814453 18C0.814453 27.9411 8.89358 36 18.8597 36Z" fill="white"/>
</mask>
<g mask="url(#mask0_672_2337)">
<path d="M18.8597 36C28.8258 36 36.9049 27.9411 36.9049 18C36.9049 8.05887 28.8258 0 18.8597 0C8.89358 0 0.814453 8.05887 0.814453 18C0.814453 27.9411 8.89358 36 18.8597 36Z" fill="#FDE6D2"/>
<path fill-rule="evenodd" clip-rule="evenodd" d="M21.7724 10.1352L20.1523 13.9252L28.8658 7.49414L21.7724 10.1352Z" fill="#E17726"/>
<path fill-rule="evenodd" clip-rule="evenodd" d="M28.8658 7.49414L20.1523 13.9252L21.7731 10.1352L28.8658 7.49414Z" stroke="#E17726" stroke-width="0.25" stroke-linecap="round" stroke-linejoin="round"/>
<path fill-rule="evenodd" clip-rule="evenodd" d="M17.4034 13.9854L15.8603 10.1352L8.76758 7.49414L17.4034 13.9854Z" fill="#E27625"/>
<path fill-rule="evenodd" clip-rule="evenodd" d="M8.76758 7.49414L17.4034 13.9854L15.8603 10.1352L8.76758 7.49414Z" stroke="#E27625" stroke-width="0.25" stroke-linecap="round" stroke-linejoin="round"/>
<path fill-rule="evenodd" clip-rule="evenodd" d="M23.4102 25.9394L28.3752 27.3033L29.797 22.4837L25.7295 22.4062L23.4102 25.9394Z" fill="#E27625"/>
<path fill-rule="evenodd" clip-rule="evenodd" d="M25.7288 22.4062L23.4102 25.9394L28.3746 27.3026L29.797 22.4837L25.7288 22.4062Z" stroke="#E27625" stroke-width="0.25" stroke-linecap="round" stroke-linejoin="round"/>
<path fill-rule="evenodd" clip-rule="evenodd" d="M7.84473 22.4835L9.25783 27.3031L14.2136 25.9392L11.9042 22.4061L7.84473 22.4835Z" fill="#E27625"/>
<path fill-rule="evenodd" clip-rule="evenodd" d="M7.84473 22.4836L9.25783 27.3026L14.2143 25.9393L11.9042 22.4062L7.84473 22.4836Z" stroke="#E27625" stroke-width="0.25" stroke-linecap="round" stroke-linejoin="round"/>
<path fill-rule="evenodd" clip-rule="evenodd" d="M13.9476 16.4379L12.5684 18.5125L17.481 18.7355L17.3178 13.4619L13.9476 16.4379Z" fill="#E27625"/>
<path fill-rule="evenodd" clip-rule="evenodd" d="M13.9476 16.4379L12.5684 18.5125L17.481 18.7355L17.3178 13.4619L13.9476 16.4379Z" stroke="#E27625" stroke-width="0.25" stroke-linecap="round" stroke-linejoin="round"/>
<path fill-rule="evenodd" clip-rule="evenodd" d="M23.6858 16.4379L20.2645 13.4023L20.1523 18.7355L25.065 18.5125L23.6858 16.4379Z" fill="#E27625"/>
<path fill-rule="evenodd" clip-rule="evenodd" d="M23.6858 16.4379L20.2645 13.4023L20.1523 18.7355L25.065 18.5125L23.6858 16.4379Z" stroke="#E27625" stroke-width="0.25" stroke-linecap="round" stroke-linejoin="round"/>
<path fill-rule="evenodd" clip-rule="evenodd" d="M14.2139 25.9389L17.1867 24.5068L14.6278 22.5176L14.2139 25.9389Z" fill="#E27625"/>
<path fill-rule="evenodd" clip-rule="evenodd" d="M14.2139 25.9389L17.1867 24.5068L14.6278 22.5176L14.2139 25.9389Z" stroke="#E27625" stroke-width="0.25" stroke-linecap="round" stroke-linejoin="round"/>
<path fill-rule="evenodd" clip-rule="evenodd" d="M20.4453 24.5068L23.4102 25.9389L23.0048 22.5176L20.4453 24.5068Z" fill="#E27625"/>
<path fill-rule="evenodd" clip-rule="evenodd" d="M20.4453 24.5068L23.4102 25.9389L23.0048 22.5176L20.4453 24.5068Z" stroke="#E27625" stroke-width="0.25" stroke-linecap="round" stroke-linejoin="round"/>
<path fill-rule="evenodd" clip-rule="evenodd" d="M23.4102 25.9389L20.4453 24.5068L20.6875 26.4273L20.6609 27.2426L23.4102 25.9389Z" fill="#D5BFB2"/>
<path fill-rule="evenodd" clip-rule="evenodd" d="M23.4102 25.9389L20.4453 24.5068L20.6875 26.4273L20.6609 27.2426L23.4102 25.9389Z" stroke="#D5BFB2" stroke-width="0.25" stroke-linecap="round" stroke-linejoin="round"/>
<path fill-rule="evenodd" clip-rule="evenodd" d="M14.2139 25.9389L16.9717 27.2426L16.9545 26.4273L17.1873 24.5068L14.2139 25.9389Z" fill="#D5BFB2"/>
<path fill-rule="evenodd" clip-rule="evenodd" d="M14.2139 25.9389L16.9717 27.2426L16.9545 26.4273L17.1873 24.5068L14.2139 25.9389Z" stroke="#D5BFB2" stroke-width="0.25" stroke-linecap="round" stroke-linejoin="round"/>
<path fill-rule="evenodd" clip-rule="evenodd" d="M17.0242 21.2486L14.5596 20.5279L16.3004 19.7305L17.0242 21.2486Z" fill="#233447"/>
<path fill-rule="evenodd" clip-rule="evenodd" d="M17.0242 21.2486L14.5596 20.5279L16.3004 19.7305L17.0242 21.2486Z" stroke="#233447" stroke-width="0.25" stroke-linecap="round" stroke-linejoin="round"/>
<path fill-rule="evenodd" clip-rule="evenodd" d="M20.6094 21.2486L21.3332 19.7305L23.0833 20.5279L20.6094 21.2486Z" fill="#233447"/>
<path fill-rule="evenodd" clip-rule="evenodd" d="M20.6094 21.2486L21.3332 19.7305L23.0833 20.5279L20.6094 21.2486Z" stroke="#233447" stroke-width="0.25" stroke-linecap="round" stroke-linejoin="round"/>
<path fill-rule="evenodd" clip-rule="evenodd" d="M14.2144 25.9394L14.6449 22.4062L11.9043 22.4837L14.2144 25.9394Z" fill="#CC6228"/>
<path fill-rule="evenodd" clip-rule="evenodd" d="M14.2144 25.9394L14.6449 22.4062L11.9043 22.4837L14.2144 25.9394Z" stroke="#CC6228" stroke-width="0.25" stroke-linecap="round" stroke-linejoin="round"/>
<path fill-rule="evenodd" clip-rule="evenodd" d="M22.9883 22.4062L23.4102 25.9394L25.7289 22.4837L22.9883 22.4062Z" fill="#CC6228"/>
<path fill-rule="evenodd" clip-rule="evenodd" d="M22.9883 22.4062L23.4102 25.9394L25.7289 22.4837L22.9883 22.4062Z" stroke="#CC6228" stroke-width="0.25" stroke-linecap="round" stroke-linejoin="round"/>
<path fill-rule="evenodd" clip-rule="evenodd" d="M25.065 18.5127L20.1523 18.7357L20.6088 21.2484L21.3326 19.7303L23.0827 20.5278L25.065 18.5127Z" fill="#CC6228"/>
<path fill-rule="evenodd" clip-rule="evenodd" d="M25.065 18.5127L20.1523 18.7357L20.6088 21.2484L21.3326 19.7303L23.0827 20.5278L25.065 18.5127Z" stroke="#CC6228" stroke-width="0.25" stroke-linecap="round" stroke-linejoin="round"/>
<path fill-rule="evenodd" clip-rule="evenodd" d="M14.5593 20.5278L16.3001 19.7303L17.0239 21.2484L17.481 18.7357L12.5684 18.5127L14.5593 20.5278Z" fill="#CC6228"/>
<path fill-rule="evenodd" clip-rule="evenodd" d="M14.5593 20.5278L16.3001 19.7303L17.0239 21.2484L17.481 18.7357L12.5684 18.5127L14.5593 20.5278Z" stroke="#CC6228" stroke-width="0.25" stroke-linecap="round" stroke-linejoin="round"/>
<path fill-rule="evenodd" clip-rule="evenodd" d="M12.5684 18.5127L14.6283 22.5177L14.5593 20.5278L12.5684 18.5127Z" fill="#E27525"/>
<path fill-rule="evenodd" clip-rule="evenodd" d="M12.5684 18.5127L14.6283 22.5177L14.5593 20.5278L12.5684 18.5127Z" stroke="#E27525" stroke-width="0.25" stroke-linecap="round" stroke-linejoin="round"/>
<path fill-rule="evenodd" clip-rule="evenodd" d="M23.0825 20.5278L23.0049 22.5177L25.0648 18.5127L23.0825 20.5278Z" fill="#E27525"/>
<path fill-rule="evenodd" clip-rule="evenodd" d="M23.0825 20.5278L23.0049 22.5177L25.0648 18.5127L23.0825 20.5278Z" stroke="#E27525" stroke-width="0.25" stroke-linecap="round" stroke-linejoin="round"/>
<path fill-rule="evenodd" clip-rule="evenodd" d="M17.4809 18.7363L17.0244 21.249L17.6016 24.2157L17.731 20.306L17.4809 18.7363Z" fill="#E27525"/>
<path fill-rule="evenodd" clip-rule="evenodd" d="M17.4809 18.7363L17.0244 21.249L17.6016 24.2157L17.731 20.306L17.4809 18.7363Z" stroke="#E27525" stroke-width="0.25" stroke-linecap="round" stroke-linejoin="round"/>
<path fill-rule="evenodd" clip-rule="evenodd" d="M20.1526 18.7363L19.9111 20.2968L20.0319 24.2157L20.6091 21.249L20.1526 18.7363Z" fill="#E27525"/>
<path fill-rule="evenodd" clip-rule="evenodd" d="M20.1526 18.7363L19.9111 20.2968L20.0319 24.2157L20.6091 21.249L20.1526 18.7363Z" stroke="#E27525" stroke-width="0.25" stroke-linecap="round" stroke-linejoin="round"/>
<path fill-rule="evenodd" clip-rule="evenodd" d="M20.6094 21.249L20.0322 24.2157L20.4455 24.5075L23.005 22.5182L23.0833 20.5283L20.6094 21.249Z" fill="#F5841F"/>
<path fill-rule="evenodd" clip-rule="evenodd" d="M20.6094 21.249L20.0322 24.2157L20.4455 24.5075L23.005 22.5182L23.0833 20.5283L20.6094 21.249Z" stroke="#F5841F" stroke-width="0.25" stroke-linecap="round" stroke-linejoin="round"/>
<path fill-rule="evenodd" clip-rule="evenodd" d="M14.5586 20.5283L14.6276 22.5182L17.1871 24.5075L17.6011 24.2157L17.0232 21.249L14.5586 20.5283Z" fill="#F5841F"/>
<path fill-rule="evenodd" clip-rule="evenodd" d="M14.5586 20.5283L14.6276 22.5182L17.1871 24.5075L17.6011 24.2157L17.0232 21.249L14.5586 20.5283Z" stroke="#F5841F" stroke-width="0.25" stroke-linecap="round" stroke-linejoin="round"/>
<path fill-rule="evenodd" clip-rule="evenodd" d="M20.6604 27.2431L20.6869 26.4278L20.462 26.2399H17.1701L16.9545 26.4278L16.9717 27.2431L14.2139 25.9395L15.1792 26.7283L17.1356 28.0743H20.4886L22.4536 26.7283L23.4096 25.9395L20.6604 27.2431Z" fill="#C0AC9D"/>
<path fill-rule="evenodd" clip-rule="evenodd" d="M20.6611 27.2431L20.6869 26.4285L20.4627 26.2392H17.1701L16.9551 26.4285L16.9717 27.2431L14.2139 25.9395L15.1792 26.7289L17.1363 28.075H20.4886L22.4536 26.7289L23.4103 25.9395L20.6611 27.2431Z" stroke="#C0AC9D" stroke-width="0.25" stroke-linecap="round" stroke-linejoin="round"/>
<path fill-rule="evenodd" clip-rule="evenodd" d="M20.4454 24.507L20.0321 24.2158H17.6013L17.1873 24.507L16.9551 26.4274L17.17 26.2388H20.4626L20.6869 26.4274L20.4454 24.507Z" fill="#161616"/>
<path fill-rule="evenodd" clip-rule="evenodd" d="M20.4454 24.507L20.0321 24.2158H17.6013L17.1873 24.507L16.9551 26.4274L17.17 26.2388H20.4626L20.6869 26.4274L20.4454 24.507Z" stroke="#161616" stroke-width="0.25" stroke-linecap="round" stroke-linejoin="round"/>
<path fill-rule="evenodd" clip-rule="evenodd" d="M20.4453 13.7108L23.6862 16.4379L28.2631 17.7667L29.2709 16.5921L28.8317 16.2744L29.5296 15.6405L28.9956 15.2288L29.6928 14.6968L29.2364 14.3447L29.9695 10.795L28.8662 7.49414L20.4453 13.7108Z" fill="#763E1A"/>
<path fill-rule="evenodd" clip-rule="evenodd" d="M29.2364 14.3454L29.9688 10.7957L28.8655 7.49414L20.4453 13.7114L23.6862 16.4379L28.2625 17.7667L29.2709 16.5921L28.8317 16.2751L29.5296 15.6405L28.9956 15.2288L29.6928 14.6968L29.2364 14.3454Z" stroke="#763E1A" stroke-width="0.25" stroke-linecap="round" stroke-linejoin="round"/>
<path fill-rule="evenodd" clip-rule="evenodd" d="M7.66406 10.7957L8.40511 14.3454L7.93076 14.6974L8.63797 15.2295L8.10325 15.6411L8.80118 16.2751L8.36199 16.5927L9.3704 17.7674L13.9474 16.4386L17.1876 13.7114L8.76734 7.49414L7.66406 10.7957Z" fill="#763E1A"/>
<path fill-rule="evenodd" clip-rule="evenodd" d="M7.66406 10.7958L8.40511 14.3455L7.93142 14.6976L8.63797 15.229L8.10391 15.6406L8.80184 16.2752L8.36199 16.5922L9.3704 17.7675L13.9474 16.438L17.1876 13.7115L8.76734 7.49426L7.66406 10.7958Z" stroke="#763E1A" stroke-width="0.25" stroke-linecap="round" stroke-linejoin="round"/>
<path fill-rule="evenodd" clip-rule="evenodd" d="M25.0655 18.5138L23.0049 22.5188L25.7289 22.4837H29.7971L28.2625 17.7673L23.6862 16.4385L25.0655 18.5138Z" fill="#F5841F"/>
<path fill-rule="evenodd" clip-rule="evenodd" d="M28.2625 17.7673L23.6862 16.4385L25.0655 18.5131L23.0049 22.5181L25.7289 22.4837H29.7971L28.2625 17.7673Z" stroke="#F5841F" stroke-width="0.25" stroke-linecap="round" stroke-linejoin="round"/>
<path fill-rule="evenodd" clip-rule="evenodd" d="M9.36995 17.767L7.84473 22.4834H11.9042L14.6269 22.5178L12.5677 18.5135L13.9463 16.4382L9.36995 17.767Z" fill="#F5841F"/>
<path fill-rule="evenodd" clip-rule="evenodd" d="M13.9469 16.4382L9.37061 17.767L7.84473 22.4834H11.9042L14.6276 22.5178L12.5677 18.5128L13.9469 16.4382Z" stroke="#F5841F" stroke-width="0.25" stroke-linecap="round" stroke-linejoin="round"/>
<path fill-rule="evenodd" clip-rule="evenodd" d="M20.1527 18.736L20.4453 13.7113L21.7728 10.1357H15.8604L17.1879 13.7113L17.4811 18.736L17.5932 20.3143L17.6018 24.2154H20.032L20.0406 20.3143L20.1527 18.736Z" fill="#F5841F"/>
<path fill-rule="evenodd" clip-rule="evenodd" d="M20.1527 18.736L20.4453 13.7113L21.7728 10.1357H15.8604L17.1879 13.7113L17.4811 18.736L17.5932 20.3143L17.6018 24.2154H20.032L20.0406 20.3143L20.1527 18.736Z" stroke="#F5841F" stroke-width="0.25" stroke-linecap="round" stroke-linejoin="round"/>
</g>
</svg>
