<svg width="28" height="23" viewBox="0 0 28 23" fill="none" xmlns="http://www.w3.org/2000/svg">
<path d="M27.1252 12.125C27.1201 12.65 26.976 13.1643 26.7076 13.6155C26.4392 14.0667 26.056 14.4387 25.5971 14.6938L24.4721 15.3219L12.4627 22.1281C11.6933 22.562 10.822 22.7829 9.93878 22.7681C9.05553 22.7533 8.1922 22.5032 7.43773 22.0438L3.49086 19.625L2.30961 18.9031C2.13108 18.7998 1.96445 18.6772 1.81273 18.5375C1.5063 18.254 1.26409 17.9082 1.10239 17.5234C0.940684 17.1385 0.863231 16.7235 0.875233 16.3063C0.880046 16.0265 0.92423 15.7487 1.00648 15.4813C1.11456 15.5627 1.22725 15.6378 1.34398 15.7063L2.75023 16.5781L3.87523 17.2625L5.75023 18.3781L6.48148 18.8188C7.51962 19.4488 8.70671 19.7913 9.92093 19.8111C11.1351 19.8309 12.3328 19.5272 13.3909 18.9313L22.2127 14L24.0877 12.9406L25.2596 12.2844L26.5346 11.5625C26.7008 11.4704 26.8606 11.367 27.0127 11.2531C27.0957 11.5361 27.1337 11.8303 27.1252 12.125Z" fill="#47131A"/>
<path d="M25.719 4.71875L20.5628 1.59688C19.8091 1.14009 18.9476 0.891581 18.0664 0.876757C17.1852 0.861933 16.3158 1.08132 15.5472 1.5125L2.42216 8.91875C1.96049 9.16982 1.57391 9.53917 1.30208 9.98893C1.03025 10.4387 0.882949 10.9527 0.875289 11.4781C0.865756 11.7958 0.910134 12.1128 1.00654 12.4156C1.18709 13.0302 1.56623 13.5676 2.08466 13.9438C2.15579 14.0021 2.23098 14.0554 2.30966 14.1031L3.88466 15.0406L5.75966 16.1563H5.81591L7.43779 17.2156L7.61591 17.3188C8.3505 17.7252 9.17639 17.9381 10.0159 17.9375C10.8695 17.9363 11.7085 17.7168 12.4534 17.3L20.3659 12.8469L22.2409 11.8063L24.1159 10.7563L25.644 9.90313L25.9628 9.70625C26.4814 9.32617 26.8603 8.78582 27.0409 8.16875C27.2371 7.52865 27.2136 6.84131 26.9741 6.21613C26.7345 5.59094 26.2927 5.06385 25.719 4.71875ZM18.1065 10.0625C17.8848 10.4943 17.5635 10.8671 17.169 11.15C16.4951 11.6184 15.6929 11.8672 14.8722 11.8625C14.7661 11.8718 14.6595 11.8718 14.5534 11.8625C14.3255 11.8511 14.0993 11.8165 13.8784 11.7594H13.794H13.7284C13.0104 11.5725 12.3602 11.1856 11.8534 10.6438C11.664 10.4361 11.5003 10.2063 11.3659 9.95938C11.1967 9.64429 11.0855 9.30133 11.0378 8.94688C11.0238 8.77529 11.0238 8.60284 11.0378 8.43125C11.0438 8.1531 11.0944 7.87771 11.1878 7.61563C11.3511 7.18895 11.6025 6.80147 11.9256 6.47842C12.2486 6.15536 12.6361 5.90397 13.0628 5.74063C13.9615 5.38832 14.9532 5.35196 15.8753 5.6375C16.1091 5.70447 16.3353 5.79559 16.5503 5.90938C16.8325 6.04017 17.0945 6.21065 17.3284 6.41563C17.7051 6.72285 18.0038 7.11475 18.2003 7.55938C18.3936 7.97222 18.4837 8.42586 18.4628 8.88125C18.456 9.08124 18.4245 9.27962 18.369 9.47188L18.294 9.71563C18.2458 9.83841 18.1828 9.95488 18.1065 10.0625ZM20.3847 10.6906L20.1597 10.5594C20.2436 10.5943 20.3251 10.635 20.4034 10.6813L20.3847 10.6906Z" fill="#47131A"/>
<path d="M16.5597 8.82499C16.5406 8.98607 16.4851 9.14068 16.3974 9.27713C16.3097 9.41357 16.1921 9.52825 16.0535 9.61249C15.7967 9.78634 15.5061 9.9038 15.2007 9.95713C14.8953 10.0105 14.582 9.99844 14.2816 9.92187C14.0278 9.86138 13.7866 9.75666 13.5691 9.61249C13.3341 9.46708 13.1404 9.2637 13.0066 9.02187C12.9415 8.90763 12.9012 8.78098 12.8883 8.65016C12.8754 8.51933 12.8901 8.38725 12.9316 8.2625C13.0089 8.0888 13.12 7.93222 13.2585 7.80185C13.3969 7.67148 13.5598 7.56994 13.7378 7.50312C14.0008 7.40121 14.2808 7.3503 14.5628 7.35312C15.1137 7.34263 15.651 7.52503 16.0816 7.86875C16.2204 7.98468 16.3343 8.1275 16.4165 8.28862C16.4987 8.44973 16.5474 8.62581 16.5597 8.80625V8.82499Z" fill="#47131A"/>
</svg>
