<svg width="26" height="26" viewBox="0 0 26 26" fill="none" xmlns="http://www.w3.org/2000/svg">
<circle cx="13.0003" cy="13" r="10.8333" fill="#CAB6A4"/>
<g clip-path="url(#clip0_1989_160937)">
<path d="M12.6574 7.91768C12.7168 7.91768 12.7742 7.93991 12.8184 7.98L17.4933 12.233C17.5831 12.315 17.5968 12.4495 17.5301 12.5478L17.5103 12.5736C17.5064 12.5777 15.9424 14.001 12.8178 16.8439C12.7708 16.8867 12.7086 16.9091 12.6451 16.9059C12.5816 16.9027 12.522 16.8743 12.4796 16.8269C12.4396 16.7825 12.4175 16.7249 12.4175 16.6651V14.1979C12.1952 14.2038 11.9763 14.2248 11.7628 14.2608L11.6984 14.2719C9.92838 14.5949 8.50563 15.6201 8.03255 17.343L7.99656 17.2649C7.85613 16.9478 7.625 16.295 7.625 15.6438C7.625 12.9276 9.74962 10.7111 12.4178 10.585V8.15875C12.4178 8.02564 12.5252 7.91768 12.6577 7.91768H12.6574ZM13.2955 9.60082V11.4223L12.4591 11.4618C10.5334 11.5525 8.95706 12.9627 8.5855 14.8073C9.35729 14.1005 10.3719 13.6224 11.5474 13.4077L11.6177 13.3954C11.875 13.3523 12.135 13.3273 12.3959 13.3208L13.2955 13.298V15.2231L16.385 12.4115L13.2955 9.60082Z" fill="white"/>
</g>
<defs>
<clipPath id="clip0_1989_160937">
<rect width="14.0432" height="14.0432" fill="white" transform="translate(5.57715 5.57715)"/>
</clipPath>
</defs>
</svg>
