<svg width="37" height="36" viewBox="0 0 37 36" fill="none" xmlns="http://www.w3.org/2000/svg">
<mask id="mask0_672_2328" style="mask-type:alpha" maskUnits="userSpaceOnUse" x="0" y="0" width="37" height="36">
<path d="M18.8597 36C28.8258 36 36.9049 27.9411 36.9049 18C36.9049 8.05887 28.8258 0 18.8597 0C8.89358 0 0.814453 8.05887 0.814453 18C0.814453 27.9411 8.89358 36 18.8597 36Z" fill="white"/>
</mask>
<g mask="url(#mask0_672_2328)">
<path d="M18.8597 36C28.8258 36 36.9049 27.9411 36.9049 18C36.9049 8.05887 28.8258 0 18.8597 0C8.89358 0 0.814453 8.05887 0.814453 18C0.814453 27.9411 8.89358 36 18.8597 36Z" fill="#050101"/>
<path fill-rule="evenodd" clip-rule="evenodd" d="M24.9732 11.4086V15.9096H26.0884V11.7478L24.9732 11.4086ZM22.3346 7.80267L28.7258 9.7511V18.5079H24.9732V22.2999C24.9732 22.2999 24.1345 23.3831 22.3372 24.2909C22.3372 23.7891 22.3359 16.0798 22.3353 11.3825L22.3346 7.80267ZM15.2314 7.86874V10.6589L11.6299 11.7605V15.9096H15.2314V27.9267L14.4334 27.5233C11.9515 26.2641 8.99316 24.1423 8.99316 21.1793V19.7823H11.6299V21.1793C11.6299 21.7924 11.954 22.4365 12.5941 23.0998V18.5079H8.99316V9.76635L15.2314 7.86874ZM18.8763 6.75L21.5341 7.55745V10.3603L18.8763 9.55035L18.7025 9.60371V15.9096H21.5341V18.5079H18.7025V29.2119L17.9643 28.9406C17.6217 28.8155 17.0695 28.6014 16.3861 28.2964L16.0651 28.1516V7.6051L18.8763 6.75ZM28.7258 19.7823V21.3718C28.7258 25.7877 22.2225 28.3288 20.2291 29.0035L19.5037 29.25V26.503L19.8578 26.3715C22.9594 25.2216 26.0884 23.2294 26.0884 21.3718V19.7823H28.7258Z" fill="white"/>
</g>
</svg>
