<svg width="37" height="36" viewBox="0 0 37 36" fill="none" xmlns="http://www.w3.org/2000/svg">
<mask id="mask0_672_2318" style="mask-type:alpha" maskUnits="userSpaceOnUse" x="0" y="0" width="37" height="36">
<path d="M18.8597 36C28.8258 36 36.9049 27.9411 36.9049 18C36.9049 8.05887 28.8258 0 18.8597 0C8.89358 0 0.814453 8.05887 0.814453 18C0.814453 27.9411 8.89358 36 18.8597 36Z" fill="white"/>
</mask>
<g mask="url(#mask0_672_2318)">
<path d="M18.8597 36C28.8258 36 36.9049 27.9411 36.9049 18C36.9049 8.05887 28.8258 0 18.8597 0C8.89358 0 0.814453 8.05887 0.814453 18C0.814453 27.9411 8.89358 36 18.8597 36Z" fill="#007EFF"/>
<path fill-rule="evenodd" clip-rule="evenodd" d="M21.7997 10.7366V16.8116C21.7997 16.9712 21.6698 17.1008 21.5097 17.1008H18.6096V28.0937C18.6096 28.2537 18.4796 28.383 18.3195 28.383H13.3893C13.2292 28.383 13.0993 28.2537 13.0993 28.0937V17.1008H10.1992C10.0391 17.1008 9.90918 16.9712 9.90918 16.8116V10.7366C9.90918 10.5769 10.0391 10.4473 10.1992 10.4473H21.5097C21.6698 10.4473 21.7997 10.5769 21.7997 10.7366Z" fill="#A1CCFF"/>
<path fill-rule="evenodd" clip-rule="evenodd" d="M30.0651 15.6536C30.0651 19.3275 27.078 22.3071 23.3948 22.3071H21.6547V26.6464C21.6547 26.8055 21.5242 26.9357 21.3647 26.9357H16.1445C15.985 26.9357 15.8545 26.8055 15.8545 26.6464V9.28929C15.8545 9.13018 15.985 9 16.1445 9H23.3948C27.078 9 30.0651 11.9796 30.0651 15.6536Z" fill="white"/>
</g>
</svg>
