<svg width="37" height="36" viewBox="0 0 37 36" fill="none" xmlns="http://www.w3.org/2000/svg">
<mask id="mask0_672_2405" style="mask-type:alpha" maskUnits="userSpaceOnUse" x="0" y="0" width="37" height="36">
<path d="M18.8597 36C28.8258 36 36.9049 27.9411 36.9049 18C36.9049 8.05887 28.8258 0 18.8597 0C8.89358 0 0.814453 8.05887 0.814453 18C0.814453 27.9411 8.89358 36 18.8597 36Z" fill="white"/>
</mask>
<g mask="url(#mask0_672_2405)">
<path d="M18.8597 36C28.8258 36 36.9049 27.9411 36.9049 18C36.9049 8.05887 28.8258 0 18.8597 0C8.89358 0 0.814453 8.05887 0.814453 18C0.814453 27.9411 8.89358 36 18.8597 36Z" fill="#3375BB"/>
<path fill-rule="evenodd" clip-rule="evenodd" d="M24.6443 22.4852C24.9845 21.7865 25.2673 20.8205 25.4815 19.4317C25.7379 17.7731 25.8947 15.5176 25.9679 12.4492C24.335 12.4026 21.5311 12.0888 18.8576 10.2939C16.1841 12.0844 13.3794 12.3973 11.7527 12.4492C11.81 14.9859 11.9254 16.9583 12.1078 18.5088C12.3175 20.272 12.6163 21.4674 12.9872 22.3077C13.2331 22.8667 13.5054 23.2684 13.8296 23.6226C14.2641 24.0981 14.813 24.4893 15.5611 24.9384C15.8713 25.1239 16.2141 25.3173 16.586 25.5273C17.2495 25.9018 18.0099 26.3307 18.8576 26.8695C19.6895 26.3395 20.4385 25.915 21.0941 25.5432C21.2923 25.4315 21.4818 25.3234 21.6615 25.2197C22.5833 24.6932 23.2626 24.2546 23.7702 23.743C24.1103 23.3932 24.3879 23.0126 24.6443 22.4852ZM27.0773 10.2886C27.3698 10.2886 27.6474 10.4091 27.8518 10.6121C28.0554 10.8213 28.1708 11.1026 28.1657 11.39C28.1135 14.5007 27.9928 16.88 27.7672 18.7646C27.5478 20.6482 27.2183 22.0466 26.7213 23.1796C26.3864 23.9364 25.9731 24.5622 25.4867 25.0949C24.832 25.7998 24.0848 26.3105 23.2679 26.7957C22.919 27.004 22.5559 27.2097 22.1762 27.425C21.3637 27.8856 20.4711 28.391 19.4595 29.0661C19.0929 29.3113 18.6171 29.3113 18.2505 29.0661C17.2239 28.3831 16.319 27.8707 15.4995 27.4075C15.3171 27.3046 15.1391 27.2035 14.9655 27.1042C14.0076 26.5505 13.1441 26.024 12.3907 25.2619C11.8884 24.7609 11.454 24.15 11.1094 23.4248C10.638 22.4536 10.319 21.2793 10.0837 19.7613C9.77005 17.7309 9.61232 15.0746 9.55486 11.39C9.54975 11.1026 9.6599 10.8213 9.86433 10.6121C10.0679 10.4091 10.3507 10.2886 10.6433 10.2886H11.0936C12.4797 10.2939 15.54 10.1586 18.1879 8.10177C18.5801 7.79941 19.1299 7.79941 19.522 8.10177C22.1691 10.1586 25.2303 10.2939 26.6217 10.2886H27.0773Z" fill="white"/>
</g>
</svg>
