<svg width="20" height="24" viewBox="0 0 20 24" fill="none" xmlns="http://www.w3.org/2000/svg">
<path d="M10 12.0656C13.1066 12.0656 15.625 9.54723 15.625 6.44063C15.625 3.33403 13.1066 0.815628 10 0.815628C6.8934 0.815628 4.375 3.33403 4.375 6.44063C4.375 9.54723 6.8934 12.0656 10 12.0656Z" fill="#47131A"/>
<path d="M12.8125 13.875H7.1875C5.44702 13.875 3.77782 14.5664 2.54711 15.7971C1.3164 17.0278 0.625 18.697 0.625 20.4375C0.625 21.1834 0.921316 21.8988 1.44876 22.4262C1.97621 22.9537 2.69158 23.25 3.4375 23.25H16.5625C17.3084 23.25 18.0238 22.9537 18.5512 22.4262C19.0787 21.8988 19.375 21.1834 19.375 20.4375C19.375 18.697 18.6836 17.0278 17.4529 15.7971C16.2222 14.5664 14.553 13.875 12.8125 13.875Z" fill="#47131A"/>
</svg>
