<svg width="37" height="36" viewBox="0 0 37 36" fill="none" xmlns="http://www.w3.org/2000/svg">
<path d="M18.8597 36C28.8258 36 36.9049 27.9411 36.9049 18C36.9049 8.05887 28.8258 0 18.8597 0C8.89358 0 0.814453 8.05887 0.814453 18C0.814453 27.9411 8.89358 36 18.8597 36Z" fill="#3B99FC"/>
<path fill-rule="evenodd" clip-rule="evenodd" d="M29.6319 16.7435L31.1146 18.1915C31.3169 18.3892 31.3169 18.7095 31.1146 18.9071L24.4293 25.4362C24.227 25.6338 23.899 25.6338 23.6967 25.4362L18.9518 20.8023C18.9013 20.7529 18.8193 20.7529 18.7686 20.8023L14.0239 25.4362C13.8217 25.6338 13.4936 25.6338 13.2914 25.4362L6.60587 18.907C6.40351 18.7094 6.40351 18.3891 6.60587 18.1915L8.08844 16.7435C8.29079 16.5459 8.61881 16.5459 8.82116 16.7435L13.566 21.3775C13.6166 21.4268 13.6986 21.4268 13.7492 21.3775L18.4938 16.7435C18.6962 16.5459 19.0241 16.5458 19.2265 16.7435H19.2265L23.9713 21.3775C24.0219 21.4268 24.1039 21.4268 24.1545 21.3775L28.8994 16.7435C29.1016 16.546 29.4297 16.546 29.6319 16.7435ZM11.5337 13.3789C15.5801 9.42708 22.1404 9.42708 26.1867 13.3789L26.6737 13.8545C26.876 14.052 26.876 14.3725 26.6737 14.57L25.0078 16.1969C24.9067 16.2958 24.7427 16.2958 24.6416 16.1969L23.9714 15.5425C21.1486 12.7856 16.5719 12.7856 13.749 15.5425L13.0314 16.2434C12.9302 16.3422 12.7662 16.3422 12.665 16.2434L10.9991 14.6164C10.7969 14.4188 10.7969 14.0985 10.9991 13.9009L11.5337 13.3789Z" fill="white"/>
</svg>
