<svg width="30" height="30" viewBox="0 0 30 30" fill="none" xmlns="http://www.w3.org/2000/svg">
<mask id="mask0_2907_40650" style="mask-type:alpha" maskUnits="userSpaceOnUse" x="0" y="0" width="30" height="30">
<path d="M15 30C23.2843 30 30 23.2843 30 15C30 6.71573 23.2843 0 15 0C6.71573 0 0 6.71573 0 15C0 23.2843 6.71573 30 15 30Z" fill="white"/>
</mask>
<g mask="url(#mask0_2907_40650)">
<path d="M15 30C23.2843 30 30 23.2843 30 15C30 6.71573 23.2843 0 15 0C6.71573 0 0 6.71573 0 15C0 23.2843 6.71573 30 15 30Z" fill="white"/>
<path d="M28.8767 9.38455H17.258V11.612H29.6111C29.4234 10.8521 29.1779 10.1075 28.8767 9.38455ZM25.9014 4.76118H17.258V7.04479H27.6904C27.1696 6.22796 26.5705 5.46318 25.9014 4.76118ZM4.17049 25.3511H25.8449C26.5394 24.6468 27.1696 23.8826 27.728 23.0675H2.36272C2.90892 23.8916 3.54002 24.657 4.24581 25.3511H4.17049ZM18.595 0.530893C18.1619 0.418585 17.7099 0.324994 17.258 0.250122V2.47757H23.1521C21.7533 1.5966 20.2114 0.963294 18.595 0.605766V0.530893ZM29.8936 13.9705H17.258V16.2541H29.9501C30.0159 15.4943 30.0159 14.7303 29.9501 13.9705H29.8936ZM1.15754 20.7464H28.839C29.1393 20.0442 29.3787 19.3178 29.5546 18.5751V18.4628H0.404297C0.587037 19.2446 0.839102 20.0088 1.15754 20.7464ZM11.4016 29.4691C12.2687 29.7199 13.1577 29.8891 14.0567 29.9744H15.9398C18.4513 29.8254 20.8825 29.0392 23.0014 27.6908H6.95747C8.3263 28.5514 9.82747 29.1837 11.4016 29.5627" fill="#E72D14"/>
<path d="M16.1099 15.3369L15.7898 15.1123L15.4697 15.3369L15.5827 14.9625L15.2625 14.7379H15.658L15.7898 14.3449L15.9216 14.7379H16.3171L15.997 14.9625L16.1099 15.3369ZM14.5281 3.3199L14.6411 3.76913L14.321 3.5258L14.0009 3.76913L14.1139 3.37605L13.7937 3.15143H14.1892L14.321 2.75835L14.4528 3.15143H14.8483L14.5281 3.3199ZM14.5281 6.76403L14.6411 7.13839L14.321 6.89505L14.0009 7.13839L14.1139 6.76403L13.7937 6.52069H14.1892L14.321 6.14633L14.4528 6.52069H14.8483L14.5281 6.76403ZM14.5281 10.1146L14.66 10.5076L14.321 10.2643L14.0009 10.5076L14.1327 10.1146L13.7937 9.88995H14.208L14.321 9.51558L14.4528 9.88995H14.8106L14.5281 10.1146ZM14.5281 13.8582L14.208 13.6336L13.8879 13.8582L14.0009 13.4838L13.7372 13.1282H14.1327L14.2645 12.7538L14.3775 13.1282H14.7918L14.4528 13.3715L14.5281 13.8582ZM12.984 4.98581L13.1158 5.36017L12.7957 5.13555L12.4567 5.36017L12.5885 4.98581L12.2684 4.76119H12.6639L12.7957 4.36811L12.9087 4.76119H13.323L12.984 4.98581ZM12.984 8.31763L13.1158 8.69199L12.7957 8.46737L12.4567 8.69199L12.5885 8.31763L12.2684 8.07429H12.6639L12.7957 7.69993L12.9087 8.07429H13.323L12.984 8.31763ZM12.984 11.7243L13.1158 12.0987L12.7957 11.8553L12.4567 12.0987L12.5885 11.7243L12.2684 11.481H12.6639L12.7957 11.1066L12.9087 11.481H13.323L12.984 11.7243ZM13.1158 15.3369L12.7957 15.1123L12.4567 15.3369L12.5885 14.9625L12.2684 14.7379H12.6639L12.7957 14.3449L12.9087 14.7379H13.323L12.984 15L13.1158 15.3369ZM11.5152 3.3199L11.647 3.76913L11.3269 3.5258L10.9879 3.76913L11.1197 3.37605L10.7996 3.15143H11.2327L11.3645 2.75835L11.4775 3.15143H11.8918L11.5152 3.3199ZM11.5152 6.76403L11.647 7.13839L11.3269 6.89505L10.9879 7.13839L11.1197 6.76403L10.7996 6.52069H11.2327L11.3645 6.14633L11.4775 6.52069H11.8918L11.5152 6.76403ZM11.5152 10.1146L11.6282 10.5076L11.2327 10.2643L10.9126 10.5076L11.0256 10.1146L10.7055 9.88995H11.2327V9.51558L11.3645 9.88995H11.76L11.5152 10.1146ZM11.5152 13.8582L11.2327 13.5961L10.8938 13.8207L11.0256 13.4464L10.7431 13.1282H11.2327V12.8287L11.3457 13.203H11.7412L11.421 13.4464L11.5152 13.8582ZM9.91455 1.69142L10.0464 2.0845L9.78274 1.89732L9.46261 2.14066L9.59443 1.74758L9.34962 1.42937H9.74507L9.85806 1.05501L9.98988 1.42937H10.3853L9.91455 1.69142ZM9.91455 5.02324L10.0464 5.3976L9.70741 5.17299L9.38729 5.3976L9.5191 5.02324L9.34962 4.76119H9.74507L9.85806 4.36811L9.98988 4.76119H10.3853L9.91455 5.02324ZM9.91455 8.35506L10.0464 8.72943L9.70741 8.50481L9.38729 8.72943L9.5191 8.35506L9.34962 8.07429H9.74507L9.85806 7.69993L9.98988 8.07429H10.3853L9.91455 8.35506ZM9.91455 11.7618L10.0464 12.1361L9.70741 11.8928L9.38729 12.1361L9.5191 11.7618L9.34962 11.481H9.74507L9.85806 11.1066L9.98988 11.481H10.3853L9.91455 11.7618ZM10.0464 15.3743L9.70741 15.1497L9.38729 15.3743L9.5191 15L9.34962 14.7379H9.74507L9.85806 14.3449L9.98988 14.7379H10.3853L9.98988 15L10.0464 15.3743ZM8.52106 3.20759L8.65288 3.58195L8.31392 3.35733L7.99379 3.58195L8.12561 3.20759L7.78665 2.96425H8.20094L8.31392 2.58989L8.44574 2.96425H8.84119L8.52106 3.20759ZM8.52106 6.633L8.65288 7.00736L8.31392 6.78274L7.99379 7.00736L8.12561 6.633L7.78665 6.40838H8.20094L8.31392 6.03402L8.44574 6.40838H8.84119L8.52106 6.633ZM8.52106 10.0023L8.65288 10.3766L8.33275 10.152L7.99379 10.3766L8.12561 10.0023L7.76782 9.75892H8.16327L8.29509 9.38456L8.40808 9.75892H8.82236L8.52106 10.0023ZM8.52106 13.7459L8.20094 13.5025L7.88081 13.7459L8.01263 13.3715L7.73016 13.1282H8.14444L8.25743 12.7538L8.38925 13.1282H8.78469L8.46457 13.3715L8.52106 13.7459ZM6.99575 4.98581L7.10874 5.36017L6.78861 5.13555L6.46849 5.36017L6.6003 4.98581L6.26135 4.76119H6.67563L6.78861 4.36811L6.92043 4.76119H7.31588L6.99575 4.98581ZM6.99575 8.31763L7.10874 8.69199L6.78861 8.46737L6.46849 8.69199L6.6003 8.31763L6.26135 8.07429H6.67563L6.78861 7.69993L6.92043 8.07429H7.31588L6.99575 8.31763ZM6.99575 11.7243L7.10874 12.0987L6.78861 11.8553L6.46849 12.0987L6.6003 11.7243L6.26135 11.481H6.67563L6.78861 11.1066L6.92043 11.481H7.31588L6.99575 11.7243ZM7.10874 15.3369L6.78861 15.1123L6.46849 15.3369L6.6003 14.9625L6.26135 14.7379H6.67563L6.78861 14.3449L6.92043 14.7379H7.31588L6.99575 15L7.10874 15.3369ZM5.58343 6.61428L5.69642 6.98864L5.37629 6.74531L5.05616 6.98864L5.16915 6.61428L4.84902 6.37095H5.20681L5.3198 5.99658L5.45161 6.37095H5.84706L5.58343 6.61428ZM5.58343 9.96482L5.71525 10.3392L5.39512 10.1146L5.05616 10.3392L5.18798 9.96482L4.86786 9.7402H5.26331L5.30097 9.38456L5.41395 9.77764H5.8094L5.58343 9.96482ZM5.58343 13.7084L5.26331 13.4838L4.94318 13.7084L5.05616 13.3341L4.73604 13.1282H5.13149L5.26331 12.7538L5.39512 13.1282H5.79057L5.47045 13.3715L5.58343 13.7084ZM12.6639 1.42937L12.7957 1.05501L12.9087 1.42937H13.323L12.984 1.65399L13.1158 2.04707L12.7957 1.89732L12.4567 2.14066L12.5885 1.74758L12.2684 1.52296L12.6639 1.42937ZM15.658 11.481L15.7898 11.1066L15.9216 11.481H16.3171L15.997 11.7243L16.1099 12.0987L15.7898 11.8553L15.4697 12.0987L15.5827 11.7243L15.2625 11.481H15.658ZM15.658 8.07429L15.7898 7.69993L15.9216 8.07429H16.3171L15.997 8.31763L16.1099 8.69199L15.7898 8.46737L15.4697 8.69199L15.5827 8.31763L15.2625 8.07429H15.658ZM15.658 4.76119L15.7898 4.36811L15.9216 4.76119H16.3171L15.997 4.98581L16.1099 5.36017L15.7898 5.13555L15.4697 5.36017L15.5827 4.98581L15.2625 4.76119H15.658ZM15.658 1.42937L15.7898 1.05501L15.9216 1.42937H16.3171L15.997 1.65399L16.1099 2.04707L15.7898 1.89732L15.4697 2.14066L15.5827 1.74758L15.2625 1.52296L15.658 1.42937ZM4.00163 8.31763L4.11462 8.69199L3.79449 8.46737L3.47436 8.69199L3.58735 8.31763L3.26722 8.07429H3.70034L3.83215 7.69993L3.94514 8.07429H4.35942L4.00163 8.31763ZM4.00163 11.7243L4.11462 12.0987L3.79449 11.8553L3.47436 12.0987L3.58735 11.7243L3.26722 11.481H3.70034L3.83215 11.1066L3.94514 11.481H4.35942L4.00163 11.7243ZM4.11462 15.3369L3.79449 15.1123L3.47436 15.3369L3.58735 14.9625L3.26722 14.7379H3.70034L3.83215 14.3449L3.94514 14.7379H4.35942L4.00163 15L4.11462 15.3369ZM2.49515 9.90866L2.60814 10.283L2.28801 10.0584L1.96789 10.283L2.08087 9.90866L1.81724 9.68405H2.23152L2.28801 9.38456L2.41983 9.77764H2.81528L2.49515 9.90866ZM2.58931 13.6523L2.26918 13.4089L1.93023 13.6523L2.06204 13.2779L1.81724 12.9971H2.21269L2.34451 12.6228L2.45749 12.9971H2.85294L2.53282 13.2405L2.58931 13.6523ZM1.12049 15.3743L0.800368 15.1497L0.46141 15.3743L0.593227 15L0.273101 14.7754H0.668551L0.800368 14.3823L0.913353 14.7754H1.3088L0.988677 15L1.12049 15.3743ZM17.2586 0.25013L15.8651 0.0255127L13.1158 0.193976C10.3577 0.543405 7.7507 1.64475 5.58343 3.37605V3.54451V3.45092C5.07716 3.84828 4.60478 4.28652 4.17111 4.76119H4.39708L4.07695 4.98581L4.18994 5.36017L3.86981 5.13555L3.70034 5.22914C3.39904 5.56607 3.11658 5.94043 2.83411 6.31479L2.62697 6.59556V6.85762L2.43866 6.74531C1.50454 8.17787 0.829047 9.76146 0.442579 11.4248H0.687382L0.819198 11.0505L0.932184 11.4248H1.32763L1.00751 11.6682L1.13932 12.0425L0.819198 11.7992L0.480241 12.0425L0.612058 11.6682L0.423748 11.5184C0.0538986 13.0302 -0.0669316 14.5916 0.06596 16.1418H17.2586V0.25013Z" fill="#073470"/>
</g>
<mask id="mask1_2907_40650" style="mask-type:alpha" maskUnits="userSpaceOnUse" x="0" y="0" width="30" height="30">
<path d="M15 30C23.2843 30 30 23.2843 30 15C30 6.71573 23.2843 0 15 0C6.71573 0 0 6.71573 0 15C0 23.2843 6.71573 30 15 30Z" fill="white"/>
</mask>
<g mask="url(#mask1_2907_40650)">
<path d="M15 30.5C23.5604 30.5 30.5 23.5604 30.5 15C30.5 6.43959 23.5604 -0.5 15 -0.5C6.43959 -0.5 -0.5 6.43959 -0.5 15C-0.5 23.5604 6.43959 30.5 15 30.5Z" stroke="white" stroke-opacity="0.6"/>
</g>
</svg>
