<svg width="30" height="30" viewBox="0 0 30 30" fill="none" xmlns="http://www.w3.org/2000/svg">
<path fill-rule="evenodd" clip-rule="evenodd" d="M16.4625 10.625C15.4875 10.45 14.5 10.45 13.525 10.6C13.1125 10.675 12.7125 10.4625 12.5375 10.1C12.075 10.1875 11.3625 10.4125 10.6125 10.9375C10.3 11.5875 9.2625 13.925 9.1875 16.75C9.45 17.05 10.1125 17.675 11.375 17.825L12.1625 16.9125C12.4 16.6375 12.7625 16.525 13.1125 16.6125C14.425 16.95 15.775 16.9375 17.0375 16.5875C17.425 16.475 17.8375 16.625 18.0625 16.9625L18.65 17.825C19.875 17.65 20.5375 17.05 20.8125 16.7375C20.7375 13.9125 19.675 11.575 19.35 10.9375C18.625 10.425 17.9375 10.2 17.4625 10.1C17.2875 10.475 16.875 10.7 16.4625 10.625ZM11.725 13.95C11.725 13.2375 12.3 12.6625 13 12.6625C13.7125 12.6625 14.2875 13.2375 14.2875 13.95C14.2875 14.65 13.7125 15.225 13 15.225C12.3 15.225 11.725 14.65 11.725 13.95ZM15.575 13.95C15.575 13.2375 16.15 12.6625 16.8625 12.6625C17.575 12.6625 18.15 13.2375 18.15 13.95C18.15 14.65 17.575 15.225 16.8625 15.225C16.15 15.225 15.575 14.65 15.575 13.95Z" fill="#5868EA"/>
<path fill-rule="evenodd" clip-rule="evenodd" d="M7.20157 2.5C5.21407 2.5 3.60156 4.11251 3.60156 6.10001V22.075C3.60156 23.9875 5.07657 25.4875 6.96407 25.4875H21.9141C22.4766 26 22.8391 26.325 23.7516 27.1125C24.0516 27.3625 24.414 27.5 24.789 27.5C25.014 27.5 25.2516 27.45 25.4641 27.35C26.0391 27.0875 26.4016 26.5375 26.4016 25.9V6.10001C26.4016 4.11251 24.789 2.5 22.8015 2.5H7.20157ZM18.189 19.7375C17.8765 19.7375 17.589 19.5875 17.414 19.325L16.8766 18.55C15.6891 18.7875 14.4391 18.8 13.2141 18.55L12.489 19.4125C12.3015 19.625 12.0141 19.7375 11.7391 19.7375C8.67657 19.625 7.48907 17.5875 7.43907 17.5C7.35157 17.3625 7.31406 17.2 7.31406 17.0375C7.31406 13.1 8.97654 9.9875 9.05154 9.8625C9.11404 9.75 9.20157 9.63749 9.31407 9.56249C11.2266 8.11249 13.089 8.15001 13.1515 8.15001C13.5015 8.16251 13.8016 8.36249 13.9641 8.66249C14.6391 8.59999 15.3141 8.6 15.9891 8.675C16.1516 8.3625 16.4516 8.16251 16.8016 8.15001C16.8641 8.15001 18.739 8.11249 20.6515 9.56249C20.7515 9.63749 20.8391 9.73751 20.9016 9.85001C20.9766 9.98751 22.689 13.0875 22.689 17.0375C22.689 17.2125 22.6515 17.375 22.564 17.525C22.514 17.6 21.2641 19.6375 18.2141 19.7375C18.2141 19.7375 18.2015 19.7375 18.189 19.7375Z" fill="#5868EA"/>
</svg>
