<svg width="30" height="30" viewBox="0 0 30 30" fill="none" xmlns="http://www.w3.org/2000/svg">
<path d="M27.5 21.425C27.5 24.775 24.775 27.5 21.425 27.5H19.7375V19.2625C19.7375 18.9125 20.025 18.6375 20.3625 18.6375H22.2C22.5125 18.6375 22.775 18.4 22.8125 18.0875L23.1 15.9375C23.15 15.5625 22.8625 15.225 22.4875 15.225H20.3625C20.025 15.225 19.7375 14.95 19.7375 14.6V13.075C19.7375 12.575 19.8375 12.175 20.0375 11.875C20.2875 11.575 20.7375 11.425 21.3875 11.425H22.575C22.9125 11.425 23.2 11.1375 23.2 10.8V8.975C23.2 8.65 22.9625 8.375 22.65 8.35C22.05 8.2875 21.35 8.2625 20.5875 8.2625C19.2375 8.2625 18.1875 8.6625 17.3875 9.4625C16.5875 10.2625 16.2375 11.325 16.2375 12.725V14.6C16.2375 14.95 15.95 15.225 15.6125 15.225H13.8C13.4625 15.225 13.175 15.5125 13.175 15.85V18.0125C13.175 18.35 13.4625 18.6375 13.8 18.6375H15.6125C15.95 18.6375 16.2375 18.9125 16.2375 19.2625V27.5H8.575C5.225 27.5 2.5 24.775 2.5 21.425V8.575C2.5 5.225 5.225 2.5 8.575 2.5H21.425C24.775 2.5 27.5 5.225 27.5 8.575V21.425Z" fill="#0172E5"/>
</svg>
