<svg width="30" height="30" viewBox="0 0 30 30" fill="none" xmlns="http://www.w3.org/2000/svg">
<mask id="mask0_2907_40699" style="mask-type:alpha" maskUnits="userSpaceOnUse" x="0" y="0" width="30" height="30">
<path d="M15 30C23.2843 30 30 23.2843 30 15C30 6.71573 23.2843 0 15 0C6.71573 0 0 6.71573 0 15C0 23.2843 6.71573 30 15 30Z" fill="white"/>
</mask>
<g mask="url(#mask0_2907_40699)">
<path d="M15 30C23.2843 30 30 23.2843 30 15C30 6.71573 23.2843 0 15 0C6.71573 0 0 6.71573 0 15C0 23.2843 6.71573 30 15 30Z" fill="#D80027"/>
<path d="M-4.38867 14.9999C-4.38867 25.7076 4.29158 34.3878 14.9992 34.3878C25.7068 34.3878 34.3871 25.7076 34.3871 14.9999C34.3871 4.29231 25.7068 -4.38794 14.9992 -4.38794C4.29158 -4.38794 -4.38867 4.29231 -4.38867 14.9999Z" fill="white"/>
<path d="M33.182 8.30004C30.3605 0.69876 23.1082 -4.34509 15.0002 -4.34509C6.89214 -4.34509 -0.360164 0.69876 -3.18164 8.30004H33.182Z" fill="#F2AB48"/>
<path d="M-3.18164 21.6333V21.7363C-0.350245 29.3511 6.92717 34.3941 15.0512 34.3711C23.1753 34.3481 30.4241 29.2639 33.2123 21.6333H-3.18164Z" fill="#009842"/>
<path d="M15 35C3.9543 35 -5 26.0457 -5 15C-5 3.9543 3.9543 -5 15 -5C26.0457 -5 35 3.9543 35 15C34.9866 26.0402 26.0402 34.9866 15 35ZM15 -4.39394C4.28902 -4.39394 -4.39394 4.28902 -4.39394 15C-4.39394 25.711 4.28902 34.3939 15 34.3939C25.711 34.3939 34.3939 25.711 34.3939 15C34.3939 9.85641 32.3507 4.92348 28.7136 1.28641C25.0765 -2.35066 20.1436 -4.39394 15 -4.39394Z" fill="#EEEEEE"/>
<path d="M19.6758 12.9878L19.8485 12.6848L20.1515 12.8575L19.9818 13.1606L19.6758 12.9878ZM20.3061 14.5636L20.0606 14.2606L20.3061 14.0121L20.5546 14.2606L20.3061 14.5636ZM20.2576 15.9454L20.0606 15.606L20.4061 15.4575L20.5546 15.7606L20.2576 15.9454ZM19.7303 16.9424L20.0637 16.8545L20.1515 17.1878L19.8182 17.2757L19.7303 16.9424Z" fill="#22297B"/>
<path d="M19.6754 12.9878L19.8481 12.6848L20.1512 12.8575L19.9815 13.1606L19.6754 12.9878ZM20.3057 14.5636L20.0603 14.2606L20.3057 14.0121L20.5542 14.2606L20.3057 14.5636ZM20.2572 15.9454L20.0603 15.606L20.4057 15.4575L20.5542 15.7606L20.2572 15.9454ZM19.73 16.9424L20.0633 16.8545L20.1512 17.1878L19.8178 17.2757L19.73 16.9424ZM14.0027 9.70297L14.2481 9.45752L14.4906 9.70297L14.2481 9.9454L14.0027 9.70297ZM15.4057 9.64843L15.7087 9.4757L15.8815 9.77873L15.5784 9.95146L15.4057 9.64843ZM17.2481 10.1727L16.9027 10.2696L16.8178 9.92419L17.1633 9.82722L17.2481 10.1727ZM18.036 10.5666H18.3815V10.9121H18.03L18.036 10.5666ZM19.3694 11.9484L19.0239 11.8515L19.1209 11.506L19.4663 11.603L19.3694 11.9484ZM19.1209 18.0696H19.4663V18.4151H19.1209V18.0696ZM18.1057 19.3757L18.1906 19.0424L18.5269 19.1302L18.4391 19.4636L18.1057 19.3757ZM16.8512 20.0424L16.9997 19.7393L17.3451 19.8878L17.1481 20.1909L16.8512 20.0424ZM15.4694 20.3454L15.7178 20.0969L16.0209 20.3454L15.7178 20.5909L15.4694 20.3454ZM14.0906 20.2878L14.3936 20.0909L14.5906 20.4363L14.2875 20.5848L14.0906 20.2878ZM12.7603 19.8939L13.1057 19.7969L13.1997 20.1515L12.8542 20.2484L12.7603 19.8939ZM11.5754 19.106H11.9209V19.4515H11.5724L11.5754 19.106ZM10.5694 18.4636L10.6603 18.1302L10.9936 18.2181L10.9027 18.5515L10.5694 18.4636ZM9.81784 17.1666L9.99057 16.8636L10.2936 17.0363L10.1209 17.3393L9.81784 17.1666ZM9.69966 15.503L9.94511 15.7484L9.69966 16.0515L9.45117 15.7484L9.69966 15.503ZM9.74814 14.1212L9.94511 14.4242L9.59966 14.6242L9.45117 14.3212L9.74814 14.1212ZM9.80269 12.8787L10.1512 12.7999L10.2391 13.1333L9.90572 13.2212L9.80269 12.8787ZM10.536 11.5939H10.8815V11.9393H10.536V11.5939ZM11.9178 10.6575L11.8178 11.003L11.4724 10.903L11.5724 10.5575L11.9178 10.6575ZM12.6633 10.1696L12.836 9.86661L13.1391 10.0393L12.9663 10.3424L12.6633 10.1696ZM14.8784 14.9999L15.0269 12.8787L14.8784 9.67873L14.73 12.8787L14.8784 14.9999ZM14.8784 14.9999L15.5694 12.9757L16.2603 9.86661L15.2724 12.9363L14.8784 14.9999ZM14.8784 14.9999L16.0633 13.2242L17.5421 10.409L15.8148 13.0757L14.8784 14.9999ZM14.8784 14.9999L16.5148 13.6272L18.636 11.2575L16.2663 13.3787L14.8784 14.9999ZM14.8784 14.9999L16.8178 14.0696L19.4815 12.3424L16.6694 13.8242L14.8784 14.9999ZM14.8784 14.9999L16.9997 14.606L20.0118 13.6181L16.9027 14.3181L14.8784 14.9999ZM14.8784 14.9999L16.9997 15.1484L20.2087 14.9999L16.9997 14.8605L14.8784 14.9999ZM14.8784 14.9999L16.9027 15.6909L20.0118 16.3818L16.9997 15.403L14.8784 14.9999ZM14.8784 14.9999L16.6542 16.1848L19.5178 17.6636L16.7906 15.9363L14.8784 14.9999ZM14.8784 14.9999L16.2603 16.6272L18.6845 18.7484L16.5148 16.3909L14.8784 14.9999ZM14.8784 14.9999L15.8148 16.9242L17.5421 19.5878L16.1118 16.7757L14.8784 14.9999ZM14.8784 14.9999L15.2724 17.0727L16.2603 20.1515L15.5694 17.0333L14.8784 14.9999ZM14.8784 14.9999L14.73 17.1212L14.8784 20.3302L15.0269 17.1212L14.8784 14.9999ZM14.8784 14.9999L14.1875 17.0242L13.5451 20.1515L14.4845 17.1212L14.8784 14.9999ZM14.8784 14.9999L13.6936 16.7757L12.2724 19.6484L13.9997 16.9212L14.8784 14.9999ZM14.8784 14.9999L13.2997 16.3818L11.1269 18.806L13.4845 16.6363L14.8784 14.9999ZM14.8784 14.9999L12.9542 15.9363L10.2875 17.6636L13.1512 16.2424L14.8784 14.9999ZM14.8784 14.9999L12.8057 15.3939L9.74511 16.3818L12.8542 15.6909L14.8784 14.9999ZM14.8784 14.9999L12.7572 14.8515L9.54511 14.9999L12.7542 15.1484L14.8784 14.9999ZM14.8784 14.9999L12.8542 14.309L9.74511 13.6757L12.8057 14.6151L14.8784 14.9999ZM14.8784 14.9999L13.1027 13.8151L10.2875 12.3939L12.9542 14.0696L14.8784 14.9999ZM14.8784 14.9999L13.4845 13.4302L11.1148 11.2575L13.236 13.6272L14.8784 14.9999ZM14.8784 14.9999L13.9391 13.0757L12.2118 10.409L13.6936 13.2727L14.8784 14.9999ZM14.8784 14.9999L14.4845 12.9272L13.4845 9.8757L14.1754 12.9848L14.8784 14.9999Z" fill="#22297B"/>
<path d="M13.5936 20.1909C11.4959 19.6343 9.94045 17.8686 9.65286 15.7175C9.36526 13.5664 10.4022 11.4541 12.28 10.366C14.1577 9.27786 16.506 9.4285 18.2293 10.7476C19.9526 12.0667 20.7112 14.2943 20.1511 16.3909C19.7916 17.7683 18.8964 18.9447 17.6648 19.6584C16.4331 20.3721 14.9673 20.5638 13.5936 20.1909ZM16.5572 9.18488C14.1991 8.56185 11.698 9.42134 10.2211 11.3623C8.7441 13.3032 8.58244 15.9429 9.81153 18.0496C11.0406 20.1562 13.4182 21.3145 15.8346 20.9838C18.2511 20.6532 20.2301 18.8988 20.8481 16.5394C21.6832 13.3251 19.7663 10.0397 16.5572 9.18488Z" fill="#22297B"/>
<path d="M16.0118 15.303C15.8918 15.7227 15.5308 16.0287 15.0972 16.0783C14.6636 16.128 14.2428 15.9114 14.0311 15.5297C13.8194 15.148 13.8586 14.6764 14.1304 14.3349C14.4021 13.9933 14.8529 13.8492 15.2724 13.9697C15.5534 14.0388 15.7928 14.2219 15.9332 14.4749C16.0735 14.728 16.102 15.0281 16.0118 15.303ZM17.2481 10.1697L16.9027 10.2667L16.8178 9.92424L17.1633 9.82727L17.2481 10.1697ZM18.036 10.5636H18.3815V10.9091H18.03L18.036 10.5636ZM19.3694 11.9455L19.0239 11.8485L19.1209 11.503L19.4663 11.6L19.3694 11.9455ZM19.1209 18.0667H19.4663V18.4121H19.1209V18.0667ZM18.1057 19.3727L18.1906 19.0394L18.5269 19.1273L18.4391 19.4606L18.1057 19.3727ZM16.8512 20.0394L16.9997 19.7364L17.3451 19.8848L17.1481 20.1879L16.8512 20.0394ZM15.4694 20.3424L15.7178 20.0939L16.0209 20.3424L15.7178 20.5879L15.4694 20.3424ZM14.0906 20.2879L14.3936 20.0909L14.5906 20.4364L14.2875 20.5849L14.0906 20.2879ZM12.7603 19.8939L13.1057 19.797L13.1997 20.1515L12.8542 20.2485L12.7603 19.8939ZM11.5754 19.1061H11.9209V19.4515H11.5724L11.5754 19.1061ZM10.5694 18.4636L10.6603 18.1303L10.9936 18.2182L10.9027 18.5515L10.5694 18.4636ZM9.81784 17.1667L9.99057 16.8636L10.2936 17.0364L10.1209 17.3394L9.81784 17.1667ZM9.69966 15.503L9.94511 15.7485L9.69966 16.0515L9.45117 15.7485L9.69966 15.503ZM9.74814 14.1212L9.94511 14.4242L9.59966 14.6242L9.45117 14.3212L9.74814 14.1212ZM9.80269 12.8788L10.1512 12.8L10.2391 13.1333L9.90572 13.2212L9.80269 12.8788ZM10.536 11.5939H10.8815V11.9394H10.536V11.5939ZM11.9178 10.6576L11.8178 11.003L11.4724 10.903L11.5724 10.5576L11.9178 10.6576ZM12.6633 10.1697L12.836 9.86667L13.1391 10.0394L12.9663 10.3424L12.6633 10.1697ZM14.0027 9.69394L14.2481 9.44849L14.4906 9.69394L14.2481 9.93637L14.0027 9.69394Z" fill="#22297B"/>
</g>
<mask id="mask1_2907_40699" style="mask-type:alpha" maskUnits="userSpaceOnUse" x="0" y="0" width="30" height="30">
<path d="M15 30C23.2843 30 30 23.2843 30 15C30 6.71573 23.2843 0 15 0C6.71573 0 0 6.71573 0 15C0 23.2843 6.71573 30 15 30Z" fill="white"/>
</mask>
<g mask="url(#mask1_2907_40699)">
<path d="M15 30.5C23.5604 30.5 30.5 23.5604 30.5 15C30.5 6.43959 23.5604 -0.5 15 -0.5C6.43959 -0.5 -0.5 6.43959 -0.5 15C-0.5 23.5604 6.43959 30.5 15 30.5Z" stroke="white"/>
</g>
</svg>
