<svg width="30" height="30" viewBox="0 0 30 30" fill="none" xmlns="http://www.w3.org/2000/svg">
<mask id="mask0_2907_40667" style="mask-type:alpha" maskUnits="userSpaceOnUse" x="0" y="0" width="30" height="30">
<path d="M15 30C23.2843 30 30 23.2843 30 15C30 6.71573 23.2843 0 15 0C6.71573 0 0 6.71573 0 15C0 23.2843 6.71573 30 15 30Z" fill="white"/>
</mask>
<g mask="url(#mask0_2907_40667)">
<path d="M15 30C23.2843 30 30 23.2843 30 15C30 6.71573 23.2843 0 15 0C6.71573 0 0 6.71573 0 15C0 23.2843 6.71573 30 15 30Z" fill="white"/>
<path d="M15.0009 0C6.71741 0 0 6.71569 0 15C0 23.2843 6.71741 30 15.0009 30C23.2844 30 30 23.2843 30 15C30 6.71569 23.2844 0 15.0009 0ZM26.1338 10.8741L25.396 11.3602L24.0439 9.35241L24.7816 8.86446L26.1338 10.8741ZM23.2355 17.2066L23.9732 17.6928L22.621 19.7023L21.8833 19.2144L23.2355 17.2066ZM21.8325 10.8127L22.5684 10.3265L23.9224 12.3361L23.1849 12.8223L21.8325 10.8127H21.8325ZM24.3429 17.9367L25.0788 18.4247L23.7267 20.4323L22.9891 19.9464L24.3429 17.9367H24.3429ZM23.1829 6.48979L24.5351 8.49941L23.7975 8.98736L22.4454 6.9777L23.1829 6.48975V6.48979ZM22.0772 7.21988L25.0281 11.6042L24.2904 12.0922L21.3395 7.70787L22.0772 7.21988ZM20.9715 7.95181L22.3237 9.96143L21.586 10.4476L20.2338 8.43796L20.9715 7.95181ZM9.93113 8.41085L6.98204 12.7934L6.24434 12.3072L9.1952 7.9229L9.93113 8.41085ZM8.82546 7.67892L5.87456 12.0633L5.13866 11.5771L8.08772 7.19277L8.82546 7.67892ZM7.26664 19.903L6.5289 20.3891L5.17672 18.3813L5.91443 17.8934L7.26664 19.903ZM6.98201 6.46084L7.71975 6.9488L4.76885 11.3331L4.03115 10.8452L6.98201 6.46084ZM7.02006 23.4958L4.06924 19.1114L4.80695 18.6235L7.75784 23.0078L7.0201 23.4958H7.02006ZM8.12758 22.7638L6.77356 20.7542L7.5113 20.2682L8.86348 22.2777L8.12758 22.7638ZM9.23325 22.0337L6.28239 17.6494L7.0201 17.1632L9.97099 21.5458L9.23329 22.0337H9.23325ZM19.2278 18.159C18.2798 19.3952 16.7881 20.1922 15.1094 20.1922C12.2401 20.1922 9.91658 17.8681 9.91658 15C9.91658 14.9783 9.91839 14.9584 9.91839 14.9386C10.1323 15.5476 10.5165 16.0916 11.0494 16.4458C12.3056 17.2789 14.0112 17.0006 14.941 15.7988C15.6842 14.6928 17.1905 14.3928 18.3034 15.1319C19.1825 15.7139 19.5613 17.0711 19.2278 18.159ZM18.559 14.7452C17.2358 13.8687 15.4413 14.2247 14.5677 15.5295C13.7937 16.5273 12.36 16.762 11.305 16.0608C10.3788 15.4464 9.97276 14.1018 10.3008 13.0392C10.3951 12.8097 10.5039 12.5891 10.6289 12.3777L10.9661 11.8699C11.914 10.6175 13.4167 9.80782 15.1078 9.80782C17.9771 9.80782 20.3009 12.1319 20.3009 15C20.3009 15.7879 20.1232 16.5361 19.8097 17.2048C19.7734 16.2217 19.3257 15.2548 18.559 14.7452ZM20.2863 21.5891L21.6385 19.5795L22.3745 20.0675L21.0222 22.0771L20.2863 21.5891ZM21.3902 22.3211L22.7442 20.3115L23.4819 20.7976L22.1279 22.8072L21.3902 22.3211ZM23.2354 23.5392L22.4979 23.0512L23.8501 21.0416L24.5876 21.5295L23.2354 23.5392ZM24.8341 21.1645L24.0964 20.6765L25.4486 18.6669L26.1863 19.1548L24.8341 21.1645Z" fill="white"/>
<path d="M19.1946 18.227C18.2291 19.4897 16.7097 20.3039 15 20.3039C12.0775 20.3039 9.71094 17.9297 9.71094 14.9999C9.71094 14.9778 9.71278 14.9574 9.71278 14.9372C9.93064 15.5593 10.322 16.115 10.8648 16.4768C12.1442 17.3279 13.8814 17.0436 14.8285 15.8159C15.5854 14.6861 17.1196 14.3796 18.2531 15.1347C19.1485 15.7291 19.5343 17.1156 19.1946 18.227Z" fill="#1200FF"/>
<path d="M20.2881 15.0001C20.2881 15.805 20.1072 16.5693 19.7878 17.2524C19.7509 16.2481 19.2949 15.2604 18.5139 14.7398C17.1663 13.8444 15.3386 14.2081 14.4487 15.541C13.6604 16.5602 12.2001 16.8001 11.1256 16.0837C10.1822 15.456 9.76869 14.0825 10.1028 12.997C10.1989 12.7625 10.3096 12.5373 10.437 12.3213L10.7804 11.8025C11.7459 10.5231 13.2764 9.69604 14.9989 9.69604C17.9213 9.69604 20.2881 12.0702 20.2881 15.0001Z" fill="#FF0000"/>
<path d="M26.2288 10.7851L25.4774 11.2818L24.1002 9.2307L24.8515 8.73224L26.2288 10.7851ZM24.6005 8.35933L23.8491 8.85779L22.4718 6.80485L23.2233 6.30639L24.6005 8.35933ZM25.1026 11.531L24.3512 12.0295L21.3457 7.55074L22.0971 7.05228L25.1026 11.531ZM22.3482 9.85288L21.5968 10.3495L20.2195 8.29655L20.9709 7.79993L22.3482 9.85288ZM23.9765 12.2787L23.2251 12.7753L21.8479 10.7224L22.5974 10.2258L23.9765 12.2787ZM22.3999 20.1766L21.0226 22.2295L20.2731 21.731L21.6503 19.6781L22.3999 20.1766ZM23.5279 20.9224L22.1488 22.9753L21.3974 22.4787L22.7765 20.4258L23.5279 20.9224ZM24.654 21.6701L23.2768 23.723L22.5254 23.2245L23.9026 21.1716L24.654 21.6701ZM26.2823 19.2442L24.9051 21.2972L24.1537 20.7987L25.5309 18.7458L26.2823 19.2442ZM25.1543 18.4984L23.7771 20.5495L23.0257 20.0528L24.4048 17.9999L25.1543 18.4984ZM24.0282 17.7507L22.6509 19.8036L21.8995 19.3051L23.2768 17.2541L24.0282 17.7507ZM7.01218 20.0086L6.26078 20.5051L4.88355 18.4541L5.63492 17.9556L7.01218 20.0086ZM8.63864 22.4344L7.8891 22.931L6.51001 20.8781L7.26141 20.3815L8.63864 22.4344ZM9.76663 21.6867L9.01526 22.1851L6.00971 17.7064L6.76108 17.2098L9.76663 21.6867ZM7.51248 23.1802L6.76108 23.6787L3.75556 19.1999L4.50693 18.7015L7.51248 23.1802ZM7.47372 6.77532L4.46817 11.2541L3.7168 10.7556L6.72228 6.27686L7.47372 6.77532ZM8.59987 7.52117L5.59432 11.9999L4.84479 11.5033L7.84847 7.02455L8.59987 7.52117ZM9.72603 8.26886L6.72231 12.7458L5.97094 12.2492L8.97646 7.7704L9.72603 8.26886Z" fill="black"/>
</g>
<mask id="mask1_2907_40667" style="mask-type:alpha" maskUnits="userSpaceOnUse" x="0" y="0" width="30" height="30">
<path d="M15 30C23.2843 30 30 23.2843 30 15C30 6.71573 23.2843 0 15 0C6.71573 0 0 6.71573 0 15C0 23.2843 6.71573 30 15 30Z" fill="white"/>
</mask>
<g mask="url(#mask1_2907_40667)">
<path d="M15 30.5C23.5604 30.5 30.5 23.5604 30.5 15C30.5 6.43959 23.5604 -0.5 15 -0.5C6.43959 -0.5 -0.5 6.43959 -0.5 15C-0.5 23.5604 6.43959 30.5 15 30.5Z" stroke="white" stroke-opacity="0.6"/>
</g>
</svg>
