<svg width="30" height="30" viewBox="0 0 30 30" fill="none" xmlns="http://www.w3.org/2000/svg">
<path fill-rule="evenodd" clip-rule="evenodd" d="M8.57498 2.5C5.22498 2.5 2.5 5.225 2.5 8.575V21.425C2.5 24.775 5.22498 27.5 8.57498 27.5H21.425C24.775 27.5 27.5 24.775 27.5 21.425V8.575C27.5 5.225 24.775 2.5 21.425 2.5H8.57498ZM22.075 20.15C22.0625 20.2 22.05 20.2625 22.0125 20.3125C21.9875 20.3625 21.9625 20.4125 21.925 20.4625C21.875 20.5125 21.8375 20.55 21.7875 20.6C21.775 20.6125 21.7625 20.6375 21.75 20.65C21.7125 20.675 21.6625 20.6875 21.625 20.7125C21.5875 20.7375 21.5625 20.75 21.525 20.7625C21.4125 20.8125 21.3 20.8375 21.1875 20.8375H18.7625C18.65 20.8375 18.5375 20.8125 18.425 20.7625C18.3875 20.75 18.3625 20.7375 18.325 20.7125C18.2875 20.6875 18.2375 20.675 18.2 20.65C18.1875 20.6375 18.175 20.6125 18.15 20.6C18.1125 20.55 18.075 20.5125 18.025 20.4625C17.9875 20.4125 17.9625 20.3625 17.9375 20.3125C17.9 20.2625 17.8875 20.2 17.875 20.15C17.8625 20.0875 17.8375 20.025 17.8375 19.9625C17.8375 19.9375 17.825 19.925 17.825 19.9C17.825 19.8625 17.8375 19.825 17.85 19.7875C17.85 19.725 17.8625 19.6625 17.8875 19.6C17.9 19.5375 17.925 19.4875 17.9625 19.4375C17.9875 19.4 17.9875 19.3625 18.0125 19.3375L18.9 18.1375C18.875 17.9875 18.8625 17.825 18.875 17.65V12.25C18.8375 11.925 18.925 11.5875 19.1375 11.2375L19.3 11.0375H18.25L15.875 16.65L15.8625 16.6625C15.85 16.7 15.8125 16.725 15.8 16.7625C15.7625 16.825 15.725 16.9 15.6625 16.9625C15.6 17.025 15.5125 17.075 15.425 17.125C15.4 17.1375 15.3875 17.15 15.3625 17.1625C15.225 17.2125 15.075 17.2375 14.925 17.225C14.825 17.2125 14.7375 17.2 14.6375 17.1625C14.6 17.15 14.575 17.1125 14.5375 17.1C14.475 17.0625 14.4 17.0125 14.3375 16.9625C14.275 16.9 14.2375 16.825 14.2 16.75C14.1875 16.725 14.15 16.7 14.1375 16.6625V16.65L11.75 11.0375H10.7125L10.8 11.15C11.0625 11.575 11.1625 11.925 11.125 12.2375V17.65C11.1375 17.8125 11.125 17.9875 11.1 18.1375L11.9875 19.3375C12.0125 19.3625 12.025 19.4 12.0375 19.425C12.075 19.4875 12.1 19.5375 12.125 19.6L12.1625 19.7875C12.1625 19.825 12.175 19.8625 12.175 19.9C12.175 19.925 12.1625 19.9375 12.1625 19.9625C12.1625 20.025 12.15 20.0875 12.125 20.15C12.1125 20.2 12.1 20.2625 12.075 20.3125C12.0375 20.3625 12.0125 20.4125 11.975 20.4625C11.9375 20.5125 11.8875 20.55 11.85 20.6C11.825 20.6125 11.8125 20.6375 11.8 20.65C11.7625 20.675 11.7125 20.6875 11.675 20.7125C11.6375 20.7375 11.6125 20.75 11.575 20.7625C11.4625 20.8125 11.35 20.8375 11.2375 20.8375H8.81248C8.69998 20.8375 8.58751 20.8125 8.48751 20.7625C8.45001 20.75 8.41252 20.7375 8.37502 20.7125C8.33752 20.6875 8.28751 20.675 8.25001 20.65C8.23751 20.6375 8.22501 20.6125 8.21251 20.6C8.16251 20.55 8.125 20.5125 8.0875 20.4625C8.05 20.4125 8.01252 20.3625 7.98752 20.3125C7.96252 20.2625 7.9375 20.2 7.925 20.15C7.9125 20.0875 7.8875 20.025 7.8875 19.9625C7.8875 19.9375 7.87498 19.925 7.87498 19.9C7.87498 19.8625 7.88751 19.825 7.90001 19.7875C7.90001 19.725 7.91251 19.6625 7.93751 19.6C7.95001 19.5375 7.9875 19.4875 8.0125 19.4375C8.0375 19.4 8.03752 19.3625 8.06252 19.3375L9.24999 17.7375V12.2125L8.2375 10.9375C8.1 10.775 8.02502 10.5625 8.02502 10.35V10.1C8.02502 9.5875 8.45002 9.1625 8.96252 9.1625H12.375C12.75 9.1625 13.0875 9.3875 13.2375 9.7375L15 13.9L16.7625 9.7375C16.9125 9.3875 17.25 9.1625 17.625 9.1625H21.0375C21.55 9.1625 21.975 9.5875 21.975 10.1V10.35C21.975 10.5625 21.9 10.775 21.7625 10.9375L20.75 12.2125V17.7375L21.9375 19.3375C21.9625 19.3625 21.9625 19.4 21.9875 19.425C22.0125 19.4875 22.05 19.5375 22.0625 19.6C22.0875 19.6625 22.1 19.725 22.1 19.7875C22.1125 19.825 22.125 19.8625 22.125 19.9C22.125 19.925 22.1125 19.9375 22.1125 19.9625C22.1125 20.025 22.0875 20.0875 22.075 20.15Z" fill="black"/>
</svg>
