<svg width="30" height="30" viewBox="0 0 30 30" fill="none" xmlns="http://www.w3.org/2000/svg">
<mask id="mask0_2907_40684" style="mask-type:alpha" maskUnits="userSpaceOnUse" x="0" y="0" width="30" height="30">
<path d="M15 30C23.2843 30 30 23.2843 30 15C30 6.71573 23.2843 0 15 0C6.71573 0 0 6.71573 0 15C0 23.2843 6.71573 30 15 30Z" fill="white"/>
</mask>
<g mask="url(#mask0_2907_40684)">
<path d="M15 30C23.2843 30 30 23.2843 30 15C30 6.71573 23.2843 0 15 0C6.71573 0 0 6.71573 0 15C0 23.2843 6.71573 30 15 30Z" fill="#957171"/>
<path d="M0 15C0 6.71573 6.71573 0 15 0C23.2843 0 30 6.71573 30 15C30 23.2843 23.2843 30 15 30C6.71573 30 0 23.2843 0 15Z" fill="white"/>
<path d="M14.8928 15L4 4.59745C6.22617 2.30584 8.99838 0.875313 11.9106 0.291992C16.601 -0.638543 21.6694 0.653095 25.3796 4.19468C28.4599 7.13906 30 11.0695 30 15H14.8928Z" fill="#0053A3"/>
<path d="M14.8928 15L4 25.4025C6.22617 27.6942 8.99838 29.1247 11.9106 29.708C16.601 30.6385 21.6694 29.3469 25.3796 25.8053C28.4599 22.8609 30 18.9305 30 15H14.8928Z" fill="#CC303C"/>
<path d="M4.30229 9.19868L3.79943 9.42384L3.45129 9L3.50287 9.54305L3 9.75497L3.52865 9.88742L3.56734 10.4305L3.83811 9.95364L4.36676 10.0993L4.00573 9.6755L4.30229 9.19868ZM8.37679 14.6821L8.59599 14.9338L8.28653 15.1854C8.06734 15.1457 7.82235 15.1325 7.60315 15.0927C7.38395 15.053 7.39685 15.1589 7.60315 15.1987C7.80946 15.2384 8.00287 15.2649 8.20917 15.3046C8.06734 15.4371 8.05444 15.4636 7.88682 15.4106C7.7063 15.3576 7.43553 15.1854 7.37106 15.3974C7.31948 15.543 7.21633 15.5828 7.35817 15.6623C7.46132 15.7152 7.56447 15.7947 7.66762 15.8344C7.84814 15.9404 7.84814 15.9404 7.88682 16.1656L7.42264 15.8477L7.21633 15.702C7.11318 15.6358 7.21633 15.8344 7.22923 15.8477C7.40974 16.0066 7.60315 16.1523 7.79656 16.3113C7.9384 16.4172 7.88682 16.5629 7.88682 16.7219L7.51289 16.7086C7.37106 16.5364 7.21633 16.3377 7.0745 16.1656C6.93266 15.9801 6.8682 16.0596 7.01003 16.2583C7.13897 16.4305 7.25501 16.5894 7.37106 16.7748C7.20344 16.7616 7.16476 16.7748 7.0745 16.6159C7.01003 16.5099 6.94556 16.404 6.89398 16.298C6.80373 16.1523 6.8553 16.1523 6.71347 16.245C6.57163 16.3113 6.44269 16.2583 6.46848 16.4305C6.50716 16.5629 6.53295 16.6556 6.55874 16.7881C6.61032 17 6.61032 17 6.46848 17.1987C6.4298 17.0132 6.40401 16.8278 6.36533 16.6291L6.31375 16.3642C6.30086 16.2318 6.2235 16.457 6.2235 16.4967C6.26218 16.7483 6.27507 17 6.31375 17.2384C6.32665 17.4106 6.2106 17.4636 6.09456 17.596L5.84957 17.2649C5.88825 17.0397 5.90115 16.7881 5.93983 16.5629C5.97851 16.3377 5.87536 16.351 5.83668 16.5629C5.79799 16.7748 5.77221 16.9735 5.73352 17.1854C5.63037 17.0397 5.5788 17.0265 5.63037 16.8543C5.66905 16.7219 5.69484 16.6291 5.72063 16.4967C5.75931 16.3377 5.7851 16.3642 5.63037 16.3113C5.48854 16.2583 5.42407 16.1391 5.33381 16.2715C5.28223 16.3775 5.20487 16.4834 5.16619 16.5894C5.06304 16.7748 5.03725 16.7748 4.84384 16.8013C4.94699 16.6424 5.05014 16.4967 5.16619 16.3377L5.30802 16.1258C5.37249 16.0199 5.17908 16.1258 5.16619 16.1391L4.70201 16.7219C4.59885 16.8675 4.45702 16.8146 4.30229 16.7881L4.35387 16.3775C4.53438 16.2318 4.7149 16.0993 4.90831 15.9536C5.10172 15.8079 5.01146 15.7417 4.84384 15.8874C4.67622 16.0199 4.52149 16.1126 4.34097 16.245C4.35387 16.0728 4.34097 16.0331 4.4957 15.9404C4.66332 15.8344 4.98567 15.7815 4.86963 15.5695C4.80516 15.4238 4.85673 15.3046 4.70201 15.3444C4.57307 15.3841 4.48281 15.4106 4.35387 15.4371C4.09599 15.5033 4.09599 15.5033 3.91547 15.3709C4.09599 15.3311 4.2765 15.3046 4.46991 15.2649L4.7149 15.2252C4.85673 15.2119 4.62464 15.1325 4.58596 15.1325C4.34097 15.1457 4.09599 15.1854 3.8639 15.1987C3.69628 15.2119 3.6447 15.0927 3.51576 14.9735L3.82521 14.7219C4.04441 14.7616 4.2894 14.7748 4.5086 14.8146C4.72779 14.8543 4.7149 14.7483 4.5086 14.7086C4.30229 14.6689 4.10888 14.6424 3.90258 14.6026C4.04441 14.4967 4.05731 14.4437 4.22493 14.4967C4.40544 14.5497 4.67622 14.7219 4.74069 14.5099C4.79226 14.3642 4.89542 14.3245 4.77937 14.2318C4.67622 14.1788 4.57307 14.0993 4.46991 14.0596C4.2894 13.9536 4.2894 13.9536 4.25072 13.7285L4.7149 14.0464L4.9212 14.1921C5.02436 14.2583 4.9212 14.0596 4.90831 14.0464C4.72779 13.8874 4.53438 13.7285 4.34097 13.5828C4.19914 13.4768 4.25072 13.3311 4.2765 13.1722L4.67622 13.2252C4.81805 13.4106 4.97278 13.596 5.11461 13.7947C5.25645 13.9801 5.32092 13.9007 5.17908 13.702C5.05014 13.5298 4.9341 13.3709 4.83095 13.1854C4.99857 13.1987 5.03725 13.1854 5.12751 13.3444C5.19198 13.4503 5.25645 13.5563 5.29513 13.6623C5.38539 13.8079 5.33381 13.8079 5.47564 13.7285C5.61748 13.6623 5.74642 13.7152 5.69484 13.5563C5.65616 13.4238 5.63037 13.3311 5.60458 13.1987C5.55301 12.9868 5.55301 12.9735 5.69484 12.7881C5.73352 12.9735 5.75931 13.1589 5.79799 13.3576L5.83668 13.6093C5.84957 13.755 5.92693 13.5166 5.92693 13.4768C5.91404 13.2252 5.87536 12.9735 5.86246 12.7351C5.84957 12.5629 5.96562 12.5099 6.10745 12.404L6.35244 12.7219C6.31375 12.947 6.28797 13.1987 6.26218 13.4238C6.2235 13.649 6.32665 13.6358 6.36533 13.4238C6.40401 13.2119 6.4298 13.0132 6.49427 12.8013C6.59742 12.947 6.6361 12.9603 6.59742 13.1325C6.55874 13.2649 6.53295 13.3576 6.49427 13.4901C6.45559 13.649 6.4298 13.6225 6.58453 13.6755C6.72636 13.7285 6.79083 13.8477 6.8553 13.7152C6.91977 13.6093 6.98424 13.5033 7.03582 13.3974C7.16476 13.2119 7.16476 13.2119 7.38395 13.1854C7.2808 13.3444 7.17765 13.4901 7.0616 13.649L6.91977 13.8609C6.8553 13.9669 7.04871 13.8609 7.0616 13.8477L7.52579 13.2649C7.62894 13.1192 7.77077 13.1987 7.9255 13.1987L7.86103 13.5563C7.68052 13.702 7.5 13.8344 7.30659 13.9801C7.12607 14.1258 7.20344 14.1656 7.37106 14.0464C7.53868 13.9139 7.7192 13.8212 7.87393 13.6887C7.86103 13.8609 7.87393 13.9007 7.7192 13.9934C7.55158 14.0993 7.22923 14.1523 7.34527 14.3642C7.40974 14.4967 7.35817 14.6291 7.51289 14.5762C7.64183 14.5364 7.73209 14.5099 7.86103 14.4834C8.06734 14.4305 8.06734 14.4305 8.26075 14.5762C8.10602 14.6159 7.95129 14.6291 7.79656 14.6689L7.53868 14.7219C7.5 14.7219 7.37106 14.8543 7.48711 14.8278L8.37679 14.6821ZM10.6719 14.5497L10.9814 15L10.6719 15.4503L11.1748 15.2781L11.4842 15.7417V15.1987L12 15.0265L11.4971 14.8675V14.298L11.1748 14.7616L10.6719 14.5497ZM4.30229 20.8013L3.79943 20.5762L3.45129 21L3.50287 20.457L3.01289 20.2185L3.54155 20.1126L3.58023 19.5695L3.851 20.0464L4.37966 19.9139L4.01862 20.3245L4.30229 20.8013Z" fill="#FAD400"/>
</g>
<mask id="mask1_2907_40684" style="mask-type:alpha" maskUnits="userSpaceOnUse" x="0" y="0" width="30" height="30">
<path d="M15 30C23.2843 30 30 23.2843 30 15C30 6.71573 23.2843 0 15 0C6.71573 0 0 6.71573 0 15C0 23.2843 6.71573 30 15 30Z" fill="white"/>
</mask>
<g mask="url(#mask1_2907_40684)">
<path d="M15 30.5C23.5604 30.5 30.5 23.5604 30.5 15C30.5 6.43959 23.5604 -0.5 15 -0.5C6.43959 -0.5 -0.5 6.43959 -0.5 15C-0.5 23.5604 6.43959 30.5 15 30.5Z" stroke="white"/>
</g>
</svg>
