<svg width="30" height="30" viewBox="0 0 30 30" fill="none" xmlns="http://www.w3.org/2000/svg">
<mask id="mask0_2907_40635" style="mask-type:alpha" maskUnits="userSpaceOnUse" x="0" y="0" width="30" height="30">
<path d="M15 30C23.2843 30 30 23.2843 30 15C30 6.71573 23.2843 0 15 0C6.71573 0 0 6.71573 0 15C0 23.2843 6.71573 30 15 30Z" fill="white"/>
</mask>
<g mask="url(#mask0_2907_40635)">
<path d="M15 30C23.2843 30 30 23.2843 30 15C30 6.71573 23.2843 0 15 0C6.71573 0 0 6.71573 0 15C0 23.2843 6.71573 30 15 30Z" fill="#D80027"/>
<path d="M-4 15C-4 25.4934 4.50659 34 15 34C25.4934 34 34 25.4934 34 15C34 4.50659 25.4934 -4 15 -4C4.50659 -4 -4 4.50659 -4 15Z" fill="white"/>
<path d="M-4 15C-4 17.6125 -3.525 19.9875 -2.575 22.125H32.575C33.525 19.9875 34 17.375 34 15C34 12.8625 33.525 10.725 32.8125 8.58752H-2.8125C-3.525 10.725 -4 12.8625 -4 15Z" fill="#001EF1"/>
<path d="M-2.57422 22.125C0.275781 29.0125 7.16328 34 15.0008 34C22.8383 34 29.7258 29.0125 32.5758 22.125H-2.57422Z" fill="#EA3224"/>
</g>
<mask id="mask1_2907_40635" style="mask-type:alpha" maskUnits="userSpaceOnUse" x="0" y="0" width="30" height="30">
<path d="M15 30C23.2843 30 30 23.2843 30 15C30 6.71573 23.2843 0 15 0C6.71573 0 0 6.71573 0 15C0 23.2843 6.71573 30 15 30Z" fill="white"/>
</mask>
<g mask="url(#mask1_2907_40635)">
<path d="M15 30.5C23.5604 30.5 30.5 23.5604 30.5 15C30.5 6.43959 23.5604 -0.5 15 -0.5C6.43959 -0.5 -0.5 6.43959 -0.5 15C-0.5 23.5604 6.43959 30.5 15 30.5Z" stroke="white"/>
</g>
</svg>
