<svg width="30" height="30" viewBox="0 0 30 30" fill="none" xmlns="http://www.w3.org/2000/svg">
<path fill-rule="evenodd" clip-rule="evenodd" d="M2.5 15C2.5 21.9 8.1 27.5 15 27.5C21.9 27.5 27.5 21.9 27.5 15C27.5 8.1 21.9 2.5 15 2.5C8.1 2.5 2.5 8.1 2.5 15ZM18.8 19.625C18.6625 20.275 18.2875 20.4125 17.725 20.1375C16.85 19.5375 15.9625 18.95 15.075 18.3625C14.8625 18.2125 14.5625 18.225 14.35 18.3875L13.1125 19.3375C12.7625 18.4 12.4 17.4625 12.0375 16.5375C11.975 16.3625 11.85 16.225 11.675 16.1625C11 15.925 9.46249 15.375 8.58749 15C8.43749 14.9375 8.17501 14.8125 8.15001 14.625C8.13751 14.4375 8.32499 14.225 8.72499 14.075L19.875 9.7875C20.3875 9.6 20.85 9.925 20.6625 10.6625L18.8 19.625Z" fill="#31AFEC"/>
</svg>
