<svg width="30" height="30" viewBox="0 0 30 30" fill="none" xmlns="http://www.w3.org/2000/svg">
<path fill-rule="evenodd" clip-rule="evenodd" d="M8.575 2.5C5.225 2.5 2.5 5.225 2.5 8.575V21.425C2.5 24.775 5.225 27.5 8.575 27.5H21.425C24.775 27.5 27.5 24.775 27.5 21.425V8.575C27.5 5.225 24.775 2.5 21.425 2.5H8.575ZM18.7 19.3C15.875 21.825 11.2875 21.9375 7.925 19.3125C8.175 19.35 8.40001 19.3625 8.60001 19.35C10.1875 19.2875 11.275 18.025 11.6125 17.6C11.025 17.0875 10.1125 16.1875 9.475 14.8C8.575 12.875 8.6625 11.0625 8.8125 10.0375C8.85 9.8375 9.09999 9.7625 9.24999 9.925C9.71249 10.45 10.4625 11.1625 11.5625 11.675C12.75 12.225 13.825 12.325 14.4375 12.325C14.4 10.8375 15.2875 9.5 16.625 8.9875C17.8 8.525 19.1625 8.78749 20.125 9.66249C20.775 9.63749 21.425 9.62499 22.075 9.59999C21.7125 10.1 21.35 10.5875 20.9875 11.0875C21.7625 14.1375 20.9 17.3375 18.7 19.3Z" fill="#1DA1F1"/>
</svg>
