<svg width="30" height="30" viewBox="0 0 30 30" fill="none" xmlns="http://www.w3.org/2000/svg">
<mask id="mask0_2907_40720" style="mask-type:alpha" maskUnits="userSpaceOnUse" x="0" y="0" width="30" height="30">
<path d="M15 30C23.2843 30 30 23.2843 30 15C30 6.71573 23.2843 0 15 0C6.71573 0 0 6.71573 0 15C0 23.2843 6.71573 30 15 30Z" fill="white"/>
</mask>
<g mask="url(#mask0_2907_40720)">
<path d="M15 30C23.2843 30 30 23.2843 30 15C30 6.71573 23.2843 0 15 0C6.71573 0 0 6.71573 0 15C0 23.2843 6.71573 30 15 30Z" fill="#D80027"/>
<path d="M15.0002 7.60864L16.8348 13.2551H22.7719L17.9687 16.7447L19.8033 22.3913L15.0002 18.9016L10.197 22.3913L12.0317 16.7447L7.22852 13.2551H13.1655L15.0002 7.60864Z" fill="#FFDA44"/>
</g>
<mask id="mask1_2907_40720" style="mask-type:alpha" maskUnits="userSpaceOnUse" x="0" y="0" width="30" height="30">
<path d="M15 30C23.2843 30 30 23.2843 30 15C30 6.71573 23.2843 0 15 0C6.71573 0 0 6.71573 0 15C0 23.2843 6.71573 30 15 30Z" fill="white"/>
</mask>
<g mask="url(#mask1_2907_40720)">
<path d="M15 30.5C23.5604 30.5 30.5 23.5604 30.5 15C30.5 6.43959 23.5604 -0.5 15 -0.5C6.43959 -0.5 -0.5 6.43959 -0.5 15C-0.5 23.5604 6.43959 30.5 15 30.5Z" stroke="white"/>
</g>
</svg>
