<svg width="30" height="30" viewBox="0 0 30 30" fill="none" xmlns="http://www.w3.org/2000/svg">
<path fill-rule="evenodd" clip-rule="evenodd" d="M15.025 5.94995C14.275 5.94995 7.6125 5.96246 5.7375 6.48746C4.425 6.82496 3.37499 7.89996 3.03749 9.19996C2.51249 11.0875 2.5 14.8875 2.5 15.0375C2.5 15.2 2.51249 18.9499 3.03749 20.8499C3.36249 22.1749 4.4 23.2125 5.7375 23.5625C7.625 24.0375 14.275 24.05 15.025 24.05C15.775 24.05 22.375 24.0375 24.2625 23.5625C25.6 23.2125 26.6375 22.175 26.9625 20.875C27.5 18.95 27.5 15.2 27.5 15.0375C27.5 14.8875 27.5 11.1 26.9625 9.22496C26.625 7.89996 25.5625 6.82496 24.275 6.48746C22.3875 5.96246 15.775 5.94995 15.025 5.94995ZM12.3 18.9749C11.8 18.6749 11.4875 18.15 11.4875 17.5499V12.525C11.4875 11.9375 11.8 11.4125 12.3 11.1125C12.8125 10.825 13.425 10.8125 13.9375 11.1125L18.3375 13.625C18.85 13.9125 19.1625 14.4625 19.1625 15.0375C19.1625 15.625 18.85 16.175 18.3375 16.4625L13.9375 18.9749C13.675 19.1249 13.4 19.1875 13.125 19.1875C12.8375 19.1875 12.5625 19.1124 12.3 18.9749Z" fill="#EA3123"/>
</svg>
